G04 #@! TF.GenerationSoftware,KiCad,Pcbnew,(6.0.7)*
G04 #@! TF.CreationDate,2022-09-24T12:12:59+09:00*
G04 #@! TF.ProjectId,corne-cherry,636f726e-652d-4636-9865-7272792e6b69,3.0.1*
G04 #@! TF.SameCoordinates,Original*
G04 #@! TF.FileFunction,Legend,Top*
G04 #@! TF.FilePolarity,Positive*
%FSLAX46Y46*%
G04 Gerber Fmt 4.6, Leading zero omitted, Abs format (unit mm)*
G04 Created by KiCad (PCBNEW (6.0.7)) date 2022-09-24 12:12:59*
%MOMM*%
%LPD*%
G01*
G04 APERTURE LIST*
%ADD10C,0.125000*%
%ADD11C,0.150000*%
%ADD12C,0.010000*%
G04 APERTURE END LIST*
D10*
X212723273Y-58687142D02*
X212675654Y-58734761D01*
X212532797Y-58782380D01*
X212437559Y-58782380D01*
X212294702Y-58734761D01*
X212199464Y-58639523D01*
X212151845Y-58544285D01*
X212104226Y-58353809D01*
X212104226Y-58210952D01*
X212151845Y-58020476D01*
X212199464Y-57925238D01*
X212294702Y-57830000D01*
X212437559Y-57782380D01*
X212532797Y-57782380D01*
X212675654Y-57830000D01*
X212723273Y-57877619D01*
X213294702Y-58782380D02*
X213199464Y-58734761D01*
X213151845Y-58687142D01*
X213104226Y-58591904D01*
X213104226Y-58306190D01*
X213151845Y-58210952D01*
X213199464Y-58163333D01*
X213294702Y-58115714D01*
X213437559Y-58115714D01*
X213532797Y-58163333D01*
X213580416Y-58210952D01*
X213628035Y-58306190D01*
X213628035Y-58591904D01*
X213580416Y-58687142D01*
X213532797Y-58734761D01*
X213437559Y-58782380D01*
X213294702Y-58782380D01*
X214056607Y-58782380D02*
X214056607Y-58115714D01*
X214056607Y-58306190D02*
X214104226Y-58210952D01*
X214151845Y-58163333D01*
X214247083Y-58115714D01*
X214342321Y-58115714D01*
X214675654Y-58115714D02*
X214675654Y-58782380D01*
X214675654Y-58210952D02*
X214723273Y-58163333D01*
X214818511Y-58115714D01*
X214961369Y-58115714D01*
X215056607Y-58163333D01*
X215104226Y-58258571D01*
X215104226Y-58782380D01*
X215961369Y-58734761D02*
X215866130Y-58782380D01*
X215675654Y-58782380D01*
X215580416Y-58734761D01*
X215532797Y-58639523D01*
X215532797Y-58258571D01*
X215580416Y-58163333D01*
X215675654Y-58115714D01*
X215866130Y-58115714D01*
X215961369Y-58163333D01*
X216008988Y-58258571D01*
X216008988Y-58353809D01*
X215532797Y-58449047D01*
X217770892Y-58687142D02*
X217723273Y-58734761D01*
X217580416Y-58782380D01*
X217485178Y-58782380D01*
X217342321Y-58734761D01*
X217247083Y-58639523D01*
X217199464Y-58544285D01*
X217151845Y-58353809D01*
X217151845Y-58210952D01*
X217199464Y-58020476D01*
X217247083Y-57925238D01*
X217342321Y-57830000D01*
X217485178Y-57782380D01*
X217580416Y-57782380D01*
X217723273Y-57830000D01*
X217770892Y-57877619D01*
X218199464Y-58782380D02*
X218199464Y-57782380D01*
X218628035Y-58782380D02*
X218628035Y-58258571D01*
X218580416Y-58163333D01*
X218485178Y-58115714D01*
X218342321Y-58115714D01*
X218247083Y-58163333D01*
X218199464Y-58210952D01*
X219485178Y-58734761D02*
X219389940Y-58782380D01*
X219199464Y-58782380D01*
X219104226Y-58734761D01*
X219056607Y-58639523D01*
X219056607Y-58258571D01*
X219104226Y-58163333D01*
X219199464Y-58115714D01*
X219389940Y-58115714D01*
X219485178Y-58163333D01*
X219532797Y-58258571D01*
X219532797Y-58353809D01*
X219056607Y-58449047D01*
X219961369Y-58782380D02*
X219961369Y-58115714D01*
X219961369Y-58306190D02*
X220008988Y-58210952D01*
X220056607Y-58163333D01*
X220151845Y-58115714D01*
X220247083Y-58115714D01*
X220580416Y-58782380D02*
X220580416Y-58115714D01*
X220580416Y-58306190D02*
X220628035Y-58210952D01*
X220675654Y-58163333D01*
X220770892Y-58115714D01*
X220866130Y-58115714D01*
X221104226Y-58115714D02*
X221342321Y-58782380D01*
X221580416Y-58115714D02*
X221342321Y-58782380D01*
X221247083Y-59020476D01*
X221199464Y-59068095D01*
X221104226Y-59115714D01*
X222675654Y-58496666D02*
X223151845Y-58496666D01*
X222580416Y-58782380D02*
X222913750Y-57782380D01*
X223247083Y-58782380D01*
X223532797Y-58734761D02*
X223628035Y-58782380D01*
X223818511Y-58782380D01*
X223913750Y-58734761D01*
X223961369Y-58639523D01*
X223961369Y-58591904D01*
X223913750Y-58496666D01*
X223818511Y-58449047D01*
X223675654Y-58449047D01*
X223580416Y-58401428D01*
X223532797Y-58306190D01*
X223532797Y-58258571D01*
X223580416Y-58163333D01*
X223675654Y-58115714D01*
X223818511Y-58115714D01*
X223913750Y-58163333D01*
X224342321Y-58734761D02*
X224437559Y-58782380D01*
X224628035Y-58782380D01*
X224723273Y-58734761D01*
X224770892Y-58639523D01*
X224770892Y-58591904D01*
X224723273Y-58496666D01*
X224628035Y-58449047D01*
X224485178Y-58449047D01*
X224389940Y-58401428D01*
X224342321Y-58306190D01*
X224342321Y-58258571D01*
X224389940Y-58163333D01*
X224485178Y-58115714D01*
X224628035Y-58115714D01*
X224723273Y-58163333D01*
X225580416Y-58734761D02*
X225485178Y-58782380D01*
X225294702Y-58782380D01*
X225199464Y-58734761D01*
X225151845Y-58639523D01*
X225151845Y-58258571D01*
X225199464Y-58163333D01*
X225294702Y-58115714D01*
X225485178Y-58115714D01*
X225580416Y-58163333D01*
X225628035Y-58258571D01*
X225628035Y-58353809D01*
X225151845Y-58449047D01*
X226056607Y-58782380D02*
X226056607Y-58115714D01*
X226056607Y-58210952D02*
X226104226Y-58163333D01*
X226199464Y-58115714D01*
X226342321Y-58115714D01*
X226437559Y-58163333D01*
X226485178Y-58258571D01*
X226485178Y-58782380D01*
X226485178Y-58258571D02*
X226532797Y-58163333D01*
X226628035Y-58115714D01*
X226770892Y-58115714D01*
X226866130Y-58163333D01*
X226913750Y-58258571D01*
X226913750Y-58782380D01*
X227389940Y-58782380D02*
X227389940Y-57782380D01*
X227389940Y-58163333D02*
X227485178Y-58115714D01*
X227675654Y-58115714D01*
X227770892Y-58163333D01*
X227818511Y-58210952D01*
X227866130Y-58306190D01*
X227866130Y-58591904D01*
X227818511Y-58687142D01*
X227770892Y-58734761D01*
X227675654Y-58782380D01*
X227485178Y-58782380D01*
X227389940Y-58734761D01*
X228437559Y-58782380D02*
X228342321Y-58734761D01*
X228294702Y-58639523D01*
X228294702Y-57782380D01*
X229199464Y-58734761D02*
X229104226Y-58782380D01*
X228913750Y-58782380D01*
X228818511Y-58734761D01*
X228770892Y-58639523D01*
X228770892Y-58258571D01*
X228818511Y-58163333D01*
X228913750Y-58115714D01*
X229104226Y-58115714D01*
X229199464Y-58163333D01*
X229247083Y-58258571D01*
X229247083Y-58353809D01*
X228770892Y-58449047D01*
X230104226Y-58782380D02*
X230104226Y-57782380D01*
X230104226Y-58734761D02*
X230008988Y-58782380D01*
X229818511Y-58782380D01*
X229723273Y-58734761D01*
X229675654Y-58687142D01*
X229628035Y-58591904D01*
X229628035Y-58306190D01*
X229675654Y-58210952D01*
X229723273Y-58163333D01*
X229818511Y-58115714D01*
X230008988Y-58115714D01*
X230104226Y-58163333D01*
X231342321Y-58782380D02*
X231342321Y-57782380D01*
X231342321Y-58163333D02*
X231437559Y-58115714D01*
X231628035Y-58115714D01*
X231723273Y-58163333D01*
X231770892Y-58210952D01*
X231818511Y-58306190D01*
X231818511Y-58591904D01*
X231770892Y-58687142D01*
X231723273Y-58734761D01*
X231628035Y-58782380D01*
X231437559Y-58782380D01*
X231342321Y-58734761D01*
X232151845Y-58115714D02*
X232389940Y-58782380D01*
X232628035Y-58115714D02*
X232389940Y-58782380D01*
X232294702Y-59020476D01*
X232247083Y-59068095D01*
X232151845Y-59115714D01*
X233628035Y-57782380D02*
X234199464Y-57782380D01*
X233913750Y-58782380D02*
X233913750Y-57782380D01*
X234961369Y-58782380D02*
X234961369Y-58258571D01*
X234913750Y-58163333D01*
X234818511Y-58115714D01*
X234628035Y-58115714D01*
X234532797Y-58163333D01*
X234961369Y-58734761D02*
X234866130Y-58782380D01*
X234628035Y-58782380D01*
X234532797Y-58734761D01*
X234485178Y-58639523D01*
X234485178Y-58544285D01*
X234532797Y-58449047D01*
X234628035Y-58401428D01*
X234866130Y-58401428D01*
X234961369Y-58353809D01*
X235818511Y-58734761D02*
X235723273Y-58782380D01*
X235532797Y-58782380D01*
X235437559Y-58734761D01*
X235389940Y-58639523D01*
X235389940Y-58258571D01*
X235437559Y-58163333D01*
X235532797Y-58115714D01*
X235723273Y-58115714D01*
X235818511Y-58163333D01*
X235866130Y-58258571D01*
X235866130Y-58353809D01*
X235389940Y-58449047D01*
X236294702Y-58782380D02*
X236294702Y-57782380D01*
X236723273Y-58782380D02*
X236723273Y-58258571D01*
X236675654Y-58163333D01*
X236580416Y-58115714D01*
X236437559Y-58115714D01*
X236342321Y-58163333D01*
X236294702Y-58210952D01*
X237104226Y-58115714D02*
X237342321Y-58782380D01*
X237580416Y-58115714D02*
X237342321Y-58782380D01*
X237247083Y-59020476D01*
X237199464Y-59068095D01*
X237104226Y-59115714D01*
X238342321Y-58734761D02*
X238247083Y-58782380D01*
X238056607Y-58782380D01*
X237961369Y-58734761D01*
X237913750Y-58639523D01*
X237913750Y-58258571D01*
X237961369Y-58163333D01*
X238056607Y-58115714D01*
X238247083Y-58115714D01*
X238342321Y-58163333D01*
X238389940Y-58258571D01*
X238389940Y-58353809D01*
X237913750Y-58449047D01*
X238961369Y-58782380D02*
X238866130Y-58734761D01*
X238818511Y-58687142D01*
X238770892Y-58591904D01*
X238770892Y-58306190D01*
X238818511Y-58210952D01*
X238866130Y-58163333D01*
X238961369Y-58115714D01*
X239104226Y-58115714D01*
X239199464Y-58163333D01*
X239247083Y-58210952D01*
X239294702Y-58306190D01*
X239294702Y-58591904D01*
X239247083Y-58687142D01*
X239199464Y-58734761D01*
X239104226Y-58782380D01*
X238961369Y-58782380D01*
X239723273Y-58115714D02*
X239723273Y-58782380D01*
X239723273Y-58210952D02*
X239770892Y-58163333D01*
X239866130Y-58115714D01*
X240008988Y-58115714D01*
X240104226Y-58163333D01*
X240151845Y-58258571D01*
X240151845Y-58782380D01*
X241056607Y-58115714D02*
X241056607Y-58925238D01*
X241008988Y-59020476D01*
X240961369Y-59068095D01*
X240866130Y-59115714D01*
X240723273Y-59115714D01*
X240628035Y-59068095D01*
X241056607Y-58734761D02*
X240961369Y-58782380D01*
X240770892Y-58782380D01*
X240675654Y-58734761D01*
X240628035Y-58687142D01*
X240580416Y-58591904D01*
X240580416Y-58306190D01*
X240628035Y-58210952D01*
X240675654Y-58163333D01*
X240770892Y-58115714D01*
X240961369Y-58115714D01*
X241056607Y-58163333D01*
X242294702Y-58782380D02*
X242294702Y-57782380D01*
X242866130Y-58782380D02*
X242437559Y-58210952D01*
X242866130Y-57782380D02*
X242294702Y-58353809D01*
X243294702Y-58782380D02*
X243294702Y-58115714D01*
X243294702Y-57782380D02*
X243247083Y-57830000D01*
X243294702Y-57877619D01*
X243342321Y-57830000D01*
X243294702Y-57782380D01*
X243294702Y-57877619D01*
X243770892Y-58782380D02*
X243770892Y-58115714D01*
X243770892Y-58210952D02*
X243818511Y-58163333D01*
X243913750Y-58115714D01*
X244056607Y-58115714D01*
X244151845Y-58163333D01*
X244199464Y-58258571D01*
X244199464Y-58782380D01*
X244199464Y-58258571D02*
X244247083Y-58163333D01*
X244342321Y-58115714D01*
X244485178Y-58115714D01*
X244580416Y-58163333D01*
X244628035Y-58258571D01*
X244628035Y-58782380D01*
X51173273Y-58687142D02*
X51125654Y-58734761D01*
X50982797Y-58782380D01*
X50887559Y-58782380D01*
X50744702Y-58734761D01*
X50649464Y-58639523D01*
X50601845Y-58544285D01*
X50554226Y-58353809D01*
X50554226Y-58210952D01*
X50601845Y-58020476D01*
X50649464Y-57925238D01*
X50744702Y-57830000D01*
X50887559Y-57782380D01*
X50982797Y-57782380D01*
X51125654Y-57830000D01*
X51173273Y-57877619D01*
X51744702Y-58782380D02*
X51649464Y-58734761D01*
X51601845Y-58687142D01*
X51554226Y-58591904D01*
X51554226Y-58306190D01*
X51601845Y-58210952D01*
X51649464Y-58163333D01*
X51744702Y-58115714D01*
X51887559Y-58115714D01*
X51982797Y-58163333D01*
X52030416Y-58210952D01*
X52078035Y-58306190D01*
X52078035Y-58591904D01*
X52030416Y-58687142D01*
X51982797Y-58734761D01*
X51887559Y-58782380D01*
X51744702Y-58782380D01*
X52506607Y-58782380D02*
X52506607Y-58115714D01*
X52506607Y-58306190D02*
X52554226Y-58210952D01*
X52601845Y-58163333D01*
X52697083Y-58115714D01*
X52792321Y-58115714D01*
X53125654Y-58115714D02*
X53125654Y-58782380D01*
X53125654Y-58210952D02*
X53173273Y-58163333D01*
X53268511Y-58115714D01*
X53411369Y-58115714D01*
X53506607Y-58163333D01*
X53554226Y-58258571D01*
X53554226Y-58782380D01*
X54411369Y-58734761D02*
X54316130Y-58782380D01*
X54125654Y-58782380D01*
X54030416Y-58734761D01*
X53982797Y-58639523D01*
X53982797Y-58258571D01*
X54030416Y-58163333D01*
X54125654Y-58115714D01*
X54316130Y-58115714D01*
X54411369Y-58163333D01*
X54458988Y-58258571D01*
X54458988Y-58353809D01*
X53982797Y-58449047D01*
X56220892Y-58687142D02*
X56173273Y-58734761D01*
X56030416Y-58782380D01*
X55935178Y-58782380D01*
X55792321Y-58734761D01*
X55697083Y-58639523D01*
X55649464Y-58544285D01*
X55601845Y-58353809D01*
X55601845Y-58210952D01*
X55649464Y-58020476D01*
X55697083Y-57925238D01*
X55792321Y-57830000D01*
X55935178Y-57782380D01*
X56030416Y-57782380D01*
X56173273Y-57830000D01*
X56220892Y-57877619D01*
X56649464Y-58782380D02*
X56649464Y-57782380D01*
X57078035Y-58782380D02*
X57078035Y-58258571D01*
X57030416Y-58163333D01*
X56935178Y-58115714D01*
X56792321Y-58115714D01*
X56697083Y-58163333D01*
X56649464Y-58210952D01*
X57935178Y-58734761D02*
X57839940Y-58782380D01*
X57649464Y-58782380D01*
X57554226Y-58734761D01*
X57506607Y-58639523D01*
X57506607Y-58258571D01*
X57554226Y-58163333D01*
X57649464Y-58115714D01*
X57839940Y-58115714D01*
X57935178Y-58163333D01*
X57982797Y-58258571D01*
X57982797Y-58353809D01*
X57506607Y-58449047D01*
X58411369Y-58782380D02*
X58411369Y-58115714D01*
X58411369Y-58306190D02*
X58458988Y-58210952D01*
X58506607Y-58163333D01*
X58601845Y-58115714D01*
X58697083Y-58115714D01*
X59030416Y-58782380D02*
X59030416Y-58115714D01*
X59030416Y-58306190D02*
X59078035Y-58210952D01*
X59125654Y-58163333D01*
X59220892Y-58115714D01*
X59316130Y-58115714D01*
X59554226Y-58115714D02*
X59792321Y-58782380D01*
X60030416Y-58115714D02*
X59792321Y-58782380D01*
X59697083Y-59020476D01*
X59649464Y-59068095D01*
X59554226Y-59115714D01*
X61078035Y-58115714D02*
X61316130Y-58782380D01*
X61554226Y-58115714D01*
X61839940Y-57782380D02*
X62458988Y-57782380D01*
X62125654Y-58163333D01*
X62268511Y-58163333D01*
X62363750Y-58210952D01*
X62411369Y-58258571D01*
X62458988Y-58353809D01*
X62458988Y-58591904D01*
X62411369Y-58687142D01*
X62363750Y-58734761D01*
X62268511Y-58782380D01*
X61982797Y-58782380D01*
X61887559Y-58734761D01*
X61839940Y-58687142D01*
X62887559Y-58687142D02*
X62935178Y-58734761D01*
X62887559Y-58782380D01*
X62839940Y-58734761D01*
X62887559Y-58687142D01*
X62887559Y-58782380D01*
X63554226Y-57782380D02*
X63649464Y-57782380D01*
X63744702Y-57830000D01*
X63792321Y-57877619D01*
X63839940Y-57972857D01*
X63887559Y-58163333D01*
X63887559Y-58401428D01*
X63839940Y-58591904D01*
X63792321Y-58687142D01*
X63744702Y-58734761D01*
X63649464Y-58782380D01*
X63554226Y-58782380D01*
X63458988Y-58734761D01*
X63411369Y-58687142D01*
X63363750Y-58591904D01*
X63316130Y-58401428D01*
X63316130Y-58163333D01*
X63363750Y-57972857D01*
X63411369Y-57877619D01*
X63458988Y-57830000D01*
X63554226Y-57782380D01*
X64316130Y-58687142D02*
X64363750Y-58734761D01*
X64316130Y-58782380D01*
X64268511Y-58734761D01*
X64316130Y-58687142D01*
X64316130Y-58782380D01*
X65316130Y-58782380D02*
X64744702Y-58782380D01*
X65030416Y-58782380D02*
X65030416Y-57782380D01*
X64935178Y-57925238D01*
X64839940Y-58020476D01*
X64744702Y-58068095D01*
X66506607Y-58782380D02*
X66506607Y-57782380D01*
X66887559Y-57782380D01*
X66982797Y-57830000D01*
X67030416Y-57877619D01*
X67078035Y-57972857D01*
X67078035Y-58115714D01*
X67030416Y-58210952D01*
X66982797Y-58258571D01*
X66887559Y-58306190D01*
X66506607Y-58306190D01*
X68078035Y-58687142D02*
X68030416Y-58734761D01*
X67887559Y-58782380D01*
X67792321Y-58782380D01*
X67649464Y-58734761D01*
X67554226Y-58639523D01*
X67506607Y-58544285D01*
X67458988Y-58353809D01*
X67458988Y-58210952D01*
X67506607Y-58020476D01*
X67554226Y-57925238D01*
X67649464Y-57830000D01*
X67792321Y-57782380D01*
X67887559Y-57782380D01*
X68030416Y-57830000D01*
X68078035Y-57877619D01*
X68839940Y-58258571D02*
X68982797Y-58306190D01*
X69030416Y-58353809D01*
X69078035Y-58449047D01*
X69078035Y-58591904D01*
X69030416Y-58687142D01*
X68982797Y-58734761D01*
X68887559Y-58782380D01*
X68506607Y-58782380D01*
X68506607Y-57782380D01*
X68839940Y-57782380D01*
X68935178Y-57830000D01*
X68982797Y-57877619D01*
X69030416Y-57972857D01*
X69030416Y-58068095D01*
X68982797Y-58163333D01*
X68935178Y-58210952D01*
X68839940Y-58258571D01*
X68506607Y-58258571D01*
X70268511Y-58782380D02*
X70268511Y-57782380D01*
X70506607Y-57782380D01*
X70649464Y-57830000D01*
X70744702Y-57925238D01*
X70792321Y-58020476D01*
X70839940Y-58210952D01*
X70839940Y-58353809D01*
X70792321Y-58544285D01*
X70744702Y-58639523D01*
X70649464Y-58734761D01*
X70506607Y-58782380D01*
X70268511Y-58782380D01*
X71649464Y-58734761D02*
X71554226Y-58782380D01*
X71363750Y-58782380D01*
X71268511Y-58734761D01*
X71220892Y-58639523D01*
X71220892Y-58258571D01*
X71268511Y-58163333D01*
X71363750Y-58115714D01*
X71554226Y-58115714D01*
X71649464Y-58163333D01*
X71697083Y-58258571D01*
X71697083Y-58353809D01*
X71220892Y-58449047D01*
X72078035Y-58734761D02*
X72173273Y-58782380D01*
X72363750Y-58782380D01*
X72458988Y-58734761D01*
X72506607Y-58639523D01*
X72506607Y-58591904D01*
X72458988Y-58496666D01*
X72363750Y-58449047D01*
X72220892Y-58449047D01*
X72125654Y-58401428D01*
X72078035Y-58306190D01*
X72078035Y-58258571D01*
X72125654Y-58163333D01*
X72220892Y-58115714D01*
X72363750Y-58115714D01*
X72458988Y-58163333D01*
X72935178Y-58782380D02*
X72935178Y-58115714D01*
X72935178Y-57782380D02*
X72887559Y-57830000D01*
X72935178Y-57877619D01*
X72982797Y-57830000D01*
X72935178Y-57782380D01*
X72935178Y-57877619D01*
X73839940Y-58115714D02*
X73839940Y-58925238D01*
X73792321Y-59020476D01*
X73744702Y-59068095D01*
X73649464Y-59115714D01*
X73506607Y-59115714D01*
X73411369Y-59068095D01*
X73839940Y-58734761D02*
X73744702Y-58782380D01*
X73554226Y-58782380D01*
X73458988Y-58734761D01*
X73411369Y-58687142D01*
X73363750Y-58591904D01*
X73363750Y-58306190D01*
X73411369Y-58210952D01*
X73458988Y-58163333D01*
X73554226Y-58115714D01*
X73744702Y-58115714D01*
X73839940Y-58163333D01*
X74316130Y-58115714D02*
X74316130Y-58782380D01*
X74316130Y-58210952D02*
X74363750Y-58163333D01*
X74458988Y-58115714D01*
X74601845Y-58115714D01*
X74697083Y-58163333D01*
X74744702Y-58258571D01*
X74744702Y-58782380D01*
X75601845Y-58734761D02*
X75506607Y-58782380D01*
X75316130Y-58782380D01*
X75220892Y-58734761D01*
X75173273Y-58639523D01*
X75173273Y-58258571D01*
X75220892Y-58163333D01*
X75316130Y-58115714D01*
X75506607Y-58115714D01*
X75601845Y-58163333D01*
X75649464Y-58258571D01*
X75649464Y-58353809D01*
X75173273Y-58449047D01*
X76506607Y-58782380D02*
X76506607Y-57782380D01*
X76506607Y-58734761D02*
X76411369Y-58782380D01*
X76220892Y-58782380D01*
X76125654Y-58734761D01*
X76078035Y-58687142D01*
X76030416Y-58591904D01*
X76030416Y-58306190D01*
X76078035Y-58210952D01*
X76125654Y-58163333D01*
X76220892Y-58115714D01*
X76411369Y-58115714D01*
X76506607Y-58163333D01*
X77744702Y-58782380D02*
X77744702Y-57782380D01*
X77744702Y-58163333D02*
X77839940Y-58115714D01*
X78030416Y-58115714D01*
X78125654Y-58163333D01*
X78173273Y-58210952D01*
X78220892Y-58306190D01*
X78220892Y-58591904D01*
X78173273Y-58687142D01*
X78125654Y-58734761D01*
X78030416Y-58782380D01*
X77839940Y-58782380D01*
X77744702Y-58734761D01*
X78554226Y-58115714D02*
X78792321Y-58782380D01*
X79030416Y-58115714D02*
X78792321Y-58782380D01*
X78697083Y-59020476D01*
X78649464Y-59068095D01*
X78554226Y-59115714D01*
X80030416Y-58115714D02*
X80411369Y-58115714D01*
X80173273Y-58782380D02*
X80173273Y-57925238D01*
X80220892Y-57830000D01*
X80316130Y-57782380D01*
X80411369Y-57782380D01*
X80887559Y-58782380D02*
X80792321Y-58734761D01*
X80744702Y-58687142D01*
X80697083Y-58591904D01*
X80697083Y-58306190D01*
X80744702Y-58210952D01*
X80792321Y-58163333D01*
X80887559Y-58115714D01*
X81030416Y-58115714D01*
X81125654Y-58163333D01*
X81173273Y-58210952D01*
X81220892Y-58306190D01*
X81220892Y-58591904D01*
X81173273Y-58687142D01*
X81125654Y-58734761D01*
X81030416Y-58782380D01*
X80887559Y-58782380D01*
X81792321Y-58782380D02*
X81697083Y-58734761D01*
X81649464Y-58687142D01*
X81601845Y-58591904D01*
X81601845Y-58306190D01*
X81649464Y-58210952D01*
X81697083Y-58163333D01*
X81792321Y-58115714D01*
X81935178Y-58115714D01*
X82030416Y-58163333D01*
X82078035Y-58210952D01*
X82125654Y-58306190D01*
X82125654Y-58591904D01*
X82078035Y-58687142D01*
X82030416Y-58734761D01*
X81935178Y-58782380D01*
X81792321Y-58782380D01*
X82506607Y-58734761D02*
X82601845Y-58782380D01*
X82792321Y-58782380D01*
X82887559Y-58734761D01*
X82935178Y-58639523D01*
X82935178Y-58591904D01*
X82887559Y-58496666D01*
X82792321Y-58449047D01*
X82649464Y-58449047D01*
X82554226Y-58401428D01*
X82506607Y-58306190D01*
X82506607Y-58258571D01*
X82554226Y-58163333D01*
X82649464Y-58115714D01*
X82792321Y-58115714D01*
X82887559Y-58163333D01*
X83220892Y-58115714D02*
X83601845Y-58115714D01*
X83363749Y-57782380D02*
X83363749Y-58639523D01*
X83411369Y-58734761D01*
X83506607Y-58782380D01*
X83601845Y-58782380D01*
X84363749Y-58782380D02*
X84363749Y-58258571D01*
X84316130Y-58163333D01*
X84220892Y-58115714D01*
X84030416Y-58115714D01*
X83935178Y-58163333D01*
X84363749Y-58734761D02*
X84268511Y-58782380D01*
X84030416Y-58782380D01*
X83935178Y-58734761D01*
X83887559Y-58639523D01*
X83887559Y-58544285D01*
X83935178Y-58449047D01*
X84030416Y-58401428D01*
X84268511Y-58401428D01*
X84363749Y-58353809D01*
X84839940Y-58115714D02*
X84839940Y-58782380D01*
X84839940Y-58210952D02*
X84887559Y-58163333D01*
X84982797Y-58115714D01*
X85125654Y-58115714D01*
X85220892Y-58163333D01*
X85268511Y-58258571D01*
X85268511Y-58782380D01*
X129214380Y-32281285D02*
X128991047Y-31924142D01*
X128831523Y-32281285D02*
X128831523Y-31531285D01*
X129086761Y-31531285D01*
X129150571Y-31567000D01*
X129182476Y-31602714D01*
X129214380Y-31674142D01*
X129214380Y-31781285D01*
X129182476Y-31852714D01*
X129150571Y-31888428D01*
X129086761Y-31924142D01*
X128831523Y-31924142D01*
X129469619Y-32067000D02*
X129788666Y-32067000D01*
X129405809Y-32281285D02*
X129629142Y-31531285D01*
X129852476Y-32281285D01*
X130012000Y-31531285D02*
X130171523Y-32281285D01*
X130299142Y-31745571D01*
X130426761Y-32281285D01*
X130586285Y-31531285D01*
X139257023Y-39145000D02*
X139193214Y-39109285D01*
X139097500Y-39109285D01*
X139001785Y-39145000D01*
X138937976Y-39216428D01*
X138906071Y-39287857D01*
X138874166Y-39430714D01*
X138874166Y-39537857D01*
X138906071Y-39680714D01*
X138937976Y-39752142D01*
X139001785Y-39823571D01*
X139097500Y-39859285D01*
X139161309Y-39859285D01*
X139257023Y-39823571D01*
X139288928Y-39787857D01*
X139288928Y-39537857D01*
X139161309Y-39537857D01*
X139576071Y-39859285D02*
X139576071Y-39109285D01*
X139958928Y-39859285D01*
X139958928Y-39109285D01*
X140277976Y-39859285D02*
X140277976Y-39109285D01*
X140437500Y-39109285D01*
X140533214Y-39145000D01*
X140597023Y-39216428D01*
X140628928Y-39287857D01*
X140660833Y-39430714D01*
X140660833Y-39537857D01*
X140628928Y-39680714D01*
X140597023Y-39752142D01*
X140533214Y-39823571D01*
X140437500Y-39859285D01*
X140277976Y-39859285D01*
X129310095Y-37424785D02*
X129086761Y-37067642D01*
X128927238Y-37424785D02*
X128927238Y-36674785D01*
X129182476Y-36674785D01*
X129246285Y-36710500D01*
X129278190Y-36746214D01*
X129310095Y-36817642D01*
X129310095Y-36924785D01*
X129278190Y-36996214D01*
X129246285Y-37031928D01*
X129182476Y-37067642D01*
X128927238Y-37067642D01*
X129565333Y-37389071D02*
X129661047Y-37424785D01*
X129820571Y-37424785D01*
X129884380Y-37389071D01*
X129916285Y-37353357D01*
X129948190Y-37281928D01*
X129948190Y-37210500D01*
X129916285Y-37139071D01*
X129884380Y-37103357D01*
X129820571Y-37067642D01*
X129692952Y-37031928D01*
X129629142Y-36996214D01*
X129597238Y-36960500D01*
X129565333Y-36889071D01*
X129565333Y-36817642D01*
X129597238Y-36746214D01*
X129629142Y-36710500D01*
X129692952Y-36674785D01*
X129852476Y-36674785D01*
X129948190Y-36710500D01*
X130139619Y-36674785D02*
X130522476Y-36674785D01*
X130331047Y-37424785D02*
X130331047Y-36674785D01*
X128744166Y-39094285D02*
X128967500Y-39844285D01*
X129190833Y-39094285D01*
X129797023Y-39772857D02*
X129765119Y-39808571D01*
X129669404Y-39844285D01*
X129605595Y-39844285D01*
X129509880Y-39808571D01*
X129446071Y-39737142D01*
X129414166Y-39665714D01*
X129382261Y-39522857D01*
X129382261Y-39415714D01*
X129414166Y-39272857D01*
X129446071Y-39201428D01*
X129509880Y-39130000D01*
X129605595Y-39094285D01*
X129669404Y-39094285D01*
X129765119Y-39130000D01*
X129797023Y-39165714D01*
X130467023Y-39772857D02*
X130435119Y-39808571D01*
X130339404Y-39844285D01*
X130275595Y-39844285D01*
X130179880Y-39808571D01*
X130116071Y-39737142D01*
X130084166Y-39665714D01*
X130052261Y-39522857D01*
X130052261Y-39415714D01*
X130084166Y-39272857D01*
X130116071Y-39201428D01*
X130179880Y-39130000D01*
X130275595Y-39094285D01*
X130339404Y-39094285D01*
X130435119Y-39130000D01*
X130467023Y-39165714D01*
X128981785Y-42295000D02*
X129300833Y-42295000D01*
X128917976Y-42509285D02*
X129141309Y-41759285D01*
X129364642Y-42509285D01*
X129524166Y-41759285D02*
X129938928Y-41759285D01*
X129715595Y-42045000D01*
X129811309Y-42045000D01*
X129875119Y-42080714D01*
X129907023Y-42116428D01*
X129938928Y-42187857D01*
X129938928Y-42366428D01*
X129907023Y-42437857D01*
X129875119Y-42473571D01*
X129811309Y-42509285D01*
X129619880Y-42509285D01*
X129556071Y-42473571D01*
X129524166Y-42437857D01*
X130704642Y-41723571D02*
X130130357Y-42687857D01*
X131151309Y-42116428D02*
X130927976Y-42116428D01*
X130927976Y-42509285D02*
X130927976Y-41759285D01*
X131247023Y-41759285D01*
X131789404Y-42009285D02*
X131789404Y-42509285D01*
X131629880Y-41723571D02*
X131470357Y-42259285D01*
X131885119Y-42259285D01*
X128981785Y-44795000D02*
X129300833Y-44795000D01*
X128917976Y-45009285D02*
X129141309Y-44259285D01*
X129364642Y-45009285D01*
X129556071Y-44330714D02*
X129587976Y-44295000D01*
X129651785Y-44259285D01*
X129811309Y-44259285D01*
X129875119Y-44295000D01*
X129907023Y-44330714D01*
X129938928Y-44402142D01*
X129938928Y-44473571D01*
X129907023Y-44580714D01*
X129524166Y-45009285D01*
X129938928Y-45009285D01*
X130704642Y-44223571D02*
X130130357Y-45187857D01*
X131151309Y-44616428D02*
X130927976Y-44616428D01*
X130927976Y-45009285D02*
X130927976Y-44259285D01*
X131247023Y-44259285D01*
X131821309Y-44259285D02*
X131502261Y-44259285D01*
X131470357Y-44616428D01*
X131502261Y-44580714D01*
X131566071Y-44545000D01*
X131725595Y-44545000D01*
X131789404Y-44580714D01*
X131821309Y-44616428D01*
X131853214Y-44687857D01*
X131853214Y-44866428D01*
X131821309Y-44937857D01*
X131789404Y-44973571D01*
X131725595Y-45009285D01*
X131566071Y-45009285D01*
X131502261Y-44973571D01*
X131470357Y-44937857D01*
X128981785Y-47295000D02*
X129300833Y-47295000D01*
X128917976Y-47509285D02*
X129141309Y-46759285D01*
X129364642Y-47509285D01*
X129938928Y-47509285D02*
X129556071Y-47509285D01*
X129747500Y-47509285D02*
X129747500Y-46759285D01*
X129683690Y-46866428D01*
X129619880Y-46937857D01*
X129556071Y-46973571D01*
X130704642Y-46723571D02*
X130130357Y-47687857D01*
X131151309Y-47116428D02*
X130927976Y-47116428D01*
X130927976Y-47509285D02*
X130927976Y-46759285D01*
X131247023Y-46759285D01*
X131789404Y-46759285D02*
X131661785Y-46759285D01*
X131597976Y-46795000D01*
X131566071Y-46830714D01*
X131502261Y-46937857D01*
X131470357Y-47080714D01*
X131470357Y-47366428D01*
X131502261Y-47437857D01*
X131534166Y-47473571D01*
X131597976Y-47509285D01*
X131725595Y-47509285D01*
X131789404Y-47473571D01*
X131821309Y-47437857D01*
X131853214Y-47366428D01*
X131853214Y-47187857D01*
X131821309Y-47116428D01*
X131789404Y-47080714D01*
X131725595Y-47045000D01*
X131597976Y-47045000D01*
X131534166Y-47080714D01*
X131502261Y-47116428D01*
X131470357Y-47187857D01*
X128981785Y-49845000D02*
X129300833Y-49845000D01*
X128917976Y-50059285D02*
X129141309Y-49309285D01*
X129364642Y-50059285D01*
X129715595Y-49309285D02*
X129779404Y-49309285D01*
X129843214Y-49345000D01*
X129875119Y-49380714D01*
X129907023Y-49452142D01*
X129938928Y-49595000D01*
X129938928Y-49773571D01*
X129907023Y-49916428D01*
X129875119Y-49987857D01*
X129843214Y-50023571D01*
X129779404Y-50059285D01*
X129715595Y-50059285D01*
X129651785Y-50023571D01*
X129619880Y-49987857D01*
X129587976Y-49916428D01*
X129556071Y-49773571D01*
X129556071Y-49595000D01*
X129587976Y-49452142D01*
X129619880Y-49380714D01*
X129651785Y-49345000D01*
X129715595Y-49309285D01*
X130704642Y-49273571D02*
X130130357Y-50237857D01*
X131151309Y-49666428D02*
X130927976Y-49666428D01*
X130927976Y-50059285D02*
X130927976Y-49309285D01*
X131247023Y-49309285D01*
X131438452Y-49309285D02*
X131885119Y-49309285D01*
X131597976Y-50059285D01*
X129284880Y-52609285D02*
X128902023Y-52609285D01*
X129093452Y-52609285D02*
X129093452Y-51859285D01*
X129029642Y-51966428D01*
X128965833Y-52037857D01*
X128902023Y-52073571D01*
X129891071Y-51859285D02*
X129572023Y-51859285D01*
X129540119Y-52216428D01*
X129572023Y-52180714D01*
X129635833Y-52145000D01*
X129795357Y-52145000D01*
X129859166Y-52180714D01*
X129891071Y-52216428D01*
X129922976Y-52287857D01*
X129922976Y-52466428D01*
X129891071Y-52537857D01*
X129859166Y-52573571D01*
X129795357Y-52609285D01*
X129635833Y-52609285D01*
X129572023Y-52573571D01*
X129540119Y-52537857D01*
X130688690Y-51823571D02*
X130114404Y-52787857D01*
X131135357Y-52216428D02*
X131231071Y-52252142D01*
X131262976Y-52287857D01*
X131294880Y-52359285D01*
X131294880Y-52466428D01*
X131262976Y-52537857D01*
X131231071Y-52573571D01*
X131167261Y-52609285D01*
X130912023Y-52609285D01*
X130912023Y-51859285D01*
X131135357Y-51859285D01*
X131199166Y-51895000D01*
X131231071Y-51930714D01*
X131262976Y-52002142D01*
X131262976Y-52073571D01*
X131231071Y-52145000D01*
X131199166Y-52180714D01*
X131135357Y-52216428D01*
X130912023Y-52216428D01*
X131932976Y-52609285D02*
X131550119Y-52609285D01*
X131741547Y-52609285D02*
X131741547Y-51859285D01*
X131677738Y-51966428D01*
X131613928Y-52037857D01*
X131550119Y-52073571D01*
X129284880Y-55159285D02*
X128902023Y-55159285D01*
X129093452Y-55159285D02*
X129093452Y-54409285D01*
X129029642Y-54516428D01*
X128965833Y-54587857D01*
X128902023Y-54623571D01*
X129859166Y-54659285D02*
X129859166Y-55159285D01*
X129699642Y-54373571D02*
X129540119Y-54909285D01*
X129954880Y-54909285D01*
X130688690Y-54373571D02*
X130114404Y-55337857D01*
X131135357Y-54766428D02*
X131231071Y-54802142D01*
X131262976Y-54837857D01*
X131294880Y-54909285D01*
X131294880Y-55016428D01*
X131262976Y-55087857D01*
X131231071Y-55123571D01*
X131167261Y-55159285D01*
X130912023Y-55159285D01*
X130912023Y-54409285D01*
X131135357Y-54409285D01*
X131199166Y-54445000D01*
X131231071Y-54480714D01*
X131262976Y-54552142D01*
X131262976Y-54623571D01*
X131231071Y-54695000D01*
X131199166Y-54730714D01*
X131135357Y-54766428D01*
X130912023Y-54766428D01*
X131518214Y-54409285D02*
X131932976Y-54409285D01*
X131709642Y-54695000D01*
X131805357Y-54695000D01*
X131869166Y-54730714D01*
X131901071Y-54766428D01*
X131932976Y-54837857D01*
X131932976Y-55016428D01*
X131901071Y-55087857D01*
X131869166Y-55123571D01*
X131805357Y-55159285D01*
X131613928Y-55159285D01*
X131550119Y-55123571D01*
X131518214Y-55087857D01*
X129284880Y-60209285D02*
X128902023Y-60209285D01*
X129093452Y-60209285D02*
X129093452Y-59459285D01*
X129029642Y-59566428D01*
X128965833Y-59637857D01*
X128902023Y-59673571D01*
X129699642Y-59459285D02*
X129763452Y-59459285D01*
X129827261Y-59495000D01*
X129859166Y-59530714D01*
X129891071Y-59602142D01*
X129922976Y-59745000D01*
X129922976Y-59923571D01*
X129891071Y-60066428D01*
X129859166Y-60137857D01*
X129827261Y-60173571D01*
X129763452Y-60209285D01*
X129699642Y-60209285D01*
X129635833Y-60173571D01*
X129603928Y-60137857D01*
X129572023Y-60066428D01*
X129540119Y-59923571D01*
X129540119Y-59745000D01*
X129572023Y-59602142D01*
X129603928Y-59530714D01*
X129635833Y-59495000D01*
X129699642Y-59459285D01*
X130688690Y-59423571D02*
X130114404Y-60387857D01*
X131135357Y-59816428D02*
X131231071Y-59852142D01*
X131262976Y-59887857D01*
X131294880Y-59959285D01*
X131294880Y-60066428D01*
X131262976Y-60137857D01*
X131231071Y-60173571D01*
X131167261Y-60209285D01*
X130912023Y-60209285D01*
X130912023Y-59459285D01*
X131135357Y-59459285D01*
X131199166Y-59495000D01*
X131231071Y-59530714D01*
X131262976Y-59602142D01*
X131262976Y-59673571D01*
X131231071Y-59745000D01*
X131199166Y-59780714D01*
X131135357Y-59816428D01*
X130912023Y-59816428D01*
X131869166Y-59459285D02*
X131741547Y-59459285D01*
X131677738Y-59495000D01*
X131645833Y-59530714D01*
X131582023Y-59637857D01*
X131550119Y-59780714D01*
X131550119Y-60066428D01*
X131582023Y-60137857D01*
X131613928Y-60173571D01*
X131677738Y-60209285D01*
X131805357Y-60209285D01*
X131869166Y-60173571D01*
X131901071Y-60137857D01*
X131932976Y-60066428D01*
X131932976Y-59887857D01*
X131901071Y-59816428D01*
X131869166Y-59780714D01*
X131805357Y-59745000D01*
X131677738Y-59745000D01*
X131613928Y-59780714D01*
X131582023Y-59816428D01*
X131550119Y-59887857D01*
X129284880Y-57709285D02*
X128902023Y-57709285D01*
X129093452Y-57709285D02*
X129093452Y-56959285D01*
X129029642Y-57066428D01*
X128965833Y-57137857D01*
X128902023Y-57173571D01*
X129859166Y-56959285D02*
X129731547Y-56959285D01*
X129667738Y-56995000D01*
X129635833Y-57030714D01*
X129572023Y-57137857D01*
X129540119Y-57280714D01*
X129540119Y-57566428D01*
X129572023Y-57637857D01*
X129603928Y-57673571D01*
X129667738Y-57709285D01*
X129795357Y-57709285D01*
X129859166Y-57673571D01*
X129891071Y-57637857D01*
X129922976Y-57566428D01*
X129922976Y-57387857D01*
X129891071Y-57316428D01*
X129859166Y-57280714D01*
X129795357Y-57245000D01*
X129667738Y-57245000D01*
X129603928Y-57280714D01*
X129572023Y-57316428D01*
X129540119Y-57387857D01*
X130688690Y-56923571D02*
X130114404Y-57887857D01*
X131135357Y-57316428D02*
X131231071Y-57352142D01*
X131262976Y-57387857D01*
X131294880Y-57459285D01*
X131294880Y-57566428D01*
X131262976Y-57637857D01*
X131231071Y-57673571D01*
X131167261Y-57709285D01*
X130912023Y-57709285D01*
X130912023Y-56959285D01*
X131135357Y-56959285D01*
X131199166Y-56995000D01*
X131231071Y-57030714D01*
X131262976Y-57102142D01*
X131262976Y-57173571D01*
X131231071Y-57245000D01*
X131199166Y-57280714D01*
X131135357Y-57316428D01*
X130912023Y-57316428D01*
X131550119Y-57030714D02*
X131582023Y-56995000D01*
X131645833Y-56959285D01*
X131805357Y-56959285D01*
X131869166Y-56995000D01*
X131901071Y-57030714D01*
X131932976Y-57102142D01*
X131932976Y-57173571D01*
X131901071Y-57280714D01*
X131518214Y-57709285D01*
X131932976Y-57709285D01*
X138384880Y-54616428D02*
X138608214Y-54616428D01*
X138703928Y-55009285D02*
X138384880Y-55009285D01*
X138384880Y-54259285D01*
X138703928Y-54259285D01*
X139278214Y-54259285D02*
X139150595Y-54259285D01*
X139086785Y-54295000D01*
X139054880Y-54330714D01*
X138991071Y-54437857D01*
X138959166Y-54580714D01*
X138959166Y-54866428D01*
X138991071Y-54937857D01*
X139022976Y-54973571D01*
X139086785Y-55009285D01*
X139214404Y-55009285D01*
X139278214Y-54973571D01*
X139310119Y-54937857D01*
X139342023Y-54866428D01*
X139342023Y-54687857D01*
X139310119Y-54616428D01*
X139278214Y-54580714D01*
X139214404Y-54545000D01*
X139086785Y-54545000D01*
X139022976Y-54580714D01*
X138991071Y-54616428D01*
X138959166Y-54687857D01*
X140107738Y-54223571D02*
X139533452Y-55187857D01*
X140267261Y-54259285D02*
X140713928Y-54259285D01*
X140426785Y-55009285D01*
X138352976Y-52459285D02*
X138352976Y-51709285D01*
X138512500Y-51709285D01*
X138608214Y-51745000D01*
X138672023Y-51816428D01*
X138703928Y-51887857D01*
X138735833Y-52030714D01*
X138735833Y-52137857D01*
X138703928Y-52280714D01*
X138672023Y-52352142D01*
X138608214Y-52423571D01*
X138512500Y-52459285D01*
X138352976Y-52459285D01*
X138959166Y-51709285D02*
X139405833Y-51709285D01*
X139118690Y-52459285D01*
X140139642Y-51673571D02*
X139565357Y-52637857D01*
X140650119Y-51709285D02*
X140522500Y-51709285D01*
X140458690Y-51745000D01*
X140426785Y-51780714D01*
X140362976Y-51887857D01*
X140331071Y-52030714D01*
X140331071Y-52316428D01*
X140362976Y-52387857D01*
X140394880Y-52423571D01*
X140458690Y-52459285D01*
X140586309Y-52459285D01*
X140650119Y-52423571D01*
X140682023Y-52387857D01*
X140713928Y-52316428D01*
X140713928Y-52137857D01*
X140682023Y-52066428D01*
X140650119Y-52030714D01*
X140586309Y-51995000D01*
X140458690Y-51995000D01*
X140394880Y-52030714D01*
X140362976Y-52066428D01*
X140331071Y-52137857D01*
X139257023Y-36695000D02*
X139193214Y-36659285D01*
X139097500Y-36659285D01*
X139001785Y-36695000D01*
X138937976Y-36766428D01*
X138906071Y-36837857D01*
X138874166Y-36980714D01*
X138874166Y-37087857D01*
X138906071Y-37230714D01*
X138937976Y-37302142D01*
X139001785Y-37373571D01*
X139097500Y-37409285D01*
X139161309Y-37409285D01*
X139257023Y-37373571D01*
X139288928Y-37337857D01*
X139288928Y-37087857D01*
X139161309Y-37087857D01*
X139576071Y-37409285D02*
X139576071Y-36659285D01*
X139958928Y-37409285D01*
X139958928Y-36659285D01*
X140277976Y-37409285D02*
X140277976Y-36659285D01*
X140437500Y-36659285D01*
X140533214Y-36695000D01*
X140597023Y-36766428D01*
X140628928Y-36837857D01*
X140660833Y-36980714D01*
X140660833Y-37087857D01*
X140628928Y-37230714D01*
X140597023Y-37302142D01*
X140533214Y-37373571D01*
X140437500Y-37409285D01*
X140277976Y-37409285D01*
X139257023Y-39145000D02*
X139193214Y-39109285D01*
X139097500Y-39109285D01*
X139001785Y-39145000D01*
X138937976Y-39216428D01*
X138906071Y-39287857D01*
X138874166Y-39430714D01*
X138874166Y-39537857D01*
X138906071Y-39680714D01*
X138937976Y-39752142D01*
X139001785Y-39823571D01*
X139097500Y-39859285D01*
X139161309Y-39859285D01*
X139257023Y-39823571D01*
X139288928Y-39787857D01*
X139288928Y-39537857D01*
X139161309Y-39537857D01*
X139576071Y-39859285D02*
X139576071Y-39109285D01*
X139958928Y-39859285D01*
X139958928Y-39109285D01*
X140277976Y-39859285D02*
X140277976Y-39109285D01*
X140437500Y-39109285D01*
X140533214Y-39145000D01*
X140597023Y-39216428D01*
X140628928Y-39287857D01*
X140660833Y-39430714D01*
X140660833Y-39537857D01*
X140628928Y-39680714D01*
X140597023Y-39752142D01*
X140533214Y-39823571D01*
X140437500Y-39859285D01*
X140277976Y-39859285D01*
X137228690Y-32309285D02*
X137228690Y-31559285D01*
X137388214Y-31559285D01*
X137483928Y-31595000D01*
X137547738Y-31666428D01*
X137579642Y-31737857D01*
X137611547Y-31880714D01*
X137611547Y-31987857D01*
X137579642Y-32130714D01*
X137547738Y-32202142D01*
X137483928Y-32273571D01*
X137388214Y-32309285D01*
X137228690Y-32309285D01*
X137834880Y-31559285D02*
X138249642Y-31559285D01*
X138026309Y-31845000D01*
X138122023Y-31845000D01*
X138185833Y-31880714D01*
X138217738Y-31916428D01*
X138249642Y-31987857D01*
X138249642Y-32166428D01*
X138217738Y-32237857D01*
X138185833Y-32273571D01*
X138122023Y-32309285D01*
X137930595Y-32309285D01*
X137866785Y-32273571D01*
X137834880Y-32237857D01*
X139015357Y-31523571D02*
X138441071Y-32487857D01*
X139142976Y-31559285D02*
X139525833Y-31559285D01*
X139334404Y-32309285D02*
X139334404Y-31559285D01*
X139685357Y-31559285D02*
X140132023Y-32309285D01*
X140132023Y-31559285D02*
X139685357Y-32309285D01*
X140514880Y-31559285D02*
X140578690Y-31559285D01*
X140642500Y-31595000D01*
X140674404Y-31630714D01*
X140706309Y-31702142D01*
X140738214Y-31845000D01*
X140738214Y-32023571D01*
X140706309Y-32166428D01*
X140674404Y-32237857D01*
X140642500Y-32273571D01*
X140578690Y-32309285D01*
X140514880Y-32309285D01*
X140451071Y-32273571D01*
X140419166Y-32237857D01*
X140387261Y-32166428D01*
X140355357Y-32023571D01*
X140355357Y-31845000D01*
X140387261Y-31702142D01*
X140419166Y-31630714D01*
X140451071Y-31595000D01*
X140514880Y-31559285D01*
X138352976Y-47359285D02*
X138352976Y-46609285D01*
X138512500Y-46609285D01*
X138608214Y-46645000D01*
X138672023Y-46716428D01*
X138703928Y-46787857D01*
X138735833Y-46930714D01*
X138735833Y-47037857D01*
X138703928Y-47180714D01*
X138672023Y-47252142D01*
X138608214Y-47323571D01*
X138512500Y-47359285D01*
X138352976Y-47359285D01*
X139310119Y-46859285D02*
X139310119Y-47359285D01*
X139150595Y-46573571D02*
X138991071Y-47109285D01*
X139405833Y-47109285D01*
X140139642Y-46573571D02*
X139565357Y-47537857D01*
X140650119Y-46859285D02*
X140650119Y-47359285D01*
X140490595Y-46573571D02*
X140331071Y-47109285D01*
X140745833Y-47109285D01*
X135778928Y-42323571D02*
X135874642Y-42359285D01*
X136034166Y-42359285D01*
X136097976Y-42323571D01*
X136129880Y-42287857D01*
X136161785Y-42216428D01*
X136161785Y-42145000D01*
X136129880Y-42073571D01*
X136097976Y-42037857D01*
X136034166Y-42002142D01*
X135906547Y-41966428D01*
X135842738Y-41930714D01*
X135810833Y-41895000D01*
X135778928Y-41823571D01*
X135778928Y-41752142D01*
X135810833Y-41680714D01*
X135842738Y-41645000D01*
X135906547Y-41609285D01*
X136066071Y-41609285D01*
X136161785Y-41645000D01*
X136448928Y-42359285D02*
X136448928Y-41609285D01*
X136608452Y-41609285D01*
X136704166Y-41645000D01*
X136767976Y-41716428D01*
X136799880Y-41787857D01*
X136831785Y-41930714D01*
X136831785Y-42037857D01*
X136799880Y-42180714D01*
X136767976Y-42252142D01*
X136704166Y-42323571D01*
X136608452Y-42359285D01*
X136448928Y-42359285D01*
X137087023Y-42145000D02*
X137406071Y-42145000D01*
X137023214Y-42359285D02*
X137246547Y-41609285D01*
X137469880Y-42359285D01*
X138171785Y-41573571D02*
X137597500Y-42537857D01*
X138395119Y-42359285D02*
X138395119Y-41609285D01*
X138554642Y-41609285D01*
X138650357Y-41645000D01*
X138714166Y-41716428D01*
X138746071Y-41787857D01*
X138777976Y-41930714D01*
X138777976Y-42037857D01*
X138746071Y-42180714D01*
X138714166Y-42252142D01*
X138650357Y-42323571D01*
X138554642Y-42359285D01*
X138395119Y-42359285D01*
X139416071Y-42359285D02*
X139033214Y-42359285D01*
X139224642Y-42359285D02*
X139224642Y-41609285D01*
X139160833Y-41716428D01*
X139097023Y-41787857D01*
X139033214Y-41823571D01*
X140181785Y-41573571D02*
X139607500Y-42537857D01*
X140373214Y-41680714D02*
X140405119Y-41645000D01*
X140468928Y-41609285D01*
X140628452Y-41609285D01*
X140692261Y-41645000D01*
X140724166Y-41680714D01*
X140756071Y-41752142D01*
X140756071Y-41823571D01*
X140724166Y-41930714D01*
X140341309Y-42359285D01*
X140756071Y-42359285D01*
X135794880Y-44823571D02*
X135890595Y-44859285D01*
X136050119Y-44859285D01*
X136113928Y-44823571D01*
X136145833Y-44787857D01*
X136177738Y-44716428D01*
X136177738Y-44645000D01*
X136145833Y-44573571D01*
X136113928Y-44537857D01*
X136050119Y-44502142D01*
X135922500Y-44466428D01*
X135858690Y-44430714D01*
X135826785Y-44395000D01*
X135794880Y-44323571D01*
X135794880Y-44252142D01*
X135826785Y-44180714D01*
X135858690Y-44145000D01*
X135922500Y-44109285D01*
X136082023Y-44109285D01*
X136177738Y-44145000D01*
X136847738Y-44787857D02*
X136815833Y-44823571D01*
X136720119Y-44859285D01*
X136656309Y-44859285D01*
X136560595Y-44823571D01*
X136496785Y-44752142D01*
X136464880Y-44680714D01*
X136432976Y-44537857D01*
X136432976Y-44430714D01*
X136464880Y-44287857D01*
X136496785Y-44216428D01*
X136560595Y-44145000D01*
X136656309Y-44109285D01*
X136720119Y-44109285D01*
X136815833Y-44145000D01*
X136847738Y-44180714D01*
X137453928Y-44859285D02*
X137134880Y-44859285D01*
X137134880Y-44109285D01*
X138155833Y-44073571D02*
X137581547Y-45037857D01*
X138379166Y-44859285D02*
X138379166Y-44109285D01*
X138538690Y-44109285D01*
X138634404Y-44145000D01*
X138698214Y-44216428D01*
X138730119Y-44287857D01*
X138762023Y-44430714D01*
X138762023Y-44537857D01*
X138730119Y-44680714D01*
X138698214Y-44752142D01*
X138634404Y-44823571D01*
X138538690Y-44859285D01*
X138379166Y-44859285D01*
X139176785Y-44109285D02*
X139240595Y-44109285D01*
X139304404Y-44145000D01*
X139336309Y-44180714D01*
X139368214Y-44252142D01*
X139400119Y-44395000D01*
X139400119Y-44573571D01*
X139368214Y-44716428D01*
X139336309Y-44787857D01*
X139304404Y-44823571D01*
X139240595Y-44859285D01*
X139176785Y-44859285D01*
X139112976Y-44823571D01*
X139081071Y-44787857D01*
X139049166Y-44716428D01*
X139017261Y-44573571D01*
X139017261Y-44395000D01*
X139049166Y-44252142D01*
X139081071Y-44180714D01*
X139112976Y-44145000D01*
X139176785Y-44109285D01*
X140165833Y-44073571D02*
X139591547Y-45037857D01*
X140325357Y-44109285D02*
X140740119Y-44109285D01*
X140516785Y-44395000D01*
X140612500Y-44395000D01*
X140676309Y-44430714D01*
X140708214Y-44466428D01*
X140740119Y-44537857D01*
X140740119Y-44716428D01*
X140708214Y-44787857D01*
X140676309Y-44823571D01*
X140612500Y-44859285D01*
X140421071Y-44859285D01*
X140357261Y-44823571D01*
X140325357Y-44787857D01*
X138735833Y-49837857D02*
X138703928Y-49873571D01*
X138608214Y-49909285D01*
X138544404Y-49909285D01*
X138448690Y-49873571D01*
X138384880Y-49802142D01*
X138352976Y-49730714D01*
X138321071Y-49587857D01*
X138321071Y-49480714D01*
X138352976Y-49337857D01*
X138384880Y-49266428D01*
X138448690Y-49195000D01*
X138544404Y-49159285D01*
X138608214Y-49159285D01*
X138703928Y-49195000D01*
X138735833Y-49230714D01*
X139310119Y-49159285D02*
X139182500Y-49159285D01*
X139118690Y-49195000D01*
X139086785Y-49230714D01*
X139022976Y-49337857D01*
X138991071Y-49480714D01*
X138991071Y-49766428D01*
X139022976Y-49837857D01*
X139054880Y-49873571D01*
X139118690Y-49909285D01*
X139246309Y-49909285D01*
X139310119Y-49873571D01*
X139342023Y-49837857D01*
X139373928Y-49766428D01*
X139373928Y-49587857D01*
X139342023Y-49516428D01*
X139310119Y-49480714D01*
X139246309Y-49445000D01*
X139118690Y-49445000D01*
X139054880Y-49480714D01*
X139022976Y-49516428D01*
X138991071Y-49587857D01*
X140139642Y-49123571D02*
X139565357Y-50087857D01*
X140682023Y-49159285D02*
X140362976Y-49159285D01*
X140331071Y-49516428D01*
X140362976Y-49480714D01*
X140426785Y-49445000D01*
X140586309Y-49445000D01*
X140650119Y-49480714D01*
X140682023Y-49516428D01*
X140713928Y-49587857D01*
X140713928Y-49766428D01*
X140682023Y-49837857D01*
X140650119Y-49873571D01*
X140586309Y-49909285D01*
X140426785Y-49909285D01*
X140362976Y-49873571D01*
X140331071Y-49837857D01*
X138576309Y-59666428D02*
X138672023Y-59702142D01*
X138703928Y-59737857D01*
X138735833Y-59809285D01*
X138735833Y-59916428D01*
X138703928Y-59987857D01*
X138672023Y-60023571D01*
X138608214Y-60059285D01*
X138352976Y-60059285D01*
X138352976Y-59309285D01*
X138576309Y-59309285D01*
X138640119Y-59345000D01*
X138672023Y-59380714D01*
X138703928Y-59452142D01*
X138703928Y-59523571D01*
X138672023Y-59595000D01*
X138640119Y-59630714D01*
X138576309Y-59666428D01*
X138352976Y-59666428D01*
X139342023Y-59309285D02*
X139022976Y-59309285D01*
X138991071Y-59666428D01*
X139022976Y-59630714D01*
X139086785Y-59595000D01*
X139246309Y-59595000D01*
X139310119Y-59630714D01*
X139342023Y-59666428D01*
X139373928Y-59737857D01*
X139373928Y-59916428D01*
X139342023Y-59987857D01*
X139310119Y-60023571D01*
X139246309Y-60059285D01*
X139086785Y-60059285D01*
X139022976Y-60023571D01*
X138991071Y-59987857D01*
X140139642Y-59273571D02*
X139565357Y-60237857D01*
X140394880Y-60059285D02*
X140522500Y-60059285D01*
X140586309Y-60023571D01*
X140618214Y-59987857D01*
X140682023Y-59880714D01*
X140713928Y-59737857D01*
X140713928Y-59452142D01*
X140682023Y-59380714D01*
X140650119Y-59345000D01*
X140586309Y-59309285D01*
X140458690Y-59309285D01*
X140394880Y-59345000D01*
X140362976Y-59380714D01*
X140331071Y-59452142D01*
X140331071Y-59630714D01*
X140362976Y-59702142D01*
X140394880Y-59737857D01*
X140458690Y-59773571D01*
X140586309Y-59773571D01*
X140650119Y-59737857D01*
X140682023Y-59702142D01*
X140713928Y-59630714D01*
X137148928Y-34859285D02*
X137148928Y-34109285D01*
X137308452Y-34109285D01*
X137404166Y-34145000D01*
X137467976Y-34216428D01*
X137499880Y-34287857D01*
X137531785Y-34430714D01*
X137531785Y-34537857D01*
X137499880Y-34680714D01*
X137467976Y-34752142D01*
X137404166Y-34823571D01*
X137308452Y-34859285D01*
X137148928Y-34859285D01*
X137787023Y-34180714D02*
X137818928Y-34145000D01*
X137882738Y-34109285D01*
X138042261Y-34109285D01*
X138106071Y-34145000D01*
X138137976Y-34180714D01*
X138169880Y-34252142D01*
X138169880Y-34323571D01*
X138137976Y-34430714D01*
X137755119Y-34859285D01*
X138169880Y-34859285D01*
X138935595Y-34073571D02*
X138361309Y-35037857D01*
X139541785Y-34859285D02*
X139318452Y-34502142D01*
X139158928Y-34859285D02*
X139158928Y-34109285D01*
X139414166Y-34109285D01*
X139477976Y-34145000D01*
X139509880Y-34180714D01*
X139541785Y-34252142D01*
X139541785Y-34359285D01*
X139509880Y-34430714D01*
X139477976Y-34466428D01*
X139414166Y-34502142D01*
X139158928Y-34502142D01*
X139765119Y-34109285D02*
X140211785Y-34859285D01*
X140211785Y-34109285D02*
X139765119Y-34859285D01*
X140817976Y-34859285D02*
X140435119Y-34859285D01*
X140626547Y-34859285D02*
X140626547Y-34109285D01*
X140562738Y-34216428D01*
X140498928Y-34287857D01*
X140435119Y-34323571D01*
X138576309Y-57166428D02*
X138672023Y-57202142D01*
X138703928Y-57237857D01*
X138735833Y-57309285D01*
X138735833Y-57416428D01*
X138703928Y-57487857D01*
X138672023Y-57523571D01*
X138608214Y-57559285D01*
X138352976Y-57559285D01*
X138352976Y-56809285D01*
X138576309Y-56809285D01*
X138640119Y-56845000D01*
X138672023Y-56880714D01*
X138703928Y-56952142D01*
X138703928Y-57023571D01*
X138672023Y-57095000D01*
X138640119Y-57130714D01*
X138576309Y-57166428D01*
X138352976Y-57166428D01*
X139310119Y-57059285D02*
X139310119Y-57559285D01*
X139150595Y-56773571D02*
X138991071Y-57309285D01*
X139405833Y-57309285D01*
X140139642Y-56773571D02*
X139565357Y-57737857D01*
X140458690Y-57130714D02*
X140394880Y-57095000D01*
X140362976Y-57059285D01*
X140331071Y-56987857D01*
X140331071Y-56952142D01*
X140362976Y-56880714D01*
X140394880Y-56845000D01*
X140458690Y-56809285D01*
X140586309Y-56809285D01*
X140650119Y-56845000D01*
X140682023Y-56880714D01*
X140713928Y-56952142D01*
X140713928Y-56987857D01*
X140682023Y-57059285D01*
X140650119Y-57095000D01*
X140586309Y-57130714D01*
X140458690Y-57130714D01*
X140394880Y-57166428D01*
X140362976Y-57202142D01*
X140331071Y-57273571D01*
X140331071Y-57416428D01*
X140362976Y-57487857D01*
X140394880Y-57523571D01*
X140458690Y-57559285D01*
X140586309Y-57559285D01*
X140650119Y-57523571D01*
X140682023Y-57487857D01*
X140713928Y-57416428D01*
X140713928Y-57273571D01*
X140682023Y-57202142D01*
X140650119Y-57166428D01*
X140586309Y-57130714D01*
X132577023Y-27809285D02*
X132577023Y-27059285D01*
X132800357Y-27595000D01*
X133023690Y-27059285D01*
X133023690Y-27809285D01*
X133342738Y-27809285D02*
X133342738Y-27309285D01*
X133342738Y-27059285D02*
X133310833Y-27095000D01*
X133342738Y-27130714D01*
X133374642Y-27095000D01*
X133342738Y-27059285D01*
X133342738Y-27130714D01*
X133948928Y-27773571D02*
X133885119Y-27809285D01*
X133757500Y-27809285D01*
X133693690Y-27773571D01*
X133661785Y-27737857D01*
X133629880Y-27666428D01*
X133629880Y-27452142D01*
X133661785Y-27380714D01*
X133693690Y-27345000D01*
X133757500Y-27309285D01*
X133885119Y-27309285D01*
X133948928Y-27345000D01*
X134236071Y-27809285D02*
X134236071Y-27309285D01*
X134236071Y-27452142D02*
X134267976Y-27380714D01*
X134299880Y-27345000D01*
X134363690Y-27309285D01*
X134427500Y-27309285D01*
X134746547Y-27809285D02*
X134682738Y-27773571D01*
X134650833Y-27737857D01*
X134618928Y-27666428D01*
X134618928Y-27452142D01*
X134650833Y-27380714D01*
X134682738Y-27345000D01*
X134746547Y-27309285D01*
X134842261Y-27309285D01*
X134906071Y-27345000D01*
X134937976Y-27380714D01*
X134969880Y-27452142D01*
X134969880Y-27666428D01*
X134937976Y-27737857D01*
X134906071Y-27773571D01*
X134842261Y-27809285D01*
X134746547Y-27809285D01*
X135257023Y-27059285D02*
X135257023Y-27666428D01*
X135288928Y-27737857D01*
X135320833Y-27773571D01*
X135384642Y-27809285D01*
X135512261Y-27809285D01*
X135576071Y-27773571D01*
X135607976Y-27737857D01*
X135639880Y-27666428D01*
X135639880Y-27059285D01*
X135927023Y-27773571D02*
X136022738Y-27809285D01*
X136182261Y-27809285D01*
X136246071Y-27773571D01*
X136277976Y-27737857D01*
X136309880Y-27666428D01*
X136309880Y-27595000D01*
X136277976Y-27523571D01*
X136246071Y-27487857D01*
X136182261Y-27452142D01*
X136054642Y-27416428D01*
X135990833Y-27380714D01*
X135958928Y-27345000D01*
X135927023Y-27273571D01*
X135927023Y-27202142D01*
X135958928Y-27130714D01*
X135990833Y-27095000D01*
X136054642Y-27059285D01*
X136214166Y-27059285D01*
X136309880Y-27095000D01*
X136820357Y-27416428D02*
X136916071Y-27452142D01*
X136947976Y-27487857D01*
X136979880Y-27559285D01*
X136979880Y-27666428D01*
X136947976Y-27737857D01*
X136916071Y-27773571D01*
X136852261Y-27809285D01*
X136597023Y-27809285D01*
X136597023Y-27059285D01*
X136820357Y-27059285D01*
X136884166Y-27095000D01*
X136916071Y-27130714D01*
X136947976Y-27202142D01*
X136947976Y-27273571D01*
X136916071Y-27345000D01*
X136884166Y-27380714D01*
X136820357Y-27416428D01*
X136597023Y-27416428D01*
X132577023Y-27809285D02*
X132577023Y-27059285D01*
X132800357Y-27595000D01*
X133023690Y-27059285D01*
X133023690Y-27809285D01*
X133342738Y-27809285D02*
X133342738Y-27309285D01*
X133342738Y-27059285D02*
X133310833Y-27095000D01*
X133342738Y-27130714D01*
X133374642Y-27095000D01*
X133342738Y-27059285D01*
X133342738Y-27130714D01*
X133948928Y-27773571D02*
X133885119Y-27809285D01*
X133757500Y-27809285D01*
X133693690Y-27773571D01*
X133661785Y-27737857D01*
X133629880Y-27666428D01*
X133629880Y-27452142D01*
X133661785Y-27380714D01*
X133693690Y-27345000D01*
X133757500Y-27309285D01*
X133885119Y-27309285D01*
X133948928Y-27345000D01*
X134236071Y-27809285D02*
X134236071Y-27309285D01*
X134236071Y-27452142D02*
X134267976Y-27380714D01*
X134299880Y-27345000D01*
X134363690Y-27309285D01*
X134427500Y-27309285D01*
X134746547Y-27809285D02*
X134682738Y-27773571D01*
X134650833Y-27737857D01*
X134618928Y-27666428D01*
X134618928Y-27452142D01*
X134650833Y-27380714D01*
X134682738Y-27345000D01*
X134746547Y-27309285D01*
X134842261Y-27309285D01*
X134906071Y-27345000D01*
X134937976Y-27380714D01*
X134969880Y-27452142D01*
X134969880Y-27666428D01*
X134937976Y-27737857D01*
X134906071Y-27773571D01*
X134842261Y-27809285D01*
X134746547Y-27809285D01*
X135257023Y-27059285D02*
X135257023Y-27666428D01*
X135288928Y-27737857D01*
X135320833Y-27773571D01*
X135384642Y-27809285D01*
X135512261Y-27809285D01*
X135576071Y-27773571D01*
X135607976Y-27737857D01*
X135639880Y-27666428D01*
X135639880Y-27059285D01*
X135927023Y-27773571D02*
X136022738Y-27809285D01*
X136182261Y-27809285D01*
X136246071Y-27773571D01*
X136277976Y-27737857D01*
X136309880Y-27666428D01*
X136309880Y-27595000D01*
X136277976Y-27523571D01*
X136246071Y-27487857D01*
X136182261Y-27452142D01*
X136054642Y-27416428D01*
X135990833Y-27380714D01*
X135958928Y-27345000D01*
X135927023Y-27273571D01*
X135927023Y-27202142D01*
X135958928Y-27130714D01*
X135990833Y-27095000D01*
X136054642Y-27059285D01*
X136214166Y-27059285D01*
X136309880Y-27095000D01*
X136820357Y-27416428D02*
X136916071Y-27452142D01*
X136947976Y-27487857D01*
X136979880Y-27559285D01*
X136979880Y-27666428D01*
X136947976Y-27737857D01*
X136916071Y-27773571D01*
X136852261Y-27809285D01*
X136597023Y-27809285D01*
X136597023Y-27059285D01*
X136820357Y-27059285D01*
X136884166Y-27095000D01*
X136916071Y-27130714D01*
X136947976Y-27202142D01*
X136947976Y-27273571D01*
X136916071Y-27345000D01*
X136884166Y-27380714D01*
X136820357Y-27416428D01*
X136597023Y-27416428D01*
X129187023Y-34105000D02*
X129123214Y-34069285D01*
X129027500Y-34069285D01*
X128931785Y-34105000D01*
X128867976Y-34176428D01*
X128836071Y-34247857D01*
X128804166Y-34390714D01*
X128804166Y-34497857D01*
X128836071Y-34640714D01*
X128867976Y-34712142D01*
X128931785Y-34783571D01*
X129027500Y-34819285D01*
X129091309Y-34819285D01*
X129187023Y-34783571D01*
X129218928Y-34747857D01*
X129218928Y-34497857D01*
X129091309Y-34497857D01*
X129506071Y-34819285D02*
X129506071Y-34069285D01*
X129888928Y-34819285D01*
X129888928Y-34069285D01*
X130207976Y-34819285D02*
X130207976Y-34069285D01*
X130367500Y-34069285D01*
X130463214Y-34105000D01*
X130527023Y-34176428D01*
X130558928Y-34247857D01*
X130590833Y-34390714D01*
X130590833Y-34497857D01*
X130558928Y-34640714D01*
X130527023Y-34712142D01*
X130463214Y-34783571D01*
X130367500Y-34819285D01*
X130207976Y-34819285D01*
X156189380Y-32451285D02*
X155966047Y-32094142D01*
X155806523Y-32451285D02*
X155806523Y-31701285D01*
X156061761Y-31701285D01*
X156125571Y-31737000D01*
X156157476Y-31772714D01*
X156189380Y-31844142D01*
X156189380Y-31951285D01*
X156157476Y-32022714D01*
X156125571Y-32058428D01*
X156061761Y-32094142D01*
X155806523Y-32094142D01*
X156444619Y-32237000D02*
X156763666Y-32237000D01*
X156380809Y-32451285D02*
X156604142Y-31701285D01*
X156827476Y-32451285D01*
X156987000Y-31701285D02*
X157146523Y-32451285D01*
X157274142Y-31915571D01*
X157401761Y-32451285D01*
X157561285Y-31701285D01*
X166432023Y-39115000D02*
X166368214Y-39079285D01*
X166272500Y-39079285D01*
X166176785Y-39115000D01*
X166112976Y-39186428D01*
X166081071Y-39257857D01*
X166049166Y-39400714D01*
X166049166Y-39507857D01*
X166081071Y-39650714D01*
X166112976Y-39722142D01*
X166176785Y-39793571D01*
X166272500Y-39829285D01*
X166336309Y-39829285D01*
X166432023Y-39793571D01*
X166463928Y-39757857D01*
X166463928Y-39507857D01*
X166336309Y-39507857D01*
X166751071Y-39829285D02*
X166751071Y-39079285D01*
X167133928Y-39829285D01*
X167133928Y-39079285D01*
X167452976Y-39829285D02*
X167452976Y-39079285D01*
X167612500Y-39079285D01*
X167708214Y-39115000D01*
X167772023Y-39186428D01*
X167803928Y-39257857D01*
X167835833Y-39400714D01*
X167835833Y-39507857D01*
X167803928Y-39650714D01*
X167772023Y-39722142D01*
X167708214Y-39793571D01*
X167612500Y-39829285D01*
X167452976Y-39829285D01*
X156285095Y-37594785D02*
X156061761Y-37237642D01*
X155902238Y-37594785D02*
X155902238Y-36844785D01*
X156157476Y-36844785D01*
X156221285Y-36880500D01*
X156253190Y-36916214D01*
X156285095Y-36987642D01*
X156285095Y-37094785D01*
X156253190Y-37166214D01*
X156221285Y-37201928D01*
X156157476Y-37237642D01*
X155902238Y-37237642D01*
X156540333Y-37559071D02*
X156636047Y-37594785D01*
X156795571Y-37594785D01*
X156859380Y-37559071D01*
X156891285Y-37523357D01*
X156923190Y-37451928D01*
X156923190Y-37380500D01*
X156891285Y-37309071D01*
X156859380Y-37273357D01*
X156795571Y-37237642D01*
X156667952Y-37201928D01*
X156604142Y-37166214D01*
X156572238Y-37130500D01*
X156540333Y-37059071D01*
X156540333Y-36987642D01*
X156572238Y-36916214D01*
X156604142Y-36880500D01*
X156667952Y-36844785D01*
X156827476Y-36844785D01*
X156923190Y-36880500D01*
X157114619Y-36844785D02*
X157497476Y-36844785D01*
X157306047Y-37594785D02*
X157306047Y-36844785D01*
X155758666Y-39321285D02*
X155982000Y-40071285D01*
X156205333Y-39321285D01*
X156811523Y-39999857D02*
X156779619Y-40035571D01*
X156683904Y-40071285D01*
X156620095Y-40071285D01*
X156524380Y-40035571D01*
X156460571Y-39964142D01*
X156428666Y-39892714D01*
X156396761Y-39749857D01*
X156396761Y-39642714D01*
X156428666Y-39499857D01*
X156460571Y-39428428D01*
X156524380Y-39357000D01*
X156620095Y-39321285D01*
X156683904Y-39321285D01*
X156779619Y-39357000D01*
X156811523Y-39392714D01*
X157481523Y-39999857D02*
X157449619Y-40035571D01*
X157353904Y-40071285D01*
X157290095Y-40071285D01*
X157194380Y-40035571D01*
X157130571Y-39964142D01*
X157098666Y-39892714D01*
X157066761Y-39749857D01*
X157066761Y-39642714D01*
X157098666Y-39499857D01*
X157130571Y-39428428D01*
X157194380Y-39357000D01*
X157290095Y-39321285D01*
X157353904Y-39321285D01*
X157449619Y-39357000D01*
X157481523Y-39392714D01*
X156156785Y-42265000D02*
X156475833Y-42265000D01*
X156092976Y-42479285D02*
X156316309Y-41729285D01*
X156539642Y-42479285D01*
X156699166Y-41729285D02*
X157113928Y-41729285D01*
X156890595Y-42015000D01*
X156986309Y-42015000D01*
X157050119Y-42050714D01*
X157082023Y-42086428D01*
X157113928Y-42157857D01*
X157113928Y-42336428D01*
X157082023Y-42407857D01*
X157050119Y-42443571D01*
X156986309Y-42479285D01*
X156794880Y-42479285D01*
X156731071Y-42443571D01*
X156699166Y-42407857D01*
X157879642Y-41693571D02*
X157305357Y-42657857D01*
X158326309Y-42086428D02*
X158102976Y-42086428D01*
X158102976Y-42479285D02*
X158102976Y-41729285D01*
X158422023Y-41729285D01*
X158964404Y-41979285D02*
X158964404Y-42479285D01*
X158804880Y-41693571D02*
X158645357Y-42229285D01*
X159060119Y-42229285D01*
X156156785Y-44765000D02*
X156475833Y-44765000D01*
X156092976Y-44979285D02*
X156316309Y-44229285D01*
X156539642Y-44979285D01*
X156731071Y-44300714D02*
X156762976Y-44265000D01*
X156826785Y-44229285D01*
X156986309Y-44229285D01*
X157050119Y-44265000D01*
X157082023Y-44300714D01*
X157113928Y-44372142D01*
X157113928Y-44443571D01*
X157082023Y-44550714D01*
X156699166Y-44979285D01*
X157113928Y-44979285D01*
X157879642Y-44193571D02*
X157305357Y-45157857D01*
X158326309Y-44586428D02*
X158102976Y-44586428D01*
X158102976Y-44979285D02*
X158102976Y-44229285D01*
X158422023Y-44229285D01*
X158996309Y-44229285D02*
X158677261Y-44229285D01*
X158645357Y-44586428D01*
X158677261Y-44550714D01*
X158741071Y-44515000D01*
X158900595Y-44515000D01*
X158964404Y-44550714D01*
X158996309Y-44586428D01*
X159028214Y-44657857D01*
X159028214Y-44836428D01*
X158996309Y-44907857D01*
X158964404Y-44943571D01*
X158900595Y-44979285D01*
X158741071Y-44979285D01*
X158677261Y-44943571D01*
X158645357Y-44907857D01*
X156156785Y-47265000D02*
X156475833Y-47265000D01*
X156092976Y-47479285D02*
X156316309Y-46729285D01*
X156539642Y-47479285D01*
X157113928Y-47479285D02*
X156731071Y-47479285D01*
X156922500Y-47479285D02*
X156922500Y-46729285D01*
X156858690Y-46836428D01*
X156794880Y-46907857D01*
X156731071Y-46943571D01*
X157879642Y-46693571D02*
X157305357Y-47657857D01*
X158326309Y-47086428D02*
X158102976Y-47086428D01*
X158102976Y-47479285D02*
X158102976Y-46729285D01*
X158422023Y-46729285D01*
X158964404Y-46729285D02*
X158836785Y-46729285D01*
X158772976Y-46765000D01*
X158741071Y-46800714D01*
X158677261Y-46907857D01*
X158645357Y-47050714D01*
X158645357Y-47336428D01*
X158677261Y-47407857D01*
X158709166Y-47443571D01*
X158772976Y-47479285D01*
X158900595Y-47479285D01*
X158964404Y-47443571D01*
X158996309Y-47407857D01*
X159028214Y-47336428D01*
X159028214Y-47157857D01*
X158996309Y-47086428D01*
X158964404Y-47050714D01*
X158900595Y-47015000D01*
X158772976Y-47015000D01*
X158709166Y-47050714D01*
X158677261Y-47086428D01*
X158645357Y-47157857D01*
X156156785Y-49815000D02*
X156475833Y-49815000D01*
X156092976Y-50029285D02*
X156316309Y-49279285D01*
X156539642Y-50029285D01*
X156890595Y-49279285D02*
X156954404Y-49279285D01*
X157018214Y-49315000D01*
X157050119Y-49350714D01*
X157082023Y-49422142D01*
X157113928Y-49565000D01*
X157113928Y-49743571D01*
X157082023Y-49886428D01*
X157050119Y-49957857D01*
X157018214Y-49993571D01*
X156954404Y-50029285D01*
X156890595Y-50029285D01*
X156826785Y-49993571D01*
X156794880Y-49957857D01*
X156762976Y-49886428D01*
X156731071Y-49743571D01*
X156731071Y-49565000D01*
X156762976Y-49422142D01*
X156794880Y-49350714D01*
X156826785Y-49315000D01*
X156890595Y-49279285D01*
X157879642Y-49243571D02*
X157305357Y-50207857D01*
X158326309Y-49636428D02*
X158102976Y-49636428D01*
X158102976Y-50029285D02*
X158102976Y-49279285D01*
X158422023Y-49279285D01*
X158613452Y-49279285D02*
X159060119Y-49279285D01*
X158772976Y-50029285D01*
X156459880Y-52579285D02*
X156077023Y-52579285D01*
X156268452Y-52579285D02*
X156268452Y-51829285D01*
X156204642Y-51936428D01*
X156140833Y-52007857D01*
X156077023Y-52043571D01*
X157066071Y-51829285D02*
X156747023Y-51829285D01*
X156715119Y-52186428D01*
X156747023Y-52150714D01*
X156810833Y-52115000D01*
X156970357Y-52115000D01*
X157034166Y-52150714D01*
X157066071Y-52186428D01*
X157097976Y-52257857D01*
X157097976Y-52436428D01*
X157066071Y-52507857D01*
X157034166Y-52543571D01*
X156970357Y-52579285D01*
X156810833Y-52579285D01*
X156747023Y-52543571D01*
X156715119Y-52507857D01*
X157863690Y-51793571D02*
X157289404Y-52757857D01*
X158310357Y-52186428D02*
X158406071Y-52222142D01*
X158437976Y-52257857D01*
X158469880Y-52329285D01*
X158469880Y-52436428D01*
X158437976Y-52507857D01*
X158406071Y-52543571D01*
X158342261Y-52579285D01*
X158087023Y-52579285D01*
X158087023Y-51829285D01*
X158310357Y-51829285D01*
X158374166Y-51865000D01*
X158406071Y-51900714D01*
X158437976Y-51972142D01*
X158437976Y-52043571D01*
X158406071Y-52115000D01*
X158374166Y-52150714D01*
X158310357Y-52186428D01*
X158087023Y-52186428D01*
X159107976Y-52579285D02*
X158725119Y-52579285D01*
X158916547Y-52579285D02*
X158916547Y-51829285D01*
X158852738Y-51936428D01*
X158788928Y-52007857D01*
X158725119Y-52043571D01*
X156459880Y-55129285D02*
X156077023Y-55129285D01*
X156268452Y-55129285D02*
X156268452Y-54379285D01*
X156204642Y-54486428D01*
X156140833Y-54557857D01*
X156077023Y-54593571D01*
X157034166Y-54629285D02*
X157034166Y-55129285D01*
X156874642Y-54343571D02*
X156715119Y-54879285D01*
X157129880Y-54879285D01*
X157863690Y-54343571D02*
X157289404Y-55307857D01*
X158310357Y-54736428D02*
X158406071Y-54772142D01*
X158437976Y-54807857D01*
X158469880Y-54879285D01*
X158469880Y-54986428D01*
X158437976Y-55057857D01*
X158406071Y-55093571D01*
X158342261Y-55129285D01*
X158087023Y-55129285D01*
X158087023Y-54379285D01*
X158310357Y-54379285D01*
X158374166Y-54415000D01*
X158406071Y-54450714D01*
X158437976Y-54522142D01*
X158437976Y-54593571D01*
X158406071Y-54665000D01*
X158374166Y-54700714D01*
X158310357Y-54736428D01*
X158087023Y-54736428D01*
X158693214Y-54379285D02*
X159107976Y-54379285D01*
X158884642Y-54665000D01*
X158980357Y-54665000D01*
X159044166Y-54700714D01*
X159076071Y-54736428D01*
X159107976Y-54807857D01*
X159107976Y-54986428D01*
X159076071Y-55057857D01*
X159044166Y-55093571D01*
X158980357Y-55129285D01*
X158788928Y-55129285D01*
X158725119Y-55093571D01*
X158693214Y-55057857D01*
X156459880Y-60179285D02*
X156077023Y-60179285D01*
X156268452Y-60179285D02*
X156268452Y-59429285D01*
X156204642Y-59536428D01*
X156140833Y-59607857D01*
X156077023Y-59643571D01*
X156874642Y-59429285D02*
X156938452Y-59429285D01*
X157002261Y-59465000D01*
X157034166Y-59500714D01*
X157066071Y-59572142D01*
X157097976Y-59715000D01*
X157097976Y-59893571D01*
X157066071Y-60036428D01*
X157034166Y-60107857D01*
X157002261Y-60143571D01*
X156938452Y-60179285D01*
X156874642Y-60179285D01*
X156810833Y-60143571D01*
X156778928Y-60107857D01*
X156747023Y-60036428D01*
X156715119Y-59893571D01*
X156715119Y-59715000D01*
X156747023Y-59572142D01*
X156778928Y-59500714D01*
X156810833Y-59465000D01*
X156874642Y-59429285D01*
X157863690Y-59393571D02*
X157289404Y-60357857D01*
X158310357Y-59786428D02*
X158406071Y-59822142D01*
X158437976Y-59857857D01*
X158469880Y-59929285D01*
X158469880Y-60036428D01*
X158437976Y-60107857D01*
X158406071Y-60143571D01*
X158342261Y-60179285D01*
X158087023Y-60179285D01*
X158087023Y-59429285D01*
X158310357Y-59429285D01*
X158374166Y-59465000D01*
X158406071Y-59500714D01*
X158437976Y-59572142D01*
X158437976Y-59643571D01*
X158406071Y-59715000D01*
X158374166Y-59750714D01*
X158310357Y-59786428D01*
X158087023Y-59786428D01*
X159044166Y-59429285D02*
X158916547Y-59429285D01*
X158852738Y-59465000D01*
X158820833Y-59500714D01*
X158757023Y-59607857D01*
X158725119Y-59750714D01*
X158725119Y-60036428D01*
X158757023Y-60107857D01*
X158788928Y-60143571D01*
X158852738Y-60179285D01*
X158980357Y-60179285D01*
X159044166Y-60143571D01*
X159076071Y-60107857D01*
X159107976Y-60036428D01*
X159107976Y-59857857D01*
X159076071Y-59786428D01*
X159044166Y-59750714D01*
X158980357Y-59715000D01*
X158852738Y-59715000D01*
X158788928Y-59750714D01*
X158757023Y-59786428D01*
X158725119Y-59857857D01*
X156459880Y-57679285D02*
X156077023Y-57679285D01*
X156268452Y-57679285D02*
X156268452Y-56929285D01*
X156204642Y-57036428D01*
X156140833Y-57107857D01*
X156077023Y-57143571D01*
X157034166Y-56929285D02*
X156906547Y-56929285D01*
X156842738Y-56965000D01*
X156810833Y-57000714D01*
X156747023Y-57107857D01*
X156715119Y-57250714D01*
X156715119Y-57536428D01*
X156747023Y-57607857D01*
X156778928Y-57643571D01*
X156842738Y-57679285D01*
X156970357Y-57679285D01*
X157034166Y-57643571D01*
X157066071Y-57607857D01*
X157097976Y-57536428D01*
X157097976Y-57357857D01*
X157066071Y-57286428D01*
X157034166Y-57250714D01*
X156970357Y-57215000D01*
X156842738Y-57215000D01*
X156778928Y-57250714D01*
X156747023Y-57286428D01*
X156715119Y-57357857D01*
X157863690Y-56893571D02*
X157289404Y-57857857D01*
X158310357Y-57286428D02*
X158406071Y-57322142D01*
X158437976Y-57357857D01*
X158469880Y-57429285D01*
X158469880Y-57536428D01*
X158437976Y-57607857D01*
X158406071Y-57643571D01*
X158342261Y-57679285D01*
X158087023Y-57679285D01*
X158087023Y-56929285D01*
X158310357Y-56929285D01*
X158374166Y-56965000D01*
X158406071Y-57000714D01*
X158437976Y-57072142D01*
X158437976Y-57143571D01*
X158406071Y-57215000D01*
X158374166Y-57250714D01*
X158310357Y-57286428D01*
X158087023Y-57286428D01*
X158725119Y-57000714D02*
X158757023Y-56965000D01*
X158820833Y-56929285D01*
X158980357Y-56929285D01*
X159044166Y-56965000D01*
X159076071Y-57000714D01*
X159107976Y-57072142D01*
X159107976Y-57143571D01*
X159076071Y-57250714D01*
X158693214Y-57679285D01*
X159107976Y-57679285D01*
X165559880Y-54586428D02*
X165783214Y-54586428D01*
X165878928Y-54979285D02*
X165559880Y-54979285D01*
X165559880Y-54229285D01*
X165878928Y-54229285D01*
X166453214Y-54229285D02*
X166325595Y-54229285D01*
X166261785Y-54265000D01*
X166229880Y-54300714D01*
X166166071Y-54407857D01*
X166134166Y-54550714D01*
X166134166Y-54836428D01*
X166166071Y-54907857D01*
X166197976Y-54943571D01*
X166261785Y-54979285D01*
X166389404Y-54979285D01*
X166453214Y-54943571D01*
X166485119Y-54907857D01*
X166517023Y-54836428D01*
X166517023Y-54657857D01*
X166485119Y-54586428D01*
X166453214Y-54550714D01*
X166389404Y-54515000D01*
X166261785Y-54515000D01*
X166197976Y-54550714D01*
X166166071Y-54586428D01*
X166134166Y-54657857D01*
X167282738Y-54193571D02*
X166708452Y-55157857D01*
X167442261Y-54229285D02*
X167888928Y-54229285D01*
X167601785Y-54979285D01*
X165527976Y-52429285D02*
X165527976Y-51679285D01*
X165687500Y-51679285D01*
X165783214Y-51715000D01*
X165847023Y-51786428D01*
X165878928Y-51857857D01*
X165910833Y-52000714D01*
X165910833Y-52107857D01*
X165878928Y-52250714D01*
X165847023Y-52322142D01*
X165783214Y-52393571D01*
X165687500Y-52429285D01*
X165527976Y-52429285D01*
X166134166Y-51679285D02*
X166580833Y-51679285D01*
X166293690Y-52429285D01*
X167314642Y-51643571D02*
X166740357Y-52607857D01*
X167825119Y-51679285D02*
X167697500Y-51679285D01*
X167633690Y-51715000D01*
X167601785Y-51750714D01*
X167537976Y-51857857D01*
X167506071Y-52000714D01*
X167506071Y-52286428D01*
X167537976Y-52357857D01*
X167569880Y-52393571D01*
X167633690Y-52429285D01*
X167761309Y-52429285D01*
X167825119Y-52393571D01*
X167857023Y-52357857D01*
X167888928Y-52286428D01*
X167888928Y-52107857D01*
X167857023Y-52036428D01*
X167825119Y-52000714D01*
X167761309Y-51965000D01*
X167633690Y-51965000D01*
X167569880Y-52000714D01*
X167537976Y-52036428D01*
X167506071Y-52107857D01*
X166432023Y-36665000D02*
X166368214Y-36629285D01*
X166272500Y-36629285D01*
X166176785Y-36665000D01*
X166112976Y-36736428D01*
X166081071Y-36807857D01*
X166049166Y-36950714D01*
X166049166Y-37057857D01*
X166081071Y-37200714D01*
X166112976Y-37272142D01*
X166176785Y-37343571D01*
X166272500Y-37379285D01*
X166336309Y-37379285D01*
X166432023Y-37343571D01*
X166463928Y-37307857D01*
X166463928Y-37057857D01*
X166336309Y-37057857D01*
X166751071Y-37379285D02*
X166751071Y-36629285D01*
X167133928Y-37379285D01*
X167133928Y-36629285D01*
X167452976Y-37379285D02*
X167452976Y-36629285D01*
X167612500Y-36629285D01*
X167708214Y-36665000D01*
X167772023Y-36736428D01*
X167803928Y-36807857D01*
X167835833Y-36950714D01*
X167835833Y-37057857D01*
X167803928Y-37200714D01*
X167772023Y-37272142D01*
X167708214Y-37343571D01*
X167612500Y-37379285D01*
X167452976Y-37379285D01*
X166432023Y-39115000D02*
X166368214Y-39079285D01*
X166272500Y-39079285D01*
X166176785Y-39115000D01*
X166112976Y-39186428D01*
X166081071Y-39257857D01*
X166049166Y-39400714D01*
X166049166Y-39507857D01*
X166081071Y-39650714D01*
X166112976Y-39722142D01*
X166176785Y-39793571D01*
X166272500Y-39829285D01*
X166336309Y-39829285D01*
X166432023Y-39793571D01*
X166463928Y-39757857D01*
X166463928Y-39507857D01*
X166336309Y-39507857D01*
X166751071Y-39829285D02*
X166751071Y-39079285D01*
X167133928Y-39829285D01*
X167133928Y-39079285D01*
X167452976Y-39829285D02*
X167452976Y-39079285D01*
X167612500Y-39079285D01*
X167708214Y-39115000D01*
X167772023Y-39186428D01*
X167803928Y-39257857D01*
X167835833Y-39400714D01*
X167835833Y-39507857D01*
X167803928Y-39650714D01*
X167772023Y-39722142D01*
X167708214Y-39793571D01*
X167612500Y-39829285D01*
X167452976Y-39829285D01*
X164403690Y-32279285D02*
X164403690Y-31529285D01*
X164563214Y-31529285D01*
X164658928Y-31565000D01*
X164722738Y-31636428D01*
X164754642Y-31707857D01*
X164786547Y-31850714D01*
X164786547Y-31957857D01*
X164754642Y-32100714D01*
X164722738Y-32172142D01*
X164658928Y-32243571D01*
X164563214Y-32279285D01*
X164403690Y-32279285D01*
X165009880Y-31529285D02*
X165424642Y-31529285D01*
X165201309Y-31815000D01*
X165297023Y-31815000D01*
X165360833Y-31850714D01*
X165392738Y-31886428D01*
X165424642Y-31957857D01*
X165424642Y-32136428D01*
X165392738Y-32207857D01*
X165360833Y-32243571D01*
X165297023Y-32279285D01*
X165105595Y-32279285D01*
X165041785Y-32243571D01*
X165009880Y-32207857D01*
X166190357Y-31493571D02*
X165616071Y-32457857D01*
X166317976Y-31529285D02*
X166700833Y-31529285D01*
X166509404Y-32279285D02*
X166509404Y-31529285D01*
X166860357Y-31529285D02*
X167307023Y-32279285D01*
X167307023Y-31529285D02*
X166860357Y-32279285D01*
X167689880Y-31529285D02*
X167753690Y-31529285D01*
X167817500Y-31565000D01*
X167849404Y-31600714D01*
X167881309Y-31672142D01*
X167913214Y-31815000D01*
X167913214Y-31993571D01*
X167881309Y-32136428D01*
X167849404Y-32207857D01*
X167817500Y-32243571D01*
X167753690Y-32279285D01*
X167689880Y-32279285D01*
X167626071Y-32243571D01*
X167594166Y-32207857D01*
X167562261Y-32136428D01*
X167530357Y-31993571D01*
X167530357Y-31815000D01*
X167562261Y-31672142D01*
X167594166Y-31600714D01*
X167626071Y-31565000D01*
X167689880Y-31529285D01*
X165527976Y-47329285D02*
X165527976Y-46579285D01*
X165687500Y-46579285D01*
X165783214Y-46615000D01*
X165847023Y-46686428D01*
X165878928Y-46757857D01*
X165910833Y-46900714D01*
X165910833Y-47007857D01*
X165878928Y-47150714D01*
X165847023Y-47222142D01*
X165783214Y-47293571D01*
X165687500Y-47329285D01*
X165527976Y-47329285D01*
X166485119Y-46829285D02*
X166485119Y-47329285D01*
X166325595Y-46543571D02*
X166166071Y-47079285D01*
X166580833Y-47079285D01*
X167314642Y-46543571D02*
X166740357Y-47507857D01*
X167825119Y-46829285D02*
X167825119Y-47329285D01*
X167665595Y-46543571D02*
X167506071Y-47079285D01*
X167920833Y-47079285D01*
X162953928Y-42293571D02*
X163049642Y-42329285D01*
X163209166Y-42329285D01*
X163272976Y-42293571D01*
X163304880Y-42257857D01*
X163336785Y-42186428D01*
X163336785Y-42115000D01*
X163304880Y-42043571D01*
X163272976Y-42007857D01*
X163209166Y-41972142D01*
X163081547Y-41936428D01*
X163017738Y-41900714D01*
X162985833Y-41865000D01*
X162953928Y-41793571D01*
X162953928Y-41722142D01*
X162985833Y-41650714D01*
X163017738Y-41615000D01*
X163081547Y-41579285D01*
X163241071Y-41579285D01*
X163336785Y-41615000D01*
X163623928Y-42329285D02*
X163623928Y-41579285D01*
X163783452Y-41579285D01*
X163879166Y-41615000D01*
X163942976Y-41686428D01*
X163974880Y-41757857D01*
X164006785Y-41900714D01*
X164006785Y-42007857D01*
X163974880Y-42150714D01*
X163942976Y-42222142D01*
X163879166Y-42293571D01*
X163783452Y-42329285D01*
X163623928Y-42329285D01*
X164262023Y-42115000D02*
X164581071Y-42115000D01*
X164198214Y-42329285D02*
X164421547Y-41579285D01*
X164644880Y-42329285D01*
X165346785Y-41543571D02*
X164772500Y-42507857D01*
X165570119Y-42329285D02*
X165570119Y-41579285D01*
X165729642Y-41579285D01*
X165825357Y-41615000D01*
X165889166Y-41686428D01*
X165921071Y-41757857D01*
X165952976Y-41900714D01*
X165952976Y-42007857D01*
X165921071Y-42150714D01*
X165889166Y-42222142D01*
X165825357Y-42293571D01*
X165729642Y-42329285D01*
X165570119Y-42329285D01*
X166591071Y-42329285D02*
X166208214Y-42329285D01*
X166399642Y-42329285D02*
X166399642Y-41579285D01*
X166335833Y-41686428D01*
X166272023Y-41757857D01*
X166208214Y-41793571D01*
X167356785Y-41543571D02*
X166782500Y-42507857D01*
X167548214Y-41650714D02*
X167580119Y-41615000D01*
X167643928Y-41579285D01*
X167803452Y-41579285D01*
X167867261Y-41615000D01*
X167899166Y-41650714D01*
X167931071Y-41722142D01*
X167931071Y-41793571D01*
X167899166Y-41900714D01*
X167516309Y-42329285D01*
X167931071Y-42329285D01*
X162969880Y-44793571D02*
X163065595Y-44829285D01*
X163225119Y-44829285D01*
X163288928Y-44793571D01*
X163320833Y-44757857D01*
X163352738Y-44686428D01*
X163352738Y-44615000D01*
X163320833Y-44543571D01*
X163288928Y-44507857D01*
X163225119Y-44472142D01*
X163097500Y-44436428D01*
X163033690Y-44400714D01*
X163001785Y-44365000D01*
X162969880Y-44293571D01*
X162969880Y-44222142D01*
X163001785Y-44150714D01*
X163033690Y-44115000D01*
X163097500Y-44079285D01*
X163257023Y-44079285D01*
X163352738Y-44115000D01*
X164022738Y-44757857D02*
X163990833Y-44793571D01*
X163895119Y-44829285D01*
X163831309Y-44829285D01*
X163735595Y-44793571D01*
X163671785Y-44722142D01*
X163639880Y-44650714D01*
X163607976Y-44507857D01*
X163607976Y-44400714D01*
X163639880Y-44257857D01*
X163671785Y-44186428D01*
X163735595Y-44115000D01*
X163831309Y-44079285D01*
X163895119Y-44079285D01*
X163990833Y-44115000D01*
X164022738Y-44150714D01*
X164628928Y-44829285D02*
X164309880Y-44829285D01*
X164309880Y-44079285D01*
X165330833Y-44043571D02*
X164756547Y-45007857D01*
X165554166Y-44829285D02*
X165554166Y-44079285D01*
X165713690Y-44079285D01*
X165809404Y-44115000D01*
X165873214Y-44186428D01*
X165905119Y-44257857D01*
X165937023Y-44400714D01*
X165937023Y-44507857D01*
X165905119Y-44650714D01*
X165873214Y-44722142D01*
X165809404Y-44793571D01*
X165713690Y-44829285D01*
X165554166Y-44829285D01*
X166351785Y-44079285D02*
X166415595Y-44079285D01*
X166479404Y-44115000D01*
X166511309Y-44150714D01*
X166543214Y-44222142D01*
X166575119Y-44365000D01*
X166575119Y-44543571D01*
X166543214Y-44686428D01*
X166511309Y-44757857D01*
X166479404Y-44793571D01*
X166415595Y-44829285D01*
X166351785Y-44829285D01*
X166287976Y-44793571D01*
X166256071Y-44757857D01*
X166224166Y-44686428D01*
X166192261Y-44543571D01*
X166192261Y-44365000D01*
X166224166Y-44222142D01*
X166256071Y-44150714D01*
X166287976Y-44115000D01*
X166351785Y-44079285D01*
X167340833Y-44043571D02*
X166766547Y-45007857D01*
X167500357Y-44079285D02*
X167915119Y-44079285D01*
X167691785Y-44365000D01*
X167787500Y-44365000D01*
X167851309Y-44400714D01*
X167883214Y-44436428D01*
X167915119Y-44507857D01*
X167915119Y-44686428D01*
X167883214Y-44757857D01*
X167851309Y-44793571D01*
X167787500Y-44829285D01*
X167596071Y-44829285D01*
X167532261Y-44793571D01*
X167500357Y-44757857D01*
X165910833Y-49807857D02*
X165878928Y-49843571D01*
X165783214Y-49879285D01*
X165719404Y-49879285D01*
X165623690Y-49843571D01*
X165559880Y-49772142D01*
X165527976Y-49700714D01*
X165496071Y-49557857D01*
X165496071Y-49450714D01*
X165527976Y-49307857D01*
X165559880Y-49236428D01*
X165623690Y-49165000D01*
X165719404Y-49129285D01*
X165783214Y-49129285D01*
X165878928Y-49165000D01*
X165910833Y-49200714D01*
X166485119Y-49129285D02*
X166357500Y-49129285D01*
X166293690Y-49165000D01*
X166261785Y-49200714D01*
X166197976Y-49307857D01*
X166166071Y-49450714D01*
X166166071Y-49736428D01*
X166197976Y-49807857D01*
X166229880Y-49843571D01*
X166293690Y-49879285D01*
X166421309Y-49879285D01*
X166485119Y-49843571D01*
X166517023Y-49807857D01*
X166548928Y-49736428D01*
X166548928Y-49557857D01*
X166517023Y-49486428D01*
X166485119Y-49450714D01*
X166421309Y-49415000D01*
X166293690Y-49415000D01*
X166229880Y-49450714D01*
X166197976Y-49486428D01*
X166166071Y-49557857D01*
X167314642Y-49093571D02*
X166740357Y-50057857D01*
X167857023Y-49129285D02*
X167537976Y-49129285D01*
X167506071Y-49486428D01*
X167537976Y-49450714D01*
X167601785Y-49415000D01*
X167761309Y-49415000D01*
X167825119Y-49450714D01*
X167857023Y-49486428D01*
X167888928Y-49557857D01*
X167888928Y-49736428D01*
X167857023Y-49807857D01*
X167825119Y-49843571D01*
X167761309Y-49879285D01*
X167601785Y-49879285D01*
X167537976Y-49843571D01*
X167506071Y-49807857D01*
X165751309Y-59636428D02*
X165847023Y-59672142D01*
X165878928Y-59707857D01*
X165910833Y-59779285D01*
X165910833Y-59886428D01*
X165878928Y-59957857D01*
X165847023Y-59993571D01*
X165783214Y-60029285D01*
X165527976Y-60029285D01*
X165527976Y-59279285D01*
X165751309Y-59279285D01*
X165815119Y-59315000D01*
X165847023Y-59350714D01*
X165878928Y-59422142D01*
X165878928Y-59493571D01*
X165847023Y-59565000D01*
X165815119Y-59600714D01*
X165751309Y-59636428D01*
X165527976Y-59636428D01*
X166517023Y-59279285D02*
X166197976Y-59279285D01*
X166166071Y-59636428D01*
X166197976Y-59600714D01*
X166261785Y-59565000D01*
X166421309Y-59565000D01*
X166485119Y-59600714D01*
X166517023Y-59636428D01*
X166548928Y-59707857D01*
X166548928Y-59886428D01*
X166517023Y-59957857D01*
X166485119Y-59993571D01*
X166421309Y-60029285D01*
X166261785Y-60029285D01*
X166197976Y-59993571D01*
X166166071Y-59957857D01*
X167314642Y-59243571D02*
X166740357Y-60207857D01*
X167569880Y-60029285D02*
X167697500Y-60029285D01*
X167761309Y-59993571D01*
X167793214Y-59957857D01*
X167857023Y-59850714D01*
X167888928Y-59707857D01*
X167888928Y-59422142D01*
X167857023Y-59350714D01*
X167825119Y-59315000D01*
X167761309Y-59279285D01*
X167633690Y-59279285D01*
X167569880Y-59315000D01*
X167537976Y-59350714D01*
X167506071Y-59422142D01*
X167506071Y-59600714D01*
X167537976Y-59672142D01*
X167569880Y-59707857D01*
X167633690Y-59743571D01*
X167761309Y-59743571D01*
X167825119Y-59707857D01*
X167857023Y-59672142D01*
X167888928Y-59600714D01*
X164323928Y-34829285D02*
X164323928Y-34079285D01*
X164483452Y-34079285D01*
X164579166Y-34115000D01*
X164642976Y-34186428D01*
X164674880Y-34257857D01*
X164706785Y-34400714D01*
X164706785Y-34507857D01*
X164674880Y-34650714D01*
X164642976Y-34722142D01*
X164579166Y-34793571D01*
X164483452Y-34829285D01*
X164323928Y-34829285D01*
X164962023Y-34150714D02*
X164993928Y-34115000D01*
X165057738Y-34079285D01*
X165217261Y-34079285D01*
X165281071Y-34115000D01*
X165312976Y-34150714D01*
X165344880Y-34222142D01*
X165344880Y-34293571D01*
X165312976Y-34400714D01*
X164930119Y-34829285D01*
X165344880Y-34829285D01*
X166110595Y-34043571D02*
X165536309Y-35007857D01*
X166716785Y-34829285D02*
X166493452Y-34472142D01*
X166333928Y-34829285D02*
X166333928Y-34079285D01*
X166589166Y-34079285D01*
X166652976Y-34115000D01*
X166684880Y-34150714D01*
X166716785Y-34222142D01*
X166716785Y-34329285D01*
X166684880Y-34400714D01*
X166652976Y-34436428D01*
X166589166Y-34472142D01*
X166333928Y-34472142D01*
X166940119Y-34079285D02*
X167386785Y-34829285D01*
X167386785Y-34079285D02*
X166940119Y-34829285D01*
X167992976Y-34829285D02*
X167610119Y-34829285D01*
X167801547Y-34829285D02*
X167801547Y-34079285D01*
X167737738Y-34186428D01*
X167673928Y-34257857D01*
X167610119Y-34293571D01*
X165751309Y-57136428D02*
X165847023Y-57172142D01*
X165878928Y-57207857D01*
X165910833Y-57279285D01*
X165910833Y-57386428D01*
X165878928Y-57457857D01*
X165847023Y-57493571D01*
X165783214Y-57529285D01*
X165527976Y-57529285D01*
X165527976Y-56779285D01*
X165751309Y-56779285D01*
X165815119Y-56815000D01*
X165847023Y-56850714D01*
X165878928Y-56922142D01*
X165878928Y-56993571D01*
X165847023Y-57065000D01*
X165815119Y-57100714D01*
X165751309Y-57136428D01*
X165527976Y-57136428D01*
X166485119Y-57029285D02*
X166485119Y-57529285D01*
X166325595Y-56743571D02*
X166166071Y-57279285D01*
X166580833Y-57279285D01*
X167314642Y-56743571D02*
X166740357Y-57707857D01*
X167633690Y-57100714D02*
X167569880Y-57065000D01*
X167537976Y-57029285D01*
X167506071Y-56957857D01*
X167506071Y-56922142D01*
X167537976Y-56850714D01*
X167569880Y-56815000D01*
X167633690Y-56779285D01*
X167761309Y-56779285D01*
X167825119Y-56815000D01*
X167857023Y-56850714D01*
X167888928Y-56922142D01*
X167888928Y-56957857D01*
X167857023Y-57029285D01*
X167825119Y-57065000D01*
X167761309Y-57100714D01*
X167633690Y-57100714D01*
X167569880Y-57136428D01*
X167537976Y-57172142D01*
X167506071Y-57243571D01*
X167506071Y-57386428D01*
X167537976Y-57457857D01*
X167569880Y-57493571D01*
X167633690Y-57529285D01*
X167761309Y-57529285D01*
X167825119Y-57493571D01*
X167857023Y-57457857D01*
X167888928Y-57386428D01*
X167888928Y-57243571D01*
X167857023Y-57172142D01*
X167825119Y-57136428D01*
X167761309Y-57100714D01*
X159752023Y-27779285D02*
X159752023Y-27029285D01*
X159975357Y-27565000D01*
X160198690Y-27029285D01*
X160198690Y-27779285D01*
X160517738Y-27779285D02*
X160517738Y-27279285D01*
X160517738Y-27029285D02*
X160485833Y-27065000D01*
X160517738Y-27100714D01*
X160549642Y-27065000D01*
X160517738Y-27029285D01*
X160517738Y-27100714D01*
X161123928Y-27743571D02*
X161060119Y-27779285D01*
X160932500Y-27779285D01*
X160868690Y-27743571D01*
X160836785Y-27707857D01*
X160804880Y-27636428D01*
X160804880Y-27422142D01*
X160836785Y-27350714D01*
X160868690Y-27315000D01*
X160932500Y-27279285D01*
X161060119Y-27279285D01*
X161123928Y-27315000D01*
X161411071Y-27779285D02*
X161411071Y-27279285D01*
X161411071Y-27422142D02*
X161442976Y-27350714D01*
X161474880Y-27315000D01*
X161538690Y-27279285D01*
X161602500Y-27279285D01*
X161921547Y-27779285D02*
X161857738Y-27743571D01*
X161825833Y-27707857D01*
X161793928Y-27636428D01*
X161793928Y-27422142D01*
X161825833Y-27350714D01*
X161857738Y-27315000D01*
X161921547Y-27279285D01*
X162017261Y-27279285D01*
X162081071Y-27315000D01*
X162112976Y-27350714D01*
X162144880Y-27422142D01*
X162144880Y-27636428D01*
X162112976Y-27707857D01*
X162081071Y-27743571D01*
X162017261Y-27779285D01*
X161921547Y-27779285D01*
X162432023Y-27029285D02*
X162432023Y-27636428D01*
X162463928Y-27707857D01*
X162495833Y-27743571D01*
X162559642Y-27779285D01*
X162687261Y-27779285D01*
X162751071Y-27743571D01*
X162782976Y-27707857D01*
X162814880Y-27636428D01*
X162814880Y-27029285D01*
X163102023Y-27743571D02*
X163197738Y-27779285D01*
X163357261Y-27779285D01*
X163421071Y-27743571D01*
X163452976Y-27707857D01*
X163484880Y-27636428D01*
X163484880Y-27565000D01*
X163452976Y-27493571D01*
X163421071Y-27457857D01*
X163357261Y-27422142D01*
X163229642Y-27386428D01*
X163165833Y-27350714D01*
X163133928Y-27315000D01*
X163102023Y-27243571D01*
X163102023Y-27172142D01*
X163133928Y-27100714D01*
X163165833Y-27065000D01*
X163229642Y-27029285D01*
X163389166Y-27029285D01*
X163484880Y-27065000D01*
X163995357Y-27386428D02*
X164091071Y-27422142D01*
X164122976Y-27457857D01*
X164154880Y-27529285D01*
X164154880Y-27636428D01*
X164122976Y-27707857D01*
X164091071Y-27743571D01*
X164027261Y-27779285D01*
X163772023Y-27779285D01*
X163772023Y-27029285D01*
X163995357Y-27029285D01*
X164059166Y-27065000D01*
X164091071Y-27100714D01*
X164122976Y-27172142D01*
X164122976Y-27243571D01*
X164091071Y-27315000D01*
X164059166Y-27350714D01*
X163995357Y-27386428D01*
X163772023Y-27386428D01*
X159752023Y-27779285D02*
X159752023Y-27029285D01*
X159975357Y-27565000D01*
X160198690Y-27029285D01*
X160198690Y-27779285D01*
X160517738Y-27779285D02*
X160517738Y-27279285D01*
X160517738Y-27029285D02*
X160485833Y-27065000D01*
X160517738Y-27100714D01*
X160549642Y-27065000D01*
X160517738Y-27029285D01*
X160517738Y-27100714D01*
X161123928Y-27743571D02*
X161060119Y-27779285D01*
X160932500Y-27779285D01*
X160868690Y-27743571D01*
X160836785Y-27707857D01*
X160804880Y-27636428D01*
X160804880Y-27422142D01*
X160836785Y-27350714D01*
X160868690Y-27315000D01*
X160932500Y-27279285D01*
X161060119Y-27279285D01*
X161123928Y-27315000D01*
X161411071Y-27779285D02*
X161411071Y-27279285D01*
X161411071Y-27422142D02*
X161442976Y-27350714D01*
X161474880Y-27315000D01*
X161538690Y-27279285D01*
X161602500Y-27279285D01*
X161921547Y-27779285D02*
X161857738Y-27743571D01*
X161825833Y-27707857D01*
X161793928Y-27636428D01*
X161793928Y-27422142D01*
X161825833Y-27350714D01*
X161857738Y-27315000D01*
X161921547Y-27279285D01*
X162017261Y-27279285D01*
X162081071Y-27315000D01*
X162112976Y-27350714D01*
X162144880Y-27422142D01*
X162144880Y-27636428D01*
X162112976Y-27707857D01*
X162081071Y-27743571D01*
X162017261Y-27779285D01*
X161921547Y-27779285D01*
X162432023Y-27029285D02*
X162432023Y-27636428D01*
X162463928Y-27707857D01*
X162495833Y-27743571D01*
X162559642Y-27779285D01*
X162687261Y-27779285D01*
X162751071Y-27743571D01*
X162782976Y-27707857D01*
X162814880Y-27636428D01*
X162814880Y-27029285D01*
X163102023Y-27743571D02*
X163197738Y-27779285D01*
X163357261Y-27779285D01*
X163421071Y-27743571D01*
X163452976Y-27707857D01*
X163484880Y-27636428D01*
X163484880Y-27565000D01*
X163452976Y-27493571D01*
X163421071Y-27457857D01*
X163357261Y-27422142D01*
X163229642Y-27386428D01*
X163165833Y-27350714D01*
X163133928Y-27315000D01*
X163102023Y-27243571D01*
X163102023Y-27172142D01*
X163133928Y-27100714D01*
X163165833Y-27065000D01*
X163229642Y-27029285D01*
X163389166Y-27029285D01*
X163484880Y-27065000D01*
X163995357Y-27386428D02*
X164091071Y-27422142D01*
X164122976Y-27457857D01*
X164154880Y-27529285D01*
X164154880Y-27636428D01*
X164122976Y-27707857D01*
X164091071Y-27743571D01*
X164027261Y-27779285D01*
X163772023Y-27779285D01*
X163772023Y-27029285D01*
X163995357Y-27029285D01*
X164059166Y-27065000D01*
X164091071Y-27100714D01*
X164122976Y-27172142D01*
X164122976Y-27243571D01*
X164091071Y-27315000D01*
X164059166Y-27350714D01*
X163995357Y-27386428D01*
X163772023Y-27386428D01*
X156257023Y-34075000D02*
X156193214Y-34039285D01*
X156097500Y-34039285D01*
X156001785Y-34075000D01*
X155937976Y-34146428D01*
X155906071Y-34217857D01*
X155874166Y-34360714D01*
X155874166Y-34467857D01*
X155906071Y-34610714D01*
X155937976Y-34682142D01*
X156001785Y-34753571D01*
X156097500Y-34789285D01*
X156161309Y-34789285D01*
X156257023Y-34753571D01*
X156288928Y-34717857D01*
X156288928Y-34467857D01*
X156161309Y-34467857D01*
X156576071Y-34789285D02*
X156576071Y-34039285D01*
X156958928Y-34789285D01*
X156958928Y-34039285D01*
X157277976Y-34789285D02*
X157277976Y-34039285D01*
X157437500Y-34039285D01*
X157533214Y-34075000D01*
X157597023Y-34146428D01*
X157628928Y-34217857D01*
X157660833Y-34360714D01*
X157660833Y-34467857D01*
X157628928Y-34610714D01*
X157597023Y-34682142D01*
X157533214Y-34753571D01*
X157437500Y-34789285D01*
X157277976Y-34789285D01*
D11*
X154756880Y-67974380D02*
X154280690Y-68307714D01*
X154756880Y-68545809D02*
X153756880Y-68545809D01*
X153756880Y-68164857D01*
X153804500Y-68069619D01*
X153852119Y-68022000D01*
X153947357Y-67974380D01*
X154090214Y-67974380D01*
X154185452Y-68022000D01*
X154233071Y-68069619D01*
X154280690Y-68164857D01*
X154280690Y-68545809D01*
X154233071Y-67545809D02*
X154233071Y-67212476D01*
X154756880Y-67069619D02*
X154756880Y-67545809D01*
X153756880Y-67545809D01*
X153756880Y-67069619D01*
X154709261Y-66688666D02*
X154756880Y-66545809D01*
X154756880Y-66307714D01*
X154709261Y-66212476D01*
X154661642Y-66164857D01*
X154566404Y-66117238D01*
X154471166Y-66117238D01*
X154375928Y-66164857D01*
X154328309Y-66212476D01*
X154280690Y-66307714D01*
X154233071Y-66498190D01*
X154185452Y-66593428D01*
X154137833Y-66641047D01*
X154042595Y-66688666D01*
X153947357Y-66688666D01*
X153852119Y-66641047D01*
X153804500Y-66593428D01*
X153756880Y-66498190D01*
X153756880Y-66260095D01*
X153804500Y-66117238D01*
X154233071Y-65688666D02*
X154233071Y-65355333D01*
X154756880Y-65212476D02*
X154756880Y-65688666D01*
X153756880Y-65688666D01*
X153756880Y-65212476D01*
X153756880Y-64926761D02*
X153756880Y-64355333D01*
X154756880Y-64641047D02*
X153756880Y-64641047D01*
X142876880Y-67983380D02*
X142400690Y-68316714D01*
X142876880Y-68554809D02*
X141876880Y-68554809D01*
X141876880Y-68173857D01*
X141924500Y-68078619D01*
X141972119Y-68031000D01*
X142067357Y-67983380D01*
X142210214Y-67983380D01*
X142305452Y-68031000D01*
X142353071Y-68078619D01*
X142400690Y-68173857D01*
X142400690Y-68554809D01*
X142353071Y-67554809D02*
X142353071Y-67221476D01*
X142876880Y-67078619D02*
X142876880Y-67554809D01*
X141876880Y-67554809D01*
X141876880Y-67078619D01*
X142829261Y-66697666D02*
X142876880Y-66554809D01*
X142876880Y-66316714D01*
X142829261Y-66221476D01*
X142781642Y-66173857D01*
X142686404Y-66126238D01*
X142591166Y-66126238D01*
X142495928Y-66173857D01*
X142448309Y-66221476D01*
X142400690Y-66316714D01*
X142353071Y-66507190D01*
X142305452Y-66602428D01*
X142257833Y-66650047D01*
X142162595Y-66697666D01*
X142067357Y-66697666D01*
X141972119Y-66650047D01*
X141924500Y-66602428D01*
X141876880Y-66507190D01*
X141876880Y-66269095D01*
X141924500Y-66126238D01*
X142353071Y-65697666D02*
X142353071Y-65364333D01*
X142876880Y-65221476D02*
X142876880Y-65697666D01*
X141876880Y-65697666D01*
X141876880Y-65221476D01*
X141876880Y-64935761D02*
X141876880Y-64364333D01*
X142876880Y-64650047D02*
X141876880Y-64650047D01*
X160475119Y-64282380D02*
X160665595Y-64282380D01*
X160760833Y-64330000D01*
X160856071Y-64425238D01*
X160903690Y-64615714D01*
X160903690Y-64949047D01*
X160856071Y-65139523D01*
X160760833Y-65234761D01*
X160665595Y-65282380D01*
X160475119Y-65282380D01*
X160379880Y-65234761D01*
X160284642Y-65139523D01*
X160237023Y-64949047D01*
X160237023Y-64615714D01*
X160284642Y-64425238D01*
X160379880Y-64330000D01*
X160475119Y-64282380D01*
X161808452Y-65282380D02*
X161332261Y-65282380D01*
X161332261Y-64282380D01*
X162141785Y-64758571D02*
X162475119Y-64758571D01*
X162617976Y-65282380D02*
X162141785Y-65282380D01*
X162141785Y-64282380D01*
X162617976Y-64282380D01*
X163046547Y-65282380D02*
X163046547Y-64282380D01*
X163284642Y-64282380D01*
X163427500Y-64330000D01*
X163522738Y-64425238D01*
X163570357Y-64520476D01*
X163617976Y-64710952D01*
X163617976Y-64853809D01*
X163570357Y-65044285D01*
X163522738Y-65139523D01*
X163427500Y-65234761D01*
X163284642Y-65282380D01*
X163046547Y-65282380D01*
X133402119Y-64196380D02*
X133592595Y-64196380D01*
X133687833Y-64244000D01*
X133783071Y-64339238D01*
X133830690Y-64529714D01*
X133830690Y-64863047D01*
X133783071Y-65053523D01*
X133687833Y-65148761D01*
X133592595Y-65196380D01*
X133402119Y-65196380D01*
X133306880Y-65148761D01*
X133211642Y-65053523D01*
X133164023Y-64863047D01*
X133164023Y-64529714D01*
X133211642Y-64339238D01*
X133306880Y-64244000D01*
X133402119Y-64196380D01*
X134735452Y-65196380D02*
X134259261Y-65196380D01*
X134259261Y-64196380D01*
X135068785Y-64672571D02*
X135402119Y-64672571D01*
X135544976Y-65196380D02*
X135068785Y-65196380D01*
X135068785Y-64196380D01*
X135544976Y-64196380D01*
X135973547Y-65196380D02*
X135973547Y-64196380D01*
X136211642Y-64196380D01*
X136354500Y-64244000D01*
X136449738Y-64339238D01*
X136497357Y-64434476D01*
X136544976Y-64624952D01*
X136544976Y-64767809D01*
X136497357Y-64958285D01*
X136449738Y-65053523D01*
X136354500Y-65148761D01*
X136211642Y-65196380D01*
X135973547Y-65196380D01*
X158439880Y-76781904D02*
X158439880Y-76210476D01*
X159439880Y-76496190D02*
X158439880Y-76496190D01*
X159439880Y-75305714D02*
X158963690Y-75639047D01*
X159439880Y-75877142D02*
X158439880Y-75877142D01*
X158439880Y-75496190D01*
X158487500Y-75400952D01*
X158535119Y-75353333D01*
X158630357Y-75305714D01*
X158773214Y-75305714D01*
X158868452Y-75353333D01*
X158916071Y-75400952D01*
X158963690Y-75496190D01*
X158963690Y-75877142D01*
X159439880Y-74305714D02*
X158963690Y-74639047D01*
X159439880Y-74877142D02*
X158439880Y-74877142D01*
X158439880Y-74496190D01*
X158487500Y-74400952D01*
X158535119Y-74353333D01*
X158630357Y-74305714D01*
X158773214Y-74305714D01*
X158868452Y-74353333D01*
X158916071Y-74400952D01*
X158963690Y-74496190D01*
X158963690Y-74877142D01*
X159392261Y-73924761D02*
X159439880Y-73781904D01*
X159439880Y-73543809D01*
X159392261Y-73448571D01*
X159344642Y-73400952D01*
X159249404Y-73353333D01*
X159154166Y-73353333D01*
X159058928Y-73400952D01*
X159011309Y-73448571D01*
X158963690Y-73543809D01*
X158916071Y-73734285D01*
X158868452Y-73829523D01*
X158820833Y-73877142D01*
X158725595Y-73924761D01*
X158630357Y-73924761D01*
X158535119Y-73877142D01*
X158487500Y-73829523D01*
X158439880Y-73734285D01*
X158439880Y-73496190D01*
X158487500Y-73353333D01*
X137136880Y-75303904D02*
X137136880Y-74732476D01*
X138136880Y-75018190D02*
X137136880Y-75018190D01*
X138136880Y-73827714D02*
X137660690Y-74161047D01*
X138136880Y-74399142D02*
X137136880Y-74399142D01*
X137136880Y-74018190D01*
X137184500Y-73922952D01*
X137232119Y-73875333D01*
X137327357Y-73827714D01*
X137470214Y-73827714D01*
X137565452Y-73875333D01*
X137613071Y-73922952D01*
X137660690Y-74018190D01*
X137660690Y-74399142D01*
X138136880Y-72827714D02*
X137660690Y-73161047D01*
X138136880Y-73399142D02*
X137136880Y-73399142D01*
X137136880Y-73018190D01*
X137184500Y-72922952D01*
X137232119Y-72875333D01*
X137327357Y-72827714D01*
X137470214Y-72827714D01*
X137565452Y-72875333D01*
X137613071Y-72922952D01*
X137660690Y-73018190D01*
X137660690Y-73399142D01*
X138089261Y-72446761D02*
X138136880Y-72303904D01*
X138136880Y-72065809D01*
X138089261Y-71970571D01*
X138041642Y-71922952D01*
X137946404Y-71875333D01*
X137851166Y-71875333D01*
X137755928Y-71922952D01*
X137708309Y-71970571D01*
X137660690Y-72065809D01*
X137613071Y-72256285D01*
X137565452Y-72351523D01*
X137517833Y-72399142D01*
X137422595Y-72446761D01*
X137327357Y-72446761D01*
X137232119Y-72399142D01*
X137184500Y-72351523D01*
X137136880Y-72256285D01*
X137136880Y-72018190D01*
X137184500Y-71875333D01*
G36*
X240749491Y-80168791D02*
G01*
X240843575Y-80172451D01*
X240913990Y-80181455D01*
X240974301Y-80198181D01*
X241038070Y-80225005D01*
X241092251Y-80251171D01*
X241263298Y-80359513D01*
X241396548Y-80498673D01*
X241493879Y-80671378D01*
X241557168Y-80880354D01*
X241568575Y-80942800D01*
X241575864Y-81013770D01*
X241582403Y-81126525D01*
X241587903Y-81272049D01*
X241592074Y-81441330D01*
X241594627Y-81625353D01*
X241595308Y-81774650D01*
X241595500Y-82441400D01*
X241163700Y-82441400D01*
X241163700Y-81722110D01*
X241163093Y-81493457D01*
X241161100Y-81309758D01*
X241157463Y-81165177D01*
X241151922Y-81053882D01*
X241144219Y-80970037D01*
X241134095Y-80907809D01*
X241126197Y-80876534D01*
X241061437Y-80738307D01*
X240960530Y-80635106D01*
X240825103Y-80567984D01*
X240656780Y-80537999D01*
X240602312Y-80536400D01*
X240439841Y-80546817D01*
X240309862Y-80581694D01*
X240197764Y-80646472D01*
X240117860Y-80716726D01*
X240063673Y-80773731D01*
X240020291Y-80829501D01*
X239986523Y-80890365D01*
X239961179Y-80962652D01*
X239943067Y-81052689D01*
X239930996Y-81166805D01*
X239923777Y-81311327D01*
X239920217Y-81492585D01*
X239919126Y-81716907D01*
X239919100Y-81772910D01*
X239919100Y-82441400D01*
X239487300Y-82441400D01*
X239487300Y-80180800D01*
X239919100Y-80180800D01*
X239919100Y-80438707D01*
X240001364Y-80356442D01*
X240087752Y-80280836D01*
X240178455Y-80227569D01*
X240284478Y-80193282D01*
X240416824Y-80174616D01*
X240586495Y-80168211D01*
X240618174Y-80168100D01*
X240749491Y-80168791D01*
G37*
D12*
X240749491Y-80168791D02*
X240843575Y-80172451D01*
X240913990Y-80181455D01*
X240974301Y-80198181D01*
X241038070Y-80225005D01*
X241092251Y-80251171D01*
X241263298Y-80359513D01*
X241396548Y-80498673D01*
X241493879Y-80671378D01*
X241557168Y-80880354D01*
X241568575Y-80942800D01*
X241575864Y-81013770D01*
X241582403Y-81126525D01*
X241587903Y-81272049D01*
X241592074Y-81441330D01*
X241594627Y-81625353D01*
X241595308Y-81774650D01*
X241595500Y-82441400D01*
X241163700Y-82441400D01*
X241163700Y-81722110D01*
X241163093Y-81493457D01*
X241161100Y-81309758D01*
X241157463Y-81165177D01*
X241151922Y-81053882D01*
X241144219Y-80970037D01*
X241134095Y-80907809D01*
X241126197Y-80876534D01*
X241061437Y-80738307D01*
X240960530Y-80635106D01*
X240825103Y-80567984D01*
X240656780Y-80537999D01*
X240602312Y-80536400D01*
X240439841Y-80546817D01*
X240309862Y-80581694D01*
X240197764Y-80646472D01*
X240117860Y-80716726D01*
X240063673Y-80773731D01*
X240020291Y-80829501D01*
X239986523Y-80890365D01*
X239961179Y-80962652D01*
X239943067Y-81052689D01*
X239930996Y-81166805D01*
X239923777Y-81311327D01*
X239920217Y-81492585D01*
X239919126Y-81716907D01*
X239919100Y-81772910D01*
X239919100Y-82441400D01*
X239487300Y-82441400D01*
X239487300Y-80180800D01*
X239919100Y-80180800D01*
X239919100Y-80438707D01*
X240001364Y-80356442D01*
X240087752Y-80280836D01*
X240178455Y-80227569D01*
X240284478Y-80193282D01*
X240416824Y-80174616D01*
X240586495Y-80168211D01*
X240618174Y-80168100D01*
X240749491Y-80168791D01*
G36*
X239087237Y-80145436D02*
G01*
X239233300Y-80161961D01*
X239233300Y-80532729D01*
X239099950Y-80519068D01*
X238915851Y-80524139D01*
X238746452Y-80575922D01*
X238597881Y-80671056D01*
X238476266Y-80806179D01*
X238427389Y-80887869D01*
X238344300Y-81048838D01*
X238344300Y-82441400D01*
X237912500Y-82441400D01*
X237912500Y-80178745D01*
X238122050Y-80186122D01*
X238331600Y-80193500D01*
X238357000Y-80415358D01*
X238407769Y-80358946D01*
X238525946Y-80262357D01*
X238677798Y-80191267D01*
X238851042Y-80149536D01*
X239033390Y-80141025D01*
X239087237Y-80145436D01*
G37*
X239087237Y-80145436D02*
X239233300Y-80161961D01*
X239233300Y-80532729D01*
X239099950Y-80519068D01*
X238915851Y-80524139D01*
X238746452Y-80575922D01*
X238597881Y-80671056D01*
X238476266Y-80806179D01*
X238427389Y-80887869D01*
X238344300Y-81048838D01*
X238344300Y-82441400D01*
X237912500Y-82441400D01*
X237912500Y-80178745D01*
X238122050Y-80186122D01*
X238331600Y-80193500D01*
X238357000Y-80415358D01*
X238407769Y-80358946D01*
X238525946Y-80262357D01*
X238677798Y-80191267D01*
X238851042Y-80149536D01*
X239033390Y-80141025D01*
X239087237Y-80145436D01*
G36*
X242012606Y-80691643D02*
G01*
X242146079Y-80514563D01*
X242315108Y-80368672D01*
X242427999Y-80300689D01*
X242622603Y-80216746D01*
X242819926Y-80169901D01*
X243039213Y-80155400D01*
X243281530Y-80178406D01*
X243503894Y-80244705D01*
X243702133Y-80350213D01*
X243872079Y-80490847D01*
X244009559Y-80662524D01*
X244110404Y-80861162D01*
X244170443Y-81082678D01*
X244186300Y-81278336D01*
X244186300Y-81425400D01*
X242281300Y-81425400D01*
X242281300Y-81498498D01*
X242304217Y-81621649D01*
X242367655Y-81749172D01*
X242463643Y-81870298D01*
X242584211Y-81974256D01*
X242673388Y-82028239D01*
X242809242Y-82079647D01*
X242969904Y-82104683D01*
X242982872Y-82105596D01*
X243165129Y-82103127D01*
X243318803Y-82066329D01*
X243456495Y-81990614D01*
X243571193Y-81891419D01*
X243707013Y-81755600D01*
X243910268Y-81755600D01*
X244010811Y-81756246D01*
X244070033Y-81760122D01*
X244097410Y-81770133D01*
X244102419Y-81789182D01*
X244096730Y-81812750D01*
X244058417Y-81898398D01*
X243993499Y-82001086D01*
X243913774Y-82104606D01*
X243831044Y-82192746D01*
X243800857Y-82219173D01*
X243601990Y-82348773D01*
X243379302Y-82438237D01*
X243142596Y-82485509D01*
X242901673Y-82488535D01*
X242690357Y-82452004D01*
X242469245Y-82367879D01*
X242274425Y-82244023D01*
X242110825Y-82085554D01*
X241983374Y-81897590D01*
X241897001Y-81685249D01*
X241877844Y-81608299D01*
X241847308Y-81358242D01*
X241861041Y-81118661D01*
X241873222Y-81069800D01*
X242282557Y-81069800D01*
X243005828Y-81069800D01*
X243218414Y-81069528D01*
X243385499Y-81068521D01*
X243512379Y-81066494D01*
X243604351Y-81063158D01*
X243666712Y-81058229D01*
X243704759Y-81051420D01*
X243723788Y-81042444D01*
X243729097Y-81031014D01*
X243729100Y-81030688D01*
X243708723Y-80948758D01*
X243654025Y-80853173D01*
X243574652Y-80755722D01*
X243480248Y-80668195D01*
X243380461Y-80602383D01*
X243377403Y-80600826D01*
X243238347Y-80553277D01*
X243074233Y-80532014D01*
X242903428Y-80536960D01*
X242744298Y-80568039D01*
X242652560Y-80603844D01*
X242506026Y-80705486D01*
X242387149Y-80846797D01*
X242306765Y-81006127D01*
X242282557Y-81069800D01*
X241873222Y-81069800D01*
X241916867Y-80894735D01*
X242012606Y-80691643D01*
G37*
X242012606Y-80691643D02*
X242146079Y-80514563D01*
X242315108Y-80368672D01*
X242427999Y-80300689D01*
X242622603Y-80216746D01*
X242819926Y-80169901D01*
X243039213Y-80155400D01*
X243281530Y-80178406D01*
X243503894Y-80244705D01*
X243702133Y-80350213D01*
X243872079Y-80490847D01*
X244009559Y-80662524D01*
X244110404Y-80861162D01*
X244170443Y-81082678D01*
X244186300Y-81278336D01*
X244186300Y-81425400D01*
X242281300Y-81425400D01*
X242281300Y-81498498D01*
X242304217Y-81621649D01*
X242367655Y-81749172D01*
X242463643Y-81870298D01*
X242584211Y-81974256D01*
X242673388Y-82028239D01*
X242809242Y-82079647D01*
X242969904Y-82104683D01*
X242982872Y-82105596D01*
X243165129Y-82103127D01*
X243318803Y-82066329D01*
X243456495Y-81990614D01*
X243571193Y-81891419D01*
X243707013Y-81755600D01*
X243910268Y-81755600D01*
X244010811Y-81756246D01*
X244070033Y-81760122D01*
X244097410Y-81770133D01*
X244102419Y-81789182D01*
X244096730Y-81812750D01*
X244058417Y-81898398D01*
X243993499Y-82001086D01*
X243913774Y-82104606D01*
X243831044Y-82192746D01*
X243800857Y-82219173D01*
X243601990Y-82348773D01*
X243379302Y-82438237D01*
X243142596Y-82485509D01*
X242901673Y-82488535D01*
X242690357Y-82452004D01*
X242469245Y-82367879D01*
X242274425Y-82244023D01*
X242110825Y-82085554D01*
X241983374Y-81897590D01*
X241897001Y-81685249D01*
X241877844Y-81608299D01*
X241847308Y-81358242D01*
X241861041Y-81118661D01*
X241873222Y-81069800D01*
X242282557Y-81069800D01*
X243005828Y-81069800D01*
X243218414Y-81069528D01*
X243385499Y-81068521D01*
X243512379Y-81066494D01*
X243604351Y-81063158D01*
X243666712Y-81058229D01*
X243704759Y-81051420D01*
X243723788Y-81042444D01*
X243729097Y-81031014D01*
X243729100Y-81030688D01*
X243708723Y-80948758D01*
X243654025Y-80853173D01*
X243574652Y-80755722D01*
X243480248Y-80668195D01*
X243380461Y-80602383D01*
X243377403Y-80600826D01*
X243238347Y-80553277D01*
X243074233Y-80532014D01*
X242903428Y-80536960D01*
X242744298Y-80568039D01*
X242652560Y-80603844D01*
X242506026Y-80705486D01*
X242387149Y-80846797D01*
X242306765Y-81006127D01*
X242282557Y-81069800D01*
X241873222Y-81069800D01*
X241916867Y-80894735D01*
X242012606Y-80691643D01*
G36*
X235205650Y-81028693D02*
G01*
X235280850Y-80812052D01*
X235396357Y-80618365D01*
X235549687Y-80452687D01*
X235738360Y-80320069D01*
X235782419Y-80296803D01*
X235956705Y-80222053D01*
X236128030Y-80177281D01*
X236313905Y-80159147D01*
X236489986Y-80161840D01*
X236743440Y-80197111D01*
X236971525Y-80273807D01*
X237171175Y-80389865D01*
X237339325Y-80543222D01*
X237472908Y-80731816D01*
X237537456Y-80866600D01*
X237569018Y-80980705D01*
X237589285Y-81128371D01*
X237598030Y-81293580D01*
X237595025Y-81460313D01*
X237580043Y-81612551D01*
X237552856Y-81734275D01*
X237549905Y-81742900D01*
X237453519Y-81940172D01*
X237314275Y-82116574D01*
X237137679Y-82266769D01*
X236929241Y-82385421D01*
X236854340Y-82416770D01*
X236722321Y-82453019D01*
X236559335Y-82476467D01*
X236383781Y-82486287D01*
X236214060Y-82481650D01*
X236068574Y-82461729D01*
X236035753Y-82453599D01*
X235821853Y-82371401D01*
X235627121Y-82253093D01*
X235460155Y-82105635D01*
X235329556Y-81935986D01*
X235278682Y-81840895D01*
X235240337Y-81738102D01*
X235206151Y-81613876D01*
X235186099Y-81510628D01*
X235178748Y-81369224D01*
X235603074Y-81369224D01*
X235617409Y-81516866D01*
X235637541Y-81598207D01*
X235690794Y-81710941D01*
X235771195Y-81826333D01*
X235865178Y-81927702D01*
X235959174Y-81998365D01*
X235965958Y-82002020D01*
X236162698Y-82078118D01*
X236367689Y-82108463D01*
X236571104Y-82092243D01*
X236683664Y-82061468D01*
X236860944Y-81974347D01*
X237005410Y-81850677D01*
X237112587Y-81694341D01*
X237117020Y-81685466D01*
X237170010Y-81529401D01*
X237191993Y-81352298D01*
X237182639Y-81173017D01*
X237141621Y-81010421D01*
X237129289Y-80980900D01*
X237031958Y-80821906D01*
X236904261Y-80697092D01*
X236753564Y-80606623D01*
X236587236Y-80550666D01*
X236412642Y-80529386D01*
X236237149Y-80542949D01*
X236068124Y-80591522D01*
X235912934Y-80675270D01*
X235778945Y-80794360D01*
X235673965Y-80948101D01*
X235632419Y-81065807D01*
X235608433Y-81212526D01*
X235603074Y-81369224D01*
X235178748Y-81369224D01*
X235173238Y-81263236D01*
X235205650Y-81028693D01*
G37*
X235205650Y-81028693D02*
X235280850Y-80812052D01*
X235396357Y-80618365D01*
X235549687Y-80452687D01*
X235738360Y-80320069D01*
X235782419Y-80296803D01*
X235956705Y-80222053D01*
X236128030Y-80177281D01*
X236313905Y-80159147D01*
X236489986Y-80161840D01*
X236743440Y-80197111D01*
X236971525Y-80273807D01*
X237171175Y-80389865D01*
X237339325Y-80543222D01*
X237472908Y-80731816D01*
X237537456Y-80866600D01*
X237569018Y-80980705D01*
X237589285Y-81128371D01*
X237598030Y-81293580D01*
X237595025Y-81460313D01*
X237580043Y-81612551D01*
X237552856Y-81734275D01*
X237549905Y-81742900D01*
X237453519Y-81940172D01*
X237314275Y-82116574D01*
X237137679Y-82266769D01*
X236929241Y-82385421D01*
X236854340Y-82416770D01*
X236722321Y-82453019D01*
X236559335Y-82476467D01*
X236383781Y-82486287D01*
X236214060Y-82481650D01*
X236068574Y-82461729D01*
X236035753Y-82453599D01*
X235821853Y-82371401D01*
X235627121Y-82253093D01*
X235460155Y-82105635D01*
X235329556Y-81935986D01*
X235278682Y-81840895D01*
X235240337Y-81738102D01*
X235206151Y-81613876D01*
X235186099Y-81510628D01*
X235178748Y-81369224D01*
X235603074Y-81369224D01*
X235617409Y-81516866D01*
X235637541Y-81598207D01*
X235690794Y-81710941D01*
X235771195Y-81826333D01*
X235865178Y-81927702D01*
X235959174Y-81998365D01*
X235965958Y-82002020D01*
X236162698Y-82078118D01*
X236367689Y-82108463D01*
X236571104Y-82092243D01*
X236683664Y-82061468D01*
X236860944Y-81974347D01*
X237005410Y-81850677D01*
X237112587Y-81694341D01*
X237117020Y-81685466D01*
X237170010Y-81529401D01*
X237191993Y-81352298D01*
X237182639Y-81173017D01*
X237141621Y-81010421D01*
X237129289Y-80980900D01*
X237031958Y-80821906D01*
X236904261Y-80697092D01*
X236753564Y-80606623D01*
X236587236Y-80550666D01*
X236412642Y-80529386D01*
X236237149Y-80542949D01*
X236068124Y-80591522D01*
X235912934Y-80675270D01*
X235778945Y-80794360D01*
X235673965Y-80948101D01*
X235632419Y-81065807D01*
X235608433Y-81212526D01*
X235603074Y-81369224D01*
X235178748Y-81369224D01*
X235173238Y-81263236D01*
X235205650Y-81028693D01*
G36*
X234107049Y-80175988D02*
G01*
X234221748Y-80202102D01*
X234442850Y-80292639D01*
X234634293Y-80419036D01*
X234791222Y-80576988D01*
X234908782Y-80762188D01*
X234943437Y-80842254D01*
X234977464Y-80935731D01*
X234989083Y-80994761D01*
X234971798Y-81027261D01*
X234919112Y-81041149D01*
X234824529Y-81044343D01*
X234777569Y-81044400D01*
X234563639Y-81044399D01*
X234532733Y-80950754D01*
X234466143Y-80824894D01*
X234359638Y-80713503D01*
X234223463Y-80623012D01*
X234067864Y-80559854D01*
X233903085Y-80530461D01*
X233861199Y-80529142D01*
X233678869Y-80551910D01*
X233508565Y-80616221D01*
X233359016Y-80716089D01*
X233238953Y-80845526D01*
X233157105Y-80998547D01*
X233150907Y-81016267D01*
X233117356Y-81174924D01*
X233111573Y-81350402D01*
X233132259Y-81524327D01*
X233178113Y-81678322D01*
X233201175Y-81726531D01*
X233306904Y-81877138D01*
X233441779Y-81989303D01*
X233589102Y-82060915D01*
X233767789Y-82103926D01*
X233947259Y-82103773D01*
X234119072Y-82063785D01*
X234274790Y-81987291D01*
X234405974Y-81877622D01*
X234504184Y-81738106D01*
X234525767Y-81691389D01*
X234572400Y-81577990D01*
X234781950Y-81577895D01*
X234884668Y-81578561D01*
X234946784Y-81582620D01*
X234978495Y-81592992D01*
X234989997Y-81612594D01*
X234991500Y-81637887D01*
X234975975Y-81712902D01*
X234934424Y-81812781D01*
X234874378Y-81924252D01*
X234803369Y-82034041D01*
X234728929Y-82128876D01*
X234690038Y-82169119D01*
X234510264Y-82304131D01*
X234301407Y-82404811D01*
X234074560Y-82467913D01*
X233840818Y-82490194D01*
X233645300Y-82474664D01*
X233452087Y-82423943D01*
X233264451Y-82340877D01*
X233094760Y-82232860D01*
X232955383Y-82107289D01*
X232888489Y-82022165D01*
X232807160Y-81887841D01*
X232751270Y-81762887D01*
X232716691Y-81632138D01*
X232699293Y-81480430D01*
X232694914Y-81311100D01*
X232696419Y-81170194D01*
X232702121Y-81066188D01*
X232713798Y-80985236D01*
X232733230Y-80913494D01*
X232752851Y-80860197D01*
X232858497Y-80660543D01*
X233004762Y-80484026D01*
X233183876Y-80338316D01*
X233388069Y-80231085D01*
X233391300Y-80229802D01*
X233547283Y-80185914D01*
X233731255Y-80161892D01*
X233924187Y-80158372D01*
X234107049Y-80175988D01*
G37*
X234107049Y-80175988D02*
X234221748Y-80202102D01*
X234442850Y-80292639D01*
X234634293Y-80419036D01*
X234791222Y-80576988D01*
X234908782Y-80762188D01*
X234943437Y-80842254D01*
X234977464Y-80935731D01*
X234989083Y-80994761D01*
X234971798Y-81027261D01*
X234919112Y-81041149D01*
X234824529Y-81044343D01*
X234777569Y-81044400D01*
X234563639Y-81044399D01*
X234532733Y-80950754D01*
X234466143Y-80824894D01*
X234359638Y-80713503D01*
X234223463Y-80623012D01*
X234067864Y-80559854D01*
X233903085Y-80530461D01*
X233861199Y-80529142D01*
X233678869Y-80551910D01*
X233508565Y-80616221D01*
X233359016Y-80716089D01*
X233238953Y-80845526D01*
X233157105Y-80998547D01*
X233150907Y-81016267D01*
X233117356Y-81174924D01*
X233111573Y-81350402D01*
X233132259Y-81524327D01*
X233178113Y-81678322D01*
X233201175Y-81726531D01*
X233306904Y-81877138D01*
X233441779Y-81989303D01*
X233589102Y-82060915D01*
X233767789Y-82103926D01*
X233947259Y-82103773D01*
X234119072Y-82063785D01*
X234274790Y-81987291D01*
X234405974Y-81877622D01*
X234504184Y-81738106D01*
X234525767Y-81691389D01*
X234572400Y-81577990D01*
X234781950Y-81577895D01*
X234884668Y-81578561D01*
X234946784Y-81582620D01*
X234978495Y-81592992D01*
X234989997Y-81612594D01*
X234991500Y-81637887D01*
X234975975Y-81712902D01*
X234934424Y-81812781D01*
X234874378Y-81924252D01*
X234803369Y-82034041D01*
X234728929Y-82128876D01*
X234690038Y-82169119D01*
X234510264Y-82304131D01*
X234301407Y-82404811D01*
X234074560Y-82467913D01*
X233840818Y-82490194D01*
X233645300Y-82474664D01*
X233452087Y-82423943D01*
X233264451Y-82340877D01*
X233094760Y-82232860D01*
X232955383Y-82107289D01*
X232888489Y-82022165D01*
X232807160Y-81887841D01*
X232751270Y-81762887D01*
X232716691Y-81632138D01*
X232699293Y-81480430D01*
X232694914Y-81311100D01*
X232696419Y-81170194D01*
X232702121Y-81066188D01*
X232713798Y-80985236D01*
X232733230Y-80913494D01*
X232752851Y-80860197D01*
X232858497Y-80660543D01*
X233004762Y-80484026D01*
X233183876Y-80338316D01*
X233388069Y-80231085D01*
X233391300Y-80229802D01*
X233547283Y-80185914D01*
X233731255Y-80161892D01*
X233924187Y-80158372D01*
X234107049Y-80175988D01*
D11*
X143562500Y-61020000D02*
X142702500Y-61020000D01*
X126062500Y-61020000D02*
X126912500Y-61020000D01*
X143562500Y-60170000D02*
X143562500Y-61020000D01*
X126062500Y-60120000D02*
X126062500Y-61020000D01*
X143562500Y-30820000D02*
X142762500Y-30820000D01*
X126062500Y-30820000D02*
X126912500Y-30820000D01*
X143562500Y-30820000D02*
X143562500Y-31670000D01*
X126062500Y-30820000D02*
X126062500Y-31670000D01*
X131062500Y-25220000D02*
X131062500Y-26520000D01*
X131062500Y-26520000D02*
X138562500Y-26520000D01*
X138562500Y-26520000D02*
X138562500Y-25220000D01*
X138562500Y-25220000D02*
X131062500Y-25220000D01*
X134312500Y-25570000D02*
X135312500Y-25570000D01*
X135312500Y-25570000D02*
X134812500Y-26220000D01*
X134812500Y-26220000D02*
X134312500Y-25570000D01*
X134462500Y-25720000D02*
X135162500Y-25720000D01*
X134562500Y-25870000D02*
X135062500Y-25870000D01*
X134662500Y-26020000D02*
X134962500Y-26020000D01*
X170737500Y-60990000D02*
X169877500Y-60990000D01*
X153237500Y-60990000D02*
X154087500Y-60990000D01*
X170737500Y-60140000D02*
X170737500Y-60990000D01*
X153237500Y-60090000D02*
X153237500Y-60990000D01*
X170737500Y-30790000D02*
X169937500Y-30790000D01*
X153237500Y-30790000D02*
X154087500Y-30790000D01*
X170737500Y-30790000D02*
X170737500Y-31640000D01*
X153237500Y-30790000D02*
X153237500Y-31640000D01*
X158237500Y-25190000D02*
X158237500Y-26490000D01*
X158237500Y-26490000D02*
X165737500Y-26490000D01*
X165737500Y-26490000D02*
X165737500Y-25190000D01*
X165737500Y-25190000D02*
X158237500Y-25190000D01*
X161487500Y-25540000D02*
X162487500Y-25540000D01*
X162487500Y-25540000D02*
X161987500Y-26190000D01*
X161987500Y-26190000D02*
X161487500Y-25540000D01*
X161637500Y-25690000D02*
X162337500Y-25690000D01*
X161737500Y-25840000D02*
X162237500Y-25840000D01*
X161837500Y-25990000D02*
X162137500Y-25990000D01*
X155904500Y-69372000D02*
X155654500Y-69372000D01*
X155904500Y-63672000D02*
X155904500Y-69372000D01*
X155904500Y-63672000D02*
X155654500Y-63672000D01*
X152704500Y-63672000D02*
X152954500Y-63672000D01*
X152704500Y-69372000D02*
X152954500Y-69372000D01*
X152704500Y-63672000D02*
X152704500Y-69372000D01*
X144024500Y-69381000D02*
X143774500Y-69381000D01*
X144024500Y-63681000D02*
X144024500Y-69381000D01*
X144024500Y-63681000D02*
X143774500Y-63681000D01*
X140824500Y-63681000D02*
X141074500Y-63681000D01*
X140824500Y-69381000D02*
X141074500Y-69381000D01*
X140824500Y-63681000D02*
X140824500Y-69381000D01*
X157027500Y-68170000D02*
X157027500Y-65870000D01*
X166927500Y-65870000D02*
X166927500Y-68170000D01*
X157027500Y-65870000D02*
X166927500Y-65870000D01*
X157027500Y-68170000D02*
X166927500Y-68170000D01*
X129798500Y-68178000D02*
X129798500Y-65878000D01*
X139698500Y-65878000D02*
X139698500Y-68178000D01*
X129798500Y-65878000D02*
X139698500Y-65878000D01*
X129798500Y-68178000D02*
X139698500Y-68178000D01*
X164437500Y-77170000D02*
X152687500Y-77170000D01*
X164437500Y-71370000D02*
X164437500Y-77170000D01*
X152687500Y-71370000D02*
X164437500Y-71370000D01*
X152687500Y-77170000D02*
X152687500Y-71370000D01*
X132234500Y-71392000D02*
X143984500Y-71392000D01*
X132234500Y-77192000D02*
X132234500Y-71392000D01*
X143984500Y-77192000D02*
X132234500Y-77192000D01*
X143984500Y-71392000D02*
X143984500Y-77192000D01*
G36*
X60469491Y-79658791D02*
G01*
X60563575Y-79662451D01*
X60633990Y-79671455D01*
X60694301Y-79688181D01*
X60758070Y-79715005D01*
X60812251Y-79741171D01*
X60983298Y-79849513D01*
X61116548Y-79988673D01*
X61213879Y-80161378D01*
X61277168Y-80370354D01*
X61288575Y-80432800D01*
X61295864Y-80503770D01*
X61302403Y-80616525D01*
X61307903Y-80762049D01*
X61312074Y-80931330D01*
X61314627Y-81115353D01*
X61315308Y-81264650D01*
X61315500Y-81931400D01*
X60883700Y-81931400D01*
X60883700Y-81212110D01*
X60883093Y-80983457D01*
X60881100Y-80799758D01*
X60877463Y-80655177D01*
X60871922Y-80543882D01*
X60864219Y-80460037D01*
X60854095Y-80397809D01*
X60846197Y-80366534D01*
X60781437Y-80228307D01*
X60680530Y-80125106D01*
X60545103Y-80057984D01*
X60376780Y-80027999D01*
X60322312Y-80026400D01*
X60159841Y-80036817D01*
X60029862Y-80071694D01*
X59917764Y-80136472D01*
X59837860Y-80206726D01*
X59783673Y-80263731D01*
X59740291Y-80319501D01*
X59706523Y-80380365D01*
X59681179Y-80452652D01*
X59663067Y-80542689D01*
X59650996Y-80656805D01*
X59643777Y-80801327D01*
X59640217Y-80982585D01*
X59639126Y-81206907D01*
X59639100Y-81262910D01*
X59639100Y-81931400D01*
X59207300Y-81931400D01*
X59207300Y-79670800D01*
X59639100Y-79670800D01*
X59639100Y-79928707D01*
X59721364Y-79846442D01*
X59807752Y-79770836D01*
X59898455Y-79717569D01*
X60004478Y-79683282D01*
X60136824Y-79664616D01*
X60306495Y-79658211D01*
X60338174Y-79658100D01*
X60469491Y-79658791D01*
G37*
D12*
X60469491Y-79658791D02*
X60563575Y-79662451D01*
X60633990Y-79671455D01*
X60694301Y-79688181D01*
X60758070Y-79715005D01*
X60812251Y-79741171D01*
X60983298Y-79849513D01*
X61116548Y-79988673D01*
X61213879Y-80161378D01*
X61277168Y-80370354D01*
X61288575Y-80432800D01*
X61295864Y-80503770D01*
X61302403Y-80616525D01*
X61307903Y-80762049D01*
X61312074Y-80931330D01*
X61314627Y-81115353D01*
X61315308Y-81264650D01*
X61315500Y-81931400D01*
X60883700Y-81931400D01*
X60883700Y-81212110D01*
X60883093Y-80983457D01*
X60881100Y-80799758D01*
X60877463Y-80655177D01*
X60871922Y-80543882D01*
X60864219Y-80460037D01*
X60854095Y-80397809D01*
X60846197Y-80366534D01*
X60781437Y-80228307D01*
X60680530Y-80125106D01*
X60545103Y-80057984D01*
X60376780Y-80027999D01*
X60322312Y-80026400D01*
X60159841Y-80036817D01*
X60029862Y-80071694D01*
X59917764Y-80136472D01*
X59837860Y-80206726D01*
X59783673Y-80263731D01*
X59740291Y-80319501D01*
X59706523Y-80380365D01*
X59681179Y-80452652D01*
X59663067Y-80542689D01*
X59650996Y-80656805D01*
X59643777Y-80801327D01*
X59640217Y-80982585D01*
X59639126Y-81206907D01*
X59639100Y-81262910D01*
X59639100Y-81931400D01*
X59207300Y-81931400D01*
X59207300Y-79670800D01*
X59639100Y-79670800D01*
X59639100Y-79928707D01*
X59721364Y-79846442D01*
X59807752Y-79770836D01*
X59898455Y-79717569D01*
X60004478Y-79683282D01*
X60136824Y-79664616D01*
X60306495Y-79658211D01*
X60338174Y-79658100D01*
X60469491Y-79658791D01*
G36*
X58807237Y-79635436D02*
G01*
X58953300Y-79651961D01*
X58953300Y-80022729D01*
X58819950Y-80009068D01*
X58635851Y-80014139D01*
X58466452Y-80065922D01*
X58317881Y-80161056D01*
X58196266Y-80296179D01*
X58147389Y-80377869D01*
X58064300Y-80538838D01*
X58064300Y-81931400D01*
X57632500Y-81931400D01*
X57632500Y-79668745D01*
X57842050Y-79676122D01*
X58051600Y-79683500D01*
X58077000Y-79905358D01*
X58127769Y-79848946D01*
X58245946Y-79752357D01*
X58397798Y-79681267D01*
X58571042Y-79639536D01*
X58753390Y-79631025D01*
X58807237Y-79635436D01*
G37*
X58807237Y-79635436D02*
X58953300Y-79651961D01*
X58953300Y-80022729D01*
X58819950Y-80009068D01*
X58635851Y-80014139D01*
X58466452Y-80065922D01*
X58317881Y-80161056D01*
X58196266Y-80296179D01*
X58147389Y-80377869D01*
X58064300Y-80538838D01*
X58064300Y-81931400D01*
X57632500Y-81931400D01*
X57632500Y-79668745D01*
X57842050Y-79676122D01*
X58051600Y-79683500D01*
X58077000Y-79905358D01*
X58127769Y-79848946D01*
X58245946Y-79752357D01*
X58397798Y-79681267D01*
X58571042Y-79639536D01*
X58753390Y-79631025D01*
X58807237Y-79635436D01*
G36*
X61732606Y-80181643D02*
G01*
X61866079Y-80004563D01*
X62035108Y-79858672D01*
X62147999Y-79790689D01*
X62342603Y-79706746D01*
X62539926Y-79659901D01*
X62759213Y-79645400D01*
X63001530Y-79668406D01*
X63223894Y-79734705D01*
X63422133Y-79840213D01*
X63592079Y-79980847D01*
X63729559Y-80152524D01*
X63830404Y-80351162D01*
X63890443Y-80572678D01*
X63906300Y-80768336D01*
X63906300Y-80915400D01*
X62001300Y-80915400D01*
X62001300Y-80988498D01*
X62024217Y-81111649D01*
X62087655Y-81239172D01*
X62183643Y-81360298D01*
X62304211Y-81464256D01*
X62393388Y-81518239D01*
X62529242Y-81569647D01*
X62689904Y-81594683D01*
X62702872Y-81595596D01*
X62885129Y-81593127D01*
X63038803Y-81556329D01*
X63176495Y-81480614D01*
X63291193Y-81381419D01*
X63427013Y-81245600D01*
X63630268Y-81245600D01*
X63730811Y-81246246D01*
X63790033Y-81250122D01*
X63817410Y-81260133D01*
X63822419Y-81279182D01*
X63816730Y-81302750D01*
X63778417Y-81388398D01*
X63713499Y-81491086D01*
X63633774Y-81594606D01*
X63551044Y-81682746D01*
X63520857Y-81709173D01*
X63321990Y-81838773D01*
X63099302Y-81928237D01*
X62862596Y-81975509D01*
X62621673Y-81978535D01*
X62410357Y-81942004D01*
X62189245Y-81857879D01*
X61994425Y-81734023D01*
X61830825Y-81575554D01*
X61703374Y-81387590D01*
X61617001Y-81175249D01*
X61597844Y-81098299D01*
X61567308Y-80848242D01*
X61581041Y-80608661D01*
X61593222Y-80559800D01*
X62002557Y-80559800D01*
X62725828Y-80559800D01*
X62938414Y-80559528D01*
X63105499Y-80558521D01*
X63232379Y-80556494D01*
X63324351Y-80553158D01*
X63386712Y-80548229D01*
X63424759Y-80541420D01*
X63443788Y-80532444D01*
X63449097Y-80521014D01*
X63449100Y-80520688D01*
X63428723Y-80438758D01*
X63374025Y-80343173D01*
X63294652Y-80245722D01*
X63200248Y-80158195D01*
X63100461Y-80092383D01*
X63097403Y-80090826D01*
X62958347Y-80043277D01*
X62794233Y-80022014D01*
X62623428Y-80026960D01*
X62464298Y-80058039D01*
X62372560Y-80093844D01*
X62226026Y-80195486D01*
X62107149Y-80336797D01*
X62026765Y-80496127D01*
X62002557Y-80559800D01*
X61593222Y-80559800D01*
X61636867Y-80384735D01*
X61732606Y-80181643D01*
G37*
X61732606Y-80181643D02*
X61866079Y-80004563D01*
X62035108Y-79858672D01*
X62147999Y-79790689D01*
X62342603Y-79706746D01*
X62539926Y-79659901D01*
X62759213Y-79645400D01*
X63001530Y-79668406D01*
X63223894Y-79734705D01*
X63422133Y-79840213D01*
X63592079Y-79980847D01*
X63729559Y-80152524D01*
X63830404Y-80351162D01*
X63890443Y-80572678D01*
X63906300Y-80768336D01*
X63906300Y-80915400D01*
X62001300Y-80915400D01*
X62001300Y-80988498D01*
X62024217Y-81111649D01*
X62087655Y-81239172D01*
X62183643Y-81360298D01*
X62304211Y-81464256D01*
X62393388Y-81518239D01*
X62529242Y-81569647D01*
X62689904Y-81594683D01*
X62702872Y-81595596D01*
X62885129Y-81593127D01*
X63038803Y-81556329D01*
X63176495Y-81480614D01*
X63291193Y-81381419D01*
X63427013Y-81245600D01*
X63630268Y-81245600D01*
X63730811Y-81246246D01*
X63790033Y-81250122D01*
X63817410Y-81260133D01*
X63822419Y-81279182D01*
X63816730Y-81302750D01*
X63778417Y-81388398D01*
X63713499Y-81491086D01*
X63633774Y-81594606D01*
X63551044Y-81682746D01*
X63520857Y-81709173D01*
X63321990Y-81838773D01*
X63099302Y-81928237D01*
X62862596Y-81975509D01*
X62621673Y-81978535D01*
X62410357Y-81942004D01*
X62189245Y-81857879D01*
X61994425Y-81734023D01*
X61830825Y-81575554D01*
X61703374Y-81387590D01*
X61617001Y-81175249D01*
X61597844Y-81098299D01*
X61567308Y-80848242D01*
X61581041Y-80608661D01*
X61593222Y-80559800D01*
X62002557Y-80559800D01*
X62725828Y-80559800D01*
X62938414Y-80559528D01*
X63105499Y-80558521D01*
X63232379Y-80556494D01*
X63324351Y-80553158D01*
X63386712Y-80548229D01*
X63424759Y-80541420D01*
X63443788Y-80532444D01*
X63449097Y-80521014D01*
X63449100Y-80520688D01*
X63428723Y-80438758D01*
X63374025Y-80343173D01*
X63294652Y-80245722D01*
X63200248Y-80158195D01*
X63100461Y-80092383D01*
X63097403Y-80090826D01*
X62958347Y-80043277D01*
X62794233Y-80022014D01*
X62623428Y-80026960D01*
X62464298Y-80058039D01*
X62372560Y-80093844D01*
X62226026Y-80195486D01*
X62107149Y-80336797D01*
X62026765Y-80496127D01*
X62002557Y-80559800D01*
X61593222Y-80559800D01*
X61636867Y-80384735D01*
X61732606Y-80181643D01*
G36*
X54925650Y-80518693D02*
G01*
X55000850Y-80302052D01*
X55116357Y-80108365D01*
X55269687Y-79942687D01*
X55458360Y-79810069D01*
X55502419Y-79786803D01*
X55676705Y-79712053D01*
X55848030Y-79667281D01*
X56033905Y-79649147D01*
X56209986Y-79651840D01*
X56463440Y-79687111D01*
X56691525Y-79763807D01*
X56891175Y-79879865D01*
X57059325Y-80033222D01*
X57192908Y-80221816D01*
X57257456Y-80356600D01*
X57289018Y-80470705D01*
X57309285Y-80618371D01*
X57318030Y-80783580D01*
X57315025Y-80950313D01*
X57300043Y-81102551D01*
X57272856Y-81224275D01*
X57269905Y-81232900D01*
X57173519Y-81430172D01*
X57034275Y-81606574D01*
X56857679Y-81756769D01*
X56649241Y-81875421D01*
X56574340Y-81906770D01*
X56442321Y-81943019D01*
X56279335Y-81966467D01*
X56103781Y-81976287D01*
X55934060Y-81971650D01*
X55788574Y-81951729D01*
X55755753Y-81943599D01*
X55541853Y-81861401D01*
X55347121Y-81743093D01*
X55180155Y-81595635D01*
X55049556Y-81425986D01*
X54998682Y-81330895D01*
X54960337Y-81228102D01*
X54926151Y-81103876D01*
X54906099Y-81000628D01*
X54898748Y-80859224D01*
X55323074Y-80859224D01*
X55337409Y-81006866D01*
X55357541Y-81088207D01*
X55410794Y-81200941D01*
X55491195Y-81316333D01*
X55585178Y-81417702D01*
X55679174Y-81488365D01*
X55685958Y-81492020D01*
X55882698Y-81568118D01*
X56087689Y-81598463D01*
X56291104Y-81582243D01*
X56403664Y-81551468D01*
X56580944Y-81464347D01*
X56725410Y-81340677D01*
X56832587Y-81184341D01*
X56837020Y-81175466D01*
X56890010Y-81019401D01*
X56911993Y-80842298D01*
X56902639Y-80663017D01*
X56861621Y-80500421D01*
X56849289Y-80470900D01*
X56751958Y-80311906D01*
X56624261Y-80187092D01*
X56473564Y-80096623D01*
X56307236Y-80040666D01*
X56132642Y-80019386D01*
X55957149Y-80032949D01*
X55788124Y-80081522D01*
X55632934Y-80165270D01*
X55498945Y-80284360D01*
X55393965Y-80438101D01*
X55352419Y-80555807D01*
X55328433Y-80702526D01*
X55323074Y-80859224D01*
X54898748Y-80859224D01*
X54893238Y-80753236D01*
X54925650Y-80518693D01*
G37*
X54925650Y-80518693D02*
X55000850Y-80302052D01*
X55116357Y-80108365D01*
X55269687Y-79942687D01*
X55458360Y-79810069D01*
X55502419Y-79786803D01*
X55676705Y-79712053D01*
X55848030Y-79667281D01*
X56033905Y-79649147D01*
X56209986Y-79651840D01*
X56463440Y-79687111D01*
X56691525Y-79763807D01*
X56891175Y-79879865D01*
X57059325Y-80033222D01*
X57192908Y-80221816D01*
X57257456Y-80356600D01*
X57289018Y-80470705D01*
X57309285Y-80618371D01*
X57318030Y-80783580D01*
X57315025Y-80950313D01*
X57300043Y-81102551D01*
X57272856Y-81224275D01*
X57269905Y-81232900D01*
X57173519Y-81430172D01*
X57034275Y-81606574D01*
X56857679Y-81756769D01*
X56649241Y-81875421D01*
X56574340Y-81906770D01*
X56442321Y-81943019D01*
X56279335Y-81966467D01*
X56103781Y-81976287D01*
X55934060Y-81971650D01*
X55788574Y-81951729D01*
X55755753Y-81943599D01*
X55541853Y-81861401D01*
X55347121Y-81743093D01*
X55180155Y-81595635D01*
X55049556Y-81425986D01*
X54998682Y-81330895D01*
X54960337Y-81228102D01*
X54926151Y-81103876D01*
X54906099Y-81000628D01*
X54898748Y-80859224D01*
X55323074Y-80859224D01*
X55337409Y-81006866D01*
X55357541Y-81088207D01*
X55410794Y-81200941D01*
X55491195Y-81316333D01*
X55585178Y-81417702D01*
X55679174Y-81488365D01*
X55685958Y-81492020D01*
X55882698Y-81568118D01*
X56087689Y-81598463D01*
X56291104Y-81582243D01*
X56403664Y-81551468D01*
X56580944Y-81464347D01*
X56725410Y-81340677D01*
X56832587Y-81184341D01*
X56837020Y-81175466D01*
X56890010Y-81019401D01*
X56911993Y-80842298D01*
X56902639Y-80663017D01*
X56861621Y-80500421D01*
X56849289Y-80470900D01*
X56751958Y-80311906D01*
X56624261Y-80187092D01*
X56473564Y-80096623D01*
X56307236Y-80040666D01*
X56132642Y-80019386D01*
X55957149Y-80032949D01*
X55788124Y-80081522D01*
X55632934Y-80165270D01*
X55498945Y-80284360D01*
X55393965Y-80438101D01*
X55352419Y-80555807D01*
X55328433Y-80702526D01*
X55323074Y-80859224D01*
X54898748Y-80859224D01*
X54893238Y-80753236D01*
X54925650Y-80518693D01*
G36*
X53827049Y-79665988D02*
G01*
X53941748Y-79692102D01*
X54162850Y-79782639D01*
X54354293Y-79909036D01*
X54511222Y-80066988D01*
X54628782Y-80252188D01*
X54663437Y-80332254D01*
X54697464Y-80425731D01*
X54709083Y-80484761D01*
X54691798Y-80517261D01*
X54639112Y-80531149D01*
X54544529Y-80534343D01*
X54497569Y-80534400D01*
X54283639Y-80534399D01*
X54252733Y-80440754D01*
X54186143Y-80314894D01*
X54079638Y-80203503D01*
X53943463Y-80113012D01*
X53787864Y-80049854D01*
X53623085Y-80020461D01*
X53581199Y-80019142D01*
X53398869Y-80041910D01*
X53228565Y-80106221D01*
X53079016Y-80206089D01*
X52958953Y-80335526D01*
X52877105Y-80488547D01*
X52870907Y-80506267D01*
X52837356Y-80664924D01*
X52831573Y-80840402D01*
X52852259Y-81014327D01*
X52898113Y-81168322D01*
X52921175Y-81216531D01*
X53026904Y-81367138D01*
X53161779Y-81479303D01*
X53309102Y-81550915D01*
X53487789Y-81593926D01*
X53667259Y-81593773D01*
X53839072Y-81553785D01*
X53994790Y-81477291D01*
X54125974Y-81367622D01*
X54224184Y-81228106D01*
X54245767Y-81181389D01*
X54292400Y-81067990D01*
X54501950Y-81067895D01*
X54604668Y-81068561D01*
X54666784Y-81072620D01*
X54698495Y-81082992D01*
X54709997Y-81102594D01*
X54711500Y-81127887D01*
X54695975Y-81202902D01*
X54654424Y-81302781D01*
X54594378Y-81414252D01*
X54523369Y-81524041D01*
X54448929Y-81618876D01*
X54410038Y-81659119D01*
X54230264Y-81794131D01*
X54021407Y-81894811D01*
X53794560Y-81957913D01*
X53560818Y-81980194D01*
X53365300Y-81964664D01*
X53172087Y-81913943D01*
X52984451Y-81830877D01*
X52814760Y-81722860D01*
X52675383Y-81597289D01*
X52608489Y-81512165D01*
X52527160Y-81377841D01*
X52471270Y-81252887D01*
X52436691Y-81122138D01*
X52419293Y-80970430D01*
X52414914Y-80801100D01*
X52416419Y-80660194D01*
X52422121Y-80556188D01*
X52433798Y-80475236D01*
X52453230Y-80403494D01*
X52472851Y-80350197D01*
X52578497Y-80150543D01*
X52724762Y-79974026D01*
X52903876Y-79828316D01*
X53108069Y-79721085D01*
X53111300Y-79719802D01*
X53267283Y-79675914D01*
X53451255Y-79651892D01*
X53644187Y-79648372D01*
X53827049Y-79665988D01*
G37*
X53827049Y-79665988D02*
X53941748Y-79692102D01*
X54162850Y-79782639D01*
X54354293Y-79909036D01*
X54511222Y-80066988D01*
X54628782Y-80252188D01*
X54663437Y-80332254D01*
X54697464Y-80425731D01*
X54709083Y-80484761D01*
X54691798Y-80517261D01*
X54639112Y-80531149D01*
X54544529Y-80534343D01*
X54497569Y-80534400D01*
X54283639Y-80534399D01*
X54252733Y-80440754D01*
X54186143Y-80314894D01*
X54079638Y-80203503D01*
X53943463Y-80113012D01*
X53787864Y-80049854D01*
X53623085Y-80020461D01*
X53581199Y-80019142D01*
X53398869Y-80041910D01*
X53228565Y-80106221D01*
X53079016Y-80206089D01*
X52958953Y-80335526D01*
X52877105Y-80488547D01*
X52870907Y-80506267D01*
X52837356Y-80664924D01*
X52831573Y-80840402D01*
X52852259Y-81014327D01*
X52898113Y-81168322D01*
X52921175Y-81216531D01*
X53026904Y-81367138D01*
X53161779Y-81479303D01*
X53309102Y-81550915D01*
X53487789Y-81593926D01*
X53667259Y-81593773D01*
X53839072Y-81553785D01*
X53994790Y-81477291D01*
X54125974Y-81367622D01*
X54224184Y-81228106D01*
X54245767Y-81181389D01*
X54292400Y-81067990D01*
X54501950Y-81067895D01*
X54604668Y-81068561D01*
X54666784Y-81072620D01*
X54698495Y-81082992D01*
X54709997Y-81102594D01*
X54711500Y-81127887D01*
X54695975Y-81202902D01*
X54654424Y-81302781D01*
X54594378Y-81414252D01*
X54523369Y-81524041D01*
X54448929Y-81618876D01*
X54410038Y-81659119D01*
X54230264Y-81794131D01*
X54021407Y-81894811D01*
X53794560Y-81957913D01*
X53560818Y-81980194D01*
X53365300Y-81964664D01*
X53172087Y-81913943D01*
X52984451Y-81830877D01*
X52814760Y-81722860D01*
X52675383Y-81597289D01*
X52608489Y-81512165D01*
X52527160Y-81377841D01*
X52471270Y-81252887D01*
X52436691Y-81122138D01*
X52419293Y-80970430D01*
X52414914Y-80801100D01*
X52416419Y-80660194D01*
X52422121Y-80556188D01*
X52433798Y-80475236D01*
X52453230Y-80403494D01*
X52472851Y-80350197D01*
X52578497Y-80150543D01*
X52724762Y-79974026D01*
X52903876Y-79828316D01*
X53108069Y-79721085D01*
X53111300Y-79719802D01*
X53267283Y-79675914D01*
X53451255Y-79651892D01*
X53644187Y-79648372D01*
X53827049Y-79665988D01*
M02*
