G04 #@! TF.GenerationSoftware,KiCad,Pcbnew,(6.0.7)*
G04 #@! TF.CreationDate,2022-09-24T11:59:02+09:00*
G04 #@! TF.ProjectId,corne-cherry,636f726e-652d-4636-9865-7272792e6b69,3.0.1*
G04 #@! TF.SameCoordinates,Original*
G04 #@! TF.FileFunction,Legend,Bot*
G04 #@! TF.FilePolarity,Positive*
%FSLAX46Y46*%
G04 Gerber Fmt 4.6, Leading zero omitted, Abs format (unit mm)*
G04 Created by KiCad (PCBNEW (6.0.7)) date 2022-09-24 11:59:02*
%MOMM*%
%LPD*%
G01*
G04 APERTURE LIST*
%ADD10C,0.150000*%
%ADD11C,0.300000*%
%ADD12C,0.800000*%
%ADD13C,3.000000*%
%ADD14C,0.500000*%
%ADD15C,1.000000*%
%ADD16C,3.500000*%
%ADD17C,0.400000*%
%ADD18C,0.120000*%
%ADD19C,0.010000*%
G04 APERTURE END LIST*
D10*
X40236547Y-45867380D02*
X40712738Y-45867380D01*
X40712738Y-44867380D01*
X39903214Y-45343571D02*
X39569880Y-45343571D01*
X39427023Y-45867380D02*
X39903214Y-45867380D01*
X39903214Y-44867380D01*
X39427023Y-44867380D01*
X38998452Y-45867380D02*
X38998452Y-44867380D01*
X38760357Y-44867380D01*
X38617500Y-44915000D01*
X38522261Y-45010238D01*
X38474642Y-45105476D01*
X38427023Y-45295952D01*
X38427023Y-45438809D01*
X38474642Y-45629285D01*
X38522261Y-45724523D01*
X38617500Y-45819761D01*
X38760357Y-45867380D01*
X38998452Y-45867380D01*
X37474642Y-45867380D02*
X38046071Y-45867380D01*
X37760357Y-45867380D02*
X37760357Y-44867380D01*
X37855595Y-45010238D01*
X37950833Y-45105476D01*
X38046071Y-45153095D01*
X78286547Y-38747380D02*
X78762738Y-38747380D01*
X78762738Y-37747380D01*
X77953214Y-38223571D02*
X77619880Y-38223571D01*
X77477023Y-38747380D02*
X77953214Y-38747380D01*
X77953214Y-37747380D01*
X77477023Y-37747380D01*
X77048452Y-38747380D02*
X77048452Y-37747380D01*
X76810357Y-37747380D01*
X76667500Y-37795000D01*
X76572261Y-37890238D01*
X76524642Y-37985476D01*
X76477023Y-38175952D01*
X76477023Y-38318809D01*
X76524642Y-38509285D01*
X76572261Y-38604523D01*
X76667500Y-38699761D01*
X76810357Y-38747380D01*
X77048452Y-38747380D01*
X76096071Y-37842619D02*
X76048452Y-37795000D01*
X75953214Y-37747380D01*
X75715119Y-37747380D01*
X75619880Y-37795000D01*
X75572261Y-37842619D01*
X75524642Y-37937857D01*
X75524642Y-38033095D01*
X75572261Y-38175952D01*
X76143690Y-38747380D01*
X75524642Y-38747380D01*
X116306547Y-43497380D02*
X116782738Y-43497380D01*
X116782738Y-42497380D01*
X115973214Y-42973571D02*
X115639880Y-42973571D01*
X115497023Y-43497380D02*
X115973214Y-43497380D01*
X115973214Y-42497380D01*
X115497023Y-42497380D01*
X115068452Y-43497380D02*
X115068452Y-42497380D01*
X114830357Y-42497380D01*
X114687500Y-42545000D01*
X114592261Y-42640238D01*
X114544642Y-42735476D01*
X114497023Y-42925952D01*
X114497023Y-43068809D01*
X114544642Y-43259285D01*
X114592261Y-43354523D01*
X114687500Y-43449761D01*
X114830357Y-43497380D01*
X115068452Y-43497380D01*
X114163690Y-42497380D02*
X113544642Y-42497380D01*
X113877976Y-42878333D01*
X113735119Y-42878333D01*
X113639880Y-42925952D01*
X113592261Y-42973571D01*
X113544642Y-43068809D01*
X113544642Y-43306904D01*
X113592261Y-43402142D01*
X113639880Y-43449761D01*
X113735119Y-43497380D01*
X114020833Y-43497380D01*
X114116071Y-43449761D01*
X114163690Y-43402142D01*
X40356547Y-64897380D02*
X40832738Y-64897380D01*
X40832738Y-63897380D01*
X40023214Y-64373571D02*
X39689880Y-64373571D01*
X39547023Y-64897380D02*
X40023214Y-64897380D01*
X40023214Y-63897380D01*
X39547023Y-63897380D01*
X39118452Y-64897380D02*
X39118452Y-63897380D01*
X38880357Y-63897380D01*
X38737500Y-63945000D01*
X38642261Y-64040238D01*
X38594642Y-64135476D01*
X38547023Y-64325952D01*
X38547023Y-64468809D01*
X38594642Y-64659285D01*
X38642261Y-64754523D01*
X38737500Y-64849761D01*
X38880357Y-64897380D01*
X39118452Y-64897380D01*
X37689880Y-64230714D02*
X37689880Y-64897380D01*
X37927976Y-63849761D02*
X38166071Y-64564047D01*
X37547023Y-64564047D01*
X78356547Y-76627380D02*
X78832738Y-76627380D01*
X78832738Y-75627380D01*
X78023214Y-76103571D02*
X77689880Y-76103571D01*
X77547023Y-76627380D02*
X78023214Y-76627380D01*
X78023214Y-75627380D01*
X77547023Y-75627380D01*
X77118452Y-76627380D02*
X77118452Y-75627380D01*
X76880357Y-75627380D01*
X76737500Y-75675000D01*
X76642261Y-75770238D01*
X76594642Y-75865476D01*
X76547023Y-76055952D01*
X76547023Y-76198809D01*
X76594642Y-76389285D01*
X76642261Y-76484523D01*
X76737500Y-76579761D01*
X76880357Y-76627380D01*
X77118452Y-76627380D01*
X75642261Y-75627380D02*
X76118452Y-75627380D01*
X76166071Y-76103571D01*
X76118452Y-76055952D01*
X76023214Y-76008333D01*
X75785119Y-76008333D01*
X75689880Y-76055952D01*
X75642261Y-76103571D01*
X75594642Y-76198809D01*
X75594642Y-76436904D01*
X75642261Y-76532142D01*
X75689880Y-76579761D01*
X75785119Y-76627380D01*
X76023214Y-76627380D01*
X76118452Y-76579761D01*
X76166071Y-76532142D01*
X116276547Y-81437380D02*
X116752738Y-81437380D01*
X116752738Y-80437380D01*
X115943214Y-80913571D02*
X115609880Y-80913571D01*
X115467023Y-81437380D02*
X115943214Y-81437380D01*
X115943214Y-80437380D01*
X115467023Y-80437380D01*
X115038452Y-81437380D02*
X115038452Y-80437380D01*
X114800357Y-80437380D01*
X114657500Y-80485000D01*
X114562261Y-80580238D01*
X114514642Y-80675476D01*
X114467023Y-80865952D01*
X114467023Y-81008809D01*
X114514642Y-81199285D01*
X114562261Y-81294523D01*
X114657500Y-81389761D01*
X114800357Y-81437380D01*
X115038452Y-81437380D01*
X113609880Y-80437380D02*
X113800357Y-80437380D01*
X113895595Y-80485000D01*
X113943214Y-80532619D01*
X114038452Y-80675476D01*
X114086071Y-80865952D01*
X114086071Y-81246904D01*
X114038452Y-81342142D01*
X113990833Y-81389761D01*
X113895595Y-81437380D01*
X113705119Y-81437380D01*
X113609880Y-81389761D01*
X113562261Y-81342142D01*
X113514642Y-81246904D01*
X113514642Y-81008809D01*
X113562261Y-80913571D01*
X113609880Y-80865952D01*
X113705119Y-80818333D01*
X113895595Y-80818333D01*
X113990833Y-80865952D01*
X114038452Y-80913571D01*
X114086071Y-81008809D01*
X259402738Y-45742380D02*
X259878928Y-45742380D01*
X259878928Y-44742380D01*
X259069404Y-45218571D02*
X258736071Y-45218571D01*
X258593214Y-45742380D02*
X259069404Y-45742380D01*
X259069404Y-44742380D01*
X258593214Y-44742380D01*
X258164642Y-45742380D02*
X258164642Y-44742380D01*
X257926547Y-44742380D01*
X257783690Y-44790000D01*
X257688452Y-44885238D01*
X257640833Y-44980476D01*
X257593214Y-45170952D01*
X257593214Y-45313809D01*
X257640833Y-45504285D01*
X257688452Y-45599523D01*
X257783690Y-45694761D01*
X257926547Y-45742380D01*
X258164642Y-45742380D01*
X257212261Y-44837619D02*
X257164642Y-44790000D01*
X257069404Y-44742380D01*
X256831309Y-44742380D01*
X256736071Y-44790000D01*
X256688452Y-44837619D01*
X256640833Y-44932857D01*
X256640833Y-45028095D01*
X256688452Y-45170952D01*
X257259880Y-45742380D01*
X256640833Y-45742380D01*
X256069404Y-45170952D02*
X256164642Y-45123333D01*
X256212261Y-45075714D01*
X256259880Y-44980476D01*
X256259880Y-44932857D01*
X256212261Y-44837619D01*
X256164642Y-44790000D01*
X256069404Y-44742380D01*
X255878928Y-44742380D01*
X255783690Y-44790000D01*
X255736071Y-44837619D01*
X255688452Y-44932857D01*
X255688452Y-44980476D01*
X255736071Y-45075714D01*
X255783690Y-45123333D01*
X255878928Y-45170952D01*
X256069404Y-45170952D01*
X256164642Y-45218571D01*
X256212261Y-45266190D01*
X256259880Y-45361428D01*
X256259880Y-45551904D01*
X256212261Y-45647142D01*
X256164642Y-45694761D01*
X256069404Y-45742380D01*
X255878928Y-45742380D01*
X255783690Y-45694761D01*
X255736071Y-45647142D01*
X255688452Y-45551904D01*
X255688452Y-45361428D01*
X255736071Y-45266190D01*
X255783690Y-45218571D01*
X255878928Y-45170952D01*
X221402738Y-38617380D02*
X221878928Y-38617380D01*
X221878928Y-37617380D01*
X221069404Y-38093571D02*
X220736071Y-38093571D01*
X220593214Y-38617380D02*
X221069404Y-38617380D01*
X221069404Y-37617380D01*
X220593214Y-37617380D01*
X220164642Y-38617380D02*
X220164642Y-37617380D01*
X219926547Y-37617380D01*
X219783690Y-37665000D01*
X219688452Y-37760238D01*
X219640833Y-37855476D01*
X219593214Y-38045952D01*
X219593214Y-38188809D01*
X219640833Y-38379285D01*
X219688452Y-38474523D01*
X219783690Y-38569761D01*
X219926547Y-38617380D01*
X220164642Y-38617380D01*
X219212261Y-37712619D02*
X219164642Y-37665000D01*
X219069404Y-37617380D01*
X218831309Y-37617380D01*
X218736071Y-37665000D01*
X218688452Y-37712619D01*
X218640833Y-37807857D01*
X218640833Y-37903095D01*
X218688452Y-38045952D01*
X219259880Y-38617380D01*
X218640833Y-38617380D01*
X218164642Y-38617380D02*
X217974166Y-38617380D01*
X217878928Y-38569761D01*
X217831309Y-38522142D01*
X217736071Y-38379285D01*
X217688452Y-38188809D01*
X217688452Y-37807857D01*
X217736071Y-37712619D01*
X217783690Y-37665000D01*
X217878928Y-37617380D01*
X218069404Y-37617380D01*
X218164642Y-37665000D01*
X218212261Y-37712619D01*
X218259880Y-37807857D01*
X218259880Y-38045952D01*
X218212261Y-38141190D01*
X218164642Y-38188809D01*
X218069404Y-38236428D01*
X217878928Y-38236428D01*
X217783690Y-38188809D01*
X217736071Y-38141190D01*
X217688452Y-38045952D01*
X183402738Y-43367380D02*
X183878928Y-43367380D01*
X183878928Y-42367380D01*
X183069404Y-42843571D02*
X182736071Y-42843571D01*
X182593214Y-43367380D02*
X183069404Y-43367380D01*
X183069404Y-42367380D01*
X182593214Y-42367380D01*
X182164642Y-43367380D02*
X182164642Y-42367380D01*
X181926547Y-42367380D01*
X181783690Y-42415000D01*
X181688452Y-42510238D01*
X181640833Y-42605476D01*
X181593214Y-42795952D01*
X181593214Y-42938809D01*
X181640833Y-43129285D01*
X181688452Y-43224523D01*
X181783690Y-43319761D01*
X181926547Y-43367380D01*
X182164642Y-43367380D01*
X181259880Y-42367380D02*
X180640833Y-42367380D01*
X180974166Y-42748333D01*
X180831309Y-42748333D01*
X180736071Y-42795952D01*
X180688452Y-42843571D01*
X180640833Y-42938809D01*
X180640833Y-43176904D01*
X180688452Y-43272142D01*
X180736071Y-43319761D01*
X180831309Y-43367380D01*
X181117023Y-43367380D01*
X181212261Y-43319761D01*
X181259880Y-43272142D01*
X180021785Y-42367380D02*
X179926547Y-42367380D01*
X179831309Y-42415000D01*
X179783690Y-42462619D01*
X179736071Y-42557857D01*
X179688452Y-42748333D01*
X179688452Y-42986428D01*
X179736071Y-43176904D01*
X179783690Y-43272142D01*
X179831309Y-43319761D01*
X179926547Y-43367380D01*
X180021785Y-43367380D01*
X180117023Y-43319761D01*
X180164642Y-43272142D01*
X180212261Y-43176904D01*
X180259880Y-42986428D01*
X180259880Y-42748333D01*
X180212261Y-42557857D01*
X180164642Y-42462619D01*
X180117023Y-42415000D01*
X180021785Y-42367380D01*
X259402738Y-64742380D02*
X259878928Y-64742380D01*
X259878928Y-63742380D01*
X259069404Y-64218571D02*
X258736071Y-64218571D01*
X258593214Y-64742380D02*
X259069404Y-64742380D01*
X259069404Y-63742380D01*
X258593214Y-63742380D01*
X258164642Y-64742380D02*
X258164642Y-63742380D01*
X257926547Y-63742380D01*
X257783690Y-63790000D01*
X257688452Y-63885238D01*
X257640833Y-63980476D01*
X257593214Y-64170952D01*
X257593214Y-64313809D01*
X257640833Y-64504285D01*
X257688452Y-64599523D01*
X257783690Y-64694761D01*
X257926547Y-64742380D01*
X258164642Y-64742380D01*
X257259880Y-63742380D02*
X256640833Y-63742380D01*
X256974166Y-64123333D01*
X256831309Y-64123333D01*
X256736071Y-64170952D01*
X256688452Y-64218571D01*
X256640833Y-64313809D01*
X256640833Y-64551904D01*
X256688452Y-64647142D01*
X256736071Y-64694761D01*
X256831309Y-64742380D01*
X257117023Y-64742380D01*
X257212261Y-64694761D01*
X257259880Y-64647142D01*
X255688452Y-64742380D02*
X256259880Y-64742380D01*
X255974166Y-64742380D02*
X255974166Y-63742380D01*
X256069404Y-63885238D01*
X256164642Y-63980476D01*
X256259880Y-64028095D01*
X221402738Y-76617380D02*
X221878928Y-76617380D01*
X221878928Y-75617380D01*
X221069404Y-76093571D02*
X220736071Y-76093571D01*
X220593214Y-76617380D02*
X221069404Y-76617380D01*
X221069404Y-75617380D01*
X220593214Y-75617380D01*
X220164642Y-76617380D02*
X220164642Y-75617380D01*
X219926547Y-75617380D01*
X219783690Y-75665000D01*
X219688452Y-75760238D01*
X219640833Y-75855476D01*
X219593214Y-76045952D01*
X219593214Y-76188809D01*
X219640833Y-76379285D01*
X219688452Y-76474523D01*
X219783690Y-76569761D01*
X219926547Y-76617380D01*
X220164642Y-76617380D01*
X219259880Y-75617380D02*
X218640833Y-75617380D01*
X218974166Y-75998333D01*
X218831309Y-75998333D01*
X218736071Y-76045952D01*
X218688452Y-76093571D01*
X218640833Y-76188809D01*
X218640833Y-76426904D01*
X218688452Y-76522142D01*
X218736071Y-76569761D01*
X218831309Y-76617380D01*
X219117023Y-76617380D01*
X219212261Y-76569761D01*
X219259880Y-76522142D01*
X218259880Y-75712619D02*
X218212261Y-75665000D01*
X218117023Y-75617380D01*
X217878928Y-75617380D01*
X217783690Y-75665000D01*
X217736071Y-75712619D01*
X217688452Y-75807857D01*
X217688452Y-75903095D01*
X217736071Y-76045952D01*
X218307500Y-76617380D01*
X217688452Y-76617380D01*
X183522738Y-63669880D02*
X183998928Y-63669880D01*
X183998928Y-62669880D01*
X183189404Y-63146071D02*
X182856071Y-63146071D01*
X182713214Y-63669880D02*
X183189404Y-63669880D01*
X183189404Y-62669880D01*
X182713214Y-62669880D01*
X182284642Y-63669880D02*
X182284642Y-62669880D01*
X182046547Y-62669880D01*
X181903690Y-62717500D01*
X181808452Y-62812738D01*
X181760833Y-62907976D01*
X181713214Y-63098452D01*
X181713214Y-63241309D01*
X181760833Y-63431785D01*
X181808452Y-63527023D01*
X181903690Y-63622261D01*
X182046547Y-63669880D01*
X182284642Y-63669880D01*
X181379880Y-62669880D02*
X180760833Y-62669880D01*
X181094166Y-63050833D01*
X180951309Y-63050833D01*
X180856071Y-63098452D01*
X180808452Y-63146071D01*
X180760833Y-63241309D01*
X180760833Y-63479404D01*
X180808452Y-63574642D01*
X180856071Y-63622261D01*
X180951309Y-63669880D01*
X181237023Y-63669880D01*
X181332261Y-63622261D01*
X181379880Y-63574642D01*
X180427500Y-62669880D02*
X179808452Y-62669880D01*
X180141785Y-63050833D01*
X179998928Y-63050833D01*
X179903690Y-63098452D01*
X179856071Y-63146071D01*
X179808452Y-63241309D01*
X179808452Y-63479404D01*
X179856071Y-63574642D01*
X179903690Y-63622261D01*
X179998928Y-63669880D01*
X180284642Y-63669880D01*
X180379880Y-63622261D01*
X180427500Y-63574642D01*
X183162738Y-81432380D02*
X183638928Y-81432380D01*
X183638928Y-80432380D01*
X182829404Y-80908571D02*
X182496071Y-80908571D01*
X182353214Y-81432380D02*
X182829404Y-81432380D01*
X182829404Y-80432380D01*
X182353214Y-80432380D01*
X181924642Y-81432380D02*
X181924642Y-80432380D01*
X181686547Y-80432380D01*
X181543690Y-80480000D01*
X181448452Y-80575238D01*
X181400833Y-80670476D01*
X181353214Y-80860952D01*
X181353214Y-81003809D01*
X181400833Y-81194285D01*
X181448452Y-81289523D01*
X181543690Y-81384761D01*
X181686547Y-81432380D01*
X181924642Y-81432380D01*
X181019880Y-80432380D02*
X180400833Y-80432380D01*
X180734166Y-80813333D01*
X180591309Y-80813333D01*
X180496071Y-80860952D01*
X180448452Y-80908571D01*
X180400833Y-81003809D01*
X180400833Y-81241904D01*
X180448452Y-81337142D01*
X180496071Y-81384761D01*
X180591309Y-81432380D01*
X180877023Y-81432380D01*
X180972261Y-81384761D01*
X181019880Y-81337142D01*
X180067500Y-80432380D02*
X179448452Y-80432380D01*
X179781785Y-80813333D01*
X179638928Y-80813333D01*
X179543690Y-80860952D01*
X179496071Y-80908571D01*
X179448452Y-81003809D01*
X179448452Y-81241904D01*
X179496071Y-81337142D01*
X179543690Y-81384761D01*
X179638928Y-81432380D01*
X179924642Y-81432380D01*
X180019880Y-81384761D01*
X180067500Y-81337142D01*
X104183703Y-97867655D02*
X103723738Y-97744408D01*
X103464919Y-98710334D01*
X104370106Y-98459889D02*
X104692081Y-98546162D01*
X104965643Y-98077175D02*
X104505678Y-97953928D01*
X104246859Y-98919854D01*
X104706824Y-99043101D01*
X105379611Y-98188098D02*
X105120792Y-99154024D01*
X105350774Y-99215647D01*
X105501088Y-99206625D01*
X105617731Y-99139281D01*
X105688376Y-99059613D01*
X105783672Y-98887952D01*
X105820646Y-98749962D01*
X105823948Y-98553652D01*
X105802601Y-98449334D01*
X105735258Y-98332692D01*
X105609593Y-98249721D01*
X105379611Y-98188098D01*
X106065371Y-99308525D02*
X106099042Y-99366846D01*
X106178711Y-99437492D01*
X106408693Y-99499116D01*
X106513011Y-99477769D01*
X106571332Y-99444097D01*
X106641978Y-99364429D01*
X106666627Y-99272436D01*
X106657605Y-99122122D01*
X106253544Y-98422267D01*
X106851498Y-98582489D01*
X107420615Y-99770259D02*
X107236629Y-99720960D01*
X107156961Y-99650315D01*
X107123289Y-99591993D01*
X107068271Y-99429355D01*
X107071573Y-99233044D01*
X107170171Y-98865072D01*
X107240817Y-98785404D01*
X107299138Y-98751732D01*
X107403455Y-98730385D01*
X107587441Y-98779684D01*
X107667109Y-98850330D01*
X107700781Y-98908651D01*
X107722128Y-99012969D01*
X107660505Y-99242951D01*
X107589859Y-99322619D01*
X107531538Y-99356291D01*
X107427220Y-99377638D01*
X107243234Y-99328339D01*
X107163566Y-99257693D01*
X107129894Y-99199372D01*
X107108547Y-99095055D01*
X21196547Y-43889880D02*
X21672738Y-43889880D01*
X21672738Y-42889880D01*
X20863214Y-43366071D02*
X20529880Y-43366071D01*
X20387023Y-43889880D02*
X20863214Y-43889880D01*
X20863214Y-42889880D01*
X20387023Y-42889880D01*
X19958452Y-43889880D02*
X19958452Y-42889880D01*
X19720357Y-42889880D01*
X19577500Y-42937500D01*
X19482261Y-43032738D01*
X19434642Y-43127976D01*
X19387023Y-43318452D01*
X19387023Y-43461309D01*
X19434642Y-43651785D01*
X19482261Y-43747023D01*
X19577500Y-43842261D01*
X19720357Y-43889880D01*
X19958452Y-43889880D01*
X19053690Y-42889880D02*
X18387023Y-42889880D01*
X18815595Y-43889880D01*
X33766547Y-41819880D02*
X34242738Y-41819880D01*
X34242738Y-40819880D01*
X33433214Y-41296071D02*
X33099880Y-41296071D01*
X32957023Y-41819880D02*
X33433214Y-41819880D01*
X33433214Y-40819880D01*
X32957023Y-40819880D01*
X32528452Y-41819880D02*
X32528452Y-40819880D01*
X32290357Y-40819880D01*
X32147500Y-40867500D01*
X32052261Y-40962738D01*
X32004642Y-41057976D01*
X31957023Y-41248452D01*
X31957023Y-41391309D01*
X32004642Y-41581785D01*
X32052261Y-41677023D01*
X32147500Y-41772261D01*
X32290357Y-41819880D01*
X32528452Y-41819880D01*
X31385595Y-41248452D02*
X31480833Y-41200833D01*
X31528452Y-41153214D01*
X31576071Y-41057976D01*
X31576071Y-41010357D01*
X31528452Y-40915119D01*
X31480833Y-40867500D01*
X31385595Y-40819880D01*
X31195119Y-40819880D01*
X31099880Y-40867500D01*
X31052261Y-40915119D01*
X31004642Y-41010357D01*
X31004642Y-41057976D01*
X31052261Y-41153214D01*
X31099880Y-41200833D01*
X31195119Y-41248452D01*
X31385595Y-41248452D01*
X31480833Y-41296071D01*
X31528452Y-41343690D01*
X31576071Y-41438928D01*
X31576071Y-41629404D01*
X31528452Y-41724642D01*
X31480833Y-41772261D01*
X31385595Y-41819880D01*
X31195119Y-41819880D01*
X31099880Y-41772261D01*
X31052261Y-41724642D01*
X31004642Y-41629404D01*
X31004642Y-41438928D01*
X31052261Y-41343690D01*
X31099880Y-41296071D01*
X31195119Y-41248452D01*
X59196547Y-39139880D02*
X59672738Y-39139880D01*
X59672738Y-38139880D01*
X58863214Y-38616071D02*
X58529880Y-38616071D01*
X58387023Y-39139880D02*
X58863214Y-39139880D01*
X58863214Y-38139880D01*
X58387023Y-38139880D01*
X57958452Y-39139880D02*
X57958452Y-38139880D01*
X57720357Y-38139880D01*
X57577500Y-38187500D01*
X57482261Y-38282738D01*
X57434642Y-38377976D01*
X57387023Y-38568452D01*
X57387023Y-38711309D01*
X57434642Y-38901785D01*
X57482261Y-38997023D01*
X57577500Y-39092261D01*
X57720357Y-39139880D01*
X57958452Y-39139880D01*
X56910833Y-39139880D02*
X56720357Y-39139880D01*
X56625119Y-39092261D01*
X56577500Y-39044642D01*
X56482261Y-38901785D01*
X56434642Y-38711309D01*
X56434642Y-38330357D01*
X56482261Y-38235119D01*
X56529880Y-38187500D01*
X56625119Y-38139880D01*
X56815595Y-38139880D01*
X56910833Y-38187500D01*
X56958452Y-38235119D01*
X57006071Y-38330357D01*
X57006071Y-38568452D01*
X56958452Y-38663690D01*
X56910833Y-38711309D01*
X56815595Y-38758928D01*
X56625119Y-38758928D01*
X56529880Y-38711309D01*
X56482261Y-38663690D01*
X56434642Y-38568452D01*
X72242738Y-34694880D02*
X72718928Y-34694880D01*
X72718928Y-33694880D01*
X71909404Y-34171071D02*
X71576071Y-34171071D01*
X71433214Y-34694880D02*
X71909404Y-34694880D01*
X71909404Y-33694880D01*
X71433214Y-33694880D01*
X71004642Y-34694880D02*
X71004642Y-33694880D01*
X70766547Y-33694880D01*
X70623690Y-33742500D01*
X70528452Y-33837738D01*
X70480833Y-33932976D01*
X70433214Y-34123452D01*
X70433214Y-34266309D01*
X70480833Y-34456785D01*
X70528452Y-34552023D01*
X70623690Y-34647261D01*
X70766547Y-34694880D01*
X71004642Y-34694880D01*
X69480833Y-34694880D02*
X70052261Y-34694880D01*
X69766547Y-34694880D02*
X69766547Y-33694880D01*
X69861785Y-33837738D01*
X69957023Y-33932976D01*
X70052261Y-33980595D01*
X68861785Y-33694880D02*
X68766547Y-33694880D01*
X68671309Y-33742500D01*
X68623690Y-33790119D01*
X68576071Y-33885357D01*
X68528452Y-34075833D01*
X68528452Y-34313928D01*
X68576071Y-34504404D01*
X68623690Y-34599642D01*
X68671309Y-34647261D01*
X68766547Y-34694880D01*
X68861785Y-34694880D01*
X68957023Y-34647261D01*
X69004642Y-34599642D01*
X69052261Y-34504404D01*
X69099880Y-34313928D01*
X69099880Y-34075833D01*
X69052261Y-33885357D01*
X69004642Y-33790119D01*
X68957023Y-33742500D01*
X68861785Y-33694880D01*
X97672738Y-39139880D02*
X98148928Y-39139880D01*
X98148928Y-38139880D01*
X97339404Y-38616071D02*
X97006071Y-38616071D01*
X96863214Y-39139880D02*
X97339404Y-39139880D01*
X97339404Y-38139880D01*
X96863214Y-38139880D01*
X96434642Y-39139880D02*
X96434642Y-38139880D01*
X96196547Y-38139880D01*
X96053690Y-38187500D01*
X95958452Y-38282738D01*
X95910833Y-38377976D01*
X95863214Y-38568452D01*
X95863214Y-38711309D01*
X95910833Y-38901785D01*
X95958452Y-38997023D01*
X96053690Y-39092261D01*
X96196547Y-39139880D01*
X96434642Y-39139880D01*
X94910833Y-39139880D02*
X95482261Y-39139880D01*
X95196547Y-39139880D02*
X95196547Y-38139880D01*
X95291785Y-38282738D01*
X95387023Y-38377976D01*
X95482261Y-38425595D01*
X93958452Y-39139880D02*
X94529880Y-39139880D01*
X94244166Y-39139880D02*
X94244166Y-38139880D01*
X94339404Y-38282738D01*
X94434642Y-38377976D01*
X94529880Y-38425595D01*
X110242738Y-39444880D02*
X110718928Y-39444880D01*
X110718928Y-38444880D01*
X109909404Y-38921071D02*
X109576071Y-38921071D01*
X109433214Y-39444880D02*
X109909404Y-39444880D01*
X109909404Y-38444880D01*
X109433214Y-38444880D01*
X109004642Y-39444880D02*
X109004642Y-38444880D01*
X108766547Y-38444880D01*
X108623690Y-38492500D01*
X108528452Y-38587738D01*
X108480833Y-38682976D01*
X108433214Y-38873452D01*
X108433214Y-39016309D01*
X108480833Y-39206785D01*
X108528452Y-39302023D01*
X108623690Y-39397261D01*
X108766547Y-39444880D01*
X109004642Y-39444880D01*
X107480833Y-39444880D02*
X108052261Y-39444880D01*
X107766547Y-39444880D02*
X107766547Y-38444880D01*
X107861785Y-38587738D01*
X107957023Y-38682976D01*
X108052261Y-38730595D01*
X107099880Y-38540119D02*
X107052261Y-38492500D01*
X106957023Y-38444880D01*
X106718928Y-38444880D01*
X106623690Y-38492500D01*
X106576071Y-38540119D01*
X106528452Y-38635357D01*
X106528452Y-38730595D01*
X106576071Y-38873452D01*
X107147500Y-39444880D01*
X106528452Y-39444880D01*
X21672738Y-62889880D02*
X22148928Y-62889880D01*
X22148928Y-61889880D01*
X21339404Y-62366071D02*
X21006071Y-62366071D01*
X20863214Y-62889880D02*
X21339404Y-62889880D01*
X21339404Y-61889880D01*
X20863214Y-61889880D01*
X20434642Y-62889880D02*
X20434642Y-61889880D01*
X20196547Y-61889880D01*
X20053690Y-61937500D01*
X19958452Y-62032738D01*
X19910833Y-62127976D01*
X19863214Y-62318452D01*
X19863214Y-62461309D01*
X19910833Y-62651785D01*
X19958452Y-62747023D01*
X20053690Y-62842261D01*
X20196547Y-62889880D01*
X20434642Y-62889880D01*
X18910833Y-62889880D02*
X19482261Y-62889880D01*
X19196547Y-62889880D02*
X19196547Y-61889880D01*
X19291785Y-62032738D01*
X19387023Y-62127976D01*
X19482261Y-62175595D01*
X18577500Y-61889880D02*
X17958452Y-61889880D01*
X18291785Y-62270833D01*
X18148928Y-62270833D01*
X18053690Y-62318452D01*
X18006071Y-62366071D01*
X17958452Y-62461309D01*
X17958452Y-62699404D01*
X18006071Y-62794642D01*
X18053690Y-62842261D01*
X18148928Y-62889880D01*
X18434642Y-62889880D01*
X18529880Y-62842261D01*
X18577500Y-62794642D01*
X34242738Y-60819880D02*
X34718928Y-60819880D01*
X34718928Y-59819880D01*
X33909404Y-60296071D02*
X33576071Y-60296071D01*
X33433214Y-60819880D02*
X33909404Y-60819880D01*
X33909404Y-59819880D01*
X33433214Y-59819880D01*
X33004642Y-60819880D02*
X33004642Y-59819880D01*
X32766547Y-59819880D01*
X32623690Y-59867500D01*
X32528452Y-59962738D01*
X32480833Y-60057976D01*
X32433214Y-60248452D01*
X32433214Y-60391309D01*
X32480833Y-60581785D01*
X32528452Y-60677023D01*
X32623690Y-60772261D01*
X32766547Y-60819880D01*
X33004642Y-60819880D01*
X31480833Y-60819880D02*
X32052261Y-60819880D01*
X31766547Y-60819880D02*
X31766547Y-59819880D01*
X31861785Y-59962738D01*
X31957023Y-60057976D01*
X32052261Y-60105595D01*
X30623690Y-60153214D02*
X30623690Y-60819880D01*
X30861785Y-59772261D02*
X31099880Y-60486547D01*
X30480833Y-60486547D01*
X59672738Y-58139880D02*
X60148928Y-58139880D01*
X60148928Y-57139880D01*
X59339404Y-57616071D02*
X59006071Y-57616071D01*
X58863214Y-58139880D02*
X59339404Y-58139880D01*
X59339404Y-57139880D01*
X58863214Y-57139880D01*
X58434642Y-58139880D02*
X58434642Y-57139880D01*
X58196547Y-57139880D01*
X58053690Y-57187500D01*
X57958452Y-57282738D01*
X57910833Y-57377976D01*
X57863214Y-57568452D01*
X57863214Y-57711309D01*
X57910833Y-57901785D01*
X57958452Y-57997023D01*
X58053690Y-58092261D01*
X58196547Y-58139880D01*
X58434642Y-58139880D01*
X56910833Y-58139880D02*
X57482261Y-58139880D01*
X57196547Y-58139880D02*
X57196547Y-57139880D01*
X57291785Y-57282738D01*
X57387023Y-57377976D01*
X57482261Y-57425595D01*
X56006071Y-57139880D02*
X56482261Y-57139880D01*
X56529880Y-57616071D01*
X56482261Y-57568452D01*
X56387023Y-57520833D01*
X56148928Y-57520833D01*
X56053690Y-57568452D01*
X56006071Y-57616071D01*
X55958452Y-57711309D01*
X55958452Y-57949404D01*
X56006071Y-58044642D01*
X56053690Y-58092261D01*
X56148928Y-58139880D01*
X56387023Y-58139880D01*
X56482261Y-58092261D01*
X56529880Y-58044642D01*
X78672738Y-55764880D02*
X79148928Y-55764880D01*
X79148928Y-54764880D01*
X78339404Y-55241071D02*
X78006071Y-55241071D01*
X77863214Y-55764880D02*
X78339404Y-55764880D01*
X78339404Y-54764880D01*
X77863214Y-54764880D01*
X77434642Y-55764880D02*
X77434642Y-54764880D01*
X77196547Y-54764880D01*
X77053690Y-54812500D01*
X76958452Y-54907738D01*
X76910833Y-55002976D01*
X76863214Y-55193452D01*
X76863214Y-55336309D01*
X76910833Y-55526785D01*
X76958452Y-55622023D01*
X77053690Y-55717261D01*
X77196547Y-55764880D01*
X77434642Y-55764880D01*
X75910833Y-55764880D02*
X76482261Y-55764880D01*
X76196547Y-55764880D02*
X76196547Y-54764880D01*
X76291785Y-54907738D01*
X76387023Y-55002976D01*
X76482261Y-55050595D01*
X75053690Y-54764880D02*
X75244166Y-54764880D01*
X75339404Y-54812500D01*
X75387023Y-54860119D01*
X75482261Y-55002976D01*
X75529880Y-55193452D01*
X75529880Y-55574404D01*
X75482261Y-55669642D01*
X75434642Y-55717261D01*
X75339404Y-55764880D01*
X75148928Y-55764880D01*
X75053690Y-55717261D01*
X75006071Y-55669642D01*
X74958452Y-55574404D01*
X74958452Y-55336309D01*
X75006071Y-55241071D01*
X75053690Y-55193452D01*
X75148928Y-55145833D01*
X75339404Y-55145833D01*
X75434642Y-55193452D01*
X75482261Y-55241071D01*
X75529880Y-55336309D01*
X97672738Y-58139880D02*
X98148928Y-58139880D01*
X98148928Y-57139880D01*
X97339404Y-57616071D02*
X97006071Y-57616071D01*
X96863214Y-58139880D02*
X97339404Y-58139880D01*
X97339404Y-57139880D01*
X96863214Y-57139880D01*
X96434642Y-58139880D02*
X96434642Y-57139880D01*
X96196547Y-57139880D01*
X96053690Y-57187500D01*
X95958452Y-57282738D01*
X95910833Y-57377976D01*
X95863214Y-57568452D01*
X95863214Y-57711309D01*
X95910833Y-57901785D01*
X95958452Y-57997023D01*
X96053690Y-58092261D01*
X96196547Y-58139880D01*
X96434642Y-58139880D01*
X94910833Y-58139880D02*
X95482261Y-58139880D01*
X95196547Y-58139880D02*
X95196547Y-57139880D01*
X95291785Y-57282738D01*
X95387023Y-57377976D01*
X95482261Y-57425595D01*
X94577500Y-57139880D02*
X93910833Y-57139880D01*
X94339404Y-58139880D01*
X116672738Y-60514880D02*
X117148928Y-60514880D01*
X117148928Y-59514880D01*
X116339404Y-59991071D02*
X116006071Y-59991071D01*
X115863214Y-60514880D02*
X116339404Y-60514880D01*
X116339404Y-59514880D01*
X115863214Y-59514880D01*
X115434642Y-60514880D02*
X115434642Y-59514880D01*
X115196547Y-59514880D01*
X115053690Y-59562500D01*
X114958452Y-59657738D01*
X114910833Y-59752976D01*
X114863214Y-59943452D01*
X114863214Y-60086309D01*
X114910833Y-60276785D01*
X114958452Y-60372023D01*
X115053690Y-60467261D01*
X115196547Y-60514880D01*
X115434642Y-60514880D01*
X113910833Y-60514880D02*
X114482261Y-60514880D01*
X114196547Y-60514880D02*
X114196547Y-59514880D01*
X114291785Y-59657738D01*
X114387023Y-59752976D01*
X114482261Y-59800595D01*
X113339404Y-59943452D02*
X113434642Y-59895833D01*
X113482261Y-59848214D01*
X113529880Y-59752976D01*
X113529880Y-59705357D01*
X113482261Y-59610119D01*
X113434642Y-59562500D01*
X113339404Y-59514880D01*
X113148928Y-59514880D01*
X113053690Y-59562500D01*
X113006071Y-59610119D01*
X112958452Y-59705357D01*
X112958452Y-59752976D01*
X113006071Y-59848214D01*
X113053690Y-59895833D01*
X113148928Y-59943452D01*
X113339404Y-59943452D01*
X113434642Y-59991071D01*
X113482261Y-60038690D01*
X113529880Y-60133928D01*
X113529880Y-60324404D01*
X113482261Y-60419642D01*
X113434642Y-60467261D01*
X113339404Y-60514880D01*
X113148928Y-60514880D01*
X113053690Y-60467261D01*
X113006071Y-60419642D01*
X112958452Y-60324404D01*
X112958452Y-60133928D01*
X113006071Y-60038690D01*
X113053690Y-59991071D01*
X113148928Y-59943452D01*
X21672738Y-81889880D02*
X22148928Y-81889880D01*
X22148928Y-80889880D01*
X21339404Y-81366071D02*
X21006071Y-81366071D01*
X20863214Y-81889880D02*
X21339404Y-81889880D01*
X21339404Y-80889880D01*
X20863214Y-80889880D01*
X20434642Y-81889880D02*
X20434642Y-80889880D01*
X20196547Y-80889880D01*
X20053690Y-80937500D01*
X19958452Y-81032738D01*
X19910833Y-81127976D01*
X19863214Y-81318452D01*
X19863214Y-81461309D01*
X19910833Y-81651785D01*
X19958452Y-81747023D01*
X20053690Y-81842261D01*
X20196547Y-81889880D01*
X20434642Y-81889880D01*
X18910833Y-81889880D02*
X19482261Y-81889880D01*
X19196547Y-81889880D02*
X19196547Y-80889880D01*
X19291785Y-81032738D01*
X19387023Y-81127976D01*
X19482261Y-81175595D01*
X18434642Y-81889880D02*
X18244166Y-81889880D01*
X18148928Y-81842261D01*
X18101309Y-81794642D01*
X18006071Y-81651785D01*
X17958452Y-81461309D01*
X17958452Y-81080357D01*
X18006071Y-80985119D01*
X18053690Y-80937500D01*
X18148928Y-80889880D01*
X18339404Y-80889880D01*
X18434642Y-80937500D01*
X18482261Y-80985119D01*
X18529880Y-81080357D01*
X18529880Y-81318452D01*
X18482261Y-81413690D01*
X18434642Y-81461309D01*
X18339404Y-81508928D01*
X18148928Y-81508928D01*
X18053690Y-81461309D01*
X18006071Y-81413690D01*
X17958452Y-81318452D01*
X40672738Y-81889880D02*
X41148928Y-81889880D01*
X41148928Y-80889880D01*
X40339404Y-81366071D02*
X40006071Y-81366071D01*
X39863214Y-81889880D02*
X40339404Y-81889880D01*
X40339404Y-80889880D01*
X39863214Y-80889880D01*
X39434642Y-81889880D02*
X39434642Y-80889880D01*
X39196547Y-80889880D01*
X39053690Y-80937500D01*
X38958452Y-81032738D01*
X38910833Y-81127976D01*
X38863214Y-81318452D01*
X38863214Y-81461309D01*
X38910833Y-81651785D01*
X38958452Y-81747023D01*
X39053690Y-81842261D01*
X39196547Y-81889880D01*
X39434642Y-81889880D01*
X38482261Y-80985119D02*
X38434642Y-80937500D01*
X38339404Y-80889880D01*
X38101309Y-80889880D01*
X38006071Y-80937500D01*
X37958452Y-80985119D01*
X37910833Y-81080357D01*
X37910833Y-81175595D01*
X37958452Y-81318452D01*
X38529880Y-81889880D01*
X37910833Y-81889880D01*
X37291785Y-80889880D02*
X37196547Y-80889880D01*
X37101309Y-80937500D01*
X37053690Y-80985119D01*
X37006071Y-81080357D01*
X36958452Y-81270833D01*
X36958452Y-81508928D01*
X37006071Y-81699404D01*
X37053690Y-81794642D01*
X37101309Y-81842261D01*
X37196547Y-81889880D01*
X37291785Y-81889880D01*
X37387023Y-81842261D01*
X37434642Y-81794642D01*
X37482261Y-81699404D01*
X37529880Y-81508928D01*
X37529880Y-81270833D01*
X37482261Y-81080357D01*
X37434642Y-80985119D01*
X37387023Y-80937500D01*
X37291785Y-80889880D01*
X59672738Y-77139880D02*
X60148928Y-77139880D01*
X60148928Y-76139880D01*
X59339404Y-76616071D02*
X59006071Y-76616071D01*
X58863214Y-77139880D02*
X59339404Y-77139880D01*
X59339404Y-76139880D01*
X58863214Y-76139880D01*
X58434642Y-77139880D02*
X58434642Y-76139880D01*
X58196547Y-76139880D01*
X58053690Y-76187500D01*
X57958452Y-76282738D01*
X57910833Y-76377976D01*
X57863214Y-76568452D01*
X57863214Y-76711309D01*
X57910833Y-76901785D01*
X57958452Y-76997023D01*
X58053690Y-77092261D01*
X58196547Y-77139880D01*
X58434642Y-77139880D01*
X57482261Y-76235119D02*
X57434642Y-76187500D01*
X57339404Y-76139880D01*
X57101309Y-76139880D01*
X57006071Y-76187500D01*
X56958452Y-76235119D01*
X56910833Y-76330357D01*
X56910833Y-76425595D01*
X56958452Y-76568452D01*
X57529880Y-77139880D01*
X56910833Y-77139880D01*
X55958452Y-77139880D02*
X56529880Y-77139880D01*
X56244166Y-77139880D02*
X56244166Y-76139880D01*
X56339404Y-76282738D01*
X56434642Y-76377976D01*
X56529880Y-76425595D01*
X72242738Y-72694880D02*
X72718928Y-72694880D01*
X72718928Y-71694880D01*
X71909404Y-72171071D02*
X71576071Y-72171071D01*
X71433214Y-72694880D02*
X71909404Y-72694880D01*
X71909404Y-71694880D01*
X71433214Y-71694880D01*
X71004642Y-72694880D02*
X71004642Y-71694880D01*
X70766547Y-71694880D01*
X70623690Y-71742500D01*
X70528452Y-71837738D01*
X70480833Y-71932976D01*
X70433214Y-72123452D01*
X70433214Y-72266309D01*
X70480833Y-72456785D01*
X70528452Y-72552023D01*
X70623690Y-72647261D01*
X70766547Y-72694880D01*
X71004642Y-72694880D01*
X70052261Y-71790119D02*
X70004642Y-71742500D01*
X69909404Y-71694880D01*
X69671309Y-71694880D01*
X69576071Y-71742500D01*
X69528452Y-71790119D01*
X69480833Y-71885357D01*
X69480833Y-71980595D01*
X69528452Y-72123452D01*
X70099880Y-72694880D01*
X69480833Y-72694880D01*
X69099880Y-71790119D02*
X69052261Y-71742500D01*
X68957023Y-71694880D01*
X68718928Y-71694880D01*
X68623690Y-71742500D01*
X68576071Y-71790119D01*
X68528452Y-71885357D01*
X68528452Y-71980595D01*
X68576071Y-72123452D01*
X69147500Y-72694880D01*
X68528452Y-72694880D01*
X110242738Y-77444880D02*
X110718928Y-77444880D01*
X110718928Y-76444880D01*
X109909404Y-76921071D02*
X109576071Y-76921071D01*
X109433214Y-77444880D02*
X109909404Y-77444880D01*
X109909404Y-76444880D01*
X109433214Y-76444880D01*
X109004642Y-77444880D02*
X109004642Y-76444880D01*
X108766547Y-76444880D01*
X108623690Y-76492500D01*
X108528452Y-76587738D01*
X108480833Y-76682976D01*
X108433214Y-76873452D01*
X108433214Y-77016309D01*
X108480833Y-77206785D01*
X108528452Y-77302023D01*
X108623690Y-77397261D01*
X108766547Y-77444880D01*
X109004642Y-77444880D01*
X108052261Y-76540119D02*
X108004642Y-76492500D01*
X107909404Y-76444880D01*
X107671309Y-76444880D01*
X107576071Y-76492500D01*
X107528452Y-76540119D01*
X107480833Y-76635357D01*
X107480833Y-76730595D01*
X107528452Y-76873452D01*
X108099880Y-77444880D01*
X107480833Y-77444880D01*
X106623690Y-76778214D02*
X106623690Y-77444880D01*
X106861785Y-76397261D02*
X107099880Y-77111547D01*
X106480833Y-77111547D01*
X88172738Y-96764880D02*
X88648928Y-96764880D01*
X88648928Y-95764880D01*
X87839404Y-96241071D02*
X87506071Y-96241071D01*
X87363214Y-96764880D02*
X87839404Y-96764880D01*
X87839404Y-95764880D01*
X87363214Y-95764880D01*
X86934642Y-96764880D02*
X86934642Y-95764880D01*
X86696547Y-95764880D01*
X86553690Y-95812500D01*
X86458452Y-95907738D01*
X86410833Y-96002976D01*
X86363214Y-96193452D01*
X86363214Y-96336309D01*
X86410833Y-96526785D01*
X86458452Y-96622023D01*
X86553690Y-96717261D01*
X86696547Y-96764880D01*
X86934642Y-96764880D01*
X85982261Y-95860119D02*
X85934642Y-95812500D01*
X85839404Y-95764880D01*
X85601309Y-95764880D01*
X85506071Y-95812500D01*
X85458452Y-95860119D01*
X85410833Y-95955357D01*
X85410833Y-96050595D01*
X85458452Y-96193452D01*
X86029880Y-96764880D01*
X85410833Y-96764880D01*
X84506071Y-95764880D02*
X84982261Y-95764880D01*
X85029880Y-96241071D01*
X84982261Y-96193452D01*
X84887023Y-96145833D01*
X84648928Y-96145833D01*
X84553690Y-96193452D01*
X84506071Y-96241071D01*
X84458452Y-96336309D01*
X84458452Y-96574404D01*
X84506071Y-96669642D01*
X84553690Y-96717261D01*
X84648928Y-96764880D01*
X84887023Y-96764880D01*
X84982261Y-96717261D01*
X85029880Y-96669642D01*
X137671892Y-97562173D02*
X137909987Y-97149780D01*
X137043962Y-96649780D01*
X137051593Y-97588944D02*
X136884926Y-97877619D01*
X137267130Y-98263241D02*
X137505225Y-97850848D01*
X136639200Y-97350848D01*
X136401105Y-97763241D01*
X137052844Y-98634395D02*
X136186819Y-98134395D01*
X136067771Y-98340592D01*
X136037582Y-98488119D01*
X136072442Y-98618217D01*
X136131111Y-98707075D01*
X136272258Y-98843553D01*
X136395976Y-98914981D01*
X136584743Y-98968980D01*
X136691031Y-98975360D01*
X136821129Y-98940500D01*
X136933797Y-98840592D01*
X137052844Y-98634395D01*
X135793107Y-99006800D02*
X135728058Y-99024230D01*
X135639200Y-99082899D01*
X135520152Y-99289096D01*
X135513773Y-99395384D01*
X135531202Y-99460433D01*
X135589871Y-99549291D01*
X135672350Y-99596910D01*
X135819877Y-99627099D01*
X136600463Y-99417942D01*
X136290940Y-99954053D01*
X135258247Y-99742728D02*
X134924914Y-100320078D01*
X136005225Y-100448925D01*
X221082738Y-55844880D02*
X221558928Y-55844880D01*
X221558928Y-54844880D01*
X220749404Y-55321071D02*
X220416071Y-55321071D01*
X220273214Y-55844880D02*
X220749404Y-55844880D01*
X220749404Y-54844880D01*
X220273214Y-54844880D01*
X219844642Y-55844880D02*
X219844642Y-54844880D01*
X219606547Y-54844880D01*
X219463690Y-54892500D01*
X219368452Y-54987738D01*
X219320833Y-55082976D01*
X219273214Y-55273452D01*
X219273214Y-55416309D01*
X219320833Y-55606785D01*
X219368452Y-55702023D01*
X219463690Y-55797261D01*
X219606547Y-55844880D01*
X219844642Y-55844880D01*
X218416071Y-55178214D02*
X218416071Y-55844880D01*
X218654166Y-54797261D02*
X218892261Y-55511547D01*
X218273214Y-55511547D01*
X217987500Y-54844880D02*
X217368452Y-54844880D01*
X217701785Y-55225833D01*
X217558928Y-55225833D01*
X217463690Y-55273452D01*
X217416071Y-55321071D01*
X217368452Y-55416309D01*
X217368452Y-55654404D01*
X217416071Y-55749642D01*
X217463690Y-55797261D01*
X217558928Y-55844880D01*
X217844642Y-55844880D01*
X217939880Y-55797261D01*
X217987500Y-55749642D01*
X202082738Y-58219880D02*
X202558928Y-58219880D01*
X202558928Y-57219880D01*
X201749404Y-57696071D02*
X201416071Y-57696071D01*
X201273214Y-58219880D02*
X201749404Y-58219880D01*
X201749404Y-57219880D01*
X201273214Y-57219880D01*
X200844642Y-58219880D02*
X200844642Y-57219880D01*
X200606547Y-57219880D01*
X200463690Y-57267500D01*
X200368452Y-57362738D01*
X200320833Y-57457976D01*
X200273214Y-57648452D01*
X200273214Y-57791309D01*
X200320833Y-57981785D01*
X200368452Y-58077023D01*
X200463690Y-58172261D01*
X200606547Y-58219880D01*
X200844642Y-58219880D01*
X199416071Y-57553214D02*
X199416071Y-58219880D01*
X199654166Y-57172261D02*
X199892261Y-57886547D01*
X199273214Y-57886547D01*
X198463690Y-57553214D02*
X198463690Y-58219880D01*
X198701785Y-57172261D02*
X198939880Y-57886547D01*
X198320833Y-57886547D01*
X183082738Y-60594880D02*
X183558928Y-60594880D01*
X183558928Y-59594880D01*
X182749404Y-60071071D02*
X182416071Y-60071071D01*
X182273214Y-60594880D02*
X182749404Y-60594880D01*
X182749404Y-59594880D01*
X182273214Y-59594880D01*
X181844642Y-60594880D02*
X181844642Y-59594880D01*
X181606547Y-59594880D01*
X181463690Y-59642500D01*
X181368452Y-59737738D01*
X181320833Y-59832976D01*
X181273214Y-60023452D01*
X181273214Y-60166309D01*
X181320833Y-60356785D01*
X181368452Y-60452023D01*
X181463690Y-60547261D01*
X181606547Y-60594880D01*
X181844642Y-60594880D01*
X180416071Y-59928214D02*
X180416071Y-60594880D01*
X180654166Y-59547261D02*
X180892261Y-60261547D01*
X180273214Y-60261547D01*
X179416071Y-59594880D02*
X179892261Y-59594880D01*
X179939880Y-60071071D01*
X179892261Y-60023452D01*
X179797023Y-59975833D01*
X179558928Y-59975833D01*
X179463690Y-60023452D01*
X179416071Y-60071071D01*
X179368452Y-60166309D01*
X179368452Y-60404404D01*
X179416071Y-60499642D01*
X179463690Y-60547261D01*
X179558928Y-60594880D01*
X179797023Y-60594880D01*
X179892261Y-60547261D01*
X179939880Y-60499642D01*
X278082738Y-81969880D02*
X278558928Y-81969880D01*
X278558928Y-80969880D01*
X277749404Y-81446071D02*
X277416071Y-81446071D01*
X277273214Y-81969880D02*
X277749404Y-81969880D01*
X277749404Y-80969880D01*
X277273214Y-80969880D01*
X276844642Y-81969880D02*
X276844642Y-80969880D01*
X276606547Y-80969880D01*
X276463690Y-81017500D01*
X276368452Y-81112738D01*
X276320833Y-81207976D01*
X276273214Y-81398452D01*
X276273214Y-81541309D01*
X276320833Y-81731785D01*
X276368452Y-81827023D01*
X276463690Y-81922261D01*
X276606547Y-81969880D01*
X276844642Y-81969880D01*
X275416071Y-81303214D02*
X275416071Y-81969880D01*
X275654166Y-80922261D02*
X275892261Y-81636547D01*
X275273214Y-81636547D01*
X274463690Y-80969880D02*
X274654166Y-80969880D01*
X274749404Y-81017500D01*
X274797023Y-81065119D01*
X274892261Y-81207976D01*
X274939880Y-81398452D01*
X274939880Y-81779404D01*
X274892261Y-81874642D01*
X274844642Y-81922261D01*
X274749404Y-81969880D01*
X274558928Y-81969880D01*
X274463690Y-81922261D01*
X274416071Y-81874642D01*
X274368452Y-81779404D01*
X274368452Y-81541309D01*
X274416071Y-81446071D01*
X274463690Y-81398452D01*
X274558928Y-81350833D01*
X274749404Y-81350833D01*
X274844642Y-81398452D01*
X274892261Y-81446071D01*
X274939880Y-81541309D01*
X259082738Y-81969880D02*
X259558928Y-81969880D01*
X259558928Y-80969880D01*
X258749404Y-81446071D02*
X258416071Y-81446071D01*
X258273214Y-81969880D02*
X258749404Y-81969880D01*
X258749404Y-80969880D01*
X258273214Y-80969880D01*
X257844642Y-81969880D02*
X257844642Y-80969880D01*
X257606547Y-80969880D01*
X257463690Y-81017500D01*
X257368452Y-81112738D01*
X257320833Y-81207976D01*
X257273214Y-81398452D01*
X257273214Y-81541309D01*
X257320833Y-81731785D01*
X257368452Y-81827023D01*
X257463690Y-81922261D01*
X257606547Y-81969880D01*
X257844642Y-81969880D01*
X256416071Y-81303214D02*
X256416071Y-81969880D01*
X256654166Y-80922261D02*
X256892261Y-81636547D01*
X256273214Y-81636547D01*
X255987500Y-80969880D02*
X255320833Y-80969880D01*
X255749404Y-81969880D01*
X240082738Y-77219880D02*
X240558928Y-77219880D01*
X240558928Y-76219880D01*
X239749404Y-76696071D02*
X239416071Y-76696071D01*
X239273214Y-77219880D02*
X239749404Y-77219880D01*
X239749404Y-76219880D01*
X239273214Y-76219880D01*
X238844642Y-77219880D02*
X238844642Y-76219880D01*
X238606547Y-76219880D01*
X238463690Y-76267500D01*
X238368452Y-76362738D01*
X238320833Y-76457976D01*
X238273214Y-76648452D01*
X238273214Y-76791309D01*
X238320833Y-76981785D01*
X238368452Y-77077023D01*
X238463690Y-77172261D01*
X238606547Y-77219880D01*
X238844642Y-77219880D01*
X237416071Y-76553214D02*
X237416071Y-77219880D01*
X237654166Y-76172261D02*
X237892261Y-76886547D01*
X237273214Y-76886547D01*
X236749404Y-76648452D02*
X236844642Y-76600833D01*
X236892261Y-76553214D01*
X236939880Y-76457976D01*
X236939880Y-76410357D01*
X236892261Y-76315119D01*
X236844642Y-76267500D01*
X236749404Y-76219880D01*
X236558928Y-76219880D01*
X236463690Y-76267500D01*
X236416071Y-76315119D01*
X236368452Y-76410357D01*
X236368452Y-76457976D01*
X236416071Y-76553214D01*
X236463690Y-76600833D01*
X236558928Y-76648452D01*
X236749404Y-76648452D01*
X236844642Y-76696071D01*
X236892261Y-76743690D01*
X236939880Y-76838928D01*
X236939880Y-77029404D01*
X236892261Y-77124642D01*
X236844642Y-77172261D01*
X236749404Y-77219880D01*
X236558928Y-77219880D01*
X236463690Y-77172261D01*
X236416071Y-77124642D01*
X236368452Y-77029404D01*
X236368452Y-76838928D01*
X236416071Y-76743690D01*
X236463690Y-76696071D01*
X236558928Y-76648452D01*
X214652738Y-72774880D02*
X215128928Y-72774880D01*
X215128928Y-71774880D01*
X214319404Y-72251071D02*
X213986071Y-72251071D01*
X213843214Y-72774880D02*
X214319404Y-72774880D01*
X214319404Y-71774880D01*
X213843214Y-71774880D01*
X213414642Y-72774880D02*
X213414642Y-71774880D01*
X213176547Y-71774880D01*
X213033690Y-71822500D01*
X212938452Y-71917738D01*
X212890833Y-72012976D01*
X212843214Y-72203452D01*
X212843214Y-72346309D01*
X212890833Y-72536785D01*
X212938452Y-72632023D01*
X213033690Y-72727261D01*
X213176547Y-72774880D01*
X213414642Y-72774880D01*
X211986071Y-72108214D02*
X211986071Y-72774880D01*
X212224166Y-71727261D02*
X212462261Y-72441547D01*
X211843214Y-72441547D01*
X211414642Y-72774880D02*
X211224166Y-72774880D01*
X211128928Y-72727261D01*
X211081309Y-72679642D01*
X210986071Y-72536785D01*
X210938452Y-72346309D01*
X210938452Y-71965357D01*
X210986071Y-71870119D01*
X211033690Y-71822500D01*
X211128928Y-71774880D01*
X211319404Y-71774880D01*
X211414642Y-71822500D01*
X211462261Y-71870119D01*
X211509880Y-71965357D01*
X211509880Y-72203452D01*
X211462261Y-72298690D01*
X211414642Y-72346309D01*
X211319404Y-72393928D01*
X211128928Y-72393928D01*
X211033690Y-72346309D01*
X210986071Y-72298690D01*
X210938452Y-72203452D01*
X202358128Y-76712380D02*
X202834318Y-76712380D01*
X202834318Y-75712380D01*
X202024794Y-76188571D02*
X201691461Y-76188571D01*
X201548604Y-76712380D02*
X202024794Y-76712380D01*
X202024794Y-75712380D01*
X201548604Y-75712380D01*
X201120032Y-76712380D02*
X201120032Y-75712380D01*
X200881937Y-75712380D01*
X200739080Y-75760000D01*
X200643842Y-75855238D01*
X200596223Y-75950476D01*
X200548604Y-76140952D01*
X200548604Y-76283809D01*
X200596223Y-76474285D01*
X200643842Y-76569523D01*
X200739080Y-76664761D01*
X200881937Y-76712380D01*
X201120032Y-76712380D01*
X199643842Y-75712380D02*
X200120032Y-75712380D01*
X200167651Y-76188571D01*
X200120032Y-76140952D01*
X200024794Y-76093333D01*
X199786699Y-76093333D01*
X199691461Y-76140952D01*
X199643842Y-76188571D01*
X199596223Y-76283809D01*
X199596223Y-76521904D01*
X199643842Y-76617142D01*
X199691461Y-76664761D01*
X199786699Y-76712380D01*
X200024794Y-76712380D01*
X200120032Y-76664761D01*
X200167651Y-76617142D01*
X198977175Y-75712380D02*
X198881937Y-75712380D01*
X198786699Y-75760000D01*
X198739080Y-75807619D01*
X198691461Y-75902857D01*
X198643842Y-76093333D01*
X198643842Y-76331428D01*
X198691461Y-76521904D01*
X198739080Y-76617142D01*
X198786699Y-76664761D01*
X198881937Y-76712380D01*
X198977175Y-76712380D01*
X199072413Y-76664761D01*
X199120032Y-76617142D01*
X199167651Y-76521904D01*
X199215270Y-76331428D01*
X199215270Y-76093333D01*
X199167651Y-75902857D01*
X199120032Y-75807619D01*
X199072413Y-75760000D01*
X198977175Y-75712380D01*
X176652738Y-77524880D02*
X177128928Y-77524880D01*
X177128928Y-76524880D01*
X176319404Y-77001071D02*
X175986071Y-77001071D01*
X175843214Y-77524880D02*
X176319404Y-77524880D01*
X176319404Y-76524880D01*
X175843214Y-76524880D01*
X175414642Y-77524880D02*
X175414642Y-76524880D01*
X175176547Y-76524880D01*
X175033690Y-76572500D01*
X174938452Y-76667738D01*
X174890833Y-76762976D01*
X174843214Y-76953452D01*
X174843214Y-77096309D01*
X174890833Y-77286785D01*
X174938452Y-77382023D01*
X175033690Y-77477261D01*
X175176547Y-77524880D01*
X175414642Y-77524880D01*
X173938452Y-76524880D02*
X174414642Y-76524880D01*
X174462261Y-77001071D01*
X174414642Y-76953452D01*
X174319404Y-76905833D01*
X174081309Y-76905833D01*
X173986071Y-76953452D01*
X173938452Y-77001071D01*
X173890833Y-77096309D01*
X173890833Y-77334404D01*
X173938452Y-77429642D01*
X173986071Y-77477261D01*
X174081309Y-77524880D01*
X174319404Y-77524880D01*
X174414642Y-77477261D01*
X174462261Y-77429642D01*
X172938452Y-77524880D02*
X173509880Y-77524880D01*
X173224166Y-77524880D02*
X173224166Y-76524880D01*
X173319404Y-76667738D01*
X173414642Y-76762976D01*
X173509880Y-76810595D01*
X211476284Y-96634610D02*
X211952474Y-96634610D01*
X211952474Y-95634610D01*
X211142950Y-96110801D02*
X210809617Y-96110801D01*
X210666760Y-96634610D02*
X211142950Y-96634610D01*
X211142950Y-95634610D01*
X210666760Y-95634610D01*
X210238188Y-96634610D02*
X210238188Y-95634610D01*
X210000093Y-95634610D01*
X209857236Y-95682230D01*
X209761998Y-95777468D01*
X209714379Y-95872706D01*
X209666760Y-96063182D01*
X209666760Y-96206039D01*
X209714379Y-96396515D01*
X209761998Y-96491753D01*
X209857236Y-96586991D01*
X210000093Y-96634610D01*
X210238188Y-96634610D01*
X208761998Y-95634610D02*
X209238188Y-95634610D01*
X209285807Y-96110801D01*
X209238188Y-96063182D01*
X209142950Y-96015563D01*
X208904855Y-96015563D01*
X208809617Y-96063182D01*
X208761998Y-96110801D01*
X208714379Y-96206039D01*
X208714379Y-96444134D01*
X208761998Y-96539372D01*
X208809617Y-96586991D01*
X208904855Y-96634610D01*
X209142950Y-96634610D01*
X209238188Y-96586991D01*
X209285807Y-96539372D01*
X208333426Y-95729849D02*
X208285807Y-95682230D01*
X208190569Y-95634610D01*
X207952474Y-95634610D01*
X207857236Y-95682230D01*
X207809617Y-95729849D01*
X207761998Y-95825087D01*
X207761998Y-95920325D01*
X207809617Y-96063182D01*
X208381046Y-96634610D01*
X207761998Y-96634610D01*
X192765466Y-98741588D02*
X193225431Y-98618341D01*
X192966612Y-97652415D01*
X192307919Y-98321900D02*
X191985944Y-98408173D01*
X191983526Y-98951108D02*
X192443491Y-98827861D01*
X192184672Y-97861935D01*
X191724707Y-97985182D01*
X191569558Y-99062031D02*
X191310739Y-98096105D01*
X191080756Y-98157728D01*
X190955092Y-98240699D01*
X190887748Y-98357341D01*
X190866401Y-98461659D01*
X190869704Y-98657970D01*
X190906678Y-98795959D01*
X191001973Y-98967620D01*
X191072619Y-99047288D01*
X191189261Y-99114632D01*
X191339575Y-99123654D01*
X191569558Y-99062031D01*
X189884848Y-98478171D02*
X190344813Y-98354924D01*
X190514057Y-98802564D01*
X190455735Y-98768892D01*
X190351418Y-98747545D01*
X190121435Y-98809169D01*
X190041767Y-98879814D01*
X190008095Y-98938136D01*
X189986748Y-99042453D01*
X190048372Y-99272436D01*
X190119018Y-99352104D01*
X190177339Y-99385776D01*
X190281657Y-99407123D01*
X190511639Y-99345499D01*
X190591307Y-99274853D01*
X190624979Y-99216532D01*
X189516877Y-98576769D02*
X188918922Y-98736990D01*
X189339495Y-99018689D01*
X189201506Y-99055663D01*
X189121838Y-99126309D01*
X189088166Y-99184630D01*
X189066819Y-99288948D01*
X189128443Y-99518930D01*
X189199089Y-99598598D01*
X189257410Y-99632270D01*
X189361727Y-99653617D01*
X189637706Y-99579669D01*
X189717374Y-99509023D01*
X189751046Y-99450702D01*
X159697782Y-97307119D02*
X159459687Y-96894726D01*
X158593661Y-97394726D01*
X159410816Y-97857699D02*
X159577483Y-98146374D01*
X160102544Y-98008187D02*
X159864449Y-97595794D01*
X158998423Y-98095794D01*
X159236518Y-98508187D01*
X160316829Y-98379341D02*
X159450804Y-98879341D01*
X159569852Y-99085538D01*
X159682520Y-99185446D01*
X159812617Y-99220306D01*
X159918905Y-99213926D01*
X160107672Y-99159927D01*
X160231390Y-99088499D01*
X160372538Y-98952021D01*
X160431207Y-98863163D01*
X160466066Y-98733065D01*
X160435877Y-98585538D01*
X160316829Y-98379341D01*
X160188899Y-100157760D02*
X159950804Y-99745367D01*
X160339388Y-99466032D01*
X160321958Y-99531081D01*
X160328338Y-99637369D01*
X160447385Y-99843566D01*
X160536244Y-99902235D01*
X160601292Y-99919664D01*
X160707580Y-99913285D01*
X160913777Y-99794237D01*
X160972446Y-99705379D01*
X160989876Y-99640330D01*
X160983496Y-99534042D01*
X160864449Y-99327845D01*
X160775590Y-99269176D01*
X160710541Y-99251746D01*
X160929955Y-100774640D02*
X161507306Y-100441306D01*
X160480993Y-100758919D02*
X160980535Y-100195580D01*
X161290059Y-100731691D01*
X97672738Y-77139880D02*
X98148928Y-77139880D01*
X98148928Y-76139880D01*
X97339404Y-76616071D02*
X97006071Y-76616071D01*
X96863214Y-77139880D02*
X97339404Y-77139880D01*
X97339404Y-76139880D01*
X96863214Y-76139880D01*
X96434642Y-77139880D02*
X96434642Y-76139880D01*
X96196547Y-76139880D01*
X96053690Y-76187500D01*
X95958452Y-76282738D01*
X95910833Y-76377976D01*
X95863214Y-76568452D01*
X95863214Y-76711309D01*
X95910833Y-76901785D01*
X95958452Y-76997023D01*
X96053690Y-77092261D01*
X96196547Y-77139880D01*
X96434642Y-77139880D01*
X95482261Y-76235119D02*
X95434642Y-76187500D01*
X95339404Y-76139880D01*
X95101309Y-76139880D01*
X95006071Y-76187500D01*
X94958452Y-76235119D01*
X94910833Y-76330357D01*
X94910833Y-76425595D01*
X94958452Y-76568452D01*
X95529880Y-77139880D01*
X94910833Y-77139880D01*
X94577500Y-76139880D02*
X93958452Y-76139880D01*
X94291785Y-76520833D01*
X94148928Y-76520833D01*
X94053690Y-76568452D01*
X94006071Y-76616071D01*
X93958452Y-76711309D01*
X93958452Y-76949404D01*
X94006071Y-77044642D01*
X94053690Y-77092261D01*
X94148928Y-77139880D01*
X94434642Y-77139880D01*
X94529880Y-77092261D01*
X94577500Y-77044642D01*
X278082738Y-43969880D02*
X278558928Y-43969880D01*
X278558928Y-42969880D01*
X277749404Y-43446071D02*
X277416071Y-43446071D01*
X277273214Y-43969880D02*
X277749404Y-43969880D01*
X277749404Y-42969880D01*
X277273214Y-42969880D01*
X276844642Y-43969880D02*
X276844642Y-42969880D01*
X276606547Y-42969880D01*
X276463690Y-43017500D01*
X276368452Y-43112738D01*
X276320833Y-43207976D01*
X276273214Y-43398452D01*
X276273214Y-43541309D01*
X276320833Y-43731785D01*
X276368452Y-43827023D01*
X276463690Y-43922261D01*
X276606547Y-43969880D01*
X276844642Y-43969880D01*
X275939880Y-42969880D02*
X275320833Y-42969880D01*
X275654166Y-43350833D01*
X275511309Y-43350833D01*
X275416071Y-43398452D01*
X275368452Y-43446071D01*
X275320833Y-43541309D01*
X275320833Y-43779404D01*
X275368452Y-43874642D01*
X275416071Y-43922261D01*
X275511309Y-43969880D01*
X275797023Y-43969880D01*
X275892261Y-43922261D01*
X275939880Y-43874642D01*
X274463690Y-43303214D02*
X274463690Y-43969880D01*
X274701785Y-42922261D02*
X274939880Y-43636547D01*
X274320833Y-43636547D01*
X252652738Y-41899880D02*
X253128928Y-41899880D01*
X253128928Y-40899880D01*
X252319404Y-41376071D02*
X251986071Y-41376071D01*
X251843214Y-41899880D02*
X252319404Y-41899880D01*
X252319404Y-40899880D01*
X251843214Y-40899880D01*
X251414642Y-41899880D02*
X251414642Y-40899880D01*
X251176547Y-40899880D01*
X251033690Y-40947500D01*
X250938452Y-41042738D01*
X250890833Y-41137976D01*
X250843214Y-41328452D01*
X250843214Y-41471309D01*
X250890833Y-41661785D01*
X250938452Y-41757023D01*
X251033690Y-41852261D01*
X251176547Y-41899880D01*
X251414642Y-41899880D01*
X250509880Y-40899880D02*
X249890833Y-40899880D01*
X250224166Y-41280833D01*
X250081309Y-41280833D01*
X249986071Y-41328452D01*
X249938452Y-41376071D01*
X249890833Y-41471309D01*
X249890833Y-41709404D01*
X249938452Y-41804642D01*
X249986071Y-41852261D01*
X250081309Y-41899880D01*
X250367023Y-41899880D01*
X250462261Y-41852261D01*
X250509880Y-41804642D01*
X248986071Y-40899880D02*
X249462261Y-40899880D01*
X249509880Y-41376071D01*
X249462261Y-41328452D01*
X249367023Y-41280833D01*
X249128928Y-41280833D01*
X249033690Y-41328452D01*
X248986071Y-41376071D01*
X248938452Y-41471309D01*
X248938452Y-41709404D01*
X248986071Y-41804642D01*
X249033690Y-41852261D01*
X249128928Y-41899880D01*
X249367023Y-41899880D01*
X249462261Y-41852261D01*
X249509880Y-41804642D01*
X240082738Y-39219880D02*
X240558928Y-39219880D01*
X240558928Y-38219880D01*
X239749404Y-38696071D02*
X239416071Y-38696071D01*
X239273214Y-39219880D02*
X239749404Y-39219880D01*
X239749404Y-38219880D01*
X239273214Y-38219880D01*
X238844642Y-39219880D02*
X238844642Y-38219880D01*
X238606547Y-38219880D01*
X238463690Y-38267500D01*
X238368452Y-38362738D01*
X238320833Y-38457976D01*
X238273214Y-38648452D01*
X238273214Y-38791309D01*
X238320833Y-38981785D01*
X238368452Y-39077023D01*
X238463690Y-39172261D01*
X238606547Y-39219880D01*
X238844642Y-39219880D01*
X237939880Y-38219880D02*
X237320833Y-38219880D01*
X237654166Y-38600833D01*
X237511309Y-38600833D01*
X237416071Y-38648452D01*
X237368452Y-38696071D01*
X237320833Y-38791309D01*
X237320833Y-39029404D01*
X237368452Y-39124642D01*
X237416071Y-39172261D01*
X237511309Y-39219880D01*
X237797023Y-39219880D01*
X237892261Y-39172261D01*
X237939880Y-39124642D01*
X236463690Y-38219880D02*
X236654166Y-38219880D01*
X236749404Y-38267500D01*
X236797023Y-38315119D01*
X236892261Y-38457976D01*
X236939880Y-38648452D01*
X236939880Y-39029404D01*
X236892261Y-39124642D01*
X236844642Y-39172261D01*
X236749404Y-39219880D01*
X236558928Y-39219880D01*
X236463690Y-39172261D01*
X236416071Y-39124642D01*
X236368452Y-39029404D01*
X236368452Y-38791309D01*
X236416071Y-38696071D01*
X236463690Y-38648452D01*
X236558928Y-38600833D01*
X236749404Y-38600833D01*
X236844642Y-38648452D01*
X236892261Y-38696071D01*
X236939880Y-38791309D01*
X214652738Y-34774880D02*
X215128928Y-34774880D01*
X215128928Y-33774880D01*
X214319404Y-34251071D02*
X213986071Y-34251071D01*
X213843214Y-34774880D02*
X214319404Y-34774880D01*
X214319404Y-33774880D01*
X213843214Y-33774880D01*
X213414642Y-34774880D02*
X213414642Y-33774880D01*
X213176547Y-33774880D01*
X213033690Y-33822500D01*
X212938452Y-33917738D01*
X212890833Y-34012976D01*
X212843214Y-34203452D01*
X212843214Y-34346309D01*
X212890833Y-34536785D01*
X212938452Y-34632023D01*
X213033690Y-34727261D01*
X213176547Y-34774880D01*
X213414642Y-34774880D01*
X212509880Y-33774880D02*
X211890833Y-33774880D01*
X212224166Y-34155833D01*
X212081309Y-34155833D01*
X211986071Y-34203452D01*
X211938452Y-34251071D01*
X211890833Y-34346309D01*
X211890833Y-34584404D01*
X211938452Y-34679642D01*
X211986071Y-34727261D01*
X212081309Y-34774880D01*
X212367023Y-34774880D01*
X212462261Y-34727261D01*
X212509880Y-34679642D01*
X211557500Y-33774880D02*
X210890833Y-33774880D01*
X211319404Y-34774880D01*
X202082738Y-39219880D02*
X202558928Y-39219880D01*
X202558928Y-38219880D01*
X201749404Y-38696071D02*
X201416071Y-38696071D01*
X201273214Y-39219880D02*
X201749404Y-39219880D01*
X201749404Y-38219880D01*
X201273214Y-38219880D01*
X200844642Y-39219880D02*
X200844642Y-38219880D01*
X200606547Y-38219880D01*
X200463690Y-38267500D01*
X200368452Y-38362738D01*
X200320833Y-38457976D01*
X200273214Y-38648452D01*
X200273214Y-38791309D01*
X200320833Y-38981785D01*
X200368452Y-39077023D01*
X200463690Y-39172261D01*
X200606547Y-39219880D01*
X200844642Y-39219880D01*
X199939880Y-38219880D02*
X199320833Y-38219880D01*
X199654166Y-38600833D01*
X199511309Y-38600833D01*
X199416071Y-38648452D01*
X199368452Y-38696071D01*
X199320833Y-38791309D01*
X199320833Y-39029404D01*
X199368452Y-39124642D01*
X199416071Y-39172261D01*
X199511309Y-39219880D01*
X199797023Y-39219880D01*
X199892261Y-39172261D01*
X199939880Y-39124642D01*
X198749404Y-38648452D02*
X198844642Y-38600833D01*
X198892261Y-38553214D01*
X198939880Y-38457976D01*
X198939880Y-38410357D01*
X198892261Y-38315119D01*
X198844642Y-38267500D01*
X198749404Y-38219880D01*
X198558928Y-38219880D01*
X198463690Y-38267500D01*
X198416071Y-38315119D01*
X198368452Y-38410357D01*
X198368452Y-38457976D01*
X198416071Y-38553214D01*
X198463690Y-38600833D01*
X198558928Y-38648452D01*
X198749404Y-38648452D01*
X198844642Y-38696071D01*
X198892261Y-38743690D01*
X198939880Y-38838928D01*
X198939880Y-39029404D01*
X198892261Y-39124642D01*
X198844642Y-39172261D01*
X198749404Y-39219880D01*
X198558928Y-39219880D01*
X198463690Y-39172261D01*
X198416071Y-39124642D01*
X198368452Y-39029404D01*
X198368452Y-38838928D01*
X198416071Y-38743690D01*
X198463690Y-38696071D01*
X198558928Y-38648452D01*
X176652738Y-39524880D02*
X177128928Y-39524880D01*
X177128928Y-38524880D01*
X176319404Y-39001071D02*
X175986071Y-39001071D01*
X175843214Y-39524880D02*
X176319404Y-39524880D01*
X176319404Y-38524880D01*
X175843214Y-38524880D01*
X175414642Y-39524880D02*
X175414642Y-38524880D01*
X175176547Y-38524880D01*
X175033690Y-38572500D01*
X174938452Y-38667738D01*
X174890833Y-38762976D01*
X174843214Y-38953452D01*
X174843214Y-39096309D01*
X174890833Y-39286785D01*
X174938452Y-39382023D01*
X175033690Y-39477261D01*
X175176547Y-39524880D01*
X175414642Y-39524880D01*
X174509880Y-38524880D02*
X173890833Y-38524880D01*
X174224166Y-38905833D01*
X174081309Y-38905833D01*
X173986071Y-38953452D01*
X173938452Y-39001071D01*
X173890833Y-39096309D01*
X173890833Y-39334404D01*
X173938452Y-39429642D01*
X173986071Y-39477261D01*
X174081309Y-39524880D01*
X174367023Y-39524880D01*
X174462261Y-39477261D01*
X174509880Y-39429642D01*
X173414642Y-39524880D02*
X173224166Y-39524880D01*
X173128928Y-39477261D01*
X173081309Y-39429642D01*
X172986071Y-39286785D01*
X172938452Y-39096309D01*
X172938452Y-38715357D01*
X172986071Y-38620119D01*
X173033690Y-38572500D01*
X173128928Y-38524880D01*
X173319404Y-38524880D01*
X173414642Y-38572500D01*
X173462261Y-38620119D01*
X173509880Y-38715357D01*
X173509880Y-38953452D01*
X173462261Y-39048690D01*
X173414642Y-39096309D01*
X173319404Y-39143928D01*
X173128928Y-39143928D01*
X173033690Y-39096309D01*
X172986071Y-39048690D01*
X172938452Y-38953452D01*
X278082738Y-62969880D02*
X278558928Y-62969880D01*
X278558928Y-61969880D01*
X277749404Y-62446071D02*
X277416071Y-62446071D01*
X277273214Y-62969880D02*
X277749404Y-62969880D01*
X277749404Y-61969880D01*
X277273214Y-61969880D01*
X276844642Y-62969880D02*
X276844642Y-61969880D01*
X276606547Y-61969880D01*
X276463690Y-62017500D01*
X276368452Y-62112738D01*
X276320833Y-62207976D01*
X276273214Y-62398452D01*
X276273214Y-62541309D01*
X276320833Y-62731785D01*
X276368452Y-62827023D01*
X276463690Y-62922261D01*
X276606547Y-62969880D01*
X276844642Y-62969880D01*
X275416071Y-62303214D02*
X275416071Y-62969880D01*
X275654166Y-61922261D02*
X275892261Y-62636547D01*
X275273214Y-62636547D01*
X274701785Y-61969880D02*
X274606547Y-61969880D01*
X274511309Y-62017500D01*
X274463690Y-62065119D01*
X274416071Y-62160357D01*
X274368452Y-62350833D01*
X274368452Y-62588928D01*
X274416071Y-62779404D01*
X274463690Y-62874642D01*
X274511309Y-62922261D01*
X274606547Y-62969880D01*
X274701785Y-62969880D01*
X274797023Y-62922261D01*
X274844642Y-62874642D01*
X274892261Y-62779404D01*
X274939880Y-62588928D01*
X274939880Y-62350833D01*
X274892261Y-62160357D01*
X274844642Y-62065119D01*
X274797023Y-62017500D01*
X274701785Y-61969880D01*
X252652738Y-60899880D02*
X253128928Y-60899880D01*
X253128928Y-59899880D01*
X252319404Y-60376071D02*
X251986071Y-60376071D01*
X251843214Y-60899880D02*
X252319404Y-60899880D01*
X252319404Y-59899880D01*
X251843214Y-59899880D01*
X251414642Y-60899880D02*
X251414642Y-59899880D01*
X251176547Y-59899880D01*
X251033690Y-59947500D01*
X250938452Y-60042738D01*
X250890833Y-60137976D01*
X250843214Y-60328452D01*
X250843214Y-60471309D01*
X250890833Y-60661785D01*
X250938452Y-60757023D01*
X251033690Y-60852261D01*
X251176547Y-60899880D01*
X251414642Y-60899880D01*
X249986071Y-60233214D02*
X249986071Y-60899880D01*
X250224166Y-59852261D02*
X250462261Y-60566547D01*
X249843214Y-60566547D01*
X248938452Y-60899880D02*
X249509880Y-60899880D01*
X249224166Y-60899880D02*
X249224166Y-59899880D01*
X249319404Y-60042738D01*
X249414642Y-60137976D01*
X249509880Y-60185595D01*
X240082738Y-58219880D02*
X240558928Y-58219880D01*
X240558928Y-57219880D01*
X239749404Y-57696071D02*
X239416071Y-57696071D01*
X239273214Y-58219880D02*
X239749404Y-58219880D01*
X239749404Y-57219880D01*
X239273214Y-57219880D01*
X238844642Y-58219880D02*
X238844642Y-57219880D01*
X238606547Y-57219880D01*
X238463690Y-57267500D01*
X238368452Y-57362738D01*
X238320833Y-57457976D01*
X238273214Y-57648452D01*
X238273214Y-57791309D01*
X238320833Y-57981785D01*
X238368452Y-58077023D01*
X238463690Y-58172261D01*
X238606547Y-58219880D01*
X238844642Y-58219880D01*
X237416071Y-57553214D02*
X237416071Y-58219880D01*
X237654166Y-57172261D02*
X237892261Y-57886547D01*
X237273214Y-57886547D01*
X236939880Y-57315119D02*
X236892261Y-57267500D01*
X236797023Y-57219880D01*
X236558928Y-57219880D01*
X236463690Y-57267500D01*
X236416071Y-57315119D01*
X236368452Y-57410357D01*
X236368452Y-57505595D01*
X236416071Y-57648452D01*
X236987500Y-58219880D01*
X236368452Y-58219880D01*
D11*
X123450097Y-98152947D02*
X122887181Y-97827947D01*
D12*
X125821859Y-98944935D02*
X124263014Y-98044935D01*
D13*
X123355770Y-96216326D02*
X125295667Y-97336326D01*
D14*
X129142917Y-89892693D02*
X128449616Y-90993526D01*
D15*
X126611348Y-88777501D02*
X128776411Y-90027501D01*
D16*
X127000578Y-90503334D02*
X123650578Y-96305704D01*
D10*
X129459424Y-89844488D02*
X126341732Y-88044488D01*
X128583398Y-89361809D02*
X126634841Y-88236809D01*
X123486700Y-98289550D02*
X123586700Y-98116345D01*
X122226059Y-97273044D02*
X126079872Y-99498044D01*
X122837181Y-97914550D02*
X123486700Y-98289550D01*
X126079872Y-99498044D02*
X127594872Y-96873987D01*
X127059424Y-94001410D02*
X129459424Y-89844488D01*
X126341732Y-88044488D02*
X122241732Y-95145897D01*
X127059424Y-94001410D02*
G75*
G03*
X127578119Y-96860062I1846775J-1141292D01*
G01*
X122241732Y-95145897D02*
G75*
G03*
X122837181Y-97914550I1682051J-1086602D01*
G01*
D15*
X126513013Y-94147820D02*
G75*
G03*
X127031708Y-97006473I1846776J-1141292D01*
G01*
D14*
X126006667Y-99224838D02*
X127231667Y-97103076D01*
D17*
X126439937Y-88274392D02*
X125814937Y-89356924D01*
D11*
X167471903Y-88102053D02*
X168034819Y-87777053D01*
D12*
X165600141Y-89760065D02*
X167158986Y-88860066D01*
D13*
X169196230Y-88988674D02*
X167256333Y-90108674D01*
D14*
X171779083Y-97162307D02*
X171172384Y-96011474D01*
D15*
X174010652Y-95527499D02*
X171845589Y-96777499D01*
D16*
X172321422Y-95001666D02*
X168971422Y-89199296D01*
D10*
X171662576Y-97460512D02*
X174780268Y-95660512D01*
X172518602Y-96943191D02*
X174467159Y-95818191D01*
X167335300Y-88065450D02*
X167435300Y-88238655D01*
X168845941Y-87481956D02*
X164992128Y-89706956D01*
X167984819Y-87690450D02*
X167335300Y-88065450D01*
X164992128Y-89706956D02*
X166507128Y-92331013D01*
X169262576Y-93303590D02*
X171662576Y-97460512D01*
X174780268Y-95660512D02*
X170680267Y-88559103D01*
X169262576Y-93303590D02*
G75*
G03*
X166527563Y-92323467I-1911775J-1028708D01*
G01*
X170680267Y-88559103D02*
G75*
G03*
X167984819Y-87690451I-1782050J-913398D01*
G01*
D15*
X169408986Y-92757180D02*
G75*
G03*
X166673974Y-91777056I-1911775J-1028708D01*
G01*
D14*
X165265333Y-89780162D02*
X166490333Y-91901924D01*
D17*
X174532063Y-95630608D02*
X173907063Y-94548076D01*
D18*
X35457500Y-48030000D02*
X35457500Y-46880000D01*
X42757500Y-48030000D02*
X35457500Y-48030000D01*
X42757500Y-42530000D02*
X35457500Y-42530000D01*
X73457500Y-40905000D02*
X73457500Y-39755000D01*
X80757500Y-40905000D02*
X73457500Y-40905000D01*
X80757500Y-35405000D02*
X73457500Y-35405000D01*
X111457500Y-45655000D02*
X111457500Y-44505000D01*
X118757500Y-45655000D02*
X111457500Y-45655000D01*
X118757500Y-40155000D02*
X111457500Y-40155000D01*
X35457500Y-67030000D02*
X35457500Y-65880000D01*
X42757500Y-67030000D02*
X35457500Y-67030000D01*
X42757500Y-61530000D02*
X35457500Y-61530000D01*
X73457500Y-78905000D02*
X73457500Y-77755000D01*
X80757500Y-78905000D02*
X73457500Y-78905000D01*
X80757500Y-73405000D02*
X73457500Y-73405000D01*
X111457500Y-83655000D02*
X111457500Y-82505000D01*
X118757500Y-83655000D02*
X111457500Y-83655000D01*
X118757500Y-78155000D02*
X111457500Y-78155000D01*
X253957500Y-48030000D02*
X253957500Y-46880000D01*
X261257500Y-48030000D02*
X253957500Y-48030000D01*
X261257500Y-42530000D02*
X253957500Y-42530000D01*
X215957500Y-40905000D02*
X215957500Y-39755000D01*
X223257500Y-40905000D02*
X215957500Y-40905000D01*
X223257500Y-35405000D02*
X215957500Y-35405000D01*
X177957500Y-45655000D02*
X177957500Y-44505000D01*
X185257500Y-45655000D02*
X177957500Y-45655000D01*
X185257500Y-40155000D02*
X177957500Y-40155000D01*
X253957500Y-67030000D02*
X253957500Y-65880000D01*
X261257500Y-67030000D02*
X253957500Y-67030000D01*
X261257500Y-61530000D02*
X253957500Y-61530000D01*
X215957500Y-78905000D02*
X215957500Y-77755000D01*
X223257500Y-78905000D02*
X215957500Y-78905000D01*
X223257500Y-73405000D02*
X215957500Y-73405000D01*
X177957500Y-83655000D02*
X177957500Y-82505000D01*
X185257500Y-83655000D02*
X177957500Y-83655000D01*
X185257500Y-78155000D02*
X177957500Y-78155000D01*
X102675704Y-94742272D02*
X103089815Y-93196791D01*
X109666405Y-98789505D02*
X102132184Y-96770717D01*
X103089815Y-93196791D02*
X110624036Y-95215579D01*
X16207500Y-40280000D02*
X16207500Y-38680000D01*
X24007500Y-42380000D02*
X16207500Y-42380000D01*
X16207500Y-38680000D02*
X24007500Y-38680000D01*
X35207500Y-40280000D02*
X35207500Y-38680000D01*
X43007500Y-42380000D02*
X35207500Y-42380000D01*
X35207500Y-38680000D02*
X43007500Y-38680000D01*
X54207500Y-35530000D02*
X54207500Y-33930000D01*
X62007500Y-37630000D02*
X54207500Y-37630000D01*
X54207500Y-33930000D02*
X62007500Y-33930000D01*
X73207500Y-33155000D02*
X73207500Y-31555000D01*
X81007500Y-35255000D02*
X73207500Y-35255000D01*
X73207500Y-31555000D02*
X81007500Y-31555000D01*
X92207500Y-35530000D02*
X92207500Y-33930000D01*
X100007500Y-37630000D02*
X92207500Y-37630000D01*
X92207500Y-33930000D02*
X100007500Y-33930000D01*
X111207500Y-37905000D02*
X111207500Y-36305000D01*
X119007500Y-40005000D02*
X111207500Y-40005000D01*
X111207500Y-36305000D02*
X119007500Y-36305000D01*
X16207500Y-59280000D02*
X16207500Y-57680000D01*
X24007500Y-61380000D02*
X16207500Y-61380000D01*
X16207500Y-57680000D02*
X24007500Y-57680000D01*
X35207500Y-59280000D02*
X35207500Y-57680000D01*
X43007500Y-61380000D02*
X35207500Y-61380000D01*
X35207500Y-57680000D02*
X43007500Y-57680000D01*
X54207500Y-54530000D02*
X54207500Y-52930000D01*
X62007500Y-56630000D02*
X54207500Y-56630000D01*
X54207500Y-52930000D02*
X62007500Y-52930000D01*
X73207500Y-52155000D02*
X73207500Y-50555000D01*
X81007500Y-54255000D02*
X73207500Y-54255000D01*
X73207500Y-50555000D02*
X81007500Y-50555000D01*
X92207500Y-54530000D02*
X92207500Y-52930000D01*
X100007500Y-56630000D02*
X92207500Y-56630000D01*
X92207500Y-52930000D02*
X100007500Y-52930000D01*
X111207500Y-56905000D02*
X111207500Y-55305000D01*
X119007500Y-59005000D02*
X111207500Y-59005000D01*
X111207500Y-55305000D02*
X119007500Y-55305000D01*
X16207500Y-78280000D02*
X16207500Y-76680000D01*
X24007500Y-80380000D02*
X16207500Y-80380000D01*
X16207500Y-76680000D02*
X24007500Y-76680000D01*
X35207500Y-78280000D02*
X35207500Y-76680000D01*
X43007500Y-80380000D02*
X35207500Y-80380000D01*
X35207500Y-76680000D02*
X43007500Y-76680000D01*
X54207500Y-73530000D02*
X54207500Y-71930000D01*
X62007500Y-75630000D02*
X54207500Y-75630000D01*
X54207500Y-71930000D02*
X62007500Y-71930000D01*
X73207500Y-71155000D02*
X73207500Y-69555000D01*
X81007500Y-73255000D02*
X73207500Y-73255000D01*
X73207500Y-69555000D02*
X81007500Y-69555000D01*
X111207500Y-75905000D02*
X111207500Y-74305000D01*
X119007500Y-78005000D02*
X111207500Y-78005000D01*
X111207500Y-74305000D02*
X119007500Y-74305000D01*
X82707500Y-93155000D02*
X82707500Y-91555000D01*
X90507500Y-95255000D02*
X82707500Y-95255000D01*
X82707500Y-91555000D02*
X90507500Y-91555000D01*
X131804615Y-100782499D02*
X130418974Y-99982499D01*
X137523268Y-95077501D02*
X133623268Y-101832499D01*
X130418974Y-99982499D02*
X134318974Y-93227501D01*
X215707500Y-52155000D02*
X215707500Y-50555000D01*
X223507500Y-54255000D02*
X215707500Y-54255000D01*
X215707500Y-50555000D02*
X223507500Y-50555000D01*
X196707500Y-54530000D02*
X196707500Y-52930000D01*
X204507500Y-56630000D02*
X196707500Y-56630000D01*
X196707500Y-52930000D02*
X204507500Y-52930000D01*
X177707500Y-56905000D02*
X177707500Y-55305000D01*
X185507500Y-59005000D02*
X177707500Y-59005000D01*
X177707500Y-55305000D02*
X185507500Y-55305000D01*
X272707500Y-78280000D02*
X272707500Y-76680000D01*
X280507500Y-80380000D02*
X272707500Y-80380000D01*
X272707500Y-76680000D02*
X280507500Y-76680000D01*
X253707500Y-78280000D02*
X253707500Y-76680000D01*
X261507500Y-80380000D02*
X253707500Y-80380000D01*
X253707500Y-76680000D02*
X261507500Y-76680000D01*
X234707500Y-73530000D02*
X234707500Y-71930000D01*
X242507500Y-75630000D02*
X234707500Y-75630000D01*
X234707500Y-71930000D02*
X242507500Y-71930000D01*
X215707500Y-71155000D02*
X215707500Y-69555000D01*
X223507500Y-73255000D02*
X215707500Y-73255000D01*
X215707500Y-69555000D02*
X223507500Y-69555000D01*
X196707500Y-73530000D02*
X196707500Y-71930000D01*
X204507500Y-75630000D02*
X196707500Y-75630000D01*
X196707500Y-71930000D02*
X204507500Y-71930000D01*
X177707500Y-75905000D02*
X177707500Y-74305000D01*
X185507500Y-78005000D02*
X177707500Y-78005000D01*
X177707500Y-74305000D02*
X185507500Y-74305000D01*
X206207500Y-93155000D02*
X206207500Y-91555000D01*
X214007500Y-95255000D02*
X206207500Y-95255000D01*
X206207500Y-91555000D02*
X214007500Y-91555000D01*
X186512075Y-96756061D02*
X186097964Y-95210579D01*
X194589816Y-96765717D02*
X187055595Y-98784505D01*
X186097964Y-95210579D02*
X193632185Y-93191791D01*
X161017385Y-94022501D02*
X162403026Y-93222501D01*
X163098732Y-101827499D02*
X159198732Y-95072501D01*
X162403026Y-93222501D02*
X166303026Y-99977499D01*
X92207500Y-73530000D02*
X92207500Y-71930000D01*
X100007500Y-75630000D02*
X92207500Y-75630000D01*
X92207500Y-71930000D02*
X100007500Y-71930000D01*
X272707500Y-40280000D02*
X272707500Y-38680000D01*
X280507500Y-42380000D02*
X272707500Y-42380000D01*
X272707500Y-38680000D02*
X280507500Y-38680000D01*
X253707500Y-40280000D02*
X253707500Y-38680000D01*
X261507500Y-42380000D02*
X253707500Y-42380000D01*
X253707500Y-38680000D02*
X261507500Y-38680000D01*
X234707500Y-35530000D02*
X234707500Y-33930000D01*
X242507500Y-37630000D02*
X234707500Y-37630000D01*
X234707500Y-33930000D02*
X242507500Y-33930000D01*
X215707500Y-33155000D02*
X215707500Y-31555000D01*
X223507500Y-35255000D02*
X215707500Y-35255000D01*
X215707500Y-31555000D02*
X223507500Y-31555000D01*
X196707500Y-35530000D02*
X196707500Y-33930000D01*
X204507500Y-37630000D02*
X196707500Y-37630000D01*
X196707500Y-33930000D02*
X204507500Y-33930000D01*
X177707500Y-37905000D02*
X177707500Y-36305000D01*
X185507500Y-40005000D02*
X177707500Y-40005000D01*
X177707500Y-36305000D02*
X185507500Y-36305000D01*
X272707500Y-59280000D02*
X272707500Y-57680000D01*
X280507500Y-61380000D02*
X272707500Y-61380000D01*
X272707500Y-57680000D02*
X280507500Y-57680000D01*
X253707500Y-59280000D02*
X253707500Y-57680000D01*
X261507500Y-61380000D02*
X253707500Y-61380000D01*
X253707500Y-57680000D02*
X261507500Y-57680000D01*
X234707500Y-54530000D02*
X234707500Y-52930000D01*
X242507500Y-56630000D02*
X234707500Y-56630000D01*
X234707500Y-52930000D02*
X242507500Y-52930000D01*
D11*
X109307500Y-29355000D02*
X109307500Y-28705000D01*
D12*
X109807500Y-31805000D02*
X109807500Y-30005001D01*
D13*
X110937500Y-28305000D02*
X110937500Y-30545000D01*
D14*
X119307500Y-30155000D02*
X118007500Y-30105000D01*
D15*
X119007500Y-27405000D02*
X119007500Y-29905000D01*
D16*
X117707500Y-28605000D02*
X111007500Y-28605000D01*
D10*
X119507500Y-30405000D02*
X119507500Y-26805000D01*
X119487500Y-29405000D02*
X119487500Y-27155000D01*
X109207500Y-29455000D02*
X109407500Y-29455000D01*
X109457500Y-27855000D02*
X109457500Y-32305000D01*
X109207500Y-28705000D02*
X109207500Y-29455000D01*
X109457500Y-32305000D02*
X112487500Y-32305000D01*
X114707500Y-30405000D02*
X119507500Y-30405000D01*
X119507500Y-26805000D02*
X111307499Y-26805000D01*
X114707500Y-30405000D02*
G75*
G03*
X112491182Y-32283529I-65000J-2170000D01*
G01*
X111307499Y-26805000D02*
G75*
G03*
X109207500Y-28705001I-99999J-2000000D01*
G01*
D15*
X114307500Y-30005000D02*
G75*
G03*
X112091182Y-31883529I-65000J-2170000D01*
G01*
D14*
X109657500Y-32105000D02*
X112107500Y-32105000D01*
D17*
X119357500Y-27005000D02*
X118107500Y-27005000D01*
D11*
X175814500Y-48350000D02*
X175814500Y-47700000D01*
D12*
X176314500Y-50800000D02*
X176314500Y-49000001D01*
D13*
X177444500Y-47300000D02*
X177444500Y-49540000D01*
D14*
X185814500Y-49150000D02*
X184514500Y-49100000D01*
D15*
X185514500Y-46400000D02*
X185514500Y-48900000D01*
D16*
X184214500Y-47600000D02*
X177514500Y-47600000D01*
D10*
X186014500Y-49400000D02*
X186014500Y-45800000D01*
X185994500Y-48400000D02*
X185994500Y-46150000D01*
X175714500Y-48450000D02*
X175914500Y-48450000D01*
X175964500Y-46850000D02*
X175964500Y-51300000D01*
X175714500Y-47700000D02*
X175714500Y-48450000D01*
X175964500Y-51300000D02*
X178994500Y-51300000D01*
X181214500Y-49400000D02*
X186014500Y-49400000D01*
X186014500Y-45800000D02*
X177814499Y-45800000D01*
X181214500Y-49400000D02*
G75*
G03*
X178998182Y-51278529I-65000J-2170000D01*
G01*
X177814499Y-45800000D02*
G75*
G03*
X175714500Y-47700001I-99999J-2000000D01*
G01*
D15*
X180814500Y-49000000D02*
G75*
G03*
X178598182Y-50878529I-65000J-2170000D01*
G01*
D14*
X176164500Y-51100000D02*
X178614500Y-51100000D01*
D17*
X185864500Y-46000000D02*
X184614500Y-46000000D01*
D11*
X175814500Y-67350000D02*
X175814500Y-66700000D01*
D12*
X176314500Y-69800000D02*
X176314500Y-68000001D01*
D13*
X177444500Y-66300000D02*
X177444500Y-68540000D01*
D14*
X185814500Y-68150000D02*
X184514500Y-68100000D01*
D15*
X185514500Y-65400000D02*
X185514500Y-67900000D01*
D16*
X184214500Y-66600000D02*
X177514500Y-66600000D01*
D10*
X186014500Y-68400000D02*
X186014500Y-64800000D01*
X185994500Y-67400000D02*
X185994500Y-65150000D01*
X175714500Y-67450000D02*
X175914500Y-67450000D01*
X175964500Y-65850000D02*
X175964500Y-70300000D01*
X175714500Y-66700000D02*
X175714500Y-67450000D01*
X175964500Y-70300000D02*
X178994500Y-70300000D01*
X181214500Y-68400000D02*
X186014500Y-68400000D01*
X186014500Y-64800000D02*
X177814499Y-64800000D01*
X181214500Y-68400000D02*
G75*
G03*
X178998182Y-70278529I-65000J-2170000D01*
G01*
X177814499Y-64800000D02*
G75*
G03*
X175714500Y-66700001I-99999J-2000000D01*
G01*
D15*
X180814500Y-68000000D02*
G75*
G03*
X178598182Y-69878529I-65000J-2170000D01*
G01*
D14*
X176164500Y-70100000D02*
X178614500Y-70100000D01*
D17*
X185864500Y-65000000D02*
X184614500Y-65000000D01*
D11*
X14307500Y-69730000D02*
X14307500Y-69080000D01*
D12*
X14807500Y-72180000D02*
X14807500Y-70380001D01*
D13*
X15937500Y-68680000D02*
X15937500Y-70920000D01*
D14*
X24307500Y-70530000D02*
X23007500Y-70480000D01*
D15*
X24007500Y-67780000D02*
X24007500Y-70280000D01*
D16*
X22707500Y-68980000D02*
X16007500Y-68980000D01*
D10*
X24507500Y-70780000D02*
X24507500Y-67180000D01*
X24487500Y-69780000D02*
X24487500Y-67530000D01*
X14207500Y-69830000D02*
X14407500Y-69830000D01*
X14457500Y-68230000D02*
X14457500Y-72680000D01*
X14207500Y-69080000D02*
X14207500Y-69830000D01*
X14457500Y-72680000D02*
X17487500Y-72680000D01*
X19707500Y-70780000D02*
X24507500Y-70780000D01*
X24507500Y-67180000D02*
X16307499Y-67180000D01*
X19707500Y-70780000D02*
G75*
G03*
X17491182Y-72658529I-65000J-2170000D01*
G01*
X16307499Y-67180000D02*
G75*
G03*
X14207500Y-69080001I-99999J-2000000D01*
G01*
D15*
X19307500Y-70380000D02*
G75*
G03*
X17091182Y-72258529I-65000J-2170000D01*
G01*
D14*
X14657500Y-72480000D02*
X17107500Y-72480000D01*
D17*
X24357500Y-67380000D02*
X23107500Y-67380000D01*
D11*
X251814500Y-69725000D02*
X251814500Y-69075000D01*
D12*
X252314500Y-72175000D02*
X252314500Y-70375001D01*
D13*
X253444500Y-68675000D02*
X253444500Y-70915000D01*
D14*
X261814500Y-70525000D02*
X260514500Y-70475000D01*
D15*
X261514500Y-67775000D02*
X261514500Y-70275000D01*
D16*
X260214500Y-68975000D02*
X253514500Y-68975000D01*
D10*
X262014500Y-70775000D02*
X262014500Y-67175000D01*
X261994500Y-69775000D02*
X261994500Y-67525000D01*
X251714500Y-69825000D02*
X251914500Y-69825000D01*
X251964500Y-68225000D02*
X251964500Y-72675000D01*
X251714500Y-69075000D02*
X251714500Y-69825000D01*
X251964500Y-72675000D02*
X254994500Y-72675000D01*
X257214500Y-70775000D02*
X262014500Y-70775000D01*
X262014500Y-67175000D02*
X253814499Y-67175000D01*
X257214500Y-70775000D02*
G75*
G03*
X254998182Y-72653529I-65000J-2170000D01*
G01*
X253814499Y-67175000D02*
G75*
G03*
X251714500Y-69075001I-99999J-2000000D01*
G01*
D15*
X256814500Y-70375000D02*
G75*
G03*
X254598182Y-72253529I-65000J-2170000D01*
G01*
D14*
X252164500Y-72475000D02*
X254614500Y-72475000D01*
D17*
X261864500Y-67375000D02*
X260614500Y-67375000D01*
D11*
X213814500Y-62600000D02*
X213814500Y-61950000D01*
D12*
X214314500Y-65050000D02*
X214314500Y-63250001D01*
D13*
X215444500Y-61550000D02*
X215444500Y-63790000D01*
D14*
X223814500Y-63400000D02*
X222514500Y-63350000D01*
D15*
X223514500Y-60650000D02*
X223514500Y-63150000D01*
D16*
X222214500Y-61850000D02*
X215514500Y-61850000D01*
D10*
X224014500Y-63650000D02*
X224014500Y-60050000D01*
X223994500Y-62650000D02*
X223994500Y-60400000D01*
X213714500Y-62700000D02*
X213914500Y-62700000D01*
X213964500Y-61100000D02*
X213964500Y-65550000D01*
X213714500Y-61950000D02*
X213714500Y-62700000D01*
X213964500Y-65550000D02*
X216994500Y-65550000D01*
X219214500Y-63650000D02*
X224014500Y-63650000D01*
X224014500Y-60050000D02*
X215814499Y-60050000D01*
X219214500Y-63650000D02*
G75*
G03*
X216998182Y-65528529I-65000J-2170000D01*
G01*
X215814499Y-60050000D02*
G75*
G03*
X213714500Y-61950001I-99999J-2000000D01*
G01*
D15*
X218814500Y-63250000D02*
G75*
G03*
X216598182Y-65128529I-65000J-2170000D01*
G01*
D14*
X214164500Y-65350000D02*
X216614500Y-65350000D01*
D17*
X223864500Y-60250000D02*
X222614500Y-60250000D01*
D11*
X33307500Y-69730000D02*
X33307500Y-69080000D01*
D12*
X33807500Y-72180000D02*
X33807500Y-70380001D01*
D13*
X34937500Y-68680000D02*
X34937500Y-70920000D01*
D14*
X43307500Y-70530000D02*
X42007500Y-70480000D01*
D15*
X43007500Y-67780000D02*
X43007500Y-70280000D01*
D16*
X41707500Y-68980000D02*
X35007500Y-68980000D01*
D10*
X43507500Y-70780000D02*
X43507500Y-67180000D01*
X43487500Y-69780000D02*
X43487500Y-67530000D01*
X33207500Y-69830000D02*
X33407500Y-69830000D01*
X33457500Y-68230000D02*
X33457500Y-72680000D01*
X33207500Y-69080000D02*
X33207500Y-69830000D01*
X33457500Y-72680000D02*
X36487500Y-72680000D01*
X38707500Y-70780000D02*
X43507500Y-70780000D01*
X43507500Y-67180000D02*
X35307499Y-67180000D01*
X38707500Y-70780000D02*
G75*
G03*
X36491182Y-72658529I-65000J-2170000D01*
G01*
X35307499Y-67180000D02*
G75*
G03*
X33207500Y-69080001I-99999J-2000000D01*
G01*
D15*
X38307500Y-70380000D02*
G75*
G03*
X36091182Y-72258529I-65000J-2170000D01*
G01*
D14*
X33657500Y-72480000D02*
X36107500Y-72480000D01*
D17*
X43357500Y-67380000D02*
X42107500Y-67380000D01*
D11*
X14307500Y-50730000D02*
X14307500Y-50080000D01*
D12*
X14807500Y-53180000D02*
X14807500Y-51380001D01*
D13*
X15937500Y-49680000D02*
X15937500Y-51920000D01*
D14*
X24307500Y-51530000D02*
X23007500Y-51480000D01*
D15*
X24007500Y-48780000D02*
X24007500Y-51280000D01*
D16*
X22707500Y-49980000D02*
X16007500Y-49980000D01*
D10*
X24507500Y-51780000D02*
X24507500Y-48180000D01*
X24487500Y-50780000D02*
X24487500Y-48530000D01*
X14207500Y-50830000D02*
X14407500Y-50830000D01*
X14457500Y-49230000D02*
X14457500Y-53680000D01*
X14207500Y-50080000D02*
X14207500Y-50830000D01*
X14457500Y-53680000D02*
X17487500Y-53680000D01*
X19707500Y-51780000D02*
X24507500Y-51780000D01*
X24507500Y-48180000D02*
X16307499Y-48180000D01*
X19707500Y-51780000D02*
G75*
G03*
X17491182Y-53658529I-65000J-2170000D01*
G01*
X16307499Y-48180000D02*
G75*
G03*
X14207500Y-50080001I-99999J-2000000D01*
G01*
D15*
X19307500Y-51380000D02*
G75*
G03*
X17091182Y-53258529I-65000J-2170000D01*
G01*
D14*
X14657500Y-53480000D02*
X17107500Y-53480000D01*
D17*
X24357500Y-48380000D02*
X23107500Y-48380000D01*
D11*
X33307500Y-50730000D02*
X33307500Y-50080000D01*
D12*
X33807500Y-53180000D02*
X33807500Y-51380001D01*
D13*
X34937500Y-49680000D02*
X34937500Y-51920000D01*
D14*
X43307500Y-51530000D02*
X42007500Y-51480000D01*
D15*
X43007500Y-48780000D02*
X43007500Y-51280000D01*
D16*
X41707500Y-49980000D02*
X35007500Y-49980000D01*
D10*
X43507500Y-51780000D02*
X43507500Y-48180000D01*
X43487500Y-50780000D02*
X43487500Y-48530000D01*
X33207500Y-50830000D02*
X33407500Y-50830000D01*
X33457500Y-49230000D02*
X33457500Y-53680000D01*
X33207500Y-50080000D02*
X33207500Y-50830000D01*
X33457500Y-53680000D02*
X36487500Y-53680000D01*
X38707500Y-51780000D02*
X43507500Y-51780000D01*
X43507500Y-48180000D02*
X35307499Y-48180000D01*
X38707500Y-51780000D02*
G75*
G03*
X36491182Y-53658529I-65000J-2170000D01*
G01*
X35307499Y-48180000D02*
G75*
G03*
X33207500Y-50080001I-99999J-2000000D01*
G01*
D15*
X38307500Y-51380000D02*
G75*
G03*
X36091182Y-53258529I-65000J-2170000D01*
G01*
D14*
X33657500Y-53480000D02*
X36107500Y-53480000D01*
D17*
X43357500Y-48380000D02*
X42107500Y-48380000D01*
D11*
X14307500Y-31730000D02*
X14307500Y-31080000D01*
D12*
X14807500Y-34180000D02*
X14807500Y-32380001D01*
D13*
X15937500Y-30680000D02*
X15937500Y-32920000D01*
D14*
X24307500Y-32530000D02*
X23007500Y-32480000D01*
D15*
X24007500Y-29780000D02*
X24007500Y-32280000D01*
D16*
X22707500Y-30980000D02*
X16007500Y-30980000D01*
D10*
X24507500Y-32780000D02*
X24507500Y-29180000D01*
X24487500Y-31780000D02*
X24487500Y-29530000D01*
X14207500Y-31830000D02*
X14407500Y-31830000D01*
X14457500Y-30230000D02*
X14457500Y-34680000D01*
X14207500Y-31080000D02*
X14207500Y-31830000D01*
X14457500Y-34680000D02*
X17487500Y-34680000D01*
X19707500Y-32780000D02*
X24507500Y-32780000D01*
X24507500Y-29180000D02*
X16307499Y-29180000D01*
X19707500Y-32780000D02*
G75*
G03*
X17491182Y-34658529I-65000J-2170000D01*
G01*
X16307499Y-29180000D02*
G75*
G03*
X14207500Y-31080001I-99999J-2000000D01*
G01*
D15*
X19307500Y-32380000D02*
G75*
G03*
X17091182Y-34258529I-65000J-2170000D01*
G01*
D14*
X14657500Y-34480000D02*
X17107500Y-34480000D01*
D17*
X24357500Y-29380000D02*
X23107500Y-29380000D01*
D11*
X33307500Y-31730000D02*
X33307500Y-31080000D01*
D12*
X33807500Y-34180000D02*
X33807500Y-32380001D01*
D13*
X34937500Y-30680000D02*
X34937500Y-32920000D01*
D14*
X43307500Y-32530000D02*
X42007500Y-32480000D01*
D15*
X43007500Y-29780000D02*
X43007500Y-32280000D01*
D16*
X41707500Y-30980000D02*
X35007500Y-30980000D01*
D10*
X43507500Y-32780000D02*
X43507500Y-29180000D01*
X43487500Y-31780000D02*
X43487500Y-29530000D01*
X33207500Y-31830000D02*
X33407500Y-31830000D01*
X33457500Y-30230000D02*
X33457500Y-34680000D01*
X33207500Y-31080000D02*
X33207500Y-31830000D01*
X33457500Y-34680000D02*
X36487500Y-34680000D01*
X38707500Y-32780000D02*
X43507500Y-32780000D01*
X43507500Y-29180000D02*
X35307499Y-29180000D01*
X38707500Y-32780000D02*
G75*
G03*
X36491182Y-34658529I-65000J-2170000D01*
G01*
X35307499Y-29180000D02*
G75*
G03*
X33207500Y-31080001I-99999J-2000000D01*
G01*
D15*
X38307500Y-32380000D02*
G75*
G03*
X36091182Y-34258529I-65000J-2170000D01*
G01*
D14*
X33657500Y-34480000D02*
X36107500Y-34480000D01*
D17*
X43357500Y-29380000D02*
X42107500Y-29380000D01*
D11*
X52307500Y-26980000D02*
X52307500Y-26330000D01*
D12*
X52807500Y-29430000D02*
X52807500Y-27630001D01*
D13*
X53937500Y-25930000D02*
X53937500Y-28170000D01*
D14*
X62307500Y-27780000D02*
X61007500Y-27730000D01*
D15*
X62007500Y-25030000D02*
X62007500Y-27530000D01*
D16*
X60707500Y-26230000D02*
X54007500Y-26230000D01*
D10*
X62507500Y-28030000D02*
X62507500Y-24430000D01*
X62487500Y-27030000D02*
X62487500Y-24780000D01*
X52207500Y-27080000D02*
X52407500Y-27080000D01*
X52457500Y-25480000D02*
X52457500Y-29930000D01*
X52207500Y-26330000D02*
X52207500Y-27080000D01*
X52457500Y-29930000D02*
X55487500Y-29930000D01*
X57707500Y-28030000D02*
X62507500Y-28030000D01*
X62507500Y-24430000D02*
X54307499Y-24430000D01*
X57707500Y-28030000D02*
G75*
G03*
X55491182Y-29908529I-65000J-2170000D01*
G01*
X54307499Y-24430000D02*
G75*
G03*
X52207500Y-26330001I-99999J-2000000D01*
G01*
D15*
X57307500Y-27630000D02*
G75*
G03*
X55091182Y-29508529I-65000J-2170000D01*
G01*
D14*
X52657500Y-29730000D02*
X55107500Y-29730000D01*
D17*
X62357500Y-24630000D02*
X61107500Y-24630000D01*
D11*
X71307500Y-24605000D02*
X71307500Y-23955000D01*
D12*
X71807500Y-27055000D02*
X71807500Y-25255001D01*
D13*
X72937500Y-23555000D02*
X72937500Y-25795000D01*
D14*
X81307500Y-25405000D02*
X80007500Y-25355000D01*
D15*
X81007500Y-22655000D02*
X81007500Y-25155000D01*
D16*
X79707500Y-23855000D02*
X73007500Y-23855000D01*
D10*
X81507500Y-25655000D02*
X81507500Y-22055000D01*
X81487500Y-24655000D02*
X81487500Y-22405000D01*
X71207500Y-24705000D02*
X71407500Y-24705000D01*
X71457500Y-23105000D02*
X71457500Y-27555000D01*
X71207500Y-23955000D02*
X71207500Y-24705000D01*
X71457500Y-27555000D02*
X74487500Y-27555000D01*
X76707500Y-25655000D02*
X81507500Y-25655000D01*
X81507500Y-22055000D02*
X73307499Y-22055000D01*
X76707500Y-25655000D02*
G75*
G03*
X74491182Y-27533529I-65000J-2170000D01*
G01*
X73307499Y-22055000D02*
G75*
G03*
X71207500Y-23955001I-99999J-2000000D01*
G01*
D15*
X76307500Y-25255000D02*
G75*
G03*
X74091182Y-27133529I-65000J-2170000D01*
G01*
D14*
X71657500Y-27355000D02*
X74107500Y-27355000D01*
D17*
X81357500Y-22255000D02*
X80107500Y-22255000D01*
D11*
X90307500Y-26980000D02*
X90307500Y-26330000D01*
D12*
X90807500Y-29430000D02*
X90807500Y-27630001D01*
D13*
X91937500Y-25930000D02*
X91937500Y-28170000D01*
D14*
X100307500Y-27780000D02*
X99007500Y-27730000D01*
D15*
X100007500Y-25030000D02*
X100007500Y-27530000D01*
D16*
X98707500Y-26230000D02*
X92007500Y-26230000D01*
D10*
X100507500Y-28030000D02*
X100507500Y-24430000D01*
X100487500Y-27030000D02*
X100487500Y-24780000D01*
X90207500Y-27080000D02*
X90407500Y-27080000D01*
X90457500Y-25480000D02*
X90457500Y-29930000D01*
X90207500Y-26330000D02*
X90207500Y-27080000D01*
X90457500Y-29930000D02*
X93487500Y-29930000D01*
X95707500Y-28030000D02*
X100507500Y-28030000D01*
X100507500Y-24430000D02*
X92307499Y-24430000D01*
X95707500Y-28030000D02*
G75*
G03*
X93491182Y-29908529I-65000J-2170000D01*
G01*
X92307499Y-24430000D02*
G75*
G03*
X90207500Y-26330001I-99999J-2000000D01*
G01*
D15*
X95307500Y-27630000D02*
G75*
G03*
X93091182Y-29508529I-65000J-2170000D01*
G01*
D14*
X90657500Y-29730000D02*
X93107500Y-29730000D01*
D17*
X100357500Y-24630000D02*
X99107500Y-24630000D01*
D11*
X52307500Y-45980000D02*
X52307500Y-45330000D01*
D12*
X52807500Y-48430000D02*
X52807500Y-46630001D01*
D13*
X53937500Y-44930000D02*
X53937500Y-47170000D01*
D14*
X62307500Y-46780000D02*
X61007500Y-46730000D01*
D15*
X62007500Y-44030000D02*
X62007500Y-46530000D01*
D16*
X60707500Y-45230000D02*
X54007500Y-45230000D01*
D10*
X62507500Y-47030000D02*
X62507500Y-43430000D01*
X62487500Y-46030000D02*
X62487500Y-43780000D01*
X52207500Y-46080000D02*
X52407500Y-46080000D01*
X52457500Y-44480000D02*
X52457500Y-48930000D01*
X52207500Y-45330000D02*
X52207500Y-46080000D01*
X52457500Y-48930000D02*
X55487500Y-48930000D01*
X57707500Y-47030000D02*
X62507500Y-47030000D01*
X62507500Y-43430000D02*
X54307499Y-43430000D01*
X57707500Y-47030000D02*
G75*
G03*
X55491182Y-48908529I-65000J-2170000D01*
G01*
X54307499Y-43430000D02*
G75*
G03*
X52207500Y-45330001I-99999J-2000000D01*
G01*
D15*
X57307500Y-46630000D02*
G75*
G03*
X55091182Y-48508529I-65000J-2170000D01*
G01*
D14*
X52657500Y-48730000D02*
X55107500Y-48730000D01*
D17*
X62357500Y-43630000D02*
X61107500Y-43630000D01*
D11*
X71307500Y-43605000D02*
X71307500Y-42955000D01*
D12*
X71807500Y-46055000D02*
X71807500Y-44255001D01*
D13*
X72937500Y-42555000D02*
X72937500Y-44795000D01*
D14*
X81307500Y-44405000D02*
X80007500Y-44355000D01*
D15*
X81007500Y-41655000D02*
X81007500Y-44155000D01*
D16*
X79707500Y-42855000D02*
X73007500Y-42855000D01*
D10*
X81507500Y-44655000D02*
X81507500Y-41055000D01*
X81487500Y-43655000D02*
X81487500Y-41405000D01*
X71207500Y-43705000D02*
X71407500Y-43705000D01*
X71457500Y-42105000D02*
X71457500Y-46555000D01*
X71207500Y-42955000D02*
X71207500Y-43705000D01*
X71457500Y-46555000D02*
X74487500Y-46555000D01*
X76707500Y-44655000D02*
X81507500Y-44655000D01*
X81507500Y-41055000D02*
X73307499Y-41055000D01*
X76707500Y-44655000D02*
G75*
G03*
X74491182Y-46533529I-65000J-2170000D01*
G01*
X73307499Y-41055000D02*
G75*
G03*
X71207500Y-42955001I-99999J-2000000D01*
G01*
D15*
X76307500Y-44255000D02*
G75*
G03*
X74091182Y-46133529I-65000J-2170000D01*
G01*
D14*
X71657500Y-46355000D02*
X74107500Y-46355000D01*
D17*
X81357500Y-41255000D02*
X80107500Y-41255000D01*
D11*
X90307500Y-45980000D02*
X90307500Y-45330000D01*
D12*
X90807500Y-48430000D02*
X90807500Y-46630001D01*
D13*
X91937500Y-44930000D02*
X91937500Y-47170000D01*
D14*
X100307500Y-46780000D02*
X99007500Y-46730000D01*
D15*
X100007500Y-44030000D02*
X100007500Y-46530000D01*
D16*
X98707500Y-45230000D02*
X92007500Y-45230000D01*
D10*
X100507500Y-47030000D02*
X100507500Y-43430000D01*
X100487500Y-46030000D02*
X100487500Y-43780000D01*
X90207500Y-46080000D02*
X90407500Y-46080000D01*
X90457500Y-44480000D02*
X90457500Y-48930000D01*
X90207500Y-45330000D02*
X90207500Y-46080000D01*
X90457500Y-48930000D02*
X93487500Y-48930000D01*
X95707500Y-47030000D02*
X100507500Y-47030000D01*
X100507500Y-43430000D02*
X92307499Y-43430000D01*
X95707500Y-47030000D02*
G75*
G03*
X93491182Y-48908529I-65000J-2170000D01*
G01*
X92307499Y-43430000D02*
G75*
G03*
X90207500Y-45330001I-99999J-2000000D01*
G01*
D15*
X95307500Y-46630000D02*
G75*
G03*
X93091182Y-48508529I-65000J-2170000D01*
G01*
D14*
X90657500Y-48730000D02*
X93107500Y-48730000D01*
D17*
X100357500Y-43630000D02*
X99107500Y-43630000D01*
D11*
X109307500Y-48355000D02*
X109307500Y-47705000D01*
D12*
X109807500Y-50805000D02*
X109807500Y-49005001D01*
D13*
X110937500Y-47305000D02*
X110937500Y-49545000D01*
D14*
X119307500Y-49155000D02*
X118007500Y-49105000D01*
D15*
X119007500Y-46405000D02*
X119007500Y-48905000D01*
D16*
X117707500Y-47605000D02*
X111007500Y-47605000D01*
D10*
X119507500Y-49405000D02*
X119507500Y-45805000D01*
X119487500Y-48405000D02*
X119487500Y-46155000D01*
X109207500Y-48455000D02*
X109407500Y-48455000D01*
X109457500Y-46855000D02*
X109457500Y-51305000D01*
X109207500Y-47705000D02*
X109207500Y-48455000D01*
X109457500Y-51305000D02*
X112487500Y-51305000D01*
X114707500Y-49405000D02*
X119507500Y-49405000D01*
X119507500Y-45805000D02*
X111307499Y-45805000D01*
X114707500Y-49405000D02*
G75*
G03*
X112491182Y-51283529I-65000J-2170000D01*
G01*
X111307499Y-45805000D02*
G75*
G03*
X109207500Y-47705001I-99999J-2000000D01*
G01*
D15*
X114307500Y-49005000D02*
G75*
G03*
X112091182Y-50883529I-65000J-2170000D01*
G01*
D14*
X109657500Y-51105000D02*
X112107500Y-51105000D01*
D17*
X119357500Y-46005000D02*
X118107500Y-46005000D01*
D11*
X52307500Y-64980000D02*
X52307500Y-64330000D01*
D12*
X52807500Y-67430000D02*
X52807500Y-65630001D01*
D13*
X53937500Y-63930000D02*
X53937500Y-66170000D01*
D14*
X62307500Y-65780000D02*
X61007500Y-65730000D01*
D15*
X62007500Y-63030000D02*
X62007500Y-65530000D01*
D16*
X60707500Y-64230000D02*
X54007500Y-64230000D01*
D10*
X62507500Y-66030000D02*
X62507500Y-62430000D01*
X62487500Y-65030000D02*
X62487500Y-62780000D01*
X52207500Y-65080000D02*
X52407500Y-65080000D01*
X52457500Y-63480000D02*
X52457500Y-67930000D01*
X52207500Y-64330000D02*
X52207500Y-65080000D01*
X52457500Y-67930000D02*
X55487500Y-67930000D01*
X57707500Y-66030000D02*
X62507500Y-66030000D01*
X62507500Y-62430000D02*
X54307499Y-62430000D01*
X57707500Y-66030000D02*
G75*
G03*
X55491182Y-67908529I-65000J-2170000D01*
G01*
X54307499Y-62430000D02*
G75*
G03*
X52207500Y-64330001I-99999J-2000000D01*
G01*
D15*
X57307500Y-65630000D02*
G75*
G03*
X55091182Y-67508529I-65000J-2170000D01*
G01*
D14*
X52657500Y-67730000D02*
X55107500Y-67730000D01*
D17*
X62357500Y-62630000D02*
X61107500Y-62630000D01*
D11*
X71307500Y-62605000D02*
X71307500Y-61955000D01*
D12*
X71807500Y-65055000D02*
X71807500Y-63255001D01*
D13*
X72937500Y-61555000D02*
X72937500Y-63795000D01*
D14*
X81307500Y-63405000D02*
X80007500Y-63355000D01*
D15*
X81007500Y-60655000D02*
X81007500Y-63155000D01*
D16*
X79707500Y-61855000D02*
X73007500Y-61855000D01*
D10*
X81507500Y-63655000D02*
X81507500Y-60055000D01*
X81487500Y-62655000D02*
X81487500Y-60405000D01*
X71207500Y-62705000D02*
X71407500Y-62705000D01*
X71457500Y-61105000D02*
X71457500Y-65555000D01*
X71207500Y-61955000D02*
X71207500Y-62705000D01*
X71457500Y-65555000D02*
X74487500Y-65555000D01*
X76707500Y-63655000D02*
X81507500Y-63655000D01*
X81507500Y-60055000D02*
X73307499Y-60055000D01*
X76707500Y-63655000D02*
G75*
G03*
X74491182Y-65533529I-65000J-2170000D01*
G01*
X73307499Y-60055000D02*
G75*
G03*
X71207500Y-61955001I-99999J-2000000D01*
G01*
D15*
X76307500Y-63255000D02*
G75*
G03*
X74091182Y-65133529I-65000J-2170000D01*
G01*
D14*
X71657500Y-65355000D02*
X74107500Y-65355000D01*
D17*
X81357500Y-60255000D02*
X80107500Y-60255000D01*
D11*
X90307500Y-64980000D02*
X90307500Y-64330000D01*
D12*
X90807500Y-67430000D02*
X90807500Y-65630001D01*
D13*
X91937500Y-63930000D02*
X91937500Y-66170000D01*
D14*
X100307500Y-65780000D02*
X99007500Y-65730000D01*
D15*
X100007500Y-63030000D02*
X100007500Y-65530000D01*
D16*
X98707500Y-64230000D02*
X92007500Y-64230000D01*
D10*
X100507500Y-66030000D02*
X100507500Y-62430000D01*
X100487500Y-65030000D02*
X100487500Y-62780000D01*
X90207500Y-65080000D02*
X90407500Y-65080000D01*
X90457500Y-63480000D02*
X90457500Y-67930000D01*
X90207500Y-64330000D02*
X90207500Y-65080000D01*
X90457500Y-67930000D02*
X93487500Y-67930000D01*
X95707500Y-66030000D02*
X100507500Y-66030000D01*
X100507500Y-62430000D02*
X92307499Y-62430000D01*
X95707500Y-66030000D02*
G75*
G03*
X93491182Y-67908529I-65000J-2170000D01*
G01*
X92307499Y-62430000D02*
G75*
G03*
X90207500Y-64330001I-99999J-2000000D01*
G01*
D15*
X95307500Y-65630000D02*
G75*
G03*
X93091182Y-67508529I-65000J-2170000D01*
G01*
D14*
X90657500Y-67730000D02*
X93107500Y-67730000D01*
D17*
X100357500Y-62630000D02*
X99107500Y-62630000D01*
D11*
X109307500Y-67355000D02*
X109307500Y-66705000D01*
D12*
X109807500Y-69805000D02*
X109807500Y-68005001D01*
D13*
X110937500Y-66305000D02*
X110937500Y-68545000D01*
D14*
X119307500Y-68155000D02*
X118007500Y-68105000D01*
D15*
X119007500Y-65405000D02*
X119007500Y-67905000D01*
D16*
X117707500Y-66605000D02*
X111007500Y-66605000D01*
D10*
X119507500Y-68405000D02*
X119507500Y-64805000D01*
X119487500Y-67405000D02*
X119487500Y-65155000D01*
X109207500Y-67455000D02*
X109407500Y-67455000D01*
X109457500Y-65855000D02*
X109457500Y-70305000D01*
X109207500Y-66705000D02*
X109207500Y-67455000D01*
X109457500Y-70305000D02*
X112487500Y-70305000D01*
X114707500Y-68405000D02*
X119507500Y-68405000D01*
X119507500Y-64805000D02*
X111307499Y-64805000D01*
X114707500Y-68405000D02*
G75*
G03*
X112491182Y-70283529I-65000J-2170000D01*
G01*
X111307499Y-64805000D02*
G75*
G03*
X109207500Y-66705001I-99999J-2000000D01*
G01*
D15*
X114307500Y-68005000D02*
G75*
G03*
X112091182Y-69883529I-65000J-2170000D01*
G01*
D14*
X109657500Y-70105000D02*
X112107500Y-70105000D01*
D17*
X119357500Y-65005000D02*
X118107500Y-65005000D01*
D11*
X80807500Y-84605000D02*
X80807500Y-83955000D01*
D12*
X81307500Y-87055000D02*
X81307500Y-85255001D01*
D13*
X82437500Y-83555000D02*
X82437500Y-85795000D01*
D14*
X90807500Y-85405000D02*
X89507500Y-85355000D01*
D15*
X90507500Y-82655000D02*
X90507500Y-85155000D01*
D16*
X89207500Y-83855000D02*
X82507500Y-83855000D01*
D10*
X91007500Y-85655000D02*
X91007500Y-82055000D01*
X90987500Y-84655000D02*
X90987500Y-82405000D01*
X80707500Y-84705000D02*
X80907500Y-84705000D01*
X80957500Y-83105000D02*
X80957500Y-87555000D01*
X80707500Y-83955000D02*
X80707500Y-84705000D01*
X80957500Y-87555000D02*
X83987500Y-87555000D01*
X86207500Y-85655000D02*
X91007500Y-85655000D01*
X91007500Y-82055000D02*
X82807499Y-82055000D01*
X86207500Y-85655000D02*
G75*
G03*
X83991182Y-87533529I-65000J-2170000D01*
G01*
X82807499Y-82055000D02*
G75*
G03*
X80707500Y-83955001I-99999J-2000000D01*
G01*
D15*
X85807500Y-85255000D02*
G75*
G03*
X83591182Y-87133529I-65000J-2170000D01*
G01*
D14*
X81157500Y-87355000D02*
X83607500Y-87355000D01*
D17*
X90857500Y-82255000D02*
X89607500Y-82255000D01*
D11*
X103053347Y-85991850D02*
X103221580Y-85363998D01*
D12*
X102902204Y-88487778D02*
X103368078Y-86749112D01*
D13*
X104899566Y-85399503D02*
X104319812Y-87563177D01*
D14*
X112505550Y-89352781D02*
X111262788Y-88968020D01*
D15*
X112927525Y-86618839D02*
X112280477Y-89033654D01*
D16*
X111361239Y-87441486D02*
X104889536Y-85707398D01*
D10*
X112634031Y-89646026D02*
X113565779Y-86168693D01*
X112873531Y-88674924D02*
X113455874Y-86501591D01*
X102930873Y-86062561D02*
X103124058Y-86114324D01*
X103586465Y-84581784D02*
X102434720Y-88880154D01*
X103124987Y-85338116D02*
X102930873Y-86062561D01*
X102434720Y-88880154D02*
X105361475Y-89664376D01*
X107997587Y-88403695D02*
X112634031Y-89646026D01*
X113565779Y-86168693D02*
X105645187Y-84046377D01*
X107997587Y-88403696D02*
G75*
G03*
X105370589Y-89644589I-624423J-2079235D01*
G01*
X105645187Y-84046377D02*
G75*
G03*
X103124987Y-85338117I-614230J-1905970D01*
G01*
D15*
X107714744Y-87913796D02*
G75*
G03*
X105087746Y-89154691I-624422J-2079237D01*
G01*
D14*
X102679669Y-88738733D02*
X105046187Y-89372839D01*
D17*
X113369127Y-86323056D02*
X112161719Y-85999532D01*
D11*
X270814500Y-31725000D02*
X270814500Y-31075000D01*
D12*
X271314500Y-34175000D02*
X271314500Y-32375001D01*
D13*
X272444500Y-30675000D02*
X272444500Y-32915000D01*
D14*
X280814500Y-32525000D02*
X279514500Y-32475000D01*
D15*
X280514500Y-29775000D02*
X280514500Y-32275000D01*
D16*
X279214500Y-30975000D02*
X272514500Y-30975000D01*
D10*
X281014500Y-32775000D02*
X281014500Y-29175000D01*
X280994500Y-31775000D02*
X280994500Y-29525000D01*
X270714500Y-31825000D02*
X270914500Y-31825000D01*
X270964500Y-30225000D02*
X270964500Y-34675000D01*
X270714500Y-31075000D02*
X270714500Y-31825000D01*
X270964500Y-34675000D02*
X273994500Y-34675000D01*
X276214500Y-32775000D02*
X281014500Y-32775000D01*
X281014500Y-29175000D02*
X272814499Y-29175000D01*
X276214500Y-32775000D02*
G75*
G03*
X273998182Y-34653529I-65000J-2170000D01*
G01*
X272814499Y-29175000D02*
G75*
G03*
X270714500Y-31075001I-99999J-2000000D01*
G01*
D15*
X275814500Y-32375000D02*
G75*
G03*
X273598182Y-34253529I-65000J-2170000D01*
G01*
D14*
X271164500Y-34475000D02*
X273614500Y-34475000D01*
D17*
X280864500Y-29375000D02*
X279614500Y-29375000D01*
D11*
X251814500Y-31725000D02*
X251814500Y-31075000D01*
D12*
X252314500Y-34175000D02*
X252314500Y-32375001D01*
D13*
X253444500Y-30675000D02*
X253444500Y-32915000D01*
D14*
X261814500Y-32525000D02*
X260514500Y-32475000D01*
D15*
X261514500Y-29775000D02*
X261514500Y-32275000D01*
D16*
X260214500Y-30975000D02*
X253514500Y-30975000D01*
D10*
X262014500Y-32775000D02*
X262014500Y-29175000D01*
X261994500Y-31775000D02*
X261994500Y-29525000D01*
X251714500Y-31825000D02*
X251914500Y-31825000D01*
X251964500Y-30225000D02*
X251964500Y-34675000D01*
X251714500Y-31075000D02*
X251714500Y-31825000D01*
X251964500Y-34675000D02*
X254994500Y-34675000D01*
X257214500Y-32775000D02*
X262014500Y-32775000D01*
X262014500Y-29175000D02*
X253814499Y-29175000D01*
X257214500Y-32775000D02*
G75*
G03*
X254998182Y-34653529I-65000J-2170000D01*
G01*
X253814499Y-29175000D02*
G75*
G03*
X251714500Y-31075001I-99999J-2000000D01*
G01*
D15*
X256814500Y-32375000D02*
G75*
G03*
X254598182Y-34253529I-65000J-2170000D01*
G01*
D14*
X252164500Y-34475000D02*
X254614500Y-34475000D01*
D17*
X261864500Y-29375000D02*
X260614500Y-29375000D01*
D11*
X232814500Y-26975000D02*
X232814500Y-26325000D01*
D12*
X233314500Y-29425000D02*
X233314500Y-27625001D01*
D13*
X234444500Y-25925000D02*
X234444500Y-28165000D01*
D14*
X242814500Y-27775000D02*
X241514500Y-27725000D01*
D15*
X242514500Y-25025000D02*
X242514500Y-27525000D01*
D16*
X241214500Y-26225000D02*
X234514500Y-26225000D01*
D10*
X243014500Y-28025000D02*
X243014500Y-24425000D01*
X242994500Y-27025000D02*
X242994500Y-24775000D01*
X232714500Y-27075000D02*
X232914500Y-27075000D01*
X232964500Y-25475000D02*
X232964500Y-29925000D01*
X232714500Y-26325000D02*
X232714500Y-27075000D01*
X232964500Y-29925000D02*
X235994500Y-29925000D01*
X238214500Y-28025000D02*
X243014500Y-28025000D01*
X243014500Y-24425000D02*
X234814499Y-24425000D01*
X238214500Y-28025000D02*
G75*
G03*
X235998182Y-29903529I-65000J-2170000D01*
G01*
X234814499Y-24425000D02*
G75*
G03*
X232714500Y-26325001I-99999J-2000000D01*
G01*
D15*
X237814500Y-27625000D02*
G75*
G03*
X235598182Y-29503529I-65000J-2170000D01*
G01*
D14*
X233164500Y-29725000D02*
X235614500Y-29725000D01*
D17*
X242864500Y-24625000D02*
X241614500Y-24625000D01*
D11*
X213814500Y-24600000D02*
X213814500Y-23950000D01*
D12*
X214314500Y-27050000D02*
X214314500Y-25250001D01*
D13*
X215444500Y-23550000D02*
X215444500Y-25790000D01*
D14*
X223814500Y-25400000D02*
X222514500Y-25350000D01*
D15*
X223514500Y-22650000D02*
X223514500Y-25150000D01*
D16*
X222214500Y-23850000D02*
X215514500Y-23850000D01*
D10*
X224014500Y-25650000D02*
X224014500Y-22050000D01*
X223994500Y-24650000D02*
X223994500Y-22400000D01*
X213714500Y-24700000D02*
X213914500Y-24700000D01*
X213964500Y-23100000D02*
X213964500Y-27550000D01*
X213714500Y-23950000D02*
X213714500Y-24700000D01*
X213964500Y-27550000D02*
X216994500Y-27550000D01*
X219214500Y-25650000D02*
X224014500Y-25650000D01*
X224014500Y-22050000D02*
X215814499Y-22050000D01*
X219214500Y-25650000D02*
G75*
G03*
X216998182Y-27528529I-65000J-2170000D01*
G01*
X215814499Y-22050000D02*
G75*
G03*
X213714500Y-23950001I-99999J-2000000D01*
G01*
D15*
X218814500Y-25250000D02*
G75*
G03*
X216598182Y-27128529I-65000J-2170000D01*
G01*
D14*
X214164500Y-27350000D02*
X216614500Y-27350000D01*
D17*
X223864500Y-22250000D02*
X222614500Y-22250000D01*
D11*
X194814500Y-26975000D02*
X194814500Y-26325000D01*
D12*
X195314500Y-29425000D02*
X195314500Y-27625001D01*
D13*
X196444500Y-25925000D02*
X196444500Y-28165000D01*
D14*
X204814500Y-27775000D02*
X203514500Y-27725000D01*
D15*
X204514500Y-25025000D02*
X204514500Y-27525000D01*
D16*
X203214500Y-26225000D02*
X196514500Y-26225000D01*
D10*
X205014500Y-28025000D02*
X205014500Y-24425000D01*
X204994500Y-27025000D02*
X204994500Y-24775000D01*
X194714500Y-27075000D02*
X194914500Y-27075000D01*
X194964500Y-25475000D02*
X194964500Y-29925000D01*
X194714500Y-26325000D02*
X194714500Y-27075000D01*
X194964500Y-29925000D02*
X197994500Y-29925000D01*
X200214500Y-28025000D02*
X205014500Y-28025000D01*
X205014500Y-24425000D02*
X196814499Y-24425000D01*
X200214500Y-28025000D02*
G75*
G03*
X197998182Y-29903529I-65000J-2170000D01*
G01*
X196814499Y-24425000D02*
G75*
G03*
X194714500Y-26325001I-99999J-2000000D01*
G01*
D15*
X199814500Y-27625000D02*
G75*
G03*
X197598182Y-29503529I-65000J-2170000D01*
G01*
D14*
X195164500Y-29725000D02*
X197614500Y-29725000D01*
D17*
X204864500Y-24625000D02*
X203614500Y-24625000D01*
D11*
X175807500Y-29355000D02*
X175807500Y-28705000D01*
D12*
X176307500Y-31805000D02*
X176307500Y-30005001D01*
D13*
X177437500Y-28305000D02*
X177437500Y-30545000D01*
D14*
X185807500Y-30155000D02*
X184507500Y-30105000D01*
D15*
X185507500Y-27405000D02*
X185507500Y-29905000D01*
D16*
X184207500Y-28605000D02*
X177507500Y-28605000D01*
D10*
X186007500Y-30405000D02*
X186007500Y-26805000D01*
X185987500Y-29405000D02*
X185987500Y-27155000D01*
X175707500Y-29455000D02*
X175907500Y-29455000D01*
X175957500Y-27855000D02*
X175957500Y-32305000D01*
X175707500Y-28705000D02*
X175707500Y-29455000D01*
X175957500Y-32305000D02*
X178987500Y-32305000D01*
X181207500Y-30405000D02*
X186007500Y-30405000D01*
X186007500Y-26805000D02*
X177807499Y-26805000D01*
X181207500Y-30405000D02*
G75*
G03*
X178991182Y-32283529I-65000J-2170000D01*
G01*
X177807499Y-26805000D02*
G75*
G03*
X175707500Y-28705001I-99999J-2000000D01*
G01*
D15*
X180807500Y-30005000D02*
G75*
G03*
X178591182Y-31883529I-65000J-2170000D01*
G01*
D14*
X176157500Y-32105000D02*
X178607500Y-32105000D01*
D17*
X185857500Y-27005000D02*
X184607500Y-27005000D01*
D11*
X270814500Y-50725000D02*
X270814500Y-50075000D01*
D12*
X271314500Y-53175000D02*
X271314500Y-51375001D01*
D13*
X272444500Y-49675000D02*
X272444500Y-51915000D01*
D14*
X280814500Y-51525000D02*
X279514500Y-51475000D01*
D15*
X280514500Y-48775000D02*
X280514500Y-51275000D01*
D16*
X279214500Y-49975000D02*
X272514500Y-49975000D01*
D10*
X281014500Y-51775000D02*
X281014500Y-48175000D01*
X280994500Y-50775000D02*
X280994500Y-48525000D01*
X270714500Y-50825000D02*
X270914500Y-50825000D01*
X270964500Y-49225000D02*
X270964500Y-53675000D01*
X270714500Y-50075000D02*
X270714500Y-50825000D01*
X270964500Y-53675000D02*
X273994500Y-53675000D01*
X276214500Y-51775000D02*
X281014500Y-51775000D01*
X281014500Y-48175000D02*
X272814499Y-48175000D01*
X276214500Y-51775000D02*
G75*
G03*
X273998182Y-53653529I-65000J-2170000D01*
G01*
X272814499Y-48175000D02*
G75*
G03*
X270714500Y-50075001I-99999J-2000000D01*
G01*
D15*
X275814500Y-51375000D02*
G75*
G03*
X273598182Y-53253529I-65000J-2170000D01*
G01*
D14*
X271164500Y-53475000D02*
X273614500Y-53475000D01*
D17*
X280864500Y-48375000D02*
X279614500Y-48375000D01*
D11*
X251814500Y-50725000D02*
X251814500Y-50075000D01*
D12*
X252314500Y-53175000D02*
X252314500Y-51375001D01*
D13*
X253444500Y-49675000D02*
X253444500Y-51915000D01*
D14*
X261814500Y-51525000D02*
X260514500Y-51475000D01*
D15*
X261514500Y-48775000D02*
X261514500Y-51275000D01*
D16*
X260214500Y-49975000D02*
X253514500Y-49975000D01*
D10*
X262014500Y-51775000D02*
X262014500Y-48175000D01*
X261994500Y-50775000D02*
X261994500Y-48525000D01*
X251714500Y-50825000D02*
X251914500Y-50825000D01*
X251964500Y-49225000D02*
X251964500Y-53675000D01*
X251714500Y-50075000D02*
X251714500Y-50825000D01*
X251964500Y-53675000D02*
X254994500Y-53675000D01*
X257214500Y-51775000D02*
X262014500Y-51775000D01*
X262014500Y-48175000D02*
X253814499Y-48175000D01*
X257214500Y-51775000D02*
G75*
G03*
X254998182Y-53653529I-65000J-2170000D01*
G01*
X253814499Y-48175000D02*
G75*
G03*
X251714500Y-50075001I-99999J-2000000D01*
G01*
D15*
X256814500Y-51375000D02*
G75*
G03*
X254598182Y-53253529I-65000J-2170000D01*
G01*
D14*
X252164500Y-53475000D02*
X254614500Y-53475000D01*
D17*
X261864500Y-48375000D02*
X260614500Y-48375000D01*
D11*
X232814500Y-45975000D02*
X232814500Y-45325000D01*
D12*
X233314500Y-48425000D02*
X233314500Y-46625001D01*
D13*
X234444500Y-44925000D02*
X234444500Y-47165000D01*
D14*
X242814500Y-46775000D02*
X241514500Y-46725000D01*
D15*
X242514500Y-44025000D02*
X242514500Y-46525000D01*
D16*
X241214500Y-45225000D02*
X234514500Y-45225000D01*
D10*
X243014500Y-47025000D02*
X243014500Y-43425000D01*
X242994500Y-46025000D02*
X242994500Y-43775000D01*
X232714500Y-46075000D02*
X232914500Y-46075000D01*
X232964500Y-44475000D02*
X232964500Y-48925000D01*
X232714500Y-45325000D02*
X232714500Y-46075000D01*
X232964500Y-48925000D02*
X235994500Y-48925000D01*
X238214500Y-47025000D02*
X243014500Y-47025000D01*
X243014500Y-43425000D02*
X234814499Y-43425000D01*
X238214500Y-47025000D02*
G75*
G03*
X235998182Y-48903529I-65000J-2170000D01*
G01*
X234814499Y-43425000D02*
G75*
G03*
X232714500Y-45325001I-99999J-2000000D01*
G01*
D15*
X237814500Y-46625000D02*
G75*
G03*
X235598182Y-48503529I-65000J-2170000D01*
G01*
D14*
X233164500Y-48725000D02*
X235614500Y-48725000D01*
D17*
X242864500Y-43625000D02*
X241614500Y-43625000D01*
D11*
X213814500Y-43600000D02*
X213814500Y-42950000D01*
D12*
X214314500Y-46050000D02*
X214314500Y-44250001D01*
D13*
X215444500Y-42550000D02*
X215444500Y-44790000D01*
D14*
X223814500Y-44400000D02*
X222514500Y-44350000D01*
D15*
X223514500Y-41650000D02*
X223514500Y-44150000D01*
D16*
X222214500Y-42850000D02*
X215514500Y-42850000D01*
D10*
X224014500Y-44650000D02*
X224014500Y-41050000D01*
X223994500Y-43650000D02*
X223994500Y-41400000D01*
X213714500Y-43700000D02*
X213914500Y-43700000D01*
X213964500Y-42100000D02*
X213964500Y-46550000D01*
X213714500Y-42950000D02*
X213714500Y-43700000D01*
X213964500Y-46550000D02*
X216994500Y-46550000D01*
X219214500Y-44650000D02*
X224014500Y-44650000D01*
X224014500Y-41050000D02*
X215814499Y-41050000D01*
X219214500Y-44650000D02*
G75*
G03*
X216998182Y-46528529I-65000J-2170000D01*
G01*
X215814499Y-41050000D02*
G75*
G03*
X213714500Y-42950001I-99999J-2000000D01*
G01*
D15*
X218814500Y-44250000D02*
G75*
G03*
X216598182Y-46128529I-65000J-2170000D01*
G01*
D14*
X214164500Y-46350000D02*
X216614500Y-46350000D01*
D17*
X223864500Y-41250000D02*
X222614500Y-41250000D01*
D11*
X194814500Y-45975000D02*
X194814500Y-45325000D01*
D12*
X195314500Y-48425000D02*
X195314500Y-46625001D01*
D13*
X196444500Y-44925000D02*
X196444500Y-47165000D01*
D14*
X204814500Y-46775000D02*
X203514500Y-46725000D01*
D15*
X204514500Y-44025000D02*
X204514500Y-46525000D01*
D16*
X203214500Y-45225000D02*
X196514500Y-45225000D01*
D10*
X205014500Y-47025000D02*
X205014500Y-43425000D01*
X204994500Y-46025000D02*
X204994500Y-43775000D01*
X194714500Y-46075000D02*
X194914500Y-46075000D01*
X194964500Y-44475000D02*
X194964500Y-48925000D01*
X194714500Y-45325000D02*
X194714500Y-46075000D01*
X194964500Y-48925000D02*
X197994500Y-48925000D01*
X200214500Y-47025000D02*
X205014500Y-47025000D01*
X205014500Y-43425000D02*
X196814499Y-43425000D01*
X200214500Y-47025000D02*
G75*
G03*
X197998182Y-48903529I-65000J-2170000D01*
G01*
X196814499Y-43425000D02*
G75*
G03*
X194714500Y-45325001I-99999J-2000000D01*
G01*
D15*
X199814500Y-46625000D02*
G75*
G03*
X197598182Y-48503529I-65000J-2170000D01*
G01*
D14*
X195164500Y-48725000D02*
X197614500Y-48725000D01*
D17*
X204864500Y-43625000D02*
X203614500Y-43625000D01*
D11*
X270814500Y-69725000D02*
X270814500Y-69075000D01*
D12*
X271314500Y-72175000D02*
X271314500Y-70375001D01*
D13*
X272444500Y-68675000D02*
X272444500Y-70915000D01*
D14*
X280814500Y-70525000D02*
X279514500Y-70475000D01*
D15*
X280514500Y-67775000D02*
X280514500Y-70275000D01*
D16*
X279214500Y-68975000D02*
X272514500Y-68975000D01*
D10*
X281014500Y-70775000D02*
X281014500Y-67175000D01*
X280994500Y-69775000D02*
X280994500Y-67525000D01*
X270714500Y-69825000D02*
X270914500Y-69825000D01*
X270964500Y-68225000D02*
X270964500Y-72675000D01*
X270714500Y-69075000D02*
X270714500Y-69825000D01*
X270964500Y-72675000D02*
X273994500Y-72675000D01*
X276214500Y-70775000D02*
X281014500Y-70775000D01*
X281014500Y-67175000D02*
X272814499Y-67175000D01*
X276214500Y-70775000D02*
G75*
G03*
X273998182Y-72653529I-65000J-2170000D01*
G01*
X272814499Y-67175000D02*
G75*
G03*
X270714500Y-69075001I-99999J-2000000D01*
G01*
D15*
X275814500Y-70375000D02*
G75*
G03*
X273598182Y-72253529I-65000J-2170000D01*
G01*
D14*
X271164500Y-72475000D02*
X273614500Y-72475000D01*
D17*
X280864500Y-67375000D02*
X279614500Y-67375000D01*
D11*
X232814500Y-64975000D02*
X232814500Y-64325000D01*
D12*
X233314500Y-67425000D02*
X233314500Y-65625001D01*
D13*
X234444500Y-63925000D02*
X234444500Y-66165000D01*
D14*
X242814500Y-65775000D02*
X241514500Y-65725000D01*
D15*
X242514500Y-63025000D02*
X242514500Y-65525000D01*
D16*
X241214500Y-64225000D02*
X234514500Y-64225000D01*
D10*
X243014500Y-66025000D02*
X243014500Y-62425000D01*
X242994500Y-65025000D02*
X242994500Y-62775000D01*
X232714500Y-65075000D02*
X232914500Y-65075000D01*
X232964500Y-63475000D02*
X232964500Y-67925000D01*
X232714500Y-64325000D02*
X232714500Y-65075000D01*
X232964500Y-67925000D02*
X235994500Y-67925000D01*
X238214500Y-66025000D02*
X243014500Y-66025000D01*
X243014500Y-62425000D02*
X234814499Y-62425000D01*
X238214500Y-66025000D02*
G75*
G03*
X235998182Y-67903529I-65000J-2170000D01*
G01*
X234814499Y-62425000D02*
G75*
G03*
X232714500Y-64325001I-99999J-2000000D01*
G01*
D15*
X237814500Y-65625000D02*
G75*
G03*
X235598182Y-67503529I-65000J-2170000D01*
G01*
D14*
X233164500Y-67725000D02*
X235614500Y-67725000D01*
D17*
X242864500Y-62625000D02*
X241614500Y-62625000D01*
D11*
X194814500Y-64975000D02*
X194814500Y-64325000D01*
D12*
X195314500Y-67425000D02*
X195314500Y-65625001D01*
D13*
X196444500Y-63925000D02*
X196444500Y-66165000D01*
D14*
X204814500Y-65775000D02*
X203514500Y-65725000D01*
D15*
X204514500Y-63025000D02*
X204514500Y-65525000D01*
D16*
X203214500Y-64225000D02*
X196514500Y-64225000D01*
D10*
X205014500Y-66025000D02*
X205014500Y-62425000D01*
X204994500Y-65025000D02*
X204994500Y-62775000D01*
X194714500Y-65075000D02*
X194914500Y-65075000D01*
X194964500Y-63475000D02*
X194964500Y-67925000D01*
X194714500Y-64325000D02*
X194714500Y-65075000D01*
X194964500Y-67925000D02*
X197994500Y-67925000D01*
X200214500Y-66025000D02*
X205014500Y-66025000D01*
X205014500Y-62425000D02*
X196814499Y-62425000D01*
X200214500Y-66025000D02*
G75*
G03*
X197998182Y-67903529I-65000J-2170000D01*
G01*
X196814499Y-62425000D02*
G75*
G03*
X194714500Y-64325001I-99999J-2000000D01*
G01*
D15*
X199814500Y-65625000D02*
G75*
G03*
X197598182Y-67503529I-65000J-2170000D01*
G01*
D14*
X195164500Y-67725000D02*
X197614500Y-67725000D01*
D17*
X204864500Y-62625000D02*
X203614500Y-62625000D01*
D11*
X204314500Y-84600000D02*
X204314500Y-83950000D01*
D12*
X204814500Y-87050000D02*
X204814500Y-85250001D01*
D13*
X205944500Y-83550000D02*
X205944500Y-85790000D01*
D14*
X214314500Y-85400000D02*
X213014500Y-85350000D01*
D15*
X214014500Y-82650000D02*
X214014500Y-85150000D01*
D16*
X212714500Y-83850000D02*
X206014500Y-83850000D01*
D10*
X214514500Y-85650000D02*
X214514500Y-82050000D01*
X214494500Y-84650000D02*
X214494500Y-82400000D01*
X204214500Y-84700000D02*
X204414500Y-84700000D01*
X204464500Y-83100000D02*
X204464500Y-87550000D01*
X204214500Y-83950000D02*
X204214500Y-84700000D01*
X204464500Y-87550000D02*
X207494500Y-87550000D01*
X209714500Y-85650000D02*
X214514500Y-85650000D01*
X214514500Y-82050000D02*
X206314499Y-82050000D01*
X209714500Y-85650000D02*
G75*
G03*
X207498182Y-87528529I-65000J-2170000D01*
G01*
X206314499Y-82050000D02*
G75*
G03*
X204214500Y-83950001I-99999J-2000000D01*
G01*
D15*
X209314500Y-85250000D02*
G75*
G03*
X207098182Y-87128529I-65000J-2170000D01*
G01*
D14*
X204664500Y-87350000D02*
X207114500Y-87350000D01*
D17*
X214364500Y-82250000D02*
X213114500Y-82250000D01*
D11*
X182463913Y-88989151D02*
X182295681Y-88361299D01*
D12*
X183580983Y-91226260D02*
X183115109Y-89487594D01*
D13*
X183766612Y-87553054D02*
X184346367Y-89716728D01*
D14*
X192330227Y-87173701D02*
X191061582Y-87461870D01*
D15*
X191328696Y-84595051D02*
X191975744Y-87009865D01*
D16*
X190383576Y-86090627D02*
X183911873Y-87824714D01*
D10*
X192588117Y-87363419D02*
X191656368Y-83886086D01*
X192309979Y-86402669D02*
X191727636Y-84229336D01*
X182393202Y-89111625D02*
X182586388Y-89059862D01*
X182220573Y-87501439D02*
X183372318Y-91799809D01*
X182199088Y-88387181D02*
X182393202Y-89111625D01*
X183372318Y-91799809D02*
X186299073Y-91015587D01*
X187951673Y-88605750D02*
X192588117Y-87363419D01*
X191656368Y-83886086D02*
X183735775Y-86008402D01*
X187951673Y-88605750D02*
G75*
G03*
X186297073Y-90993895I498852J-2112882D01*
G01*
X183735775Y-86008401D02*
G75*
G03*
X182199088Y-88387182I421047J-1957734D01*
G01*
D15*
X187461775Y-88322908D02*
G75*
G03*
X185807175Y-90711052I498852J-2112882D01*
G01*
D14*
X183513739Y-91554860D02*
X185880258Y-90920754D01*
D17*
X191563243Y-84118094D02*
X190355836Y-84441618D01*
G36*
X236528505Y-79808211D02*
G01*
X236698176Y-79814616D01*
X236830522Y-79833282D01*
X236936545Y-79867569D01*
X237027248Y-79920836D01*
X237113636Y-79996442D01*
X237195900Y-80078707D01*
X237195900Y-79820800D01*
X237627700Y-79820800D01*
X237627700Y-82081400D01*
X237195900Y-82081400D01*
X237195900Y-81412910D01*
X237195874Y-81356907D01*
X237194783Y-81132585D01*
X237191223Y-80951327D01*
X237184004Y-80806805D01*
X237171933Y-80692689D01*
X237153821Y-80602652D01*
X237128477Y-80530365D01*
X237094709Y-80469501D01*
X237051327Y-80413731D01*
X236997140Y-80356726D01*
X236917236Y-80286472D01*
X236805138Y-80221694D01*
X236675159Y-80186817D01*
X236512688Y-80176400D01*
X236458220Y-80177999D01*
X236289897Y-80207984D01*
X236154470Y-80275106D01*
X236053563Y-80378307D01*
X235988803Y-80516534D01*
X235980905Y-80547809D01*
X235970781Y-80610037D01*
X235963078Y-80693882D01*
X235957537Y-80805177D01*
X235953900Y-80949758D01*
X235951907Y-81133457D01*
X235951300Y-81362110D01*
X235951300Y-82081400D01*
X235519500Y-82081400D01*
X235519692Y-81414650D01*
X235520373Y-81265353D01*
X235522926Y-81081330D01*
X235527097Y-80912049D01*
X235532597Y-80766525D01*
X235539136Y-80653770D01*
X235546425Y-80582800D01*
X235557832Y-80520354D01*
X235621121Y-80311378D01*
X235718452Y-80138673D01*
X235851702Y-79999513D01*
X236022749Y-79891171D01*
X236076930Y-79865005D01*
X236140699Y-79838181D01*
X236201010Y-79821455D01*
X236271425Y-79812451D01*
X236365509Y-79808791D01*
X236496826Y-79808100D01*
X236528505Y-79808211D01*
G37*
D19*
X236528505Y-79808211D02*
X236698176Y-79814616D01*
X236830522Y-79833282D01*
X236936545Y-79867569D01*
X237027248Y-79920836D01*
X237113636Y-79996442D01*
X237195900Y-80078707D01*
X237195900Y-79820800D01*
X237627700Y-79820800D01*
X237627700Y-82081400D01*
X237195900Y-82081400D01*
X237195900Y-81412910D01*
X237195874Y-81356907D01*
X237194783Y-81132585D01*
X237191223Y-80951327D01*
X237184004Y-80806805D01*
X237171933Y-80692689D01*
X237153821Y-80602652D01*
X237128477Y-80530365D01*
X237094709Y-80469501D01*
X237051327Y-80413731D01*
X236997140Y-80356726D01*
X236917236Y-80286472D01*
X236805138Y-80221694D01*
X236675159Y-80186817D01*
X236512688Y-80176400D01*
X236458220Y-80177999D01*
X236289897Y-80207984D01*
X236154470Y-80275106D01*
X236053563Y-80378307D01*
X235988803Y-80516534D01*
X235980905Y-80547809D01*
X235970781Y-80610037D01*
X235963078Y-80693882D01*
X235957537Y-80805177D01*
X235953900Y-80949758D01*
X235951907Y-81133457D01*
X235951300Y-81362110D01*
X235951300Y-82081400D01*
X235519500Y-82081400D01*
X235519692Y-81414650D01*
X235520373Y-81265353D01*
X235522926Y-81081330D01*
X235527097Y-80912049D01*
X235532597Y-80766525D01*
X235539136Y-80653770D01*
X235546425Y-80582800D01*
X235557832Y-80520354D01*
X235621121Y-80311378D01*
X235718452Y-80138673D01*
X235851702Y-79999513D01*
X236022749Y-79891171D01*
X236076930Y-79865005D01*
X236140699Y-79838181D01*
X236201010Y-79821455D01*
X236271425Y-79812451D01*
X236365509Y-79808791D01*
X236496826Y-79808100D01*
X236528505Y-79808211D01*
G36*
X238263958Y-79789536D02*
G01*
X238437202Y-79831267D01*
X238589054Y-79902357D01*
X238707231Y-79998946D01*
X238758000Y-80055358D01*
X238783400Y-79833500D01*
X238992950Y-79826122D01*
X239202500Y-79818745D01*
X239202500Y-82081400D01*
X238770700Y-82081400D01*
X238770700Y-80688838D01*
X238687611Y-80527869D01*
X238638734Y-80446179D01*
X238517119Y-80311056D01*
X238368548Y-80215922D01*
X238199149Y-80164139D01*
X238015050Y-80159068D01*
X237881700Y-80172729D01*
X237881700Y-79801961D01*
X238027763Y-79785436D01*
X238081610Y-79781025D01*
X238263958Y-79789536D01*
G37*
X238263958Y-79789536D02*
X238437202Y-79831267D01*
X238589054Y-79902357D01*
X238707231Y-79998946D01*
X238758000Y-80055358D01*
X238783400Y-79833500D01*
X238992950Y-79826122D01*
X239202500Y-79818745D01*
X239202500Y-82081400D01*
X238770700Y-82081400D01*
X238770700Y-80688838D01*
X238687611Y-80527869D01*
X238638734Y-80446179D01*
X238517119Y-80311056D01*
X238368548Y-80215922D01*
X238199149Y-80164139D01*
X238015050Y-80159068D01*
X237881700Y-80172729D01*
X237881700Y-79801961D01*
X238027763Y-79785436D01*
X238081610Y-79781025D01*
X238263958Y-79789536D01*
G36*
X235267692Y-80998242D02*
G01*
X235237156Y-81248299D01*
X235217999Y-81325249D01*
X235131626Y-81537590D01*
X235004175Y-81725554D01*
X234840575Y-81884023D01*
X234645755Y-82007879D01*
X234424643Y-82092004D01*
X234213327Y-82128535D01*
X233972404Y-82125509D01*
X233735698Y-82078237D01*
X233513010Y-81988773D01*
X233314143Y-81859173D01*
X233283956Y-81832746D01*
X233201226Y-81744606D01*
X233121501Y-81641086D01*
X233056583Y-81538398D01*
X233018270Y-81452750D01*
X233012581Y-81429182D01*
X233017590Y-81410133D01*
X233044967Y-81400122D01*
X233104189Y-81396246D01*
X233204732Y-81395600D01*
X233407987Y-81395600D01*
X233543807Y-81531419D01*
X233658505Y-81630614D01*
X233796197Y-81706329D01*
X233949871Y-81743127D01*
X234132128Y-81745596D01*
X234145096Y-81744683D01*
X234305758Y-81719647D01*
X234441612Y-81668239D01*
X234530789Y-81614256D01*
X234651357Y-81510298D01*
X234747345Y-81389172D01*
X234810783Y-81261649D01*
X234833700Y-81138498D01*
X234833700Y-81065400D01*
X232928700Y-81065400D01*
X232928700Y-80918336D01*
X232944557Y-80722678D01*
X232958648Y-80670688D01*
X233385900Y-80670688D01*
X233385903Y-80671014D01*
X233391212Y-80682444D01*
X233410241Y-80691420D01*
X233448288Y-80698229D01*
X233510649Y-80703158D01*
X233602621Y-80706494D01*
X233729501Y-80708521D01*
X233896586Y-80709528D01*
X234109172Y-80709800D01*
X234832443Y-80709800D01*
X234808235Y-80646127D01*
X234727851Y-80486797D01*
X234608974Y-80345486D01*
X234462440Y-80243844D01*
X234370702Y-80208039D01*
X234211572Y-80176960D01*
X234040767Y-80172014D01*
X233876653Y-80193277D01*
X233737597Y-80240826D01*
X233734539Y-80242383D01*
X233634752Y-80308195D01*
X233540348Y-80395722D01*
X233460975Y-80493173D01*
X233406277Y-80588758D01*
X233385900Y-80670688D01*
X232958648Y-80670688D01*
X233004596Y-80501162D01*
X233105441Y-80302524D01*
X233242921Y-80130847D01*
X233412867Y-79990213D01*
X233611106Y-79884705D01*
X233833470Y-79818406D01*
X234075787Y-79795400D01*
X234295074Y-79809901D01*
X234492397Y-79856746D01*
X234687001Y-79940689D01*
X234799892Y-80008672D01*
X234968921Y-80154563D01*
X235102394Y-80331643D01*
X235198133Y-80534735D01*
X235241778Y-80709800D01*
X235253959Y-80758661D01*
X235267692Y-80998242D01*
G37*
X235267692Y-80998242D02*
X235237156Y-81248299D01*
X235217999Y-81325249D01*
X235131626Y-81537590D01*
X235004175Y-81725554D01*
X234840575Y-81884023D01*
X234645755Y-82007879D01*
X234424643Y-82092004D01*
X234213327Y-82128535D01*
X233972404Y-82125509D01*
X233735698Y-82078237D01*
X233513010Y-81988773D01*
X233314143Y-81859173D01*
X233283956Y-81832746D01*
X233201226Y-81744606D01*
X233121501Y-81641086D01*
X233056583Y-81538398D01*
X233018270Y-81452750D01*
X233012581Y-81429182D01*
X233017590Y-81410133D01*
X233044967Y-81400122D01*
X233104189Y-81396246D01*
X233204732Y-81395600D01*
X233407987Y-81395600D01*
X233543807Y-81531419D01*
X233658505Y-81630614D01*
X233796197Y-81706329D01*
X233949871Y-81743127D01*
X234132128Y-81745596D01*
X234145096Y-81744683D01*
X234305758Y-81719647D01*
X234441612Y-81668239D01*
X234530789Y-81614256D01*
X234651357Y-81510298D01*
X234747345Y-81389172D01*
X234810783Y-81261649D01*
X234833700Y-81138498D01*
X234833700Y-81065400D01*
X232928700Y-81065400D01*
X232928700Y-80918336D01*
X232944557Y-80722678D01*
X232958648Y-80670688D01*
X233385900Y-80670688D01*
X233385903Y-80671014D01*
X233391212Y-80682444D01*
X233410241Y-80691420D01*
X233448288Y-80698229D01*
X233510649Y-80703158D01*
X233602621Y-80706494D01*
X233729501Y-80708521D01*
X233896586Y-80709528D01*
X234109172Y-80709800D01*
X234832443Y-80709800D01*
X234808235Y-80646127D01*
X234727851Y-80486797D01*
X234608974Y-80345486D01*
X234462440Y-80243844D01*
X234370702Y-80208039D01*
X234211572Y-80176960D01*
X234040767Y-80172014D01*
X233876653Y-80193277D01*
X233737597Y-80240826D01*
X233734539Y-80242383D01*
X233634752Y-80308195D01*
X233540348Y-80395722D01*
X233460975Y-80493173D01*
X233406277Y-80588758D01*
X233385900Y-80670688D01*
X232958648Y-80670688D01*
X233004596Y-80501162D01*
X233105441Y-80302524D01*
X233242921Y-80130847D01*
X233412867Y-79990213D01*
X233611106Y-79884705D01*
X233833470Y-79818406D01*
X234075787Y-79795400D01*
X234295074Y-79809901D01*
X234492397Y-79856746D01*
X234687001Y-79940689D01*
X234799892Y-80008672D01*
X234968921Y-80154563D01*
X235102394Y-80331643D01*
X235198133Y-80534735D01*
X235241778Y-80709800D01*
X235253959Y-80758661D01*
X235267692Y-80998242D01*
G36*
X241908849Y-81253876D02*
G01*
X241874663Y-81378102D01*
X241836318Y-81480895D01*
X241785444Y-81575986D01*
X241654845Y-81745635D01*
X241487879Y-81893093D01*
X241293147Y-82011401D01*
X241079247Y-82093599D01*
X241046426Y-82101729D01*
X240900940Y-82121650D01*
X240731219Y-82126287D01*
X240555665Y-82116467D01*
X240392679Y-82093019D01*
X240260660Y-82056770D01*
X240185759Y-82025421D01*
X239977321Y-81906769D01*
X239800725Y-81756574D01*
X239661481Y-81580172D01*
X239565095Y-81382900D01*
X239562144Y-81374275D01*
X239534957Y-81252551D01*
X239519975Y-81100313D01*
X239518028Y-80992298D01*
X239923007Y-80992298D01*
X239944990Y-81169401D01*
X239997980Y-81325466D01*
X240002413Y-81334341D01*
X240109590Y-81490677D01*
X240254056Y-81614347D01*
X240431336Y-81701468D01*
X240543896Y-81732243D01*
X240747311Y-81748463D01*
X240952302Y-81718118D01*
X241149042Y-81642020D01*
X241155826Y-81638365D01*
X241249822Y-81567702D01*
X241343805Y-81466333D01*
X241424206Y-81350941D01*
X241477459Y-81238207D01*
X241497591Y-81156866D01*
X241511926Y-81009224D01*
X241506567Y-80852526D01*
X241482581Y-80705807D01*
X241441035Y-80588101D01*
X241336055Y-80434360D01*
X241202066Y-80315270D01*
X241046876Y-80231522D01*
X240877851Y-80182949D01*
X240702358Y-80169386D01*
X240527764Y-80190666D01*
X240361436Y-80246623D01*
X240210739Y-80337092D01*
X240083042Y-80461906D01*
X239985711Y-80620900D01*
X239973379Y-80650421D01*
X239932361Y-80813017D01*
X239923007Y-80992298D01*
X239518028Y-80992298D01*
X239516970Y-80933580D01*
X239525715Y-80768371D01*
X239545982Y-80620705D01*
X239577544Y-80506600D01*
X239642092Y-80371816D01*
X239775675Y-80183222D01*
X239943825Y-80029865D01*
X240143475Y-79913807D01*
X240371560Y-79837111D01*
X240625014Y-79801840D01*
X240801095Y-79799147D01*
X240986970Y-79817281D01*
X241158295Y-79862053D01*
X241332581Y-79936803D01*
X241376640Y-79960069D01*
X241565313Y-80092687D01*
X241718643Y-80258365D01*
X241834150Y-80452052D01*
X241909350Y-80668693D01*
X241941762Y-80903236D01*
X241936252Y-81009224D01*
X241928901Y-81150628D01*
X241908849Y-81253876D01*
G37*
X241908849Y-81253876D02*
X241874663Y-81378102D01*
X241836318Y-81480895D01*
X241785444Y-81575986D01*
X241654845Y-81745635D01*
X241487879Y-81893093D01*
X241293147Y-82011401D01*
X241079247Y-82093599D01*
X241046426Y-82101729D01*
X240900940Y-82121650D01*
X240731219Y-82126287D01*
X240555665Y-82116467D01*
X240392679Y-82093019D01*
X240260660Y-82056770D01*
X240185759Y-82025421D01*
X239977321Y-81906769D01*
X239800725Y-81756574D01*
X239661481Y-81580172D01*
X239565095Y-81382900D01*
X239562144Y-81374275D01*
X239534957Y-81252551D01*
X239519975Y-81100313D01*
X239518028Y-80992298D01*
X239923007Y-80992298D01*
X239944990Y-81169401D01*
X239997980Y-81325466D01*
X240002413Y-81334341D01*
X240109590Y-81490677D01*
X240254056Y-81614347D01*
X240431336Y-81701468D01*
X240543896Y-81732243D01*
X240747311Y-81748463D01*
X240952302Y-81718118D01*
X241149042Y-81642020D01*
X241155826Y-81638365D01*
X241249822Y-81567702D01*
X241343805Y-81466333D01*
X241424206Y-81350941D01*
X241477459Y-81238207D01*
X241497591Y-81156866D01*
X241511926Y-81009224D01*
X241506567Y-80852526D01*
X241482581Y-80705807D01*
X241441035Y-80588101D01*
X241336055Y-80434360D01*
X241202066Y-80315270D01*
X241046876Y-80231522D01*
X240877851Y-80182949D01*
X240702358Y-80169386D01*
X240527764Y-80190666D01*
X240361436Y-80246623D01*
X240210739Y-80337092D01*
X240083042Y-80461906D01*
X239985711Y-80620900D01*
X239973379Y-80650421D01*
X239932361Y-80813017D01*
X239923007Y-80992298D01*
X239518028Y-80992298D01*
X239516970Y-80933580D01*
X239525715Y-80768371D01*
X239545982Y-80620705D01*
X239577544Y-80506600D01*
X239642092Y-80371816D01*
X239775675Y-80183222D01*
X239943825Y-80029865D01*
X240143475Y-79913807D01*
X240371560Y-79837111D01*
X240625014Y-79801840D01*
X240801095Y-79799147D01*
X240986970Y-79817281D01*
X241158295Y-79862053D01*
X241332581Y-79936803D01*
X241376640Y-79960069D01*
X241565313Y-80092687D01*
X241718643Y-80258365D01*
X241834150Y-80452052D01*
X241909350Y-80668693D01*
X241941762Y-80903236D01*
X241936252Y-81009224D01*
X241928901Y-81150628D01*
X241908849Y-81253876D01*
G36*
X243383745Y-79801892D02*
G01*
X243567717Y-79825914D01*
X243723700Y-79869802D01*
X243726931Y-79871085D01*
X243931124Y-79978316D01*
X244110238Y-80124026D01*
X244256503Y-80300543D01*
X244362149Y-80500197D01*
X244381770Y-80553494D01*
X244401202Y-80625236D01*
X244412879Y-80706188D01*
X244418581Y-80810194D01*
X244420086Y-80951100D01*
X244415707Y-81120430D01*
X244398309Y-81272138D01*
X244363730Y-81402887D01*
X244307840Y-81527841D01*
X244226511Y-81662165D01*
X244159617Y-81747289D01*
X244020240Y-81872860D01*
X243850549Y-81980877D01*
X243662913Y-82063943D01*
X243469700Y-82114664D01*
X243274182Y-82130194D01*
X243040440Y-82107913D01*
X242813593Y-82044811D01*
X242604736Y-81944131D01*
X242424962Y-81809119D01*
X242386071Y-81768876D01*
X242311631Y-81674041D01*
X242240622Y-81564252D01*
X242180576Y-81452781D01*
X242139025Y-81352902D01*
X242123500Y-81277887D01*
X242125003Y-81252594D01*
X242136505Y-81232992D01*
X242168216Y-81222620D01*
X242230332Y-81218561D01*
X242333050Y-81217895D01*
X242542600Y-81217990D01*
X242589233Y-81331389D01*
X242610816Y-81378106D01*
X242709026Y-81517622D01*
X242840210Y-81627291D01*
X242995928Y-81703785D01*
X243167741Y-81743773D01*
X243347211Y-81743926D01*
X243525898Y-81700915D01*
X243673221Y-81629303D01*
X243808096Y-81517138D01*
X243913825Y-81366531D01*
X243936887Y-81318322D01*
X243982741Y-81164327D01*
X244003427Y-80990402D01*
X243997644Y-80814924D01*
X243964093Y-80656267D01*
X243957895Y-80638547D01*
X243876047Y-80485526D01*
X243755984Y-80356089D01*
X243606435Y-80256221D01*
X243436131Y-80191910D01*
X243253801Y-80169142D01*
X243211915Y-80170461D01*
X243047136Y-80199854D01*
X242891537Y-80263012D01*
X242755362Y-80353503D01*
X242648857Y-80464894D01*
X242582267Y-80590754D01*
X242551361Y-80684399D01*
X242337431Y-80684400D01*
X242290471Y-80684343D01*
X242195888Y-80681149D01*
X242143202Y-80667261D01*
X242125917Y-80634761D01*
X242137536Y-80575731D01*
X242171563Y-80482254D01*
X242206218Y-80402188D01*
X242323778Y-80216988D01*
X242480707Y-80059036D01*
X242672150Y-79932639D01*
X242893252Y-79842102D01*
X243007951Y-79815988D01*
X243190813Y-79798372D01*
X243383745Y-79801892D01*
G37*
X243383745Y-79801892D02*
X243567717Y-79825914D01*
X243723700Y-79869802D01*
X243726931Y-79871085D01*
X243931124Y-79978316D01*
X244110238Y-80124026D01*
X244256503Y-80300543D01*
X244362149Y-80500197D01*
X244381770Y-80553494D01*
X244401202Y-80625236D01*
X244412879Y-80706188D01*
X244418581Y-80810194D01*
X244420086Y-80951100D01*
X244415707Y-81120430D01*
X244398309Y-81272138D01*
X244363730Y-81402887D01*
X244307840Y-81527841D01*
X244226511Y-81662165D01*
X244159617Y-81747289D01*
X244020240Y-81872860D01*
X243850549Y-81980877D01*
X243662913Y-82063943D01*
X243469700Y-82114664D01*
X243274182Y-82130194D01*
X243040440Y-82107913D01*
X242813593Y-82044811D01*
X242604736Y-81944131D01*
X242424962Y-81809119D01*
X242386071Y-81768876D01*
X242311631Y-81674041D01*
X242240622Y-81564252D01*
X242180576Y-81452781D01*
X242139025Y-81352902D01*
X242123500Y-81277887D01*
X242125003Y-81252594D01*
X242136505Y-81232992D01*
X242168216Y-81222620D01*
X242230332Y-81218561D01*
X242333050Y-81217895D01*
X242542600Y-81217990D01*
X242589233Y-81331389D01*
X242610816Y-81378106D01*
X242709026Y-81517622D01*
X242840210Y-81627291D01*
X242995928Y-81703785D01*
X243167741Y-81743773D01*
X243347211Y-81743926D01*
X243525898Y-81700915D01*
X243673221Y-81629303D01*
X243808096Y-81517138D01*
X243913825Y-81366531D01*
X243936887Y-81318322D01*
X243982741Y-81164327D01*
X244003427Y-80990402D01*
X243997644Y-80814924D01*
X243964093Y-80656267D01*
X243957895Y-80638547D01*
X243876047Y-80485526D01*
X243755984Y-80356089D01*
X243606435Y-80256221D01*
X243436131Y-80191910D01*
X243253801Y-80169142D01*
X243211915Y-80170461D01*
X243047136Y-80199854D01*
X242891537Y-80263012D01*
X242755362Y-80353503D01*
X242648857Y-80464894D01*
X242582267Y-80590754D01*
X242551361Y-80684399D01*
X242337431Y-80684400D01*
X242290471Y-80684343D01*
X242195888Y-80681149D01*
X242143202Y-80667261D01*
X242125917Y-80634761D01*
X242137536Y-80575731D01*
X242171563Y-80482254D01*
X242206218Y-80402188D01*
X242323778Y-80216988D01*
X242480707Y-80059036D01*
X242672150Y-79932639D01*
X242893252Y-79842102D01*
X243007951Y-79815988D01*
X243190813Y-79798372D01*
X243383745Y-79801892D01*
G36*
X62853745Y-79651892D02*
G01*
X63037717Y-79675914D01*
X63193700Y-79719802D01*
X63196931Y-79721085D01*
X63401124Y-79828316D01*
X63580238Y-79974026D01*
X63726503Y-80150543D01*
X63832149Y-80350197D01*
X63851770Y-80403494D01*
X63871202Y-80475236D01*
X63882879Y-80556188D01*
X63888581Y-80660194D01*
X63890086Y-80801100D01*
X63885707Y-80970430D01*
X63868309Y-81122138D01*
X63833730Y-81252887D01*
X63777840Y-81377841D01*
X63696511Y-81512165D01*
X63629617Y-81597289D01*
X63490240Y-81722860D01*
X63320549Y-81830877D01*
X63132913Y-81913943D01*
X62939700Y-81964664D01*
X62744182Y-81980194D01*
X62510440Y-81957913D01*
X62283593Y-81894811D01*
X62074736Y-81794131D01*
X61894962Y-81659119D01*
X61856071Y-81618876D01*
X61781631Y-81524041D01*
X61710622Y-81414252D01*
X61650576Y-81302781D01*
X61609025Y-81202902D01*
X61593500Y-81127887D01*
X61595003Y-81102594D01*
X61606505Y-81082992D01*
X61638216Y-81072620D01*
X61700332Y-81068561D01*
X61803050Y-81067895D01*
X62012600Y-81067990D01*
X62059233Y-81181389D01*
X62080816Y-81228106D01*
X62179026Y-81367622D01*
X62310210Y-81477291D01*
X62465928Y-81553785D01*
X62637741Y-81593773D01*
X62817211Y-81593926D01*
X62995898Y-81550915D01*
X63143221Y-81479303D01*
X63278096Y-81367138D01*
X63383825Y-81216531D01*
X63406887Y-81168322D01*
X63452741Y-81014327D01*
X63473427Y-80840402D01*
X63467644Y-80664924D01*
X63434093Y-80506267D01*
X63427895Y-80488547D01*
X63346047Y-80335526D01*
X63225984Y-80206089D01*
X63076435Y-80106221D01*
X62906131Y-80041910D01*
X62723801Y-80019142D01*
X62681915Y-80020461D01*
X62517136Y-80049854D01*
X62361537Y-80113012D01*
X62225362Y-80203503D01*
X62118857Y-80314894D01*
X62052267Y-80440754D01*
X62021361Y-80534399D01*
X61807431Y-80534400D01*
X61760471Y-80534343D01*
X61665888Y-80531149D01*
X61613202Y-80517261D01*
X61595917Y-80484761D01*
X61607536Y-80425731D01*
X61641563Y-80332254D01*
X61676218Y-80252188D01*
X61793778Y-80066988D01*
X61950707Y-79909036D01*
X62142150Y-79782639D01*
X62363252Y-79692102D01*
X62477951Y-79665988D01*
X62660813Y-79648372D01*
X62853745Y-79651892D01*
G37*
X62853745Y-79651892D02*
X63037717Y-79675914D01*
X63193700Y-79719802D01*
X63196931Y-79721085D01*
X63401124Y-79828316D01*
X63580238Y-79974026D01*
X63726503Y-80150543D01*
X63832149Y-80350197D01*
X63851770Y-80403494D01*
X63871202Y-80475236D01*
X63882879Y-80556188D01*
X63888581Y-80660194D01*
X63890086Y-80801100D01*
X63885707Y-80970430D01*
X63868309Y-81122138D01*
X63833730Y-81252887D01*
X63777840Y-81377841D01*
X63696511Y-81512165D01*
X63629617Y-81597289D01*
X63490240Y-81722860D01*
X63320549Y-81830877D01*
X63132913Y-81913943D01*
X62939700Y-81964664D01*
X62744182Y-81980194D01*
X62510440Y-81957913D01*
X62283593Y-81894811D01*
X62074736Y-81794131D01*
X61894962Y-81659119D01*
X61856071Y-81618876D01*
X61781631Y-81524041D01*
X61710622Y-81414252D01*
X61650576Y-81302781D01*
X61609025Y-81202902D01*
X61593500Y-81127887D01*
X61595003Y-81102594D01*
X61606505Y-81082992D01*
X61638216Y-81072620D01*
X61700332Y-81068561D01*
X61803050Y-81067895D01*
X62012600Y-81067990D01*
X62059233Y-81181389D01*
X62080816Y-81228106D01*
X62179026Y-81367622D01*
X62310210Y-81477291D01*
X62465928Y-81553785D01*
X62637741Y-81593773D01*
X62817211Y-81593926D01*
X62995898Y-81550915D01*
X63143221Y-81479303D01*
X63278096Y-81367138D01*
X63383825Y-81216531D01*
X63406887Y-81168322D01*
X63452741Y-81014327D01*
X63473427Y-80840402D01*
X63467644Y-80664924D01*
X63434093Y-80506267D01*
X63427895Y-80488547D01*
X63346047Y-80335526D01*
X63225984Y-80206089D01*
X63076435Y-80106221D01*
X62906131Y-80041910D01*
X62723801Y-80019142D01*
X62681915Y-80020461D01*
X62517136Y-80049854D01*
X62361537Y-80113012D01*
X62225362Y-80203503D01*
X62118857Y-80314894D01*
X62052267Y-80440754D01*
X62021361Y-80534399D01*
X61807431Y-80534400D01*
X61760471Y-80534343D01*
X61665888Y-80531149D01*
X61613202Y-80517261D01*
X61595917Y-80484761D01*
X61607536Y-80425731D01*
X61641563Y-80332254D01*
X61676218Y-80252188D01*
X61793778Y-80066988D01*
X61950707Y-79909036D01*
X62142150Y-79782639D01*
X62363252Y-79692102D01*
X62477951Y-79665988D01*
X62660813Y-79648372D01*
X62853745Y-79651892D01*
G36*
X61378849Y-81103876D02*
G01*
X61344663Y-81228102D01*
X61306318Y-81330895D01*
X61255444Y-81425986D01*
X61124845Y-81595635D01*
X60957879Y-81743093D01*
X60763147Y-81861401D01*
X60549247Y-81943599D01*
X60516426Y-81951729D01*
X60370940Y-81971650D01*
X60201219Y-81976287D01*
X60025665Y-81966467D01*
X59862679Y-81943019D01*
X59730660Y-81906770D01*
X59655759Y-81875421D01*
X59447321Y-81756769D01*
X59270725Y-81606574D01*
X59131481Y-81430172D01*
X59035095Y-81232900D01*
X59032144Y-81224275D01*
X59004957Y-81102551D01*
X58989975Y-80950313D01*
X58988028Y-80842298D01*
X59393007Y-80842298D01*
X59414990Y-81019401D01*
X59467980Y-81175466D01*
X59472413Y-81184341D01*
X59579590Y-81340677D01*
X59724056Y-81464347D01*
X59901336Y-81551468D01*
X60013896Y-81582243D01*
X60217311Y-81598463D01*
X60422302Y-81568118D01*
X60619042Y-81492020D01*
X60625826Y-81488365D01*
X60719822Y-81417702D01*
X60813805Y-81316333D01*
X60894206Y-81200941D01*
X60947459Y-81088207D01*
X60967591Y-81006866D01*
X60981926Y-80859224D01*
X60976567Y-80702526D01*
X60952581Y-80555807D01*
X60911035Y-80438101D01*
X60806055Y-80284360D01*
X60672066Y-80165270D01*
X60516876Y-80081522D01*
X60347851Y-80032949D01*
X60172358Y-80019386D01*
X59997764Y-80040666D01*
X59831436Y-80096623D01*
X59680739Y-80187092D01*
X59553042Y-80311906D01*
X59455711Y-80470900D01*
X59443379Y-80500421D01*
X59402361Y-80663017D01*
X59393007Y-80842298D01*
X58988028Y-80842298D01*
X58986970Y-80783580D01*
X58995715Y-80618371D01*
X59015982Y-80470705D01*
X59047544Y-80356600D01*
X59112092Y-80221816D01*
X59245675Y-80033222D01*
X59413825Y-79879865D01*
X59613475Y-79763807D01*
X59841560Y-79687111D01*
X60095014Y-79651840D01*
X60271095Y-79649147D01*
X60456970Y-79667281D01*
X60628295Y-79712053D01*
X60802581Y-79786803D01*
X60846640Y-79810069D01*
X61035313Y-79942687D01*
X61188643Y-80108365D01*
X61304150Y-80302052D01*
X61379350Y-80518693D01*
X61411762Y-80753236D01*
X61406252Y-80859224D01*
X61398901Y-81000628D01*
X61378849Y-81103876D01*
G37*
X61378849Y-81103876D02*
X61344663Y-81228102D01*
X61306318Y-81330895D01*
X61255444Y-81425986D01*
X61124845Y-81595635D01*
X60957879Y-81743093D01*
X60763147Y-81861401D01*
X60549247Y-81943599D01*
X60516426Y-81951729D01*
X60370940Y-81971650D01*
X60201219Y-81976287D01*
X60025665Y-81966467D01*
X59862679Y-81943019D01*
X59730660Y-81906770D01*
X59655759Y-81875421D01*
X59447321Y-81756769D01*
X59270725Y-81606574D01*
X59131481Y-81430172D01*
X59035095Y-81232900D01*
X59032144Y-81224275D01*
X59004957Y-81102551D01*
X58989975Y-80950313D01*
X58988028Y-80842298D01*
X59393007Y-80842298D01*
X59414990Y-81019401D01*
X59467980Y-81175466D01*
X59472413Y-81184341D01*
X59579590Y-81340677D01*
X59724056Y-81464347D01*
X59901336Y-81551468D01*
X60013896Y-81582243D01*
X60217311Y-81598463D01*
X60422302Y-81568118D01*
X60619042Y-81492020D01*
X60625826Y-81488365D01*
X60719822Y-81417702D01*
X60813805Y-81316333D01*
X60894206Y-81200941D01*
X60947459Y-81088207D01*
X60967591Y-81006866D01*
X60981926Y-80859224D01*
X60976567Y-80702526D01*
X60952581Y-80555807D01*
X60911035Y-80438101D01*
X60806055Y-80284360D01*
X60672066Y-80165270D01*
X60516876Y-80081522D01*
X60347851Y-80032949D01*
X60172358Y-80019386D01*
X59997764Y-80040666D01*
X59831436Y-80096623D01*
X59680739Y-80187092D01*
X59553042Y-80311906D01*
X59455711Y-80470900D01*
X59443379Y-80500421D01*
X59402361Y-80663017D01*
X59393007Y-80842298D01*
X58988028Y-80842298D01*
X58986970Y-80783580D01*
X58995715Y-80618371D01*
X59015982Y-80470705D01*
X59047544Y-80356600D01*
X59112092Y-80221816D01*
X59245675Y-80033222D01*
X59413825Y-79879865D01*
X59613475Y-79763807D01*
X59841560Y-79687111D01*
X60095014Y-79651840D01*
X60271095Y-79649147D01*
X60456970Y-79667281D01*
X60628295Y-79712053D01*
X60802581Y-79786803D01*
X60846640Y-79810069D01*
X61035313Y-79942687D01*
X61188643Y-80108365D01*
X61304150Y-80302052D01*
X61379350Y-80518693D01*
X61411762Y-80753236D01*
X61406252Y-80859224D01*
X61398901Y-81000628D01*
X61378849Y-81103876D01*
G36*
X54737692Y-80848242D02*
G01*
X54707156Y-81098299D01*
X54687999Y-81175249D01*
X54601626Y-81387590D01*
X54474175Y-81575554D01*
X54310575Y-81734023D01*
X54115755Y-81857879D01*
X53894643Y-81942004D01*
X53683327Y-81978535D01*
X53442404Y-81975509D01*
X53205698Y-81928237D01*
X52983010Y-81838773D01*
X52784143Y-81709173D01*
X52753956Y-81682746D01*
X52671226Y-81594606D01*
X52591501Y-81491086D01*
X52526583Y-81388398D01*
X52488270Y-81302750D01*
X52482581Y-81279182D01*
X52487590Y-81260133D01*
X52514967Y-81250122D01*
X52574189Y-81246246D01*
X52674732Y-81245600D01*
X52877987Y-81245600D01*
X53013807Y-81381419D01*
X53128505Y-81480614D01*
X53266197Y-81556329D01*
X53419871Y-81593127D01*
X53602128Y-81595596D01*
X53615096Y-81594683D01*
X53775758Y-81569647D01*
X53911612Y-81518239D01*
X54000789Y-81464256D01*
X54121357Y-81360298D01*
X54217345Y-81239172D01*
X54280783Y-81111649D01*
X54303700Y-80988498D01*
X54303700Y-80915400D01*
X52398700Y-80915400D01*
X52398700Y-80768336D01*
X52414557Y-80572678D01*
X52428648Y-80520688D01*
X52855900Y-80520688D01*
X52855903Y-80521014D01*
X52861212Y-80532444D01*
X52880241Y-80541420D01*
X52918288Y-80548229D01*
X52980649Y-80553158D01*
X53072621Y-80556494D01*
X53199501Y-80558521D01*
X53366586Y-80559528D01*
X53579172Y-80559800D01*
X54302443Y-80559800D01*
X54278235Y-80496127D01*
X54197851Y-80336797D01*
X54078974Y-80195486D01*
X53932440Y-80093844D01*
X53840702Y-80058039D01*
X53681572Y-80026960D01*
X53510767Y-80022014D01*
X53346653Y-80043277D01*
X53207597Y-80090826D01*
X53204539Y-80092383D01*
X53104752Y-80158195D01*
X53010348Y-80245722D01*
X52930975Y-80343173D01*
X52876277Y-80438758D01*
X52855900Y-80520688D01*
X52428648Y-80520688D01*
X52474596Y-80351162D01*
X52575441Y-80152524D01*
X52712921Y-79980847D01*
X52882867Y-79840213D01*
X53081106Y-79734705D01*
X53303470Y-79668406D01*
X53545787Y-79645400D01*
X53765074Y-79659901D01*
X53962397Y-79706746D01*
X54157001Y-79790689D01*
X54269892Y-79858672D01*
X54438921Y-80004563D01*
X54572394Y-80181643D01*
X54668133Y-80384735D01*
X54711778Y-80559800D01*
X54723959Y-80608661D01*
X54737692Y-80848242D01*
G37*
X54737692Y-80848242D02*
X54707156Y-81098299D01*
X54687999Y-81175249D01*
X54601626Y-81387590D01*
X54474175Y-81575554D01*
X54310575Y-81734023D01*
X54115755Y-81857879D01*
X53894643Y-81942004D01*
X53683327Y-81978535D01*
X53442404Y-81975509D01*
X53205698Y-81928237D01*
X52983010Y-81838773D01*
X52784143Y-81709173D01*
X52753956Y-81682746D01*
X52671226Y-81594606D01*
X52591501Y-81491086D01*
X52526583Y-81388398D01*
X52488270Y-81302750D01*
X52482581Y-81279182D01*
X52487590Y-81260133D01*
X52514967Y-81250122D01*
X52574189Y-81246246D01*
X52674732Y-81245600D01*
X52877987Y-81245600D01*
X53013807Y-81381419D01*
X53128505Y-81480614D01*
X53266197Y-81556329D01*
X53419871Y-81593127D01*
X53602128Y-81595596D01*
X53615096Y-81594683D01*
X53775758Y-81569647D01*
X53911612Y-81518239D01*
X54000789Y-81464256D01*
X54121357Y-81360298D01*
X54217345Y-81239172D01*
X54280783Y-81111649D01*
X54303700Y-80988498D01*
X54303700Y-80915400D01*
X52398700Y-80915400D01*
X52398700Y-80768336D01*
X52414557Y-80572678D01*
X52428648Y-80520688D01*
X52855900Y-80520688D01*
X52855903Y-80521014D01*
X52861212Y-80532444D01*
X52880241Y-80541420D01*
X52918288Y-80548229D01*
X52980649Y-80553158D01*
X53072621Y-80556494D01*
X53199501Y-80558521D01*
X53366586Y-80559528D01*
X53579172Y-80559800D01*
X54302443Y-80559800D01*
X54278235Y-80496127D01*
X54197851Y-80336797D01*
X54078974Y-80195486D01*
X53932440Y-80093844D01*
X53840702Y-80058039D01*
X53681572Y-80026960D01*
X53510767Y-80022014D01*
X53346653Y-80043277D01*
X53207597Y-80090826D01*
X53204539Y-80092383D01*
X53104752Y-80158195D01*
X53010348Y-80245722D01*
X52930975Y-80343173D01*
X52876277Y-80438758D01*
X52855900Y-80520688D01*
X52428648Y-80520688D01*
X52474596Y-80351162D01*
X52575441Y-80152524D01*
X52712921Y-79980847D01*
X52882867Y-79840213D01*
X53081106Y-79734705D01*
X53303470Y-79668406D01*
X53545787Y-79645400D01*
X53765074Y-79659901D01*
X53962397Y-79706746D01*
X54157001Y-79790689D01*
X54269892Y-79858672D01*
X54438921Y-80004563D01*
X54572394Y-80181643D01*
X54668133Y-80384735D01*
X54711778Y-80559800D01*
X54723959Y-80608661D01*
X54737692Y-80848242D01*
G36*
X57733958Y-79639536D02*
G01*
X57907202Y-79681267D01*
X58059054Y-79752357D01*
X58177231Y-79848946D01*
X58228000Y-79905358D01*
X58253400Y-79683500D01*
X58462950Y-79676122D01*
X58672500Y-79668745D01*
X58672500Y-81931400D01*
X58240700Y-81931400D01*
X58240700Y-80538838D01*
X58157611Y-80377869D01*
X58108734Y-80296179D01*
X57987119Y-80161056D01*
X57838548Y-80065922D01*
X57669149Y-80014139D01*
X57485050Y-80009068D01*
X57351700Y-80022729D01*
X57351700Y-79651961D01*
X57497763Y-79635436D01*
X57551610Y-79631025D01*
X57733958Y-79639536D01*
G37*
X57733958Y-79639536D02*
X57907202Y-79681267D01*
X58059054Y-79752357D01*
X58177231Y-79848946D01*
X58228000Y-79905358D01*
X58253400Y-79683500D01*
X58462950Y-79676122D01*
X58672500Y-79668745D01*
X58672500Y-81931400D01*
X58240700Y-81931400D01*
X58240700Y-80538838D01*
X58157611Y-80377869D01*
X58108734Y-80296179D01*
X57987119Y-80161056D01*
X57838548Y-80065922D01*
X57669149Y-80014139D01*
X57485050Y-80009068D01*
X57351700Y-80022729D01*
X57351700Y-79651961D01*
X57497763Y-79635436D01*
X57551610Y-79631025D01*
X57733958Y-79639536D01*
G36*
X55998505Y-79658211D02*
G01*
X56168176Y-79664616D01*
X56300522Y-79683282D01*
X56406545Y-79717569D01*
X56497248Y-79770836D01*
X56583636Y-79846442D01*
X56665900Y-79928707D01*
X56665900Y-79670800D01*
X57097700Y-79670800D01*
X57097700Y-81931400D01*
X56665900Y-81931400D01*
X56665900Y-81262910D01*
X56665874Y-81206907D01*
X56664783Y-80982585D01*
X56661223Y-80801327D01*
X56654004Y-80656805D01*
X56641933Y-80542689D01*
X56623821Y-80452652D01*
X56598477Y-80380365D01*
X56564709Y-80319501D01*
X56521327Y-80263731D01*
X56467140Y-80206726D01*
X56387236Y-80136472D01*
X56275138Y-80071694D01*
X56145159Y-80036817D01*
X55982688Y-80026400D01*
X55928220Y-80027999D01*
X55759897Y-80057984D01*
X55624470Y-80125106D01*
X55523563Y-80228307D01*
X55458803Y-80366534D01*
X55450905Y-80397809D01*
X55440781Y-80460037D01*
X55433078Y-80543882D01*
X55427537Y-80655177D01*
X55423900Y-80799758D01*
X55421907Y-80983457D01*
X55421300Y-81212110D01*
X55421300Y-81931400D01*
X54989500Y-81931400D01*
X54989692Y-81264650D01*
X54990373Y-81115353D01*
X54992926Y-80931330D01*
X54997097Y-80762049D01*
X55002597Y-80616525D01*
X55009136Y-80503770D01*
X55016425Y-80432800D01*
X55027832Y-80370354D01*
X55091121Y-80161378D01*
X55188452Y-79988673D01*
X55321702Y-79849513D01*
X55492749Y-79741171D01*
X55546930Y-79715005D01*
X55610699Y-79688181D01*
X55671010Y-79671455D01*
X55741425Y-79662451D01*
X55835509Y-79658791D01*
X55966826Y-79658100D01*
X55998505Y-79658211D01*
G37*
X55998505Y-79658211D02*
X56168176Y-79664616D01*
X56300522Y-79683282D01*
X56406545Y-79717569D01*
X56497248Y-79770836D01*
X56583636Y-79846442D01*
X56665900Y-79928707D01*
X56665900Y-79670800D01*
X57097700Y-79670800D01*
X57097700Y-81931400D01*
X56665900Y-81931400D01*
X56665900Y-81262910D01*
X56665874Y-81206907D01*
X56664783Y-80982585D01*
X56661223Y-80801327D01*
X56654004Y-80656805D01*
X56641933Y-80542689D01*
X56623821Y-80452652D01*
X56598477Y-80380365D01*
X56564709Y-80319501D01*
X56521327Y-80263731D01*
X56467140Y-80206726D01*
X56387236Y-80136472D01*
X56275138Y-80071694D01*
X56145159Y-80036817D01*
X55982688Y-80026400D01*
X55928220Y-80027999D01*
X55759897Y-80057984D01*
X55624470Y-80125106D01*
X55523563Y-80228307D01*
X55458803Y-80366534D01*
X55450905Y-80397809D01*
X55440781Y-80460037D01*
X55433078Y-80543882D01*
X55427537Y-80655177D01*
X55423900Y-80799758D01*
X55421907Y-80983457D01*
X55421300Y-81212110D01*
X55421300Y-81931400D01*
X54989500Y-81931400D01*
X54989692Y-81264650D01*
X54990373Y-81115353D01*
X54992926Y-80931330D01*
X54997097Y-80762049D01*
X55002597Y-80616525D01*
X55009136Y-80503770D01*
X55016425Y-80432800D01*
X55027832Y-80370354D01*
X55091121Y-80161378D01*
X55188452Y-79988673D01*
X55321702Y-79849513D01*
X55492749Y-79741171D01*
X55546930Y-79715005D01*
X55610699Y-79688181D01*
X55671010Y-79671455D01*
X55741425Y-79662451D01*
X55835509Y-79658791D01*
X55966826Y-79658100D01*
X55998505Y-79658211D01*
D10*
X102957500Y-52730000D02*
X102957500Y-47330000D01*
X104457500Y-47330000D02*
X104457500Y-52730000D01*
X104457500Y-52730000D02*
X102957500Y-52730000D01*
X104457500Y-47330000D02*
X102957500Y-47330000D01*
X104207500Y-49530000D02*
X103207500Y-49530000D01*
X103207500Y-49530000D02*
X103707500Y-50430000D01*
X103707500Y-50430000D02*
X104207500Y-49530000D01*
X104207500Y-50530000D02*
X103207500Y-50530000D01*
X64957500Y-52730000D02*
X64957500Y-47330000D01*
X66457500Y-47330000D02*
X66457500Y-52730000D01*
X66457500Y-52730000D02*
X64957500Y-52730000D01*
X66457500Y-47330000D02*
X64957500Y-47330000D01*
X66207500Y-49530000D02*
X65207500Y-49530000D01*
X65207500Y-49530000D02*
X65707500Y-50430000D01*
X65707500Y-50430000D02*
X66207500Y-49530000D01*
X66207500Y-50530000D02*
X65207500Y-50530000D01*
X226464500Y-31350000D02*
X226464500Y-25950000D01*
X227964500Y-25950000D02*
X227964500Y-31350000D01*
X227964500Y-31350000D02*
X226464500Y-31350000D01*
X227964500Y-25950000D02*
X226464500Y-25950000D01*
X227714500Y-28150000D02*
X226714500Y-28150000D01*
X226714500Y-28150000D02*
X227214500Y-29050000D01*
X227214500Y-29050000D02*
X227714500Y-28150000D01*
X227714500Y-29150000D02*
X226714500Y-29150000D01*
X26984500Y-38476875D02*
X26984500Y-33076875D01*
X28484500Y-33076875D02*
X28484500Y-38476875D01*
X28484500Y-38476875D02*
X26984500Y-38476875D01*
X28484500Y-33076875D02*
X26984500Y-33076875D01*
X28234500Y-35276875D02*
X27234500Y-35276875D01*
X27234500Y-35276875D02*
X27734500Y-36176875D01*
X27734500Y-36176875D02*
X28234500Y-35276875D01*
X28234500Y-36276875D02*
X27234500Y-36276875D01*
X45984500Y-38480000D02*
X45984500Y-33080000D01*
X47484500Y-33080000D02*
X47484500Y-38480000D01*
X47484500Y-38480000D02*
X45984500Y-38480000D01*
X47484500Y-33080000D02*
X45984500Y-33080000D01*
X47234500Y-35280000D02*
X46234500Y-35280000D01*
X46234500Y-35280000D02*
X46734500Y-36180000D01*
X46734500Y-36180000D02*
X47234500Y-35280000D01*
X47234500Y-36280000D02*
X46234500Y-36280000D01*
X64957500Y-33480000D02*
X64957500Y-28080000D01*
X66457500Y-28080000D02*
X66457500Y-33480000D01*
X66457500Y-33480000D02*
X64957500Y-33480000D01*
X66457500Y-28080000D02*
X64957500Y-28080000D01*
X66207500Y-30280000D02*
X65207500Y-30280000D01*
X65207500Y-30280000D02*
X65707500Y-31180000D01*
X65707500Y-31180000D02*
X66207500Y-30280000D01*
X66207500Y-31280000D02*
X65207500Y-31280000D01*
X83957500Y-31355000D02*
X83957500Y-25955000D01*
X85457500Y-25955000D02*
X85457500Y-31355000D01*
X85457500Y-31355000D02*
X83957500Y-31355000D01*
X85457500Y-25955000D02*
X83957500Y-25955000D01*
X85207500Y-28155000D02*
X84207500Y-28155000D01*
X84207500Y-28155000D02*
X84707500Y-29055000D01*
X84707500Y-29055000D02*
X85207500Y-28155000D01*
X85207500Y-29155000D02*
X84207500Y-29155000D01*
X102957500Y-33730000D02*
X102957500Y-28330000D01*
X104457500Y-28330000D02*
X104457500Y-33730000D01*
X104457500Y-33730000D02*
X102957500Y-33730000D01*
X104457500Y-28330000D02*
X102957500Y-28330000D01*
X104207500Y-30530000D02*
X103207500Y-30530000D01*
X103207500Y-30530000D02*
X103707500Y-31430000D01*
X103707500Y-31430000D02*
X104207500Y-30530000D01*
X104207500Y-31530000D02*
X103207500Y-31530000D01*
X121957500Y-36105000D02*
X121957500Y-30705000D01*
X123457500Y-30705000D02*
X123457500Y-36105000D01*
X123457500Y-36105000D02*
X121957500Y-36105000D01*
X123457500Y-30705000D02*
X121957500Y-30705000D01*
X123207500Y-32905000D02*
X122207500Y-32905000D01*
X122207500Y-32905000D02*
X122707500Y-33805000D01*
X122707500Y-33805000D02*
X123207500Y-32905000D01*
X123207500Y-33905000D02*
X122207500Y-33905000D01*
X26984500Y-57476875D02*
X26984500Y-52076875D01*
X28484500Y-52076875D02*
X28484500Y-57476875D01*
X28484500Y-57476875D02*
X26984500Y-57476875D01*
X28484500Y-52076875D02*
X26984500Y-52076875D01*
X28234500Y-54276875D02*
X27234500Y-54276875D01*
X27234500Y-54276875D02*
X27734500Y-55176875D01*
X27734500Y-55176875D02*
X28234500Y-54276875D01*
X28234500Y-55276875D02*
X27234500Y-55276875D01*
X45984500Y-57480000D02*
X45984500Y-52080000D01*
X47484500Y-52080000D02*
X47484500Y-57480000D01*
X47484500Y-57480000D02*
X45984500Y-57480000D01*
X47484500Y-52080000D02*
X45984500Y-52080000D01*
X47234500Y-54280000D02*
X46234500Y-54280000D01*
X46234500Y-54280000D02*
X46734500Y-55180000D01*
X46734500Y-55180000D02*
X47234500Y-54280000D01*
X47234500Y-55280000D02*
X46234500Y-55280000D01*
X83957500Y-50355000D02*
X83957500Y-44955000D01*
X85457500Y-44955000D02*
X85457500Y-50355000D01*
X85457500Y-50355000D02*
X83957500Y-50355000D01*
X85457500Y-44955000D02*
X83957500Y-44955000D01*
X85207500Y-47155000D02*
X84207500Y-47155000D01*
X84207500Y-47155000D02*
X84707500Y-48055000D01*
X84707500Y-48055000D02*
X85207500Y-47155000D01*
X85207500Y-48155000D02*
X84207500Y-48155000D01*
X121957500Y-55105000D02*
X121957500Y-49705000D01*
X123457500Y-49705000D02*
X123457500Y-55105000D01*
X123457500Y-55105000D02*
X121957500Y-55105000D01*
X123457500Y-49705000D02*
X121957500Y-49705000D01*
X123207500Y-51905000D02*
X122207500Y-51905000D01*
X122207500Y-51905000D02*
X122707500Y-52805000D01*
X122707500Y-52805000D02*
X123207500Y-51905000D01*
X123207500Y-52905000D02*
X122207500Y-52905000D01*
X26984500Y-76476875D02*
X26984500Y-71076875D01*
X28484500Y-71076875D02*
X28484500Y-76476875D01*
X28484500Y-76476875D02*
X26984500Y-76476875D01*
X28484500Y-71076875D02*
X26984500Y-71076875D01*
X28234500Y-73276875D02*
X27234500Y-73276875D01*
X27234500Y-73276875D02*
X27734500Y-74176875D01*
X27734500Y-74176875D02*
X28234500Y-73276875D01*
X28234500Y-74276875D02*
X27234500Y-74276875D01*
X45984500Y-76480000D02*
X45984500Y-71080000D01*
X47484500Y-71080000D02*
X47484500Y-76480000D01*
X47484500Y-76480000D02*
X45984500Y-76480000D01*
X47484500Y-71080000D02*
X45984500Y-71080000D01*
X47234500Y-73280000D02*
X46234500Y-73280000D01*
X46234500Y-73280000D02*
X46734500Y-74180000D01*
X46734500Y-74180000D02*
X47234500Y-73280000D01*
X47234500Y-74280000D02*
X46234500Y-74280000D01*
X64957500Y-71730000D02*
X64957500Y-66330000D01*
X66457500Y-66330000D02*
X66457500Y-71730000D01*
X66457500Y-71730000D02*
X64957500Y-71730000D01*
X66457500Y-66330000D02*
X64957500Y-66330000D01*
X66207500Y-68530000D02*
X65207500Y-68530000D01*
X65207500Y-68530000D02*
X65707500Y-69430000D01*
X65707500Y-69430000D02*
X66207500Y-68530000D01*
X66207500Y-69530000D02*
X65207500Y-69530000D01*
X83957500Y-69355000D02*
X83957500Y-63955000D01*
X85457500Y-63955000D02*
X85457500Y-69355000D01*
X85457500Y-69355000D02*
X83957500Y-69355000D01*
X85457500Y-63955000D02*
X83957500Y-63955000D01*
X85207500Y-66155000D02*
X84207500Y-66155000D01*
X84207500Y-66155000D02*
X84707500Y-67055000D01*
X84707500Y-67055000D02*
X85207500Y-66155000D01*
X85207500Y-67155000D02*
X84207500Y-67155000D01*
X102957500Y-71730000D02*
X102957500Y-66330000D01*
X104457500Y-66330000D02*
X104457500Y-71730000D01*
X104457500Y-71730000D02*
X102957500Y-71730000D01*
X104457500Y-66330000D02*
X102957500Y-66330000D01*
X104207500Y-68530000D02*
X103207500Y-68530000D01*
X103207500Y-68530000D02*
X103707500Y-69430000D01*
X103707500Y-69430000D02*
X104207500Y-68530000D01*
X104207500Y-69530000D02*
X103207500Y-69530000D01*
X121957500Y-74105000D02*
X121957500Y-68705000D01*
X123457500Y-68705000D02*
X123457500Y-74105000D01*
X123457500Y-74105000D02*
X121957500Y-74105000D01*
X123457500Y-68705000D02*
X121957500Y-68705000D01*
X123207500Y-70905000D02*
X122207500Y-70905000D01*
X122207500Y-70905000D02*
X122707500Y-71805000D01*
X122707500Y-71805000D02*
X123207500Y-70905000D01*
X123207500Y-71905000D02*
X122207500Y-71905000D01*
X75407500Y-91470000D02*
X75407500Y-86070000D01*
X76907500Y-86070000D02*
X76907500Y-91470000D01*
X76907500Y-91470000D02*
X75407500Y-91470000D01*
X76907500Y-86070000D02*
X75407500Y-86070000D01*
X76657500Y-88270000D02*
X75657500Y-88270000D01*
X75657500Y-88270000D02*
X76157500Y-89170000D01*
X76157500Y-89170000D02*
X76657500Y-88270000D01*
X76657500Y-89270000D02*
X75657500Y-89270000D01*
X94414500Y-91465000D02*
X94414500Y-86065000D01*
X95914500Y-86065000D02*
X95914500Y-91465000D01*
X95914500Y-91465000D02*
X94414500Y-91465000D01*
X95914500Y-86065000D02*
X94414500Y-86065000D01*
X95664500Y-88265000D02*
X94664500Y-88265000D01*
X94664500Y-88265000D02*
X95164500Y-89165000D01*
X95164500Y-89165000D02*
X95664500Y-88265000D01*
X95664500Y-89265000D02*
X94664500Y-89265000D01*
X97257500Y-91465000D02*
X97257500Y-86065000D01*
X98757500Y-86065000D02*
X98757500Y-91465000D01*
X98757500Y-91465000D02*
X97257500Y-91465000D01*
X98757500Y-86065000D02*
X97257500Y-86065000D01*
X98507500Y-88265000D02*
X97507500Y-88265000D01*
X97507500Y-88265000D02*
X98007500Y-89165000D01*
X98007500Y-89165000D02*
X98507500Y-88265000D01*
X98507500Y-89265000D02*
X97507500Y-89265000D01*
X283464500Y-38475000D02*
X283464500Y-33075000D01*
X284964500Y-33075000D02*
X284964500Y-38475000D01*
X284964500Y-38475000D02*
X283464500Y-38475000D01*
X284964500Y-33075000D02*
X283464500Y-33075000D01*
X284714500Y-35275000D02*
X283714500Y-35275000D01*
X283714500Y-35275000D02*
X284214500Y-36175000D01*
X284214500Y-36175000D02*
X284714500Y-35275000D01*
X284714500Y-36275000D02*
X283714500Y-36275000D01*
X264464500Y-38475000D02*
X264464500Y-33075000D01*
X265964500Y-33075000D02*
X265964500Y-38475000D01*
X265964500Y-38475000D02*
X264464500Y-38475000D01*
X265964500Y-33075000D02*
X264464500Y-33075000D01*
X265714500Y-35275000D02*
X264714500Y-35275000D01*
X264714500Y-35275000D02*
X265214500Y-36175000D01*
X265214500Y-36175000D02*
X265714500Y-35275000D01*
X265714500Y-36275000D02*
X264714500Y-36275000D01*
X245464500Y-33725000D02*
X245464500Y-28325000D01*
X246964500Y-28325000D02*
X246964500Y-33725000D01*
X246964500Y-33725000D02*
X245464500Y-33725000D01*
X246964500Y-28325000D02*
X245464500Y-28325000D01*
X246714500Y-30525000D02*
X245714500Y-30525000D01*
X245714500Y-30525000D02*
X246214500Y-31425000D01*
X246214500Y-31425000D02*
X246714500Y-30525000D01*
X246714500Y-31525000D02*
X245714500Y-31525000D01*
X207464500Y-33725000D02*
X207464500Y-28325000D01*
X208964500Y-28325000D02*
X208964500Y-33725000D01*
X208964500Y-33725000D02*
X207464500Y-33725000D01*
X208964500Y-28325000D02*
X207464500Y-28325000D01*
X208714500Y-30525000D02*
X207714500Y-30525000D01*
X207714500Y-30525000D02*
X208214500Y-31425000D01*
X208214500Y-31425000D02*
X208714500Y-30525000D01*
X208714500Y-31525000D02*
X207714500Y-31525000D01*
X188457500Y-36105000D02*
X188457500Y-30705000D01*
X189957500Y-30705000D02*
X189957500Y-36105000D01*
X189957500Y-36105000D02*
X188457500Y-36105000D01*
X189957500Y-30705000D02*
X188457500Y-30705000D01*
X189707500Y-32905000D02*
X188707500Y-32905000D01*
X188707500Y-32905000D02*
X189207500Y-33805000D01*
X189207500Y-33805000D02*
X189707500Y-32905000D01*
X189707500Y-33905000D02*
X188707500Y-33905000D01*
X283464500Y-57325000D02*
X283464500Y-51925000D01*
X284964500Y-51925000D02*
X284964500Y-57325000D01*
X284964500Y-57325000D02*
X283464500Y-57325000D01*
X284964500Y-51925000D02*
X283464500Y-51925000D01*
X284714500Y-54125000D02*
X283714500Y-54125000D01*
X283714500Y-54125000D02*
X284214500Y-55025000D01*
X284214500Y-55025000D02*
X284714500Y-54125000D01*
X284714500Y-55125000D02*
X283714500Y-55125000D01*
X264464500Y-57475000D02*
X264464500Y-52075000D01*
X265964500Y-52075000D02*
X265964500Y-57475000D01*
X265964500Y-57475000D02*
X264464500Y-57475000D01*
X265964500Y-52075000D02*
X264464500Y-52075000D01*
X265714500Y-54275000D02*
X264714500Y-54275000D01*
X264714500Y-54275000D02*
X265214500Y-55175000D01*
X265214500Y-55175000D02*
X265714500Y-54275000D01*
X265714500Y-55275000D02*
X264714500Y-55275000D01*
X245464500Y-52725000D02*
X245464500Y-47325000D01*
X246964500Y-47325000D02*
X246964500Y-52725000D01*
X246964500Y-52725000D02*
X245464500Y-52725000D01*
X246964500Y-47325000D02*
X245464500Y-47325000D01*
X246714500Y-49525000D02*
X245714500Y-49525000D01*
X245714500Y-49525000D02*
X246214500Y-50425000D01*
X246214500Y-50425000D02*
X246714500Y-49525000D01*
X246714500Y-50525000D02*
X245714500Y-50525000D01*
X226464500Y-50350000D02*
X226464500Y-44950000D01*
X227964500Y-44950000D02*
X227964500Y-50350000D01*
X227964500Y-50350000D02*
X226464500Y-50350000D01*
X227964500Y-44950000D02*
X226464500Y-44950000D01*
X227714500Y-47150000D02*
X226714500Y-47150000D01*
X226714500Y-47150000D02*
X227214500Y-48050000D01*
X227214500Y-48050000D02*
X227714500Y-47150000D01*
X227714500Y-48150000D02*
X226714500Y-48150000D01*
X207464500Y-52725000D02*
X207464500Y-47325000D01*
X208964500Y-47325000D02*
X208964500Y-52725000D01*
X208964500Y-52725000D02*
X207464500Y-52725000D01*
X208964500Y-47325000D02*
X207464500Y-47325000D01*
X208714500Y-49525000D02*
X207714500Y-49525000D01*
X207714500Y-49525000D02*
X208214500Y-50425000D01*
X208214500Y-50425000D02*
X208714500Y-49525000D01*
X208714500Y-50525000D02*
X207714500Y-50525000D01*
X188457500Y-55105000D02*
X188457500Y-49705000D01*
X189957500Y-49705000D02*
X189957500Y-55105000D01*
X189957500Y-55105000D02*
X188457500Y-55105000D01*
X189957500Y-49705000D02*
X188457500Y-49705000D01*
X189707500Y-51905000D02*
X188707500Y-51905000D01*
X188707500Y-51905000D02*
X189207500Y-52805000D01*
X189207500Y-52805000D02*
X189707500Y-51905000D01*
X189707500Y-52905000D02*
X188707500Y-52905000D01*
X283464500Y-76475000D02*
X283464500Y-71075000D01*
X284964500Y-71075000D02*
X284964500Y-76475000D01*
X284964500Y-76475000D02*
X283464500Y-76475000D01*
X284964500Y-71075000D02*
X283464500Y-71075000D01*
X284714500Y-73275000D02*
X283714500Y-73275000D01*
X283714500Y-73275000D02*
X284214500Y-74175000D01*
X284214500Y-74175000D02*
X284714500Y-73275000D01*
X284714500Y-74275000D02*
X283714500Y-74275000D01*
X264464500Y-76475000D02*
X264464500Y-71075000D01*
X265964500Y-71075000D02*
X265964500Y-76475000D01*
X265964500Y-76475000D02*
X264464500Y-76475000D01*
X265964500Y-71075000D02*
X264464500Y-71075000D01*
X265714500Y-73275000D02*
X264714500Y-73275000D01*
X264714500Y-73275000D02*
X265214500Y-74175000D01*
X265214500Y-74175000D02*
X265714500Y-73275000D01*
X265714500Y-74275000D02*
X264714500Y-74275000D01*
X245464500Y-71725000D02*
X245464500Y-66325000D01*
X246964500Y-66325000D02*
X246964500Y-71725000D01*
X246964500Y-71725000D02*
X245464500Y-71725000D01*
X246964500Y-66325000D02*
X245464500Y-66325000D01*
X246714500Y-68525000D02*
X245714500Y-68525000D01*
X245714500Y-68525000D02*
X246214500Y-69425000D01*
X246214500Y-69425000D02*
X246714500Y-68525000D01*
X246714500Y-69525000D02*
X245714500Y-69525000D01*
X226464500Y-69350000D02*
X226464500Y-63950000D01*
X227964500Y-63950000D02*
X227964500Y-69350000D01*
X227964500Y-69350000D02*
X226464500Y-69350000D01*
X227964500Y-63950000D02*
X226464500Y-63950000D01*
X227714500Y-66150000D02*
X226714500Y-66150000D01*
X226714500Y-66150000D02*
X227214500Y-67050000D01*
X227214500Y-67050000D02*
X227714500Y-66150000D01*
X227714500Y-67150000D02*
X226714500Y-67150000D01*
X207464500Y-71725000D02*
X207464500Y-66325000D01*
X208964500Y-66325000D02*
X208964500Y-71725000D01*
X208964500Y-71725000D02*
X207464500Y-71725000D01*
X208964500Y-66325000D02*
X207464500Y-66325000D01*
X208714500Y-68525000D02*
X207714500Y-68525000D01*
X207714500Y-68525000D02*
X208214500Y-69425000D01*
X208214500Y-69425000D02*
X208714500Y-68525000D01*
X208714500Y-69525000D02*
X207714500Y-69525000D01*
X188457500Y-74105000D02*
X188457500Y-68705000D01*
X189957500Y-68705000D02*
X189957500Y-74105000D01*
X189957500Y-74105000D02*
X188457500Y-74105000D01*
X189957500Y-68705000D02*
X188457500Y-68705000D01*
X189707500Y-70905000D02*
X188707500Y-70905000D01*
X188707500Y-70905000D02*
X189207500Y-71805000D01*
X189207500Y-71805000D02*
X189707500Y-70905000D01*
X189707500Y-71905000D02*
X188707500Y-71905000D01*
X216964500Y-91335000D02*
X216964500Y-85935000D01*
X218464500Y-85935000D02*
X218464500Y-91335000D01*
X218464500Y-91335000D02*
X216964500Y-91335000D01*
X218464500Y-85935000D02*
X216964500Y-85935000D01*
X218214500Y-88135000D02*
X217214500Y-88135000D01*
X217214500Y-88135000D02*
X217714500Y-89035000D01*
X217714500Y-89035000D02*
X218214500Y-88135000D01*
X218214500Y-89135000D02*
X217214500Y-89135000D01*
X198914500Y-91350000D02*
X198914500Y-85950000D01*
X200414500Y-85950000D02*
X200414500Y-91350000D01*
X200414500Y-91350000D02*
X198914500Y-91350000D01*
X200414500Y-85950000D02*
X198914500Y-85950000D01*
X200164500Y-88150000D02*
X199164500Y-88150000D01*
X199164500Y-88150000D02*
X199664500Y-89050000D01*
X199664500Y-89050000D02*
X200164500Y-88150000D01*
X200164500Y-89150000D02*
X199164500Y-89150000D01*
X196064500Y-91350000D02*
X196064500Y-85950000D01*
X197564500Y-85950000D02*
X197564500Y-91350000D01*
X197564500Y-91350000D02*
X196064500Y-91350000D01*
X197564500Y-85950000D02*
X196064500Y-85950000D01*
X197314500Y-88150000D02*
X196314500Y-88150000D01*
X196314500Y-88150000D02*
X196814500Y-89050000D01*
X196814500Y-89050000D02*
X197314500Y-88150000D01*
X197314500Y-89150000D02*
X196314500Y-89150000D01*
M02*
