M48
; DRILL file {KiCad (6.0.7)} date Sat Sep 24 11:56:45 2022
; FORMAT={-:-/ absolute / inch / decimal}
; #@! TF.CreationDate,2022-09-24T11:56:45+09:00
; #@! TF.GenerationSoftware,Kicad,Pcbnew,(6.0.7)
; #@! TF.FileFunction,Plated,1,2,PTH
FMAT,2
INCH
; #@! TA.AperFunction,Plated,PTH,ViaDrill
T1C0.0157
; #@! TA.AperFunction,Plated,PTH,ComponentDrill
T2C0.0320
; #@! TA.AperFunction,Plated,PTH,ComponentDrill
T3C0.0394
; #@! TA.AperFunction,Plated,PTH,ComponentDrill
T4C0.0512
%
G90
G05
T1
X0.5121Y-1.386
X0.5121Y-1.9766
X0.5121Y-2.1341
X0.5121Y-2.6262
X0.5121Y-2.7246
X0.9294Y-3.2049
X0.9452Y-2.4608
X0.9491Y-1.5789
X0.957Y-1.7154
X0.957Y-2.323
X0.9607Y-1.6382
X1.2483Y-2.1419
X1.2585Y-1.9762
X1.2601Y-1.386
X1.2641Y-2.7246
X1.2912Y-2.5943
X1.2966Y-2.2758
X1.3005Y-1.5199
X1.3034Y-1.9175
X1.331Y-1.5435
X1.3672Y-2.4693
X1.3822Y-3.1222
X1.394Y-1.8112
X1.394Y-2.3781
X1.3979Y-1.6222
X1.3979Y-2.5632
X1.4609Y-3.203
X1.6814Y-2.3112
X1.6814Y-3.0593
X1.6893Y-1.5632
X1.9806Y-1.3821
X2.0082Y-1.201
X2.0082Y-1.7915
X2.0082Y-1.949
X2.0082Y-2.5396
X2.0121Y-1.0435
X2.07Y-2.4084
X2.3889Y-2.9738
X2.3901Y-2.2305
X2.4373Y-1.39
X2.4373Y-3.0396
X2.4422Y-2.8821
X2.4452Y-1.4943
X2.4501Y-2.1498
X2.4562Y-1.427
X2.7316Y-2.4136
X2.7316Y-2.6931
X2.7562Y-1.1065
X2.7562Y-1.697
X2.7562Y-1.8545
X2.7562Y-2.4451
X2.7562Y-2.5868
X2.7719Y-2.3506
X2.7808Y-1.2443
X2.7808Y-2.7443
X2.7838Y-2.6931
X2.7956Y-1.2797
X2.8645Y-2.9307
X2.8861Y-1.3427
X2.8901Y-2.0907
X2.8901Y-2.8388
X2.894Y-1.5317
X2.894Y-3.0238
X3.1302Y-3.3191
X3.1814Y-1.2837
X3.1814Y-2.0356
X3.1814Y-2.7837
X3.2641Y-3.7049
X3.5042Y-1.201
X3.5042Y-1.7915
X3.5042Y-1.949
X3.5042Y-2.5396
X3.5042Y-2.697
X3.52Y-2.3742
X3.5554Y-3.6498
X3.8822Y-2.2344
X3.8901Y-2.9805
X3.9324Y-1.4746
X3.9334Y-2.886
X3.9373Y-3.3545
X3.9545Y-1.3781
X3.9605Y-1.4126
X3.9708Y-2.1616
X4.0436Y-3.764
X4.2523Y-1.2915
X4.2523Y-1.886
X4.2523Y-2.0396
X4.2523Y-2.6301
X4.2523Y-2.7876
X4.268Y-2.4726
X4.2769Y-2.9293
X4.2859Y-1.4328
X4.3135Y-1.449
X4.3389Y-3.8073
X4.3822Y-2.2758
X4.3861Y-1.5317
X4.3861Y-3.0278
X4.3861Y-3.2207
X4.3901Y-1.7207
X4.642Y-2.327
X4.6696Y-2.2207
X4.6775Y-1.4726
X4.6775Y-2.9687
X4.6814Y-2.1695
X4.6853Y-3.2522
X4.8271Y-3.8978
X4.8664Y-2.1341
X4.9058Y-2.7167
X4.9137Y-1.4293
X4.9137Y-2.7876
X4.9196Y-1.6104
X4.9723Y-3.0435
X4.9801Y-3.4009
X5.2247Y-3.9805
X5.3229Y-3.7052
X5.3365Y-3.1087
X6.3125Y-3.7258
X6.3704Y-3.0593
X6.5042Y-3.9549
X6.5704Y-3.4124
X6.5792Y-3.3712
X6.7348Y-1.2358
X6.7633Y-2.3974
X6.766Y-1.5868
X6.7691Y-1.4254
X6.7928Y-2.3116
X6.7995Y-2.049
X6.8251Y-1.6148
X6.8251Y-1.8215
X6.8621Y-2.4809
X6.8668Y-2.7825
X6.8704Y-1.2915
X6.8704Y-1.8821
X6.8704Y-2.6341
X6.8743Y-2.0435
X6.8989Y-2.2998
X6.8989Y-2.4606
X6.968Y-2.9404
X6.97Y-3.2435
X6.9702Y-3.2935
X6.9785Y-1.7508
X6.9964Y-3.0329
X6.9991Y-1.4427
X7.0054Y-2.2781
X7.0094Y-1.5317
X7.1334Y-3.4998
X7.2968Y-2.2199
X7.2979Y-2.9734
X7.3601Y-3.838
X7.6038Y-2.436
X7.6184Y-1.197
X7.6184Y-1.7915
X7.6184Y-1.9411
X7.6184Y-2.5396
X7.6188Y-2.69
X7.7503Y-2.9278
X7.7523Y-2.1797
X7.9956Y-3.3203
X8.0444Y-2.8833
X8.0471Y-2.1317
X8.0487Y-1.3852
X8.3507Y-2.3236
X8.3664Y-1.1026
X8.3664Y-1.697
X8.3664Y-1.8545
X8.3664Y-2.449
X8.3684Y-2.5978
X8.3916Y-2.322
X8.416Y-3.651
X8.4381Y-2.9829
X8.4706Y-1.5633
X8.4731Y-3.062
X8.4747Y-2.7526
X8.4763Y-1.262
X8.4999Y-2.0927
X8.5042Y-2.84
X8.5058Y-1.3427
X8.7887Y-2.0429
X8.79Y-2.7845
X9.1037Y-2.3037
X9.1145Y-1.1931
X9.1145Y-1.7915
X9.1184Y-1.949
X9.1184Y-2.5396
X9.2483Y-2.9274
X9.2511Y-2.1793
X9.5385Y-2.1376
X9.5408Y-1.3837
X9.8424Y-2.5236
X9.8625Y-1.3821
X9.8625Y-1.9805
X9.8625Y-2.1341
X9.8625Y-2.7246
X9.9674Y-2.588
X9.973Y-1.8487
X9.9834Y-2.2837
X9.9905Y-1.5333
X10.0003Y-2.3789
X10.0066Y-1.6281
X10.2877Y-2.3128
X10.2885Y-3.0612
X10.6009Y-2.456
X10.6017Y-1.8589
X10.6105Y-2.7285
X10.6121Y-2.6201
X10.6139Y-1.9766
X10.6145Y-1.386
X10.6149Y-2.1478
X10.7471Y-2.3691
X10.7527Y-3.1203
X11.0361Y-1.5734
X11.0381Y-2.3187
T2
X5.008Y-1.2576
X5.008Y-1.3576
X5.008Y-1.4576
X5.008Y-1.5576
X5.008Y-1.6576
X5.008Y-1.7576
X5.008Y-1.8576
X5.008Y-1.9576
X5.008Y-2.0576
X5.008Y-2.1576
X5.008Y-2.2576
X5.008Y-2.3576
X5.1555Y-2.6389
X5.2555Y-2.6389
X5.3555Y-2.6389
X5.4555Y-2.6389
X5.6072Y-1.2576
X5.6072Y-1.3576
X5.6072Y-1.4576
X5.6072Y-1.5576
X5.6072Y-1.6576
X5.6072Y-1.7576
X5.6072Y-1.8576
X5.6072Y-1.9576
X5.6072Y-2.0576
X5.6072Y-2.1576
X5.6072Y-2.2576
X5.6072Y-2.3576
X6.0779Y-1.2564
X6.0779Y-1.3564
X6.0779Y-1.4564
X6.0779Y-1.5564
X6.0779Y-1.6564
X6.0779Y-1.7564
X6.0779Y-1.8564
X6.0779Y-1.9564
X6.0779Y-2.0564
X6.0779Y-2.1564
X6.0779Y-2.2564
X6.0779Y-2.3564
X6.2275Y-2.6386
X6.3275Y-2.6386
X6.4275Y-2.6386
X6.5275Y-2.6386
X6.6771Y-1.2564
X6.6771Y-1.3564
X6.6771Y-1.4564
X6.6771Y-1.5564
X6.6771Y-1.6564
X6.6771Y-1.7564
X6.6771Y-1.8564
X6.6771Y-1.9564
X6.6771Y-2.0564
X6.6771Y-2.1564
X6.6771Y-2.2564
X6.6771Y-2.3564
T4
X5.6073Y-2.4914
X5.6073Y-2.7473
X6.075Y-2.491
X6.075Y-2.7469
T3
G00X5.2199Y-2.8422
M15
G01X5.2002Y-2.8422
M16
G05
G00X5.2789Y-3.0076
M15
G01X5.2592Y-3.0076
M16
G05
G00X5.4364Y-3.0076
M15
G01X5.4167Y-3.0076
M16
G05
G00X5.5545Y-3.0076
M15
G01X5.5348Y-3.0076
M16
G05
G00X6.1255Y-2.8413
M15
G01X6.1452Y-2.8413
M16
G05
G00X6.2436Y-2.8413
M15
G01X6.2633Y-2.8413
M16
G05
G00X6.4011Y-2.8413
M15
G01X6.4208Y-2.8413
M16
G05
G00X6.4601Y-3.0067
M15
G01X6.4798Y-3.0067
M16
G05
T0
M30
